%TF.GenerationSoftware,KiCad,Pcbnew,8.0.5*%
%TF.CreationDate,2024-10-09T16:00:05-04:00*%
%TF.ProjectId,teensy_arena_12-12,7465656e-7379-45f6-9172-656e615f3132,v0.2.1*%
%TF.SameCoordinates,Original*%
%TF.FileFunction,Legend,Bot*%
%TF.FilePolarity,Positive*%
%FSLAX46Y46*%
G04 Gerber Fmt 4.6, Leading zero omitted, Abs format (unit mm)*
G04 Created by KiCad (PCBNEW 8.0.5) date 2024-10-09 16:00:05*
%MOMM*%
%LPD*%
G01*
G04 APERTURE LIST*
G04 Aperture macros list*
%AMRotRect*
0 Rectangle, with rotation*
0 The origin of the aperture is its center*
0 $1 length*
0 $2 width*
0 $3 Rotation angle, in degrees counterclockwise*
0 Add horizontal line*
21,1,$1,$2,0,0,$3*%
G04 Aperture macros list end*
%ADD10C,0.300000*%
%ADD11C,9.000000*%
%ADD12R,1.600000X1.600000*%
%ADD13C,1.600000*%
%ADD14RotRect,1.600000X1.600000X240.000000*%
%ADD15C,2.540000*%
%ADD16RotRect,1.600000X1.600000X150.000000*%
%ADD17RotRect,1.600000X1.600000X210.000000*%
%ADD18C,3.556000*%
%ADD19C,1.930400*%
%ADD20C,4.064000*%
%ADD21RotRect,1.600000X1.600000X30.000000*%
%ADD22RotRect,1.600000X1.600000X200.000000*%
%ADD23RotRect,1.300000X1.300000X200.000000*%
%ADD24C,1.300000*%
%ADD25RotRect,1.600000X1.600000X60.000000*%
%ADD26RotRect,1.600000X1.600000X120.000000*%
%ADD27RotRect,1.600000X1.600000X300.000000*%
%ADD28RotRect,1.600000X1.600000X330.000000*%
G04 APERTURE END LIST*
D10*
X68634828Y-91994510D02*
X67134828Y-91994510D01*
X68634828Y-92637368D02*
X67849114Y-92637368D01*
X67849114Y-92637368D02*
X67706257Y-92565939D01*
X67706257Y-92565939D02*
X67634828Y-92423082D01*
X67634828Y-92423082D02*
X67634828Y-92208796D01*
X67634828Y-92208796D02*
X67706257Y-92065939D01*
X67706257Y-92065939D02*
X67777685Y-91994510D01*
X67634828Y-93137368D02*
X67634828Y-93708796D01*
X67134828Y-93351653D02*
X68420542Y-93351653D01*
X68420542Y-93351653D02*
X68563400Y-93423082D01*
X68563400Y-93423082D02*
X68634828Y-93565939D01*
X68634828Y-93565939D02*
X68634828Y-93708796D01*
X67634828Y-93994511D02*
X67634828Y-94565939D01*
X67134828Y-94208796D02*
X68420542Y-94208796D01*
X68420542Y-94208796D02*
X68563400Y-94280225D01*
X68563400Y-94280225D02*
X68634828Y-94423082D01*
X68634828Y-94423082D02*
X68634828Y-94565939D01*
X67634828Y-95065939D02*
X69134828Y-95065939D01*
X67706257Y-95065939D02*
X67634828Y-95208797D01*
X67634828Y-95208797D02*
X67634828Y-95494511D01*
X67634828Y-95494511D02*
X67706257Y-95637368D01*
X67706257Y-95637368D02*
X67777685Y-95708797D01*
X67777685Y-95708797D02*
X67920542Y-95780225D01*
X67920542Y-95780225D02*
X68349114Y-95780225D01*
X68349114Y-95780225D02*
X68491971Y-95708797D01*
X68491971Y-95708797D02*
X68563400Y-95637368D01*
X68563400Y-95637368D02*
X68634828Y-95494511D01*
X68634828Y-95494511D02*
X68634828Y-95208797D01*
X68634828Y-95208797D02*
X68563400Y-95065939D01*
X68563400Y-96351654D02*
X68634828Y-96494511D01*
X68634828Y-96494511D02*
X68634828Y-96780225D01*
X68634828Y-96780225D02*
X68563400Y-96923082D01*
X68563400Y-96923082D02*
X68420542Y-96994511D01*
X68420542Y-96994511D02*
X68349114Y-96994511D01*
X68349114Y-96994511D02*
X68206257Y-96923082D01*
X68206257Y-96923082D02*
X68134828Y-96780225D01*
X68134828Y-96780225D02*
X68134828Y-96565940D01*
X68134828Y-96565940D02*
X68063400Y-96423082D01*
X68063400Y-96423082D02*
X67920542Y-96351654D01*
X67920542Y-96351654D02*
X67849114Y-96351654D01*
X67849114Y-96351654D02*
X67706257Y-96423082D01*
X67706257Y-96423082D02*
X67634828Y-96565940D01*
X67634828Y-96565940D02*
X67634828Y-96780225D01*
X67634828Y-96780225D02*
X67706257Y-96923082D01*
X68491971Y-97637368D02*
X68563400Y-97708797D01*
X68563400Y-97708797D02*
X68634828Y-97637368D01*
X68634828Y-97637368D02*
X68563400Y-97565940D01*
X68563400Y-97565940D02*
X68491971Y-97637368D01*
X68491971Y-97637368D02*
X68634828Y-97637368D01*
X67706257Y-97637368D02*
X67777685Y-97708797D01*
X67777685Y-97708797D02*
X67849114Y-97637368D01*
X67849114Y-97637368D02*
X67777685Y-97565940D01*
X67777685Y-97565940D02*
X67706257Y-97637368D01*
X67706257Y-97637368D02*
X67849114Y-97637368D01*
X67063400Y-99423083D02*
X68991971Y-98137369D01*
X67063400Y-100994512D02*
X68991971Y-99708798D01*
X68634828Y-101494512D02*
X67634828Y-101494512D01*
X67920542Y-101494512D02*
X67777685Y-101565941D01*
X67777685Y-101565941D02*
X67706257Y-101637370D01*
X67706257Y-101637370D02*
X67634828Y-101780227D01*
X67634828Y-101780227D02*
X67634828Y-101923084D01*
X68563400Y-102994512D02*
X68634828Y-102851655D01*
X68634828Y-102851655D02*
X68634828Y-102565941D01*
X68634828Y-102565941D02*
X68563400Y-102423083D01*
X68563400Y-102423083D02*
X68420542Y-102351655D01*
X68420542Y-102351655D02*
X67849114Y-102351655D01*
X67849114Y-102351655D02*
X67706257Y-102423083D01*
X67706257Y-102423083D02*
X67634828Y-102565941D01*
X67634828Y-102565941D02*
X67634828Y-102851655D01*
X67634828Y-102851655D02*
X67706257Y-102994512D01*
X67706257Y-102994512D02*
X67849114Y-103065941D01*
X67849114Y-103065941D02*
X67991971Y-103065941D01*
X67991971Y-103065941D02*
X68134828Y-102351655D01*
X68634828Y-103708797D02*
X67634828Y-103708797D01*
X67134828Y-103708797D02*
X67206257Y-103637369D01*
X67206257Y-103637369D02*
X67277685Y-103708797D01*
X67277685Y-103708797D02*
X67206257Y-103780226D01*
X67206257Y-103780226D02*
X67134828Y-103708797D01*
X67134828Y-103708797D02*
X67277685Y-103708797D01*
X68563400Y-104351655D02*
X68634828Y-104494512D01*
X68634828Y-104494512D02*
X68634828Y-104780226D01*
X68634828Y-104780226D02*
X68563400Y-104923083D01*
X68563400Y-104923083D02*
X68420542Y-104994512D01*
X68420542Y-104994512D02*
X68349114Y-104994512D01*
X68349114Y-104994512D02*
X68206257Y-104923083D01*
X68206257Y-104923083D02*
X68134828Y-104780226D01*
X68134828Y-104780226D02*
X68134828Y-104565941D01*
X68134828Y-104565941D02*
X68063400Y-104423083D01*
X68063400Y-104423083D02*
X67920542Y-104351655D01*
X67920542Y-104351655D02*
X67849114Y-104351655D01*
X67849114Y-104351655D02*
X67706257Y-104423083D01*
X67706257Y-104423083D02*
X67634828Y-104565941D01*
X67634828Y-104565941D02*
X67634828Y-104780226D01*
X67634828Y-104780226D02*
X67706257Y-104923083D01*
X68563400Y-106208798D02*
X68634828Y-106065941D01*
X68634828Y-106065941D02*
X68634828Y-105780227D01*
X68634828Y-105780227D02*
X68563400Y-105637369D01*
X68563400Y-105637369D02*
X68420542Y-105565941D01*
X68420542Y-105565941D02*
X67849114Y-105565941D01*
X67849114Y-105565941D02*
X67706257Y-105637369D01*
X67706257Y-105637369D02*
X67634828Y-105780227D01*
X67634828Y-105780227D02*
X67634828Y-106065941D01*
X67634828Y-106065941D02*
X67706257Y-106208798D01*
X67706257Y-106208798D02*
X67849114Y-106280227D01*
X67849114Y-106280227D02*
X67991971Y-106280227D01*
X67991971Y-106280227D02*
X68134828Y-105565941D01*
X68634828Y-106923083D02*
X67634828Y-106923083D01*
X67920542Y-106923083D02*
X67777685Y-106994512D01*
X67777685Y-106994512D02*
X67706257Y-107065941D01*
X67706257Y-107065941D02*
X67634828Y-107208798D01*
X67634828Y-107208798D02*
X67634828Y-107351655D01*
X68634828Y-108065940D02*
X68563400Y-107923083D01*
X68563400Y-107923083D02*
X68420542Y-107851654D01*
X68420542Y-107851654D02*
X67134828Y-107851654D01*
X68634828Y-109280226D02*
X67849114Y-109280226D01*
X67849114Y-109280226D02*
X67706257Y-109208797D01*
X67706257Y-109208797D02*
X67634828Y-109065940D01*
X67634828Y-109065940D02*
X67634828Y-108780226D01*
X67634828Y-108780226D02*
X67706257Y-108637368D01*
X68563400Y-109280226D02*
X68634828Y-109137368D01*
X68634828Y-109137368D02*
X68634828Y-108780226D01*
X68634828Y-108780226D02*
X68563400Y-108637368D01*
X68563400Y-108637368D02*
X68420542Y-108565940D01*
X68420542Y-108565940D02*
X68277685Y-108565940D01*
X68277685Y-108565940D02*
X68134828Y-108637368D01*
X68134828Y-108637368D02*
X68063400Y-108780226D01*
X68063400Y-108780226D02*
X68063400Y-109137368D01*
X68063400Y-109137368D02*
X67991971Y-109280226D01*
X68634828Y-109994511D02*
X67134828Y-109994511D01*
X67706257Y-109994511D02*
X67634828Y-110137369D01*
X67634828Y-110137369D02*
X67634828Y-110423083D01*
X67634828Y-110423083D02*
X67706257Y-110565940D01*
X67706257Y-110565940D02*
X67777685Y-110637369D01*
X67777685Y-110637369D02*
X67920542Y-110708797D01*
X67920542Y-110708797D02*
X68349114Y-110708797D01*
X68349114Y-110708797D02*
X68491971Y-110637369D01*
X68491971Y-110637369D02*
X68563400Y-110565940D01*
X68563400Y-110565940D02*
X68634828Y-110423083D01*
X68634828Y-110423083D02*
X68634828Y-110137369D01*
X68634828Y-110137369D02*
X68563400Y-109994511D01*
X68491971Y-111351654D02*
X68563400Y-111423083D01*
X68563400Y-111423083D02*
X68634828Y-111351654D01*
X68634828Y-111351654D02*
X68563400Y-111280226D01*
X68563400Y-111280226D02*
X68491971Y-111351654D01*
X68491971Y-111351654D02*
X68634828Y-111351654D01*
X67634828Y-112708798D02*
X68849114Y-112708798D01*
X68849114Y-112708798D02*
X68991971Y-112637369D01*
X68991971Y-112637369D02*
X69063400Y-112565940D01*
X69063400Y-112565940D02*
X69134828Y-112423083D01*
X69134828Y-112423083D02*
X69134828Y-112208798D01*
X69134828Y-112208798D02*
X69063400Y-112065940D01*
X68563400Y-112708798D02*
X68634828Y-112565940D01*
X68634828Y-112565940D02*
X68634828Y-112280226D01*
X68634828Y-112280226D02*
X68563400Y-112137369D01*
X68563400Y-112137369D02*
X68491971Y-112065940D01*
X68491971Y-112065940D02*
X68349114Y-111994512D01*
X68349114Y-111994512D02*
X67920542Y-111994512D01*
X67920542Y-111994512D02*
X67777685Y-112065940D01*
X67777685Y-112065940D02*
X67706257Y-112137369D01*
X67706257Y-112137369D02*
X67634828Y-112280226D01*
X67634828Y-112280226D02*
X67634828Y-112565940D01*
X67634828Y-112565940D02*
X67706257Y-112708798D01*
X68634828Y-113423083D02*
X67634828Y-113423083D01*
X67134828Y-113423083D02*
X67206257Y-113351655D01*
X67206257Y-113351655D02*
X67277685Y-113423083D01*
X67277685Y-113423083D02*
X67206257Y-113494512D01*
X67206257Y-113494512D02*
X67134828Y-113423083D01*
X67134828Y-113423083D02*
X67277685Y-113423083D01*
X67634828Y-113923084D02*
X67634828Y-114494512D01*
X67134828Y-114137369D02*
X68420542Y-114137369D01*
X68420542Y-114137369D02*
X68563400Y-114208798D01*
X68563400Y-114208798D02*
X68634828Y-114351655D01*
X68634828Y-114351655D02*
X68634828Y-114494512D01*
X68634828Y-114994512D02*
X67134828Y-114994512D01*
X68634828Y-115637370D02*
X67849114Y-115637370D01*
X67849114Y-115637370D02*
X67706257Y-115565941D01*
X67706257Y-115565941D02*
X67634828Y-115423084D01*
X67634828Y-115423084D02*
X67634828Y-115208798D01*
X67634828Y-115208798D02*
X67706257Y-115065941D01*
X67706257Y-115065941D02*
X67777685Y-114994512D01*
X67634828Y-116994513D02*
X68634828Y-116994513D01*
X67634828Y-116351655D02*
X68420542Y-116351655D01*
X68420542Y-116351655D02*
X68563400Y-116423084D01*
X68563400Y-116423084D02*
X68634828Y-116565941D01*
X68634828Y-116565941D02*
X68634828Y-116780227D01*
X68634828Y-116780227D02*
X68563400Y-116923084D01*
X68563400Y-116923084D02*
X68491971Y-116994513D01*
X68634828Y-117708798D02*
X67134828Y-117708798D01*
X67706257Y-117708798D02*
X67634828Y-117851656D01*
X67634828Y-117851656D02*
X67634828Y-118137370D01*
X67634828Y-118137370D02*
X67706257Y-118280227D01*
X67706257Y-118280227D02*
X67777685Y-118351656D01*
X67777685Y-118351656D02*
X67920542Y-118423084D01*
X67920542Y-118423084D02*
X68349114Y-118423084D01*
X68349114Y-118423084D02*
X68491971Y-118351656D01*
X68491971Y-118351656D02*
X68563400Y-118280227D01*
X68563400Y-118280227D02*
X68634828Y-118137370D01*
X68634828Y-118137370D02*
X68634828Y-117851656D01*
X68634828Y-117851656D02*
X68563400Y-117708798D01*
X68491971Y-119065941D02*
X68563400Y-119137370D01*
X68563400Y-119137370D02*
X68634828Y-119065941D01*
X68634828Y-119065941D02*
X68563400Y-118994513D01*
X68563400Y-118994513D02*
X68491971Y-119065941D01*
X68491971Y-119065941D02*
X68634828Y-119065941D01*
X68634828Y-119780227D02*
X67634828Y-119780227D01*
X67134828Y-119780227D02*
X67206257Y-119708799D01*
X67206257Y-119708799D02*
X67277685Y-119780227D01*
X67277685Y-119780227D02*
X67206257Y-119851656D01*
X67206257Y-119851656D02*
X67134828Y-119780227D01*
X67134828Y-119780227D02*
X67277685Y-119780227D01*
X68634828Y-120708799D02*
X68563400Y-120565942D01*
X68563400Y-120565942D02*
X68491971Y-120494513D01*
X68491971Y-120494513D02*
X68349114Y-120423085D01*
X68349114Y-120423085D02*
X67920542Y-120423085D01*
X67920542Y-120423085D02*
X67777685Y-120494513D01*
X67777685Y-120494513D02*
X67706257Y-120565942D01*
X67706257Y-120565942D02*
X67634828Y-120708799D01*
X67634828Y-120708799D02*
X67634828Y-120923085D01*
X67634828Y-120923085D02*
X67706257Y-121065942D01*
X67706257Y-121065942D02*
X67777685Y-121137371D01*
X67777685Y-121137371D02*
X67920542Y-121208799D01*
X67920542Y-121208799D02*
X68349114Y-121208799D01*
X68349114Y-121208799D02*
X68491971Y-121137371D01*
X68491971Y-121137371D02*
X68563400Y-121065942D01*
X68563400Y-121065942D02*
X68634828Y-120923085D01*
X68634828Y-120923085D02*
X68634828Y-120708799D01*
X67063400Y-122923085D02*
X68991971Y-121637371D01*
X68634828Y-123423085D02*
X67134828Y-123423085D01*
X67134828Y-123423085D02*
X68206257Y-123923085D01*
X68206257Y-123923085D02*
X67134828Y-124423085D01*
X67134828Y-124423085D02*
X68634828Y-124423085D01*
X68634828Y-125351657D02*
X68563400Y-125208800D01*
X68563400Y-125208800D02*
X68491971Y-125137371D01*
X68491971Y-125137371D02*
X68349114Y-125065943D01*
X68349114Y-125065943D02*
X67920542Y-125065943D01*
X67920542Y-125065943D02*
X67777685Y-125137371D01*
X67777685Y-125137371D02*
X67706257Y-125208800D01*
X67706257Y-125208800D02*
X67634828Y-125351657D01*
X67634828Y-125351657D02*
X67634828Y-125565943D01*
X67634828Y-125565943D02*
X67706257Y-125708800D01*
X67706257Y-125708800D02*
X67777685Y-125780229D01*
X67777685Y-125780229D02*
X67920542Y-125851657D01*
X67920542Y-125851657D02*
X68349114Y-125851657D01*
X68349114Y-125851657D02*
X68491971Y-125780229D01*
X68491971Y-125780229D02*
X68563400Y-125708800D01*
X68563400Y-125708800D02*
X68634828Y-125565943D01*
X68634828Y-125565943D02*
X68634828Y-125351657D01*
X68634828Y-127137372D02*
X67134828Y-127137372D01*
X68563400Y-127137372D02*
X68634828Y-126994514D01*
X68634828Y-126994514D02*
X68634828Y-126708800D01*
X68634828Y-126708800D02*
X68563400Y-126565943D01*
X68563400Y-126565943D02*
X68491971Y-126494514D01*
X68491971Y-126494514D02*
X68349114Y-126423086D01*
X68349114Y-126423086D02*
X67920542Y-126423086D01*
X67920542Y-126423086D02*
X67777685Y-126494514D01*
X67777685Y-126494514D02*
X67706257Y-126565943D01*
X67706257Y-126565943D02*
X67634828Y-126708800D01*
X67634828Y-126708800D02*
X67634828Y-126994514D01*
X67634828Y-126994514D02*
X67706257Y-127137372D01*
X67634828Y-128494515D02*
X68634828Y-128494515D01*
X67634828Y-127851657D02*
X68420542Y-127851657D01*
X68420542Y-127851657D02*
X68563400Y-127923086D01*
X68563400Y-127923086D02*
X68634828Y-128065943D01*
X68634828Y-128065943D02*
X68634828Y-128280229D01*
X68634828Y-128280229D02*
X68563400Y-128423086D01*
X68563400Y-128423086D02*
X68491971Y-128494515D01*
X68634828Y-129423086D02*
X68563400Y-129280229D01*
X68563400Y-129280229D02*
X68420542Y-129208800D01*
X68420542Y-129208800D02*
X67134828Y-129208800D01*
X68634828Y-130637372D02*
X67849114Y-130637372D01*
X67849114Y-130637372D02*
X67706257Y-130565943D01*
X67706257Y-130565943D02*
X67634828Y-130423086D01*
X67634828Y-130423086D02*
X67634828Y-130137372D01*
X67634828Y-130137372D02*
X67706257Y-129994514D01*
X68563400Y-130637372D02*
X68634828Y-130494514D01*
X68634828Y-130494514D02*
X68634828Y-130137372D01*
X68634828Y-130137372D02*
X68563400Y-129994514D01*
X68563400Y-129994514D02*
X68420542Y-129923086D01*
X68420542Y-129923086D02*
X68277685Y-129923086D01*
X68277685Y-129923086D02*
X68134828Y-129994514D01*
X68134828Y-129994514D02*
X68063400Y-130137372D01*
X68063400Y-130137372D02*
X68063400Y-130494514D01*
X68063400Y-130494514D02*
X67991971Y-130637372D01*
X68634828Y-131351657D02*
X67634828Y-131351657D01*
X67920542Y-131351657D02*
X67777685Y-131423086D01*
X67777685Y-131423086D02*
X67706257Y-131494515D01*
X67706257Y-131494515D02*
X67634828Y-131637372D01*
X67634828Y-131637372D02*
X67634828Y-131780229D01*
X68063400Y-132280228D02*
X68063400Y-133423086D01*
X68634828Y-134851657D02*
X68634828Y-134137371D01*
X68634828Y-134137371D02*
X67134828Y-134137371D01*
X67849114Y-135351657D02*
X67849114Y-135851657D01*
X68634828Y-136065943D02*
X68634828Y-135351657D01*
X68634828Y-135351657D02*
X67134828Y-135351657D01*
X67134828Y-135351657D02*
X67134828Y-136065943D01*
X68634828Y-136708800D02*
X67134828Y-136708800D01*
X67134828Y-136708800D02*
X67134828Y-137065943D01*
X67134828Y-137065943D02*
X67206257Y-137280229D01*
X67206257Y-137280229D02*
X67349114Y-137423086D01*
X67349114Y-137423086D02*
X67491971Y-137494515D01*
X67491971Y-137494515D02*
X67777685Y-137565943D01*
X67777685Y-137565943D02*
X67991971Y-137565943D01*
X67991971Y-137565943D02*
X68277685Y-137494515D01*
X68277685Y-137494515D02*
X68420542Y-137423086D01*
X68420542Y-137423086D02*
X68563400Y-137280229D01*
X68563400Y-137280229D02*
X68634828Y-137065943D01*
X68634828Y-137065943D02*
X68634828Y-136708800D01*
X68063400Y-138208800D02*
X68063400Y-139351658D01*
X68634828Y-140065943D02*
X67134828Y-140065943D01*
X67134828Y-140065943D02*
X67134828Y-140423086D01*
X67134828Y-140423086D02*
X67206257Y-140637372D01*
X67206257Y-140637372D02*
X67349114Y-140780229D01*
X67349114Y-140780229D02*
X67491971Y-140851658D01*
X67491971Y-140851658D02*
X67777685Y-140923086D01*
X67777685Y-140923086D02*
X67991971Y-140923086D01*
X67991971Y-140923086D02*
X68277685Y-140851658D01*
X68277685Y-140851658D02*
X68420542Y-140780229D01*
X68420542Y-140780229D02*
X68563400Y-140637372D01*
X68563400Y-140637372D02*
X68634828Y-140423086D01*
X68634828Y-140423086D02*
X68634828Y-140065943D01*
X68634828Y-141565943D02*
X67634828Y-141565943D01*
X67134828Y-141565943D02*
X67206257Y-141494515D01*
X67206257Y-141494515D02*
X67277685Y-141565943D01*
X67277685Y-141565943D02*
X67206257Y-141637372D01*
X67206257Y-141637372D02*
X67134828Y-141565943D01*
X67134828Y-141565943D02*
X67277685Y-141565943D01*
X68563400Y-142208801D02*
X68634828Y-142351658D01*
X68634828Y-142351658D02*
X68634828Y-142637372D01*
X68634828Y-142637372D02*
X68563400Y-142780229D01*
X68563400Y-142780229D02*
X68420542Y-142851658D01*
X68420542Y-142851658D02*
X68349114Y-142851658D01*
X68349114Y-142851658D02*
X68206257Y-142780229D01*
X68206257Y-142780229D02*
X68134828Y-142637372D01*
X68134828Y-142637372D02*
X68134828Y-142423087D01*
X68134828Y-142423087D02*
X68063400Y-142280229D01*
X68063400Y-142280229D02*
X67920542Y-142208801D01*
X67920542Y-142208801D02*
X67849114Y-142208801D01*
X67849114Y-142208801D02*
X67706257Y-142280229D01*
X67706257Y-142280229D02*
X67634828Y-142423087D01*
X67634828Y-142423087D02*
X67634828Y-142637372D01*
X67634828Y-142637372D02*
X67706257Y-142780229D01*
X67634828Y-143494515D02*
X69134828Y-143494515D01*
X67706257Y-143494515D02*
X67634828Y-143637373D01*
X67634828Y-143637373D02*
X67634828Y-143923087D01*
X67634828Y-143923087D02*
X67706257Y-144065944D01*
X67706257Y-144065944D02*
X67777685Y-144137373D01*
X67777685Y-144137373D02*
X67920542Y-144208801D01*
X67920542Y-144208801D02*
X68349114Y-144208801D01*
X68349114Y-144208801D02*
X68491971Y-144137373D01*
X68491971Y-144137373D02*
X68563400Y-144065944D01*
X68563400Y-144065944D02*
X68634828Y-143923087D01*
X68634828Y-143923087D02*
X68634828Y-143637373D01*
X68634828Y-143637373D02*
X68563400Y-143494515D01*
X68634828Y-145065944D02*
X68563400Y-144923087D01*
X68563400Y-144923087D02*
X68420542Y-144851658D01*
X68420542Y-144851658D02*
X67134828Y-144851658D01*
X68634828Y-146280230D02*
X67849114Y-146280230D01*
X67849114Y-146280230D02*
X67706257Y-146208801D01*
X67706257Y-146208801D02*
X67634828Y-146065944D01*
X67634828Y-146065944D02*
X67634828Y-145780230D01*
X67634828Y-145780230D02*
X67706257Y-145637372D01*
X68563400Y-146280230D02*
X68634828Y-146137372D01*
X68634828Y-146137372D02*
X68634828Y-145780230D01*
X68634828Y-145780230D02*
X68563400Y-145637372D01*
X68563400Y-145637372D02*
X68420542Y-145565944D01*
X68420542Y-145565944D02*
X68277685Y-145565944D01*
X68277685Y-145565944D02*
X68134828Y-145637372D01*
X68134828Y-145637372D02*
X68063400Y-145780230D01*
X68063400Y-145780230D02*
X68063400Y-146137372D01*
X68063400Y-146137372D02*
X67991971Y-146280230D01*
X67634828Y-146851658D02*
X68634828Y-147208801D01*
X67634828Y-147565944D02*
X68634828Y-147208801D01*
X68634828Y-147208801D02*
X68991971Y-147065944D01*
X68991971Y-147065944D02*
X69063400Y-146994515D01*
X69063400Y-146994515D02*
X69134828Y-146851658D01*
X67063400Y-149208801D02*
X68991971Y-147923087D01*
%LPC*%
D11*
%TO.C,H1*%
X76200000Y-76200000D03*
%TD*%
D12*
%TO.C,P10*%
X195580000Y-266474000D03*
D13*
X193040000Y-266474000D03*
X190500000Y-266474000D03*
X187960000Y-266474000D03*
X185420000Y-266474000D03*
X182880000Y-266474000D03*
X180340000Y-266474000D03*
X177800000Y-266474000D03*
X175260000Y-266474000D03*
X172720000Y-266474000D03*
X170180000Y-266474000D03*
X167640000Y-266474000D03*
X165100000Y-266474000D03*
X162560000Y-266474000D03*
X160020000Y-266474000D03*
%TD*%
D14*
%TO.C,P12*%
X263484000Y-206739068D03*
D13*
X262214000Y-208938773D03*
X260944000Y-211138477D03*
X259674000Y-213338182D03*
X258404000Y-215537886D03*
X257134000Y-217737591D03*
X255864000Y-219937295D03*
X254594000Y-222137000D03*
X253324000Y-224336705D03*
X252054000Y-226536409D03*
X250784000Y-228736114D03*
X249514000Y-230935818D03*
X248244000Y-233135523D03*
X246974000Y-235335227D03*
X245704000Y-237534932D03*
%TD*%
D12*
%TO.C,P7*%
X89126000Y-195580000D03*
D13*
X89126000Y-193040000D03*
X89126000Y-190500000D03*
X89126000Y-187960000D03*
X89126000Y-185420000D03*
X89126000Y-182880000D03*
X89126000Y-180340000D03*
X89126000Y-177800000D03*
X89126000Y-175260000D03*
X89126000Y-172720000D03*
X89126000Y-170180000D03*
X89126000Y-167640000D03*
X89126000Y-165100000D03*
X89126000Y-162560000D03*
X89126000Y-160020000D03*
%TD*%
D15*
%TO.C,SW1*%
X284480000Y-117752500D03*
X284480000Y-113002700D03*
X284480000Y-108252900D03*
%TD*%
D16*
%TO.C,P9*%
X148860932Y-263484000D03*
D13*
X146661227Y-262214000D03*
X144461523Y-260944000D03*
X142261818Y-259674000D03*
X140062114Y-258404000D03*
X137862409Y-257134000D03*
X135662705Y-255864000D03*
X133463000Y-254594000D03*
X131263295Y-253324000D03*
X129063591Y-252054000D03*
X126863886Y-250784000D03*
X124664182Y-249514000D03*
X122464477Y-248244000D03*
X120264773Y-246974000D03*
X118065068Y-245704000D03*
%TD*%
D17*
%TO.C,P11*%
X237534932Y-245704000D03*
D13*
X235335227Y-246974000D03*
X233135523Y-248244000D03*
X230935818Y-249514000D03*
X228736114Y-250784000D03*
X226536409Y-252054000D03*
X224336705Y-253324000D03*
X222137000Y-254594000D03*
X219937295Y-255864000D03*
X217737591Y-257134000D03*
X215537886Y-258404000D03*
X213338182Y-259674000D03*
X211138477Y-260944000D03*
X208938773Y-262214000D03*
X206739068Y-263484000D03*
%TD*%
D11*
%TO.C,H3*%
X279400000Y-279400000D03*
%TD*%
%TO.C,H4*%
X76200000Y-279400000D03*
%TD*%
D18*
%TO.C,J1*%
X287096200Y-87706200D03*
D19*
X289102800Y-92202000D03*
D18*
X287096200Y-96697800D03*
D20*
X280111200Y-92202000D03*
D18*
X286105600Y-92202000D03*
%TD*%
D21*
%TO.C,P5*%
X118065068Y-109896000D03*
D13*
X120264773Y-108626000D03*
X122464477Y-107356000D03*
X124664182Y-106086000D03*
X126863886Y-104816000D03*
X129063591Y-103546000D03*
X131263295Y-102276000D03*
X133463000Y-101006000D03*
X135662705Y-99736000D03*
X137862409Y-98466000D03*
X140062114Y-97196000D03*
X142261818Y-95926000D03*
X144461523Y-94656000D03*
X146661227Y-93386000D03*
X148860932Y-92116000D03*
%TD*%
D12*
%TO.C,P4*%
X160020000Y-89126000D03*
D13*
X162560000Y-89126000D03*
X165100000Y-89126000D03*
X167640000Y-89126000D03*
X170180000Y-89126000D03*
X172720000Y-89126000D03*
X175260000Y-89126000D03*
X177800000Y-89126000D03*
X180340000Y-89126000D03*
X182880000Y-89126000D03*
X185420000Y-89126000D03*
X187960000Y-89126000D03*
X190500000Y-89126000D03*
X193040000Y-89126000D03*
X195580000Y-89126000D03*
%TD*%
D22*
%TO.C,U18*%
X285152628Y-253394534D03*
D13*
X282765809Y-254263265D03*
X280378989Y-255131996D03*
X277992170Y-256000727D03*
X275605351Y-256869458D03*
X273218532Y-257738190D03*
X270831712Y-258606921D03*
X268444893Y-259475652D03*
X266058074Y-260344383D03*
X263671255Y-261213114D03*
X261284435Y-262081845D03*
X258897616Y-262950577D03*
X256510797Y-263819308D03*
X254123978Y-264688039D03*
X251737158Y-265556770D03*
X249350339Y-266425501D03*
X246963520Y-267294232D03*
X244576701Y-268162964D03*
X242189881Y-269031695D03*
X239803062Y-269900426D03*
X237416243Y-270769157D03*
X235029425Y-271637888D03*
X232642604Y-272506619D03*
X230255785Y-273375351D03*
X235468172Y-287696266D03*
X237854991Y-286827535D03*
X240241811Y-285958804D03*
X242628630Y-285090073D03*
X245015449Y-284221342D03*
X247402268Y-283352610D03*
X249789088Y-282483879D03*
X252175907Y-281615148D03*
X254562726Y-280746417D03*
X256949545Y-279877686D03*
X259336365Y-279008955D03*
X261723184Y-278140223D03*
X264110003Y-277271492D03*
X266496822Y-276402761D03*
X268883642Y-275534030D03*
X271270461Y-274665299D03*
X273657280Y-273796568D03*
X276044099Y-272927836D03*
X278430919Y-272059105D03*
X280817738Y-271190374D03*
X283204557Y-270321643D03*
X285591375Y-269452912D03*
X287978196Y-268584181D03*
X290365015Y-267715449D03*
X287109465Y-266197361D03*
X243058613Y-271418514D03*
X243927344Y-273805333D03*
X244796075Y-276192153D03*
X245664806Y-278578972D03*
X246533537Y-280965791D03*
D22*
X280276751Y-258415801D03*
D13*
X277889932Y-259284533D03*
X275503113Y-260153264D03*
X273116293Y-261021995D03*
X270729474Y-261890726D03*
D23*
X277343220Y-269860104D03*
D24*
X276659179Y-267980719D03*
X275975139Y-266101334D03*
X274095754Y-266785374D03*
X274779794Y-268664759D03*
X275463834Y-270544144D03*
X287507211Y-261998076D03*
X286638480Y-259611257D03*
%TD*%
D12*
%TO.C,P1*%
X266474000Y-160020000D03*
D13*
X266474000Y-162560000D03*
X266474000Y-165100000D03*
X266474000Y-167640000D03*
X266474000Y-170180000D03*
X266474000Y-172720000D03*
X266474000Y-175260000D03*
X266474000Y-177800000D03*
X266474000Y-180340000D03*
X266474000Y-182880000D03*
X266474000Y-185420000D03*
X266474000Y-187960000D03*
X266474000Y-190500000D03*
X266474000Y-193040000D03*
X266474000Y-195580000D03*
%TD*%
D25*
%TO.C,P6*%
X92116000Y-148860932D03*
D13*
X93386000Y-146661227D03*
X94656000Y-144461523D03*
X95926000Y-142261818D03*
X97196000Y-140062114D03*
X98466000Y-137862409D03*
X99736000Y-135662705D03*
X101006000Y-133463000D03*
X102276000Y-131263295D03*
X103546000Y-129063591D03*
X104816000Y-126863886D03*
X106086000Y-124664182D03*
X107356000Y-122464477D03*
X108626000Y-120264773D03*
X109896000Y-118065068D03*
%TD*%
D26*
%TO.C,P8*%
X109896000Y-237534932D03*
D13*
X108626000Y-235335227D03*
X107356000Y-233135523D03*
X106086000Y-230935818D03*
X104816000Y-228736114D03*
X103546000Y-226536409D03*
X102276000Y-224336705D03*
X101006000Y-222137000D03*
X99736000Y-219937295D03*
X98466000Y-217737591D03*
X97196000Y-215537886D03*
X95926000Y-213338182D03*
X94656000Y-211138477D03*
X93386000Y-208938773D03*
X92116000Y-206739068D03*
%TD*%
D11*
%TO.C,H2*%
X279400000Y-76200000D03*
%TD*%
D27*
%TO.C,P2*%
X245704000Y-118065068D03*
D13*
X246974000Y-120264773D03*
X248244000Y-122464477D03*
X249514000Y-124664182D03*
X250784000Y-126863886D03*
X252054000Y-129063591D03*
X253324000Y-131263295D03*
X254594000Y-133463000D03*
X255864000Y-135662705D03*
X257134000Y-137862409D03*
X258404000Y-140062114D03*
X259674000Y-142261818D03*
X260944000Y-144461523D03*
X262214000Y-146661227D03*
X263484000Y-148860932D03*
%TD*%
D28*
%TO.C,P3*%
X206739068Y-92116000D03*
D13*
X208938773Y-93386000D03*
X211138477Y-94656000D03*
X213338182Y-95926000D03*
X215537886Y-97196000D03*
X217737591Y-98466000D03*
X219937295Y-99736000D03*
X222137000Y-101006000D03*
X224336705Y-102276000D03*
X226536409Y-103546000D03*
X228736114Y-104816000D03*
X230935818Y-106086000D03*
X233135523Y-107356000D03*
X235335227Y-108626000D03*
X237534932Y-109896000D03*
%TD*%
%LPD*%
M02*
