%TF.GenerationSoftware,KiCad,Pcbnew,8.0.5*%
%TF.CreationDate,2024-10-09T16:01:21-04:00*%
%TF.ProjectId,teensy_arena_12-12,7465656e-7379-45f6-9172-656e615f3132,v0.2.1*%
%TF.SameCoordinates,Original*%
%TF.FileFunction,Drillmap*%
%TF.FilePolarity,Positive*%
%FSLAX45Y45*%
G04 Gerber Fmt 4.5, Leading zero omitted, Abs format (unit mm)*
G04 Created by KiCad (PCBNEW 8.0.5) date 2024-10-09 16:01:21*
%MOMM*%
%LPD*%
G01*
G04 APERTURE LIST*
%ADD10C,0.300000*%
%ADD11C,0.200000*%
G04 APERTURE END LIST*
D10*
X6350000Y-6985000D02*
X6350000Y-28575000D01*
X29210000Y-28575000D02*
G75*
G02*
X28575000Y-29210000I-635000J0D01*
G01*
X6985000Y-29210000D02*
X28575000Y-29210000D01*
X28575000Y-6350000D02*
G75*
G02*
X29210000Y-6985000I0J-635000D01*
G01*
X25450800Y-17780000D02*
G75*
G02*
X10109200Y-17780000I-7670800J0D01*
G01*
X10109200Y-17780000D02*
G75*
G02*
X25450800Y-17780000I7670800J0D01*
G01*
X6985000Y-29210000D02*
G75*
G02*
X6350000Y-28575000I0J635000D01*
G01*
X28575000Y-6350000D02*
X6985000Y-6350000D01*
X6350000Y-6985000D02*
G75*
G02*
X6985000Y-6350000I635000J0D01*
G01*
X29210000Y-28575000D02*
X29210000Y-6985000D01*
D11*
X6595777Y-29536484D02*
X6595777Y-29336484D01*
X6595777Y-29336484D02*
X6643396Y-29336484D01*
X6643396Y-29336484D02*
X6671967Y-29346008D01*
X6671967Y-29346008D02*
X6691015Y-29365055D01*
X6691015Y-29365055D02*
X6700539Y-29384103D01*
X6700539Y-29384103D02*
X6710062Y-29422198D01*
X6710062Y-29422198D02*
X6710062Y-29450769D01*
X6710062Y-29450769D02*
X6700539Y-29488865D01*
X6700539Y-29488865D02*
X6691015Y-29507912D01*
X6691015Y-29507912D02*
X6671967Y-29526960D01*
X6671967Y-29526960D02*
X6643396Y-29536484D01*
X6643396Y-29536484D02*
X6595777Y-29536484D01*
X6795777Y-29536484D02*
X6795777Y-29403150D01*
X6795777Y-29441246D02*
X6805301Y-29422198D01*
X6805301Y-29422198D02*
X6814824Y-29412674D01*
X6814824Y-29412674D02*
X6833872Y-29403150D01*
X6833872Y-29403150D02*
X6852920Y-29403150D01*
X6919586Y-29536484D02*
X6919586Y-29403150D01*
X6919586Y-29336484D02*
X6910062Y-29346008D01*
X6910062Y-29346008D02*
X6919586Y-29355531D01*
X6919586Y-29355531D02*
X6929110Y-29346008D01*
X6929110Y-29346008D02*
X6919586Y-29336484D01*
X6919586Y-29336484D02*
X6919586Y-29355531D01*
X7043396Y-29536484D02*
X7024348Y-29526960D01*
X7024348Y-29526960D02*
X7014824Y-29507912D01*
X7014824Y-29507912D02*
X7014824Y-29336484D01*
X7148158Y-29536484D02*
X7129110Y-29526960D01*
X7129110Y-29526960D02*
X7119586Y-29507912D01*
X7119586Y-29507912D02*
X7119586Y-29336484D01*
X7376729Y-29536484D02*
X7376729Y-29336484D01*
X7376729Y-29336484D02*
X7443396Y-29479341D01*
X7443396Y-29479341D02*
X7510062Y-29336484D01*
X7510062Y-29336484D02*
X7510062Y-29536484D01*
X7691015Y-29536484D02*
X7691015Y-29431722D01*
X7691015Y-29431722D02*
X7681491Y-29412674D01*
X7681491Y-29412674D02*
X7662443Y-29403150D01*
X7662443Y-29403150D02*
X7624348Y-29403150D01*
X7624348Y-29403150D02*
X7605301Y-29412674D01*
X7691015Y-29526960D02*
X7671967Y-29536484D01*
X7671967Y-29536484D02*
X7624348Y-29536484D01*
X7624348Y-29536484D02*
X7605301Y-29526960D01*
X7605301Y-29526960D02*
X7595777Y-29507912D01*
X7595777Y-29507912D02*
X7595777Y-29488865D01*
X7595777Y-29488865D02*
X7605301Y-29469817D01*
X7605301Y-29469817D02*
X7624348Y-29460293D01*
X7624348Y-29460293D02*
X7671967Y-29460293D01*
X7671967Y-29460293D02*
X7691015Y-29450769D01*
X7786253Y-29403150D02*
X7786253Y-29603150D01*
X7786253Y-29412674D02*
X7805301Y-29403150D01*
X7805301Y-29403150D02*
X7843396Y-29403150D01*
X7843396Y-29403150D02*
X7862443Y-29412674D01*
X7862443Y-29412674D02*
X7871967Y-29422198D01*
X7871967Y-29422198D02*
X7881491Y-29441246D01*
X7881491Y-29441246D02*
X7881491Y-29498388D01*
X7881491Y-29498388D02*
X7871967Y-29517436D01*
X7871967Y-29517436D02*
X7862443Y-29526960D01*
X7862443Y-29526960D02*
X7843396Y-29536484D01*
X7843396Y-29536484D02*
X7805301Y-29536484D01*
X7805301Y-29536484D02*
X7786253Y-29526960D01*
X7967205Y-29517436D02*
X7976729Y-29526960D01*
X7976729Y-29526960D02*
X7967205Y-29536484D01*
X7967205Y-29536484D02*
X7957682Y-29526960D01*
X7957682Y-29526960D02*
X7967205Y-29517436D01*
X7967205Y-29517436D02*
X7967205Y-29536484D01*
X7967205Y-29412674D02*
X7976729Y-29422198D01*
X7976729Y-29422198D02*
X7967205Y-29431722D01*
X7967205Y-29431722D02*
X7957682Y-29422198D01*
X7957682Y-29422198D02*
X7967205Y-29412674D01*
X7967205Y-29412674D02*
X7967205Y-29431722D01*
M02*
