M48
; DRILL file {KiCad 8.0.5} date 2024-10-09T16:01:20-0400
; FORMAT={-:-/ absolute / metric / decimal}
; #@! TF.CreationDate,2024-10-09T16:01:20-04:00
; #@! TF.GenerationSoftware,Kicad,Pcbnew,8.0.5
; #@! TF.FileFunction,Plated,1,6,PTH
FMAT,2
METRIC
; #@! TA.AperFunction,Plated,PTH,ViaDrill
T1C0.300
; #@! TA.AperFunction,Plated,PTH,ViaDrill
T2C0.400
; #@! TA.AperFunction,Plated,PTH,ViaDrill
T3C0.600
; #@! TA.AperFunction,Plated,PTH,ComponentDrill
T4C0.800
; #@! TA.AperFunction,Plated,PTH,ComponentDrill
T5C1.016
; #@! TA.AperFunction,Plated,PTH,ComponentDrill
T6C1.100
; #@! TA.AperFunction,Plated,PTH,ComponentDrill
T7C1.600
; #@! TA.AperFunction,Plated,PTH,ComponentDrill
T8C1.778
; #@! TA.AperFunction,Plated,PTH,ComponentDrill
T9C2.692
; #@! TA.AperFunction,Plated,PTH,ComponentDrill
T10C3.150
; #@! TA.AperFunction,Plated,PTH,ComponentDrill
T11C4.500
%
G90
G05
T1
X89.992Y-265.506
X90.602Y-264.947
X91.237Y-196.342
X91.237Y-197.333
X91.846Y-189.662
X92.151Y-188.671
X92.862Y-189.687
X98.933Y-229.159
X99.619Y-228.575
X101.191Y-160.186
X101.854Y-159.36
X102.057Y-220.599
X102.147Y-205.892
X102.159Y-145.136
X102.283Y-200.964
X102.489Y-200.025
X102.797Y-206.679
X102.819Y-144.501
X102.865Y-220.401
X105.054Y-139.065
X105.766Y-138.125
X105.994Y-138.989
X107.655Y-137.312
X107.655Y-138.339
X108.382Y-231.851
X109.169Y-232.334
X109.195Y-263.449
X109.236Y-240.394
X109.728Y-139.319
X109.77Y-262.848
X109.88Y-239.827
X110.414Y-138.709
X110.49Y-133.401
X111.049Y-285.674
X111.227Y-132.613
X111.34Y-131.75
X112.471Y-260.731
X112.749Y-283.066
X112.808Y-126.314
X113.03Y-109.931
X113.132Y-260.045
X113.255Y-133.457
X113.284Y-283.82
X113.376Y-221.64
X113.589Y-125.578
X113.89Y-109.906
X114.021Y-132.944
X114.026Y-223.139
X114.046Y-222.326
X114.135Y-284.264
X114.808Y-285.659
X115.011Y-280.467
X115.011Y-279.578
X115.219Y-130.263
X115.316Y-277.87
X115.519Y-278.79
X115.57Y-130.988
X116.789Y-267.818
X116.789Y-268.637
X117.246Y-264.693
X117.678Y-280.924
X117.737Y-281.722
X118.065Y-264.693
X118.095Y-284.317
X118.745Y-283.769
X123.138Y-280.466
X123.241Y-285.699
X123.51Y-113.947
X123.746Y-115.115
X124.257Y-280.492
X124.46Y-114.3
X124.62Y-281.29
X125.404Y-244.445
X126.543Y-244.602
X127.051Y-241.173
X127.152Y-285.699
X127.305Y-241.96
X129.761Y-246.462
X130.363Y-247.208
X131.572Y-262.433
X131.651Y-241.119
X132.158Y-261.818
X132.664Y-241.046
X132.949Y-252.558
X133.616Y-253.226
X133.782Y-256.54
X133.808Y-257.459
X135.352Y-257.459
X136.246Y-257.327
X136.249Y-250.712
X136.896Y-251.394
X137.211Y-243.891
X137.693Y-244.704
X142.696Y-250.445
X142.753Y-255.463
X143.866Y-250.546
X143.916Y-255.397
X145.114Y-264.724
X145.847Y-264.109
X146.304Y-264.947
X147.926Y-250.423
X148.849Y-250.49
X148.906Y-102.742
X149.301Y-103.48
X152.781Y-277.851
X152.806Y-256.184
X152.806Y-276.987
X153.365Y-258.935
X153.456Y-257.007
X154.432Y-259.004
X156.032Y-261.366
X156.591Y-262.059
X157.002Y-101.937
X158.09Y-102.006
X158.471Y-286.512
X158.572Y-256.87
X159.055Y-257.727
X159.831Y-278.701
X160.757Y-278.943
X160.917Y-279.827
X161.671Y-284.302
X162.306Y-281.28
X162.306Y-286.479
X162.435Y-283.881
X162.445Y-284.705
X162.916Y-277.673
X163.268Y-276.94
X163.5Y-256.972
X164.054Y-257.727
X164.918Y-284.071
X165.128Y-285.829
X165.659Y-283.642
X165.659Y-286.512
X166.091Y-287.223
X166.472Y-86.792
X166.472Y-87.655
X168.961Y-263.601
X169.977Y-263.5
X170.815Y-286.512
X170.84Y-281.305
X174.142Y-96.876
X174.168Y-96.037
X174.346Y-98.466
X174.346Y-99.339
X174.422Y-93.828
X174.523Y-271.094
X174.828Y-286.436
X174.828Y-94.64
X175.438Y-271.018
X178.308Y-261.66
X179.07Y-274.8
X179.324Y-261.747
X179.756Y-275.336
X180.416Y-94.183
X180.466Y-272.72
X180.899Y-262.709
X181.102Y-93.624
X181.407Y-272.542
X181.788Y-99.797
X181.966Y-262.636
X182.866Y-99.788
X182.88Y-262.709
X185.522Y-271.018
X185.892Y-263.359
X186.233Y-271.526
X186.36Y-257.245
X186.766Y-263.855
X186.868Y-275.971
X187.071Y-284.529
X187.096Y-285.445
X187.124Y-275.158
X187.431Y-257.239
X187.731Y-268.199
X187.731Y-269.062
X187.858Y-286.131
X188.798Y-271.602
X188.798Y-272.44
X189.814Y-263.855
X190.576Y-259.639
X190.83Y-263.804
X190.932Y-269.57
X191.553Y-259.762
X191.77Y-269.545
X192.373Y-280.732
X193.675Y-264.617
X194.64Y-99.339
X194.856Y-276.462
X195.58Y-99.357
X196.672Y-264.43
X197.663Y-264.43
X198.331Y-274.27
X198.831Y-269.138
X198.831Y-269.951
X198.857Y-267.259
X198.857Y-268.097
X199.009Y-265.836
X199.258Y-273.662
X200.05Y-265.817
X200.551Y-275.272
X200.693Y-276.458
X200.99Y-287.503
X201.828Y-270.561
X201.93Y-267.24
X201.981Y-287.55
X202.324Y-282.537
X202.486Y-269.979
X202.667Y-281.584
X202.946Y-280.645
X203.225Y-267.056
X203.505Y-282.016
X203.683Y-269.979
X203.747Y-285.982
X204.013Y-286.766
X204.064Y-260.071
X204.089Y-259.258
X204.165Y-276.142
X204.445Y-277.343
X204.529Y-267.105
X205.066Y-280.01
X205.066Y-280.975
X205.537Y-271.831
X205.83Y-272.847
X206.197Y-286.283
X206.527Y-271.805
X206.68Y-268.072
X206.713Y-253.001
X206.731Y-254.051
X207.645Y-285.14
X207.73Y-268.057
X208.841Y-285.134
X209.982Y-281.076
X210.058Y-286.268
X210.388Y-102.26
X211.138Y-101.752
X211.658Y-272.11
X212.09Y-268.072
X212.698Y-272.194
X212.698Y-284.977
X212.988Y-267.786
X213.131Y-285.902
X213.892Y-286.925
X214.579Y-283.413
X214.655Y-107.772
X214.833Y-284.455
X214.833Y-285.648
X215.148Y-107.051
X215.604Y-284.977
X216.342Y-277.444
X216.992Y-278.054
X217.221Y-109.144
X217.647Y-108.413
X218.288Y-246.786
X218.406Y-264.331
X218.415Y-263.398
X218.58Y-281.191
X218.694Y-286.277
X218.725Y-271.311
X219.291Y-246.825
X219.38Y-253.644
X219.862Y-270.84
X220.415Y-253.572
X220.904Y-278.689
X221.834Y-279.083
X222.225Y-286.258
X223.469Y-260.731
X223.598Y-277.364
X224.053Y-276.504
X224.479Y-261.004
X225.019Y-273.787
X225.781Y-273.025
X226.39Y-240.868
X226.416Y-247.371
X226.416Y-273.71
X226.619Y-248.183
X226.949Y-239.954
X227.533Y-239.273
X230.165Y-238.724
X230.226Y-239.725
X230.988Y-234.671
X231.8Y-234.036
X233.07Y-243.662
X233.147Y-244.577
X233.807Y-236.271
X233.883Y-237.227
X235.56Y-281.903
X235.712Y-267.335
X236.169Y-281.072
X236.22Y-282.553
X236.652Y-267.589
X237.233Y-237.227
X237.642Y-236.423
X238.703Y-112.554
X238.785Y-275.152
X238.811Y-276.149
X239.116Y-129.464
X239.878Y-128.854
X240.005Y-229.108
X240.259Y-256.489
X240.462Y-268.327
X240.513Y-267.437
X240.517Y-252.732
X240.69Y-257.2
X240.716Y-223.85
X240.729Y-228.305
X240.944Y-253.517
X241.046Y-275.152
X241.071Y-276.098
X241.382Y-223.306
X241.63Y-130.708
X242.265Y-130.15
X242.478Y-282.53
X243.103Y-288.138
X243.281Y-265.278
X243.408Y-282.143
X243.69Y-288.744
X243.789Y-223.342
X243.992Y-132.385
X244.069Y-264.846
X244.424Y-231.953
X244.484Y-232.969
X244.78Y-223.495
X244.831Y-132.41
X244.853Y-218.676
X245.72Y-218.796
X246.151Y-274.447
X246.243Y-273.568
X246.99Y-274.474
X247.244Y-130.607
X247.269Y-129.794
X247.307Y-140.983
X247.33Y-141.925
X247.424Y-230.073
X247.523Y-231.089
X247.955Y-264.389
X248.082Y-263.576
X248.793Y-272.517
X248.869Y-145.212
X249.199Y-226.898
X249.428Y-273.173
X249.885Y-145.161
X250.165Y-146.101
X250.266Y-227.178
X250.444Y-142.088
X250.749Y-143.002
X250.825Y-260.934
X250.952Y-260.063
X251.333Y-142.092
X251.511Y-221.539
X252.019Y-276.987
X252.087Y-220.759
X252.249Y-276.071
X252.628Y-232.08
X253.187Y-255.6
X253.238Y-254.686
X253.351Y-231.505
X253.984Y-198.396
X254.406Y-142.9
X254.572Y-143.743
X254.584Y-197.688
X254.763Y-267.588
X255.346Y-266.878
X257.277Y-271.297
X257.962Y-240.436
X258.218Y-271.041
X258.75Y-240.868
X259.342Y-201.626
X259.842Y-235.966
X259.918Y-223.901
X260.147Y-201.879
X260.325Y-236.753
X260.35Y-224.688
X261.315Y-202.362
X261.798Y-166.294
X261.823Y-202.997
X262.407Y-217.526
X262.611Y-165.633
X262.712Y-232.181
X263.084Y-166.472
X263.195Y-217.856
X263.474Y-232.97
X265.176Y-224.536
X265.252Y-223.571
X265.303Y-122.465
X266.192Y-122.453
X266.522Y-220.548
X266.839Y-219.709
X267.005Y-201.879
X267.03Y-226.746
X267.157Y-227.66
X267.752Y-201.512
X268.122Y-255.321
X268.402Y-177.848
X268.503Y-176.886
X268.63Y-229.286
X268.656Y-132.944
X268.681Y-131.902
X268.859Y-255.841
X269.164Y-228.448
X269.443Y-229.946
X270.068Y-230.657
X270.078Y-131.089
X270.089Y-131.952
X270.332Y-231.47
X270.822Y-182.88
X270.967Y-272.999
X271.221Y-142.9
X271.247Y-181.966
X271.348Y-243.129
X271.755Y-242.418
X271.757Y-142.139
X271.937Y-272.891
X272.44Y-231.394
X272.452Y-232.295
X272.466Y-140.106
X273.217Y-139.818
X273.304Y-269.215
X273.406Y-238.557
X273.472Y-235.356
X273.57Y-270.19
X273.685Y-241.554
X273.761Y-239.395
X273.951Y-185.42
X274.122Y-234.569
X274.124Y-233.622
X274.422Y-184.633
X274.472Y-240.868
X275.191Y-140.963
X275.285Y-140.157
X276.281Y-225.928
X277.012Y-226.593
X277.19Y-142.011
X277.546Y-111.887
X278.079Y-141.986
X279.666Y-243.983
X279.695Y-181.163
X280.213Y-244.754
X280.543Y-180.797
X280.873Y-181.551
X281.203Y-228.117
X281.203Y-236.728
X281.534Y-180.784
X281.862Y-249.113
X281.864Y-249.936
X282.27Y-177.495
X282.296Y-186.36
X283.362Y-222.37
X283.86Y-232.569
X284.302Y-222.707
X284.404Y-223.799
X284.759Y-232.613
X284.868Y-180.383
X284.873Y-181.271
X285.344Y-201.93
X285.524Y-201.067
X285.524Y-224.285
X286.067Y-180.378
X286.218Y-181.407
X286.385Y-224.612
X286.385Y-236.728
X286.385Y-240.309
X286.41Y-228.143
X286.893Y-180.696
X287.476Y-186.309
X287.477Y-173.431
X287.477Y-177.495
X287.528Y-190.068
X287.655Y-181.407
X287.753Y-229.613
X288.138Y-135.585
X288.214Y-144.424
X288.265Y-180.696
X288.486Y-230.276
X288.493Y-142.977
X288.747Y-133.96
X290.423Y-121.339
X290.423Y-183.74
X290.449Y-120.447
X290.474Y-184.607
T2
X156.235Y-75.438
T3
X73.482Y-194.742
X75.082Y-194.818
X75.565Y-199.517
X78.511Y-145.517
X78.638Y-203.149
X79.045Y-140.31
X79.197Y-150.19
X80.366Y-141.224
X95.91Y-244.653
X97.307Y-243.865
X100.355Y-247.777
X104.597Y-249.377
X106.223Y-104.521
X107.823Y-100.127
X110.973Y-95.91
X111.76Y-97.282
X140.31Y-276.631
X141.199Y-275.361
X145.593Y-277.165
X150.114Y-276.504
X152.476Y-78.638
X160.833Y-73.508
X160.858Y-75.082
X194.818Y-282.092
X194.843Y-280.518
X199.568Y-279.933
X203.149Y-277.012
X205.359Y-79.35
X210.058Y-78.486
X214.478Y-80.391
X215.265Y-78.969
X243.992Y-258.191
X244.627Y-259.69
X247.65Y-255.372
X249.453Y-251.13
X250.927Y-106.274
X255.372Y-108.052
X258.242Y-111.735
X259.613Y-110.973
X275.311Y-214.478
X276.428Y-205.384
X276.504Y-215.443
X276.885Y-152.476
X276.987Y-210.185
X279.933Y-156.185
X280.518Y-160.884
X282.118Y-160.858
T4
X274.096Y-266.785
X274.78Y-268.665
X275.464Y-270.544
X275.975Y-266.101
X276.659Y-267.981
X277.343Y-269.86
X286.638Y-259.611
X287.507Y-261.998
T5
X89.126Y-160.02
X89.126Y-162.56
X89.126Y-165.1
X89.126Y-167.64
X89.126Y-170.18
X89.126Y-172.72
X89.126Y-175.26
X89.126Y-177.8
X89.126Y-180.34
X89.126Y-182.88
X89.126Y-185.42
X89.126Y-187.96
X89.126Y-190.5
X89.126Y-193.04
X89.126Y-195.58
X92.116Y-148.861
X92.116Y-206.739
X93.386Y-146.661
X93.386Y-208.939
X94.656Y-144.462
X94.656Y-211.138
X95.926Y-142.262
X95.926Y-213.338
X97.196Y-140.062
X97.196Y-215.538
X98.466Y-137.862
X98.466Y-217.738
X99.736Y-135.663
X99.736Y-219.937
X101.006Y-133.463
X101.006Y-222.137
X102.276Y-131.263
X102.276Y-224.337
X103.546Y-129.064
X103.546Y-226.536
X104.816Y-126.864
X104.816Y-228.736
X106.086Y-124.664
X106.086Y-230.936
X107.356Y-122.464
X107.356Y-233.136
X108.626Y-120.265
X108.626Y-235.335
X109.896Y-118.065
X109.896Y-237.535
X118.065Y-109.896
X118.065Y-245.704
X120.265Y-108.626
X120.265Y-246.974
X122.464Y-107.356
X122.464Y-248.244
X124.664Y-106.086
X124.664Y-249.514
X126.864Y-104.816
X126.864Y-250.784
X129.064Y-103.546
X129.064Y-252.054
X131.263Y-102.276
X131.263Y-253.324
X133.463Y-101.006
X133.463Y-254.594
X135.663Y-99.736
X135.663Y-255.864
X137.862Y-98.466
X137.862Y-257.134
X140.062Y-97.196
X140.062Y-258.404
X142.262Y-95.926
X142.262Y-259.674
X144.462Y-94.656
X144.462Y-260.944
X146.661Y-93.386
X146.661Y-262.214
X148.861Y-92.116
X148.861Y-263.484
X160.02Y-89.126
X160.02Y-266.474
X162.56Y-89.126
X162.56Y-266.474
X165.1Y-89.126
X165.1Y-266.474
X167.64Y-89.126
X167.64Y-266.474
X170.18Y-89.126
X170.18Y-266.474
X172.72Y-89.126
X172.72Y-266.474
X175.26Y-89.126
X175.26Y-266.474
X177.8Y-89.126
X177.8Y-266.474
X180.34Y-89.126
X180.34Y-266.474
X182.88Y-89.126
X182.88Y-266.474
X185.42Y-89.126
X185.42Y-266.474
X187.96Y-89.126
X187.96Y-266.474
X190.5Y-89.126
X190.5Y-266.474
X193.04Y-89.126
X193.04Y-266.474
X195.58Y-89.126
X195.58Y-266.474
X206.739Y-92.116
X206.739Y-263.484
X208.939Y-93.386
X208.939Y-262.214
X211.138Y-94.656
X211.138Y-260.944
X213.338Y-95.926
X213.338Y-259.674
X215.538Y-97.196
X215.538Y-258.404
X217.738Y-98.466
X217.738Y-257.134
X219.937Y-99.736
X219.937Y-255.864
X222.137Y-101.006
X222.137Y-254.594
X224.337Y-102.276
X224.337Y-253.324
X226.536Y-103.546
X226.536Y-252.054
X228.736Y-104.816
X228.736Y-250.784
X230.936Y-106.086
X230.936Y-249.514
X233.136Y-107.356
X233.136Y-248.244
X235.335Y-108.626
X235.335Y-246.974
X237.535Y-109.896
X237.535Y-245.704
X245.704Y-118.065
X245.704Y-237.535
X246.974Y-120.265
X246.974Y-235.335
X248.244Y-122.464
X248.244Y-233.136
X249.514Y-124.664
X249.514Y-230.936
X250.784Y-126.864
X250.784Y-228.736
X252.054Y-129.064
X252.054Y-226.536
X253.324Y-131.263
X253.324Y-224.337
X254.594Y-133.463
X254.594Y-222.137
X255.864Y-135.663
X255.864Y-219.937
X257.134Y-137.862
X257.134Y-217.738
X258.404Y-140.062
X258.404Y-215.538
X259.674Y-142.262
X259.674Y-213.338
X260.944Y-144.462
X260.944Y-211.138
X262.214Y-146.661
X262.214Y-208.939
X263.484Y-148.861
X263.484Y-206.739
X266.474Y-160.02
X266.474Y-162.56
X266.474Y-165.1
X266.474Y-167.64
X266.474Y-170.18
X266.474Y-172.72
X266.474Y-175.26
X266.474Y-177.8
X266.474Y-180.34
X266.474Y-182.88
X266.474Y-185.42
X266.474Y-187.96
X266.474Y-190.5
X266.474Y-193.04
X266.474Y-195.58
T6
X230.256Y-273.375
X232.643Y-272.507
X235.029Y-271.638
X235.468Y-287.696
X237.416Y-270.769
X237.855Y-286.828
X239.803Y-269.9
X240.242Y-285.959
X242.19Y-269.032
X242.629Y-285.09
X243.059Y-271.419
X243.927Y-273.805
X244.577Y-268.163
X244.796Y-276.192
X245.015Y-284.221
X245.665Y-278.579
X246.534Y-280.966
X246.964Y-267.294
X247.402Y-283.353
X249.35Y-266.426
X249.789Y-282.484
X251.737Y-265.557
X252.176Y-281.615
X254.124Y-264.688
X254.563Y-280.746
X256.511Y-263.819
X256.95Y-279.878
X258.898Y-262.951
X259.336Y-279.009
X261.284Y-262.082
X261.723Y-278.14
X263.671Y-261.213
X264.11Y-277.271
X266.058Y-260.344
X266.497Y-276.403
X268.445Y-259.476
X268.884Y-275.534
X270.729Y-261.891
X270.832Y-258.607
X271.27Y-274.665
X273.116Y-261.022
X273.219Y-257.738
X273.657Y-273.797
X275.503Y-260.153
X275.605Y-256.869
X276.044Y-272.928
X277.89Y-259.285
X277.992Y-256.001
X278.431Y-272.059
X280.277Y-258.416
X280.379Y-255.132
X280.818Y-271.19
X282.766Y-254.263
X283.205Y-270.322
X285.153Y-253.395
X285.591Y-269.453
X287.109Y-266.197
X287.978Y-268.584
X290.365Y-267.715
T7
X289.103Y-92.202
T8
X284.48Y-108.253
X284.48Y-113.003
X284.48Y-117.752
T9
X286.106Y-92.202
X287.096Y-87.706
X287.096Y-96.698
T10
X280.111Y-92.202
T11
X76.2Y-76.2
X76.2Y-279.4
X279.4Y-76.2
X279.4Y-279.4
M30
