M48
; DRILL file {KiCad 8.0.5} date 2024-10-09T12:00:00-0400
; FORMAT={-:-/ absolute / metric / decimal}
; #@! TF.CreationDate,2024-10-09T12:00:00-04:00
; #@! TF.GenerationSoftware,Kicad,Pcbnew,8.0.5
; #@! TF.FileFunction,Plated,1,6,PTH
FMAT,2
METRIC
; #@! TA.AperFunction,Plated,PTH,ViaDrill
T1C0.300
; #@! TA.AperFunction,Plated,PTH,ViaDrill
T2C0.600
; #@! TA.AperFunction,Plated,PTH,ComponentDrill
T3C0.800
; #@! TA.AperFunction,Plated,PTH,ComponentDrill
T4C1.016
; #@! TA.AperFunction,Plated,PTH,ComponentDrill
T5C1.600
; #@! TA.AperFunction,Plated,PTH,ComponentDrill
T6C1.778
; #@! TA.AperFunction,Plated,PTH,ComponentDrill
T7C2.692
; #@! TA.AperFunction,Plated,PTH,ComponentDrill
T8C2.700
; #@! TA.AperFunction,Plated,PTH,ComponentDrill
T9C3.150
; #@! TA.AperFunction,Plated,PTH,ComponentDrill
T10C4.500
%
G90
G05
T1
X78.232Y-151.13
X78.283Y-204.445
X91.313Y-167.107
X91.567Y-167.97
X91.745Y-164.287
X91.936Y-165.151
X92.354Y-287.63
X92.659Y-214.274
X93.193Y-240.589
X93.254Y-171.768
X93.548Y-214.202
X93.917Y-174.93
X93.929Y-171.247
X94.027Y-240.199
X94.412Y-158.166
X94.567Y-175.743
X94.569Y-176.965
X95.25Y-158.191
X95.479Y-255.194
X96.215Y-287.633
X96.241Y-282.473
X96.277Y-254.813
X96.291Y-144.501
X96.494Y-145.491
X96.545Y-154.508
X97.33Y-153.845
X97.561Y-256.438
X97.993Y-203.175
X98.45Y-256.464
X98.595Y-203.776
X98.837Y-207.982
X98.908Y-209.118
X99.434Y-285.827
X99.771Y-257.937
X100.178Y-285.318
X100.355Y-205.664
X100.635Y-257.937
X101.371Y-205.588
X101.905Y-260.198
X101.905Y-289.687
X102.743Y-260.223
X102.819Y-289.458
X103.299Y-220.873
X103.378Y-219.812
X104.724Y-282.448
X104.8Y-287.648
X104.902Y-104.953
X104.927Y-250.622
X105.512Y-261.078
X105.512Y-261.925
X105.613Y-282.473
X106.199Y-266.724
X106.934Y-266.148
X107.721Y-215.875
X108.534Y-216.433
X108.712Y-287.68
X109.703Y-287.68
X110.871Y-276.2
X110.922Y-275.361
X113.127Y-227.071
X113.462Y-121.793
X113.462Y-126.644
X114.071Y-227.101
X114.097Y-230.835
X114.402Y-122.123
X114.554Y-126.619
X114.554Y-231.8
X115.265Y-125.908
X115.595Y-287.782
X117.983Y-286.156
X118.479Y-285.457
X119.355Y-287.731
X119.431Y-282.55
X122.138Y-286.446
X122.733Y-287.147
X122.85Y-280.965
X123.419Y-281.625
X123.647Y-287.858
X123.673Y-274.041
X124.206Y-274.726
X124.638Y-287.833
X124.987Y-284.448
X125.019Y-282.448
X125.095Y-283.413
X126.924Y-280.213
X127.864Y-280.264
X127.94Y-282.524
X127.94Y-287.713
X128.854Y-282.521
X129.794Y-111.074
X130.607Y-111.531
X131.597Y-286.903
X131.75Y-287.706
X133.083Y-248.632
X133.096Y-107.645
X133.25Y-244.906
X133.706Y-248.082
X133.833Y-108.255
X133.934Y-244.272
X134.442Y-107.544
X137.008Y-282.55
X137.998Y-282.575
X138.788Y-250.444
X139.344Y-249.794
X139.449Y-277.595
X139.675Y-274.625
X140.477Y-274.282
X140.665Y-277.647
X143.916Y-249.631
X144.348Y-276.824
X144.475Y-248.95
X145.186Y-276.123
X145.288Y-277.063
X149.915Y-253.2
X150.52Y-253.898
X151.105Y-277.292
X151.206Y-78.283
X152.215Y-101.712
X152.248Y-100.838
X153.456Y-280.081
X153.888Y-254.785
X153.975Y-260.706
X154.232Y-261.72
X154.254Y-279.679
X154.884Y-260.954
X155.016Y-254.781
X155.23Y-267.706
X155.291Y-266.822
X155.305Y-262.793
X155.579Y-254.131
X156.058Y-263.246
X158.75Y-282.575
X159.055Y-261.595
X159.309Y-263.957
X159.41Y-287.858
X159.586Y-282.243
X159.817Y-261.95
X160.299Y-287.833
X160.321Y-264.722
X160.503Y-263.83
X164.16Y-278.926
X164.186Y-287.801
X164.236Y-282.6
X165.151Y-278.943
X166.294Y-255.153
X166.98Y-255.803
X167.403Y-282.118
X167.462Y-283.235
X168.019Y-285.848
X168.3Y-286.715
X169.012Y-287.147
X169.028Y-269.57
X169.774Y-286.639
X169.875Y-287.945
X169.89Y-283.073
X169.951Y-270.281
X169.951Y-283.972
X170.028Y-269.342
X170.967Y-269.519
X171.933Y-258.953
X172.06Y-281.693
X172.72Y-259.107
X172.796Y-287.776
X172.923Y-282.55
X173.025Y-281.693
X173.355Y-269.57
X173.799Y-281.079
X173.838Y-272.199
X174.422Y-269.672
X174.574Y-271.501
X174.854Y-255.88
X175.26Y-256.664
X175.641Y-271.547
X175.692Y-278.74
X176.174Y-279.425
X176.708Y-287.731
X176.958Y-286.915
X177.267Y-97.741
X177.292Y-96.926
X177.495Y-276.86
X178.384Y-276.987
X178.434Y-283.742
X178.537Y-284.546
X179.476Y-283.845
X180.772Y-279.324
X181.635Y-279.389
X182.22Y-276.86
X182.55Y-279.425
X182.728Y-276.215
X182.875Y-272.084
X183.363Y-271.323
X185.333Y-276.301
X185.649Y-283.159
X185.699Y-256.946
X185.982Y-276.903
X186.244Y-264.603
X186.614Y-257.116
X186.665Y-276.215
X186.893Y-285.928
X187.149Y-264.67
X189.154Y-287.477
X190.475Y-255.499
X191.313Y-254.849
X192.075Y-273.431
X192.075Y-284.074
X192.43Y-254.849
X192.837Y-273.736
X192.862Y-284.632
X193.109Y-276.758
X193.167Y-287.477
X193.446Y-286.639
X193.497Y-254.849
X194.25Y-265.825
X194.622Y-254.98
X199.238Y-286.969
X199.542Y-253.314
X199.808Y-287.565
X200.419Y-253.403
X201.578Y-258.321
X202.333Y-286.847
X202.489Y-258.318
X203.251Y-286.639
X203.378Y-99.035
X203.657Y-253.34
X203.81Y-264.185
X203.86Y-284.404
X204.038Y-99.797
X204.48Y-263.693
X204.521Y-78.308
X204.591Y-253.325
X204.622Y-96.952
X204.724Y-258.369
X204.752Y-283.492
X204.902Y-284.429
X205.181Y-269.164
X205.197Y-252.652
X205.384Y-257.607
X205.422Y-97.741
X205.588Y-100.889
X205.689Y-276.682
X205.867Y-283.718
X205.969Y-251.968
X206.045Y-268.859
X206.253Y-282.804
X206.451Y-100.902
X206.807Y-269.443
X206.985Y-252.023
X208.331Y-289.484
X208.839Y-290.195
X209.702Y-285.733
X209.906Y-287.34
X210.134Y-284.912
X210.261Y-268.199
X210.261Y-269.037
X210.642Y-287.807
X211.157Y-251.659
X211.455Y-250.215
X211.861Y-250.952
X212.877Y-250.266
X213.03Y-275.336
X213.065Y-102.293
X213.385Y-274.574
X213.617Y-252.025
X214.198Y-102.21
X214.528Y-251.394
X215.107Y-247.339
X215.697Y-251.346
X216.052Y-272.44
X216.078Y-247.396
X216.654Y-273.067
X218.389Y-267.106
X219.088Y-267.549
X220.142Y-109.746
X220.218Y-271.348
X220.726Y-273.456
X220.929Y-271.907
X220.98Y-274.396
X221.234Y-109.652
X221.412Y-287.706
X221.463Y-284.988
X221.465Y-248.026
X222.118Y-242.595
X222.275Y-247.218
X222.275Y-284.353
X222.682Y-241.808
X223.063Y-284.963
X223.251Y-247.203
X224.053Y-284.429
X224.13Y-264.287
X224.257Y-255.346
X224.333Y-256.159
X224.612Y-283.108
X225.016Y-264.308
X225.019Y-284.429
X225.4Y-287.69
X225.425Y-282.499
X227.965Y-111.201
X228.448Y-283.362
X228.453Y-286.385
X228.905Y-111.277
X228.956Y-287.172
X228.98Y-110.377
X229.133Y-283.972
X229.616Y-284.709
X229.794Y-287.579
X229.87Y-240.843
X229.972Y-112.141
X230.008Y-111.232
X230.734Y-287.172
X230.835Y-240.148
X230.988Y-112.09
X230.988Y-113.005
X231.397Y-286.524
X231.427Y-287.884
X231.892Y-113.368
X231.902Y-280.899
X232.664Y-281.203
X233.012Y-238.956
X233.147Y-234.544
X233.35Y-238.125
X233.901Y-233.813
X234.137Y-282.499
X234.137Y-287.685
X234.137Y-281.457
X234.168Y-238.008
X234.323Y-285.763
X234.536Y-286.566
X234.925Y-280.746
X235.966Y-236.931
X236.169Y-235.229
X236.245Y-236.118
X236.465Y-237.617
X237.094Y-235.045
X237.744Y-286.131
X237.871Y-284.277
X237.871Y-285.166
X237.922Y-287.655
X238.442Y-281.318
X238.459Y-229.657
X239.014Y-281.889
X239.486Y-229.199
X240.297Y-228.385
X242.597Y-124.954
X242.601Y-125.877
X242.697Y-221.666
X243.477Y-221.227
X243.865Y-225.4
X244.664Y-225.063
X244.729Y-287.68
X244.907Y-129.515
X244.956Y-128.276
X246.043Y-130.283
X246.294Y-131.43
X247.043Y-132.179
X248.133Y-261.569
X248.209Y-260.731
X248.514Y-287.663
X248.539Y-282.448
X250.266Y-264.16
X250.673Y-105.029
X250.673Y-250.622
X250.698Y-137.846
X250.754Y-136.887
X251.104Y-264.643
X251.409Y-257.353
X252.135Y-256.794
X252.882Y-231.927
X253.187Y-232.74
X253.695Y-265.024
X254.279Y-259.969
X254.381Y-265.466
X254.499Y-260.883
X255.016Y-210.49
X255.196Y-259.664
X255.358Y-250.712
X255.641Y-208.572
X255.676Y-209.652
X255.923Y-260.954
X256.047Y-250.012
X256.311Y-205.613
X256.792Y-261.873
X256.906Y-260.843
X257.071Y-205.052
X257.124Y-282.448
X257.15Y-287.648
X257.277Y-289.433
X257.289Y-288.588
X257.708Y-281.61
X258.473Y-253.621
X259.298Y-252.948
X260.06Y-193.777
X260.091Y-180.34
X260.106Y-195.097
X260.807Y-179.172
X261.518Y-287.68
X261.564Y-179.779
X261.71Y-243.002
X262.318Y-241.465
X262.509Y-242.443
X263.144Y-248.945
X263.342Y-249.824
X263.83Y-193.853
X264.189Y-283.286
X264.516Y-193.184
X264.973Y-282.499
X265.479Y-281.61
X267.894Y-225.527
X268.072Y-267.995
X268.892Y-225.661
X269.062Y-267.97
X269.24Y-234.442
X269.908Y-267.97
X270.087Y-234.423
X275.676Y-264.908
X276.428Y-234.112
X276.504Y-264.389
X276.809Y-234.823
X277.292Y-204.546
X277.317Y-151.257
X281.356Y-216.738
X281.432Y-207.823
X281.457Y-242.24
X281.483Y-225.527
X281.483Y-248.183
X281.508Y-230.378
X281.508Y-235.585
X284.404Y-119.304
X288.544Y-124.968
X288.638Y-130.947
X289.509Y-130.962
T2
X78.334Y-200.254
X80.442Y-147.472
X83.82Y-200.228
X85.09Y-150.114
X102.87Y-246.99
X107.645Y-244.17
X108.687Y-102.87
X111.354Y-107.569
X147.472Y-275.209
X150.216Y-270.434
X155.346Y-78.308
X155.372Y-83.769
X200.254Y-271.729
X200.254Y-277.317
X204.775Y-277.317
X205.435Y-85.141
X208.153Y-80.467
X244.145Y-247.904
X246.939Y-252.705
X248.056Y-111.328
X252.705Y-108.661
X270.408Y-205.41
X271.831Y-155.6
X275.184Y-208.077
X277.343Y-155.423
T3
X282.892Y-208.915
X282.892Y-211.455
X282.892Y-213.995
X282.892Y-216.535
X282.892Y-219.075
X282.892Y-221.615
X282.892Y-224.155
X282.892Y-226.695
X282.892Y-229.235
X282.892Y-231.775
X282.892Y-234.315
X282.892Y-236.855
X282.892Y-239.395
X282.892Y-241.935
X282.892Y-244.475
X282.892Y-247.015
X282.892Y-249.555
X284.798Y-207.645
X284.798Y-210.185
X284.798Y-212.725
X284.798Y-215.265
X284.798Y-217.805
X284.798Y-220.345
X284.798Y-222.885
X284.798Y-225.425
X284.798Y-227.965
X284.798Y-230.505
X284.798Y-233.045
X284.798Y-235.585
X284.798Y-238.125
X284.798Y-240.665
X284.798Y-243.205
X284.798Y-245.745
X284.798Y-248.285
X286.702Y-208.915
X286.702Y-211.455
X286.702Y-213.995
X286.702Y-216.535
X286.702Y-219.075
X286.702Y-221.615
X286.702Y-224.155
X286.702Y-226.695
X286.702Y-229.235
X286.702Y-231.775
X286.702Y-234.315
X286.702Y-236.855
X286.702Y-239.395
X286.702Y-241.935
X286.702Y-244.475
X286.702Y-247.015
X286.702Y-249.555
X288.607Y-207.645
X288.607Y-210.185
X288.607Y-212.725
X288.607Y-215.265
X288.607Y-217.805
X288.607Y-220.345
X288.607Y-222.885
X288.607Y-225.425
X288.607Y-227.965
X288.607Y-230.505
X288.607Y-233.045
X288.607Y-235.585
X288.607Y-238.125
X288.607Y-240.665
X288.607Y-243.205
X288.607Y-245.745
X288.607Y-248.285
T4
X89.126Y-160.02
X89.126Y-162.56
X89.126Y-165.1
X89.126Y-167.64
X89.126Y-170.18
X89.126Y-172.72
X89.126Y-175.26
X89.126Y-177.8
X89.126Y-180.34
X89.126Y-182.88
X89.126Y-185.42
X89.126Y-187.96
X89.126Y-190.5
X89.126Y-193.04
X89.126Y-195.58
X92.116Y-148.861
X92.116Y-206.739
X93.386Y-146.661
X93.386Y-208.939
X94.656Y-144.462
X94.656Y-211.138
X95.926Y-142.262
X95.926Y-213.338
X97.196Y-140.062
X97.196Y-215.538
X98.466Y-137.862
X98.466Y-217.738
X99.736Y-135.663
X99.736Y-219.937
X101.006Y-133.463
X101.006Y-222.137
X102.276Y-131.263
X102.276Y-224.337
X103.546Y-129.064
X103.546Y-226.536
X104.816Y-126.864
X104.816Y-228.736
X106.086Y-124.664
X106.086Y-230.936
X107.356Y-122.464
X107.356Y-233.136
X108.626Y-120.265
X108.626Y-235.335
X109.896Y-118.065
X109.896Y-237.535
X118.065Y-109.896
X118.065Y-245.704
X120.265Y-108.626
X120.265Y-246.974
X122.464Y-107.356
X122.464Y-248.244
X124.664Y-106.086
X124.664Y-249.514
X126.864Y-104.816
X126.864Y-250.784
X129.064Y-103.546
X129.064Y-252.054
X131.263Y-102.276
X131.263Y-253.324
X133.463Y-101.006
X133.463Y-254.594
X135.663Y-99.736
X135.663Y-255.864
X137.862Y-98.466
X137.862Y-257.134
X140.062Y-97.196
X140.062Y-258.404
X142.262Y-95.926
X142.262Y-259.674
X144.462Y-94.656
X144.462Y-260.944
X146.661Y-93.386
X146.661Y-262.214
X148.861Y-92.116
X148.861Y-263.484
X160.02Y-89.126
X160.02Y-266.474
X162.56Y-89.126
X162.56Y-266.474
X165.1Y-89.126
X165.1Y-266.474
X167.64Y-89.126
X167.64Y-266.474
X170.18Y-89.126
X170.18Y-266.474
X172.72Y-89.126
X172.72Y-266.474
X175.26Y-89.126
X175.26Y-266.474
X177.8Y-89.126
X177.8Y-266.474
X180.34Y-89.126
X180.34Y-266.474
X182.88Y-89.126
X182.88Y-266.474
X185.42Y-89.126
X185.42Y-266.474
X187.96Y-89.126
X187.96Y-266.474
X190.5Y-89.126
X190.5Y-266.474
X193.04Y-89.126
X193.04Y-266.474
X195.58Y-89.126
X195.58Y-266.474
X206.739Y-92.116
X206.739Y-263.484
X208.939Y-93.386
X208.939Y-262.214
X211.138Y-94.656
X211.138Y-260.944
X213.338Y-95.926
X213.338Y-259.674
X215.538Y-97.196
X215.538Y-258.404
X217.738Y-98.466
X217.738Y-257.134
X219.937Y-99.736
X219.937Y-255.864
X222.137Y-101.006
X222.137Y-254.594
X224.337Y-102.276
X224.337Y-253.324
X226.536Y-103.546
X226.536Y-252.054
X228.736Y-104.816
X228.736Y-250.784
X230.936Y-106.086
X230.936Y-249.514
X233.136Y-107.356
X233.136Y-248.244
X235.335Y-108.626
X235.335Y-246.974
X237.535Y-109.896
X237.535Y-245.704
X245.704Y-118.065
X245.704Y-237.535
X246.974Y-120.265
X246.974Y-235.335
X248.244Y-122.464
X248.244Y-233.136
X249.514Y-124.664
X249.514Y-230.936
X250.784Y-126.864
X250.784Y-228.736
X252.054Y-129.064
X252.054Y-226.536
X253.324Y-131.263
X253.324Y-224.337
X254.594Y-133.463
X254.594Y-222.137
X255.864Y-135.663
X255.864Y-219.937
X257.134Y-137.862
X257.134Y-217.738
X258.404Y-140.062
X258.404Y-215.538
X259.674Y-142.262
X259.674Y-213.338
X260.944Y-144.462
X260.944Y-211.138
X262.214Y-146.661
X262.214Y-208.939
X263.484Y-148.861
X263.484Y-206.739
X266.474Y-160.02
X266.474Y-162.56
X266.474Y-165.1
X266.474Y-167.64
X266.474Y-170.18
X266.474Y-172.72
X266.474Y-175.26
X266.474Y-177.8
X266.474Y-180.34
X266.474Y-182.88
X266.474Y-185.42
X266.474Y-187.96
X266.474Y-190.5
X266.474Y-193.04
X266.474Y-195.58
T5
X289.027Y-92.024
T6
X284.48Y-107.34
X284.48Y-112.09
X284.48Y-116.84
T7
X286.029Y-92.024
X287.02Y-87.528
X287.02Y-96.52
T8
X285.75Y-199.645
X285.75Y-257.555
T9
X280.035Y-92.024
T10
X76.2Y-76.2
X76.2Y-279.4
X279.4Y-76.2
X279.4Y-279.4
X285.75Y-190.5
X285.75Y-266.7
M30
