%TF.GenerationSoftware,KiCad,Pcbnew,8.0.5*%
%TF.CreationDate,2024-10-09T12:00:16-04:00*%
%TF.ProjectId,ni_arena_12-12,6e695f61-7265-46e6-915f-31322d31322e,v0.1.1*%
%TF.SameCoordinates,Original*%
%TF.FileFunction,Legend,Bot*%
%TF.FilePolarity,Positive*%
%FSLAX46Y46*%
G04 Gerber Fmt 4.6, Leading zero omitted, Abs format (unit mm)*
G04 Created by KiCad (PCBNEW 8.0.5) date 2024-10-09 12:00:16*
%MOMM*%
%LPD*%
G01*
G04 APERTURE LIST*
G04 Aperture macros list*
%AMRotRect*
0 Rectangle, with rotation*
0 The origin of the aperture is its center*
0 $1 length*
0 $2 width*
0 $3 Rotation angle, in degrees counterclockwise*
0 Add horizontal line*
21,1,$1,$2,0,0,$3*%
G04 Aperture macros list end*
%ADD10C,0.300000*%
%ADD11C,9.000000*%
%ADD12R,1.600000X1.600000*%
%ADD13C,1.600000*%
%ADD14RotRect,1.600000X1.600000X240.000000*%
%ADD15C,2.540000*%
%ADD16RotRect,1.600000X1.600000X150.000000*%
%ADD17RotRect,1.600000X1.600000X210.000000*%
%ADD18C,3.556000*%
%ADD19C,1.930400*%
%ADD20C,4.064000*%
%ADD21RotRect,1.600000X1.600000X30.000000*%
%ADD22RotRect,1.600000X1.600000X60.000000*%
%ADD23RotRect,1.600000X1.600000X120.000000*%
%ADD24RotRect,1.600000X1.600000X300.000000*%
%ADD25C,1.400000*%
%ADD26C,3.700000*%
%ADD27RotRect,1.600000X1.600000X330.000000*%
G04 APERTURE END LIST*
D10*
X72444828Y-92121510D02*
X70944828Y-92121510D01*
X72444828Y-92764368D02*
X71659114Y-92764368D01*
X71659114Y-92764368D02*
X71516257Y-92692939D01*
X71516257Y-92692939D02*
X71444828Y-92550082D01*
X71444828Y-92550082D02*
X71444828Y-92335796D01*
X71444828Y-92335796D02*
X71516257Y-92192939D01*
X71516257Y-92192939D02*
X71587685Y-92121510D01*
X71444828Y-93264368D02*
X71444828Y-93835796D01*
X70944828Y-93478653D02*
X72230542Y-93478653D01*
X72230542Y-93478653D02*
X72373400Y-93550082D01*
X72373400Y-93550082D02*
X72444828Y-93692939D01*
X72444828Y-93692939D02*
X72444828Y-93835796D01*
X71444828Y-94121511D02*
X71444828Y-94692939D01*
X70944828Y-94335796D02*
X72230542Y-94335796D01*
X72230542Y-94335796D02*
X72373400Y-94407225D01*
X72373400Y-94407225D02*
X72444828Y-94550082D01*
X72444828Y-94550082D02*
X72444828Y-94692939D01*
X71444828Y-95192939D02*
X72944828Y-95192939D01*
X71516257Y-95192939D02*
X71444828Y-95335797D01*
X71444828Y-95335797D02*
X71444828Y-95621511D01*
X71444828Y-95621511D02*
X71516257Y-95764368D01*
X71516257Y-95764368D02*
X71587685Y-95835797D01*
X71587685Y-95835797D02*
X71730542Y-95907225D01*
X71730542Y-95907225D02*
X72159114Y-95907225D01*
X72159114Y-95907225D02*
X72301971Y-95835797D01*
X72301971Y-95835797D02*
X72373400Y-95764368D01*
X72373400Y-95764368D02*
X72444828Y-95621511D01*
X72444828Y-95621511D02*
X72444828Y-95335797D01*
X72444828Y-95335797D02*
X72373400Y-95192939D01*
X72373400Y-96478654D02*
X72444828Y-96621511D01*
X72444828Y-96621511D02*
X72444828Y-96907225D01*
X72444828Y-96907225D02*
X72373400Y-97050082D01*
X72373400Y-97050082D02*
X72230542Y-97121511D01*
X72230542Y-97121511D02*
X72159114Y-97121511D01*
X72159114Y-97121511D02*
X72016257Y-97050082D01*
X72016257Y-97050082D02*
X71944828Y-96907225D01*
X71944828Y-96907225D02*
X71944828Y-96692940D01*
X71944828Y-96692940D02*
X71873400Y-96550082D01*
X71873400Y-96550082D02*
X71730542Y-96478654D01*
X71730542Y-96478654D02*
X71659114Y-96478654D01*
X71659114Y-96478654D02*
X71516257Y-96550082D01*
X71516257Y-96550082D02*
X71444828Y-96692940D01*
X71444828Y-96692940D02*
X71444828Y-96907225D01*
X71444828Y-96907225D02*
X71516257Y-97050082D01*
X72301971Y-97764368D02*
X72373400Y-97835797D01*
X72373400Y-97835797D02*
X72444828Y-97764368D01*
X72444828Y-97764368D02*
X72373400Y-97692940D01*
X72373400Y-97692940D02*
X72301971Y-97764368D01*
X72301971Y-97764368D02*
X72444828Y-97764368D01*
X71516257Y-97764368D02*
X71587685Y-97835797D01*
X71587685Y-97835797D02*
X71659114Y-97764368D01*
X71659114Y-97764368D02*
X71587685Y-97692940D01*
X71587685Y-97692940D02*
X71516257Y-97764368D01*
X71516257Y-97764368D02*
X71659114Y-97764368D01*
X70873400Y-99550083D02*
X72801971Y-98264369D01*
X70873400Y-101121512D02*
X72801971Y-99835798D01*
X72444828Y-101621512D02*
X71444828Y-101621512D01*
X71730542Y-101621512D02*
X71587685Y-101692941D01*
X71587685Y-101692941D02*
X71516257Y-101764370D01*
X71516257Y-101764370D02*
X71444828Y-101907227D01*
X71444828Y-101907227D02*
X71444828Y-102050084D01*
X72373400Y-103121512D02*
X72444828Y-102978655D01*
X72444828Y-102978655D02*
X72444828Y-102692941D01*
X72444828Y-102692941D02*
X72373400Y-102550083D01*
X72373400Y-102550083D02*
X72230542Y-102478655D01*
X72230542Y-102478655D02*
X71659114Y-102478655D01*
X71659114Y-102478655D02*
X71516257Y-102550083D01*
X71516257Y-102550083D02*
X71444828Y-102692941D01*
X71444828Y-102692941D02*
X71444828Y-102978655D01*
X71444828Y-102978655D02*
X71516257Y-103121512D01*
X71516257Y-103121512D02*
X71659114Y-103192941D01*
X71659114Y-103192941D02*
X71801971Y-103192941D01*
X71801971Y-103192941D02*
X71944828Y-102478655D01*
X72444828Y-103835797D02*
X71444828Y-103835797D01*
X70944828Y-103835797D02*
X71016257Y-103764369D01*
X71016257Y-103764369D02*
X71087685Y-103835797D01*
X71087685Y-103835797D02*
X71016257Y-103907226D01*
X71016257Y-103907226D02*
X70944828Y-103835797D01*
X70944828Y-103835797D02*
X71087685Y-103835797D01*
X72373400Y-104478655D02*
X72444828Y-104621512D01*
X72444828Y-104621512D02*
X72444828Y-104907226D01*
X72444828Y-104907226D02*
X72373400Y-105050083D01*
X72373400Y-105050083D02*
X72230542Y-105121512D01*
X72230542Y-105121512D02*
X72159114Y-105121512D01*
X72159114Y-105121512D02*
X72016257Y-105050083D01*
X72016257Y-105050083D02*
X71944828Y-104907226D01*
X71944828Y-104907226D02*
X71944828Y-104692941D01*
X71944828Y-104692941D02*
X71873400Y-104550083D01*
X71873400Y-104550083D02*
X71730542Y-104478655D01*
X71730542Y-104478655D02*
X71659114Y-104478655D01*
X71659114Y-104478655D02*
X71516257Y-104550083D01*
X71516257Y-104550083D02*
X71444828Y-104692941D01*
X71444828Y-104692941D02*
X71444828Y-104907226D01*
X71444828Y-104907226D02*
X71516257Y-105050083D01*
X72373400Y-106335798D02*
X72444828Y-106192941D01*
X72444828Y-106192941D02*
X72444828Y-105907227D01*
X72444828Y-105907227D02*
X72373400Y-105764369D01*
X72373400Y-105764369D02*
X72230542Y-105692941D01*
X72230542Y-105692941D02*
X71659114Y-105692941D01*
X71659114Y-105692941D02*
X71516257Y-105764369D01*
X71516257Y-105764369D02*
X71444828Y-105907227D01*
X71444828Y-105907227D02*
X71444828Y-106192941D01*
X71444828Y-106192941D02*
X71516257Y-106335798D01*
X71516257Y-106335798D02*
X71659114Y-106407227D01*
X71659114Y-106407227D02*
X71801971Y-106407227D01*
X71801971Y-106407227D02*
X71944828Y-105692941D01*
X72444828Y-107050083D02*
X71444828Y-107050083D01*
X71730542Y-107050083D02*
X71587685Y-107121512D01*
X71587685Y-107121512D02*
X71516257Y-107192941D01*
X71516257Y-107192941D02*
X71444828Y-107335798D01*
X71444828Y-107335798D02*
X71444828Y-107478655D01*
X72444828Y-108192940D02*
X72373400Y-108050083D01*
X72373400Y-108050083D02*
X72230542Y-107978654D01*
X72230542Y-107978654D02*
X70944828Y-107978654D01*
X72444828Y-109407226D02*
X71659114Y-109407226D01*
X71659114Y-109407226D02*
X71516257Y-109335797D01*
X71516257Y-109335797D02*
X71444828Y-109192940D01*
X71444828Y-109192940D02*
X71444828Y-108907226D01*
X71444828Y-108907226D02*
X71516257Y-108764368D01*
X72373400Y-109407226D02*
X72444828Y-109264368D01*
X72444828Y-109264368D02*
X72444828Y-108907226D01*
X72444828Y-108907226D02*
X72373400Y-108764368D01*
X72373400Y-108764368D02*
X72230542Y-108692940D01*
X72230542Y-108692940D02*
X72087685Y-108692940D01*
X72087685Y-108692940D02*
X71944828Y-108764368D01*
X71944828Y-108764368D02*
X71873400Y-108907226D01*
X71873400Y-108907226D02*
X71873400Y-109264368D01*
X71873400Y-109264368D02*
X71801971Y-109407226D01*
X72444828Y-110121511D02*
X70944828Y-110121511D01*
X71516257Y-110121511D02*
X71444828Y-110264369D01*
X71444828Y-110264369D02*
X71444828Y-110550083D01*
X71444828Y-110550083D02*
X71516257Y-110692940D01*
X71516257Y-110692940D02*
X71587685Y-110764369D01*
X71587685Y-110764369D02*
X71730542Y-110835797D01*
X71730542Y-110835797D02*
X72159114Y-110835797D01*
X72159114Y-110835797D02*
X72301971Y-110764369D01*
X72301971Y-110764369D02*
X72373400Y-110692940D01*
X72373400Y-110692940D02*
X72444828Y-110550083D01*
X72444828Y-110550083D02*
X72444828Y-110264369D01*
X72444828Y-110264369D02*
X72373400Y-110121511D01*
X72301971Y-111478654D02*
X72373400Y-111550083D01*
X72373400Y-111550083D02*
X72444828Y-111478654D01*
X72444828Y-111478654D02*
X72373400Y-111407226D01*
X72373400Y-111407226D02*
X72301971Y-111478654D01*
X72301971Y-111478654D02*
X72444828Y-111478654D01*
X71444828Y-112835798D02*
X72659114Y-112835798D01*
X72659114Y-112835798D02*
X72801971Y-112764369D01*
X72801971Y-112764369D02*
X72873400Y-112692940D01*
X72873400Y-112692940D02*
X72944828Y-112550083D01*
X72944828Y-112550083D02*
X72944828Y-112335798D01*
X72944828Y-112335798D02*
X72873400Y-112192940D01*
X72373400Y-112835798D02*
X72444828Y-112692940D01*
X72444828Y-112692940D02*
X72444828Y-112407226D01*
X72444828Y-112407226D02*
X72373400Y-112264369D01*
X72373400Y-112264369D02*
X72301971Y-112192940D01*
X72301971Y-112192940D02*
X72159114Y-112121512D01*
X72159114Y-112121512D02*
X71730542Y-112121512D01*
X71730542Y-112121512D02*
X71587685Y-112192940D01*
X71587685Y-112192940D02*
X71516257Y-112264369D01*
X71516257Y-112264369D02*
X71444828Y-112407226D01*
X71444828Y-112407226D02*
X71444828Y-112692940D01*
X71444828Y-112692940D02*
X71516257Y-112835798D01*
X72444828Y-113550083D02*
X71444828Y-113550083D01*
X70944828Y-113550083D02*
X71016257Y-113478655D01*
X71016257Y-113478655D02*
X71087685Y-113550083D01*
X71087685Y-113550083D02*
X71016257Y-113621512D01*
X71016257Y-113621512D02*
X70944828Y-113550083D01*
X70944828Y-113550083D02*
X71087685Y-113550083D01*
X71444828Y-114050084D02*
X71444828Y-114621512D01*
X70944828Y-114264369D02*
X72230542Y-114264369D01*
X72230542Y-114264369D02*
X72373400Y-114335798D01*
X72373400Y-114335798D02*
X72444828Y-114478655D01*
X72444828Y-114478655D02*
X72444828Y-114621512D01*
X72444828Y-115121512D02*
X70944828Y-115121512D01*
X72444828Y-115764370D02*
X71659114Y-115764370D01*
X71659114Y-115764370D02*
X71516257Y-115692941D01*
X71516257Y-115692941D02*
X71444828Y-115550084D01*
X71444828Y-115550084D02*
X71444828Y-115335798D01*
X71444828Y-115335798D02*
X71516257Y-115192941D01*
X71516257Y-115192941D02*
X71587685Y-115121512D01*
X71444828Y-117121513D02*
X72444828Y-117121513D01*
X71444828Y-116478655D02*
X72230542Y-116478655D01*
X72230542Y-116478655D02*
X72373400Y-116550084D01*
X72373400Y-116550084D02*
X72444828Y-116692941D01*
X72444828Y-116692941D02*
X72444828Y-116907227D01*
X72444828Y-116907227D02*
X72373400Y-117050084D01*
X72373400Y-117050084D02*
X72301971Y-117121513D01*
X72444828Y-117835798D02*
X70944828Y-117835798D01*
X71516257Y-117835798D02*
X71444828Y-117978656D01*
X71444828Y-117978656D02*
X71444828Y-118264370D01*
X71444828Y-118264370D02*
X71516257Y-118407227D01*
X71516257Y-118407227D02*
X71587685Y-118478656D01*
X71587685Y-118478656D02*
X71730542Y-118550084D01*
X71730542Y-118550084D02*
X72159114Y-118550084D01*
X72159114Y-118550084D02*
X72301971Y-118478656D01*
X72301971Y-118478656D02*
X72373400Y-118407227D01*
X72373400Y-118407227D02*
X72444828Y-118264370D01*
X72444828Y-118264370D02*
X72444828Y-117978656D01*
X72444828Y-117978656D02*
X72373400Y-117835798D01*
X72301971Y-119192941D02*
X72373400Y-119264370D01*
X72373400Y-119264370D02*
X72444828Y-119192941D01*
X72444828Y-119192941D02*
X72373400Y-119121513D01*
X72373400Y-119121513D02*
X72301971Y-119192941D01*
X72301971Y-119192941D02*
X72444828Y-119192941D01*
X72444828Y-119907227D02*
X71444828Y-119907227D01*
X70944828Y-119907227D02*
X71016257Y-119835799D01*
X71016257Y-119835799D02*
X71087685Y-119907227D01*
X71087685Y-119907227D02*
X71016257Y-119978656D01*
X71016257Y-119978656D02*
X70944828Y-119907227D01*
X70944828Y-119907227D02*
X71087685Y-119907227D01*
X72444828Y-120835799D02*
X72373400Y-120692942D01*
X72373400Y-120692942D02*
X72301971Y-120621513D01*
X72301971Y-120621513D02*
X72159114Y-120550085D01*
X72159114Y-120550085D02*
X71730542Y-120550085D01*
X71730542Y-120550085D02*
X71587685Y-120621513D01*
X71587685Y-120621513D02*
X71516257Y-120692942D01*
X71516257Y-120692942D02*
X71444828Y-120835799D01*
X71444828Y-120835799D02*
X71444828Y-121050085D01*
X71444828Y-121050085D02*
X71516257Y-121192942D01*
X71516257Y-121192942D02*
X71587685Y-121264371D01*
X71587685Y-121264371D02*
X71730542Y-121335799D01*
X71730542Y-121335799D02*
X72159114Y-121335799D01*
X72159114Y-121335799D02*
X72301971Y-121264371D01*
X72301971Y-121264371D02*
X72373400Y-121192942D01*
X72373400Y-121192942D02*
X72444828Y-121050085D01*
X72444828Y-121050085D02*
X72444828Y-120835799D01*
X70873400Y-123050085D02*
X72801971Y-121764371D01*
X72444828Y-123550085D02*
X70944828Y-123550085D01*
X70944828Y-123550085D02*
X72016257Y-124050085D01*
X72016257Y-124050085D02*
X70944828Y-124550085D01*
X70944828Y-124550085D02*
X72444828Y-124550085D01*
X72444828Y-125478657D02*
X72373400Y-125335800D01*
X72373400Y-125335800D02*
X72301971Y-125264371D01*
X72301971Y-125264371D02*
X72159114Y-125192943D01*
X72159114Y-125192943D02*
X71730542Y-125192943D01*
X71730542Y-125192943D02*
X71587685Y-125264371D01*
X71587685Y-125264371D02*
X71516257Y-125335800D01*
X71516257Y-125335800D02*
X71444828Y-125478657D01*
X71444828Y-125478657D02*
X71444828Y-125692943D01*
X71444828Y-125692943D02*
X71516257Y-125835800D01*
X71516257Y-125835800D02*
X71587685Y-125907229D01*
X71587685Y-125907229D02*
X71730542Y-125978657D01*
X71730542Y-125978657D02*
X72159114Y-125978657D01*
X72159114Y-125978657D02*
X72301971Y-125907229D01*
X72301971Y-125907229D02*
X72373400Y-125835800D01*
X72373400Y-125835800D02*
X72444828Y-125692943D01*
X72444828Y-125692943D02*
X72444828Y-125478657D01*
X72444828Y-127264372D02*
X70944828Y-127264372D01*
X72373400Y-127264372D02*
X72444828Y-127121514D01*
X72444828Y-127121514D02*
X72444828Y-126835800D01*
X72444828Y-126835800D02*
X72373400Y-126692943D01*
X72373400Y-126692943D02*
X72301971Y-126621514D01*
X72301971Y-126621514D02*
X72159114Y-126550086D01*
X72159114Y-126550086D02*
X71730542Y-126550086D01*
X71730542Y-126550086D02*
X71587685Y-126621514D01*
X71587685Y-126621514D02*
X71516257Y-126692943D01*
X71516257Y-126692943D02*
X71444828Y-126835800D01*
X71444828Y-126835800D02*
X71444828Y-127121514D01*
X71444828Y-127121514D02*
X71516257Y-127264372D01*
X71444828Y-128621515D02*
X72444828Y-128621515D01*
X71444828Y-127978657D02*
X72230542Y-127978657D01*
X72230542Y-127978657D02*
X72373400Y-128050086D01*
X72373400Y-128050086D02*
X72444828Y-128192943D01*
X72444828Y-128192943D02*
X72444828Y-128407229D01*
X72444828Y-128407229D02*
X72373400Y-128550086D01*
X72373400Y-128550086D02*
X72301971Y-128621515D01*
X72444828Y-129550086D02*
X72373400Y-129407229D01*
X72373400Y-129407229D02*
X72230542Y-129335800D01*
X72230542Y-129335800D02*
X70944828Y-129335800D01*
X72444828Y-130764372D02*
X71659114Y-130764372D01*
X71659114Y-130764372D02*
X71516257Y-130692943D01*
X71516257Y-130692943D02*
X71444828Y-130550086D01*
X71444828Y-130550086D02*
X71444828Y-130264372D01*
X71444828Y-130264372D02*
X71516257Y-130121514D01*
X72373400Y-130764372D02*
X72444828Y-130621514D01*
X72444828Y-130621514D02*
X72444828Y-130264372D01*
X72444828Y-130264372D02*
X72373400Y-130121514D01*
X72373400Y-130121514D02*
X72230542Y-130050086D01*
X72230542Y-130050086D02*
X72087685Y-130050086D01*
X72087685Y-130050086D02*
X71944828Y-130121514D01*
X71944828Y-130121514D02*
X71873400Y-130264372D01*
X71873400Y-130264372D02*
X71873400Y-130621514D01*
X71873400Y-130621514D02*
X71801971Y-130764372D01*
X72444828Y-131478657D02*
X71444828Y-131478657D01*
X71730542Y-131478657D02*
X71587685Y-131550086D01*
X71587685Y-131550086D02*
X71516257Y-131621515D01*
X71516257Y-131621515D02*
X71444828Y-131764372D01*
X71444828Y-131764372D02*
X71444828Y-131907229D01*
X71873400Y-132407228D02*
X71873400Y-133550086D01*
X72444828Y-134978657D02*
X72444828Y-134264371D01*
X72444828Y-134264371D02*
X70944828Y-134264371D01*
X71659114Y-135478657D02*
X71659114Y-135978657D01*
X72444828Y-136192943D02*
X72444828Y-135478657D01*
X72444828Y-135478657D02*
X70944828Y-135478657D01*
X70944828Y-135478657D02*
X70944828Y-136192943D01*
X72444828Y-136835800D02*
X70944828Y-136835800D01*
X70944828Y-136835800D02*
X70944828Y-137192943D01*
X70944828Y-137192943D02*
X71016257Y-137407229D01*
X71016257Y-137407229D02*
X71159114Y-137550086D01*
X71159114Y-137550086D02*
X71301971Y-137621515D01*
X71301971Y-137621515D02*
X71587685Y-137692943D01*
X71587685Y-137692943D02*
X71801971Y-137692943D01*
X71801971Y-137692943D02*
X72087685Y-137621515D01*
X72087685Y-137621515D02*
X72230542Y-137550086D01*
X72230542Y-137550086D02*
X72373400Y-137407229D01*
X72373400Y-137407229D02*
X72444828Y-137192943D01*
X72444828Y-137192943D02*
X72444828Y-136835800D01*
X71873400Y-138335800D02*
X71873400Y-139478658D01*
X72444828Y-140192943D02*
X70944828Y-140192943D01*
X70944828Y-140192943D02*
X70944828Y-140550086D01*
X70944828Y-140550086D02*
X71016257Y-140764372D01*
X71016257Y-140764372D02*
X71159114Y-140907229D01*
X71159114Y-140907229D02*
X71301971Y-140978658D01*
X71301971Y-140978658D02*
X71587685Y-141050086D01*
X71587685Y-141050086D02*
X71801971Y-141050086D01*
X71801971Y-141050086D02*
X72087685Y-140978658D01*
X72087685Y-140978658D02*
X72230542Y-140907229D01*
X72230542Y-140907229D02*
X72373400Y-140764372D01*
X72373400Y-140764372D02*
X72444828Y-140550086D01*
X72444828Y-140550086D02*
X72444828Y-140192943D01*
X72444828Y-141692943D02*
X71444828Y-141692943D01*
X70944828Y-141692943D02*
X71016257Y-141621515D01*
X71016257Y-141621515D02*
X71087685Y-141692943D01*
X71087685Y-141692943D02*
X71016257Y-141764372D01*
X71016257Y-141764372D02*
X70944828Y-141692943D01*
X70944828Y-141692943D02*
X71087685Y-141692943D01*
X72373400Y-142335801D02*
X72444828Y-142478658D01*
X72444828Y-142478658D02*
X72444828Y-142764372D01*
X72444828Y-142764372D02*
X72373400Y-142907229D01*
X72373400Y-142907229D02*
X72230542Y-142978658D01*
X72230542Y-142978658D02*
X72159114Y-142978658D01*
X72159114Y-142978658D02*
X72016257Y-142907229D01*
X72016257Y-142907229D02*
X71944828Y-142764372D01*
X71944828Y-142764372D02*
X71944828Y-142550087D01*
X71944828Y-142550087D02*
X71873400Y-142407229D01*
X71873400Y-142407229D02*
X71730542Y-142335801D01*
X71730542Y-142335801D02*
X71659114Y-142335801D01*
X71659114Y-142335801D02*
X71516257Y-142407229D01*
X71516257Y-142407229D02*
X71444828Y-142550087D01*
X71444828Y-142550087D02*
X71444828Y-142764372D01*
X71444828Y-142764372D02*
X71516257Y-142907229D01*
X71444828Y-143621515D02*
X72944828Y-143621515D01*
X71516257Y-143621515D02*
X71444828Y-143764373D01*
X71444828Y-143764373D02*
X71444828Y-144050087D01*
X71444828Y-144050087D02*
X71516257Y-144192944D01*
X71516257Y-144192944D02*
X71587685Y-144264373D01*
X71587685Y-144264373D02*
X71730542Y-144335801D01*
X71730542Y-144335801D02*
X72159114Y-144335801D01*
X72159114Y-144335801D02*
X72301971Y-144264373D01*
X72301971Y-144264373D02*
X72373400Y-144192944D01*
X72373400Y-144192944D02*
X72444828Y-144050087D01*
X72444828Y-144050087D02*
X72444828Y-143764373D01*
X72444828Y-143764373D02*
X72373400Y-143621515D01*
X72444828Y-145192944D02*
X72373400Y-145050087D01*
X72373400Y-145050087D02*
X72230542Y-144978658D01*
X72230542Y-144978658D02*
X70944828Y-144978658D01*
X72444828Y-146407230D02*
X71659114Y-146407230D01*
X71659114Y-146407230D02*
X71516257Y-146335801D01*
X71516257Y-146335801D02*
X71444828Y-146192944D01*
X71444828Y-146192944D02*
X71444828Y-145907230D01*
X71444828Y-145907230D02*
X71516257Y-145764372D01*
X72373400Y-146407230D02*
X72444828Y-146264372D01*
X72444828Y-146264372D02*
X72444828Y-145907230D01*
X72444828Y-145907230D02*
X72373400Y-145764372D01*
X72373400Y-145764372D02*
X72230542Y-145692944D01*
X72230542Y-145692944D02*
X72087685Y-145692944D01*
X72087685Y-145692944D02*
X71944828Y-145764372D01*
X71944828Y-145764372D02*
X71873400Y-145907230D01*
X71873400Y-145907230D02*
X71873400Y-146264372D01*
X71873400Y-146264372D02*
X71801971Y-146407230D01*
X71444828Y-146978658D02*
X72444828Y-147335801D01*
X71444828Y-147692944D02*
X72444828Y-147335801D01*
X72444828Y-147335801D02*
X72801971Y-147192944D01*
X72801971Y-147192944D02*
X72873400Y-147121515D01*
X72873400Y-147121515D02*
X72944828Y-146978658D01*
X70873400Y-149335801D02*
X72801971Y-148050087D01*
%LPC*%
D11*
%TO.C,H1*%
X76200000Y-76200000D03*
%TD*%
D12*
%TO.C,P10*%
X195580000Y-266474000D03*
D13*
X193040000Y-266474000D03*
X190500000Y-266474000D03*
X187960000Y-266474000D03*
X185420000Y-266474000D03*
X182880000Y-266474000D03*
X180340000Y-266474000D03*
X177800000Y-266474000D03*
X175260000Y-266474000D03*
X172720000Y-266474000D03*
X170180000Y-266474000D03*
X167640000Y-266474000D03*
X165100000Y-266474000D03*
X162560000Y-266474000D03*
X160020000Y-266474000D03*
%TD*%
D14*
%TO.C,P12*%
X263484000Y-206739068D03*
D13*
X262214000Y-208938773D03*
X260944000Y-211138477D03*
X259674000Y-213338182D03*
X258404000Y-215537886D03*
X257134000Y-217737591D03*
X255864000Y-219937295D03*
X254594000Y-222137000D03*
X253324000Y-224336705D03*
X252054000Y-226536409D03*
X250784000Y-228736114D03*
X249514000Y-230935818D03*
X248244000Y-233135523D03*
X246974000Y-235335227D03*
X245704000Y-237534932D03*
%TD*%
D12*
%TO.C,P7*%
X89126000Y-195580000D03*
D13*
X89126000Y-193040000D03*
X89126000Y-190500000D03*
X89126000Y-187960000D03*
X89126000Y-185420000D03*
X89126000Y-182880000D03*
X89126000Y-180340000D03*
X89126000Y-177800000D03*
X89126000Y-175260000D03*
X89126000Y-172720000D03*
X89126000Y-170180000D03*
X89126000Y-167640000D03*
X89126000Y-165100000D03*
X89126000Y-162560000D03*
X89126000Y-160020000D03*
%TD*%
D15*
%TO.C,SW1*%
X284480000Y-116840000D03*
X284480000Y-112090200D03*
X284480000Y-107340400D03*
%TD*%
D16*
%TO.C,P9*%
X148860932Y-263484000D03*
D13*
X146661227Y-262214000D03*
X144461523Y-260944000D03*
X142261818Y-259674000D03*
X140062114Y-258404000D03*
X137862409Y-257134000D03*
X135662705Y-255864000D03*
X133463000Y-254594000D03*
X131263295Y-253324000D03*
X129063591Y-252054000D03*
X126863886Y-250784000D03*
X124664182Y-249514000D03*
X122464477Y-248244000D03*
X120264773Y-246974000D03*
X118065068Y-245704000D03*
%TD*%
D17*
%TO.C,P11*%
X237534932Y-245704000D03*
D13*
X235335227Y-246974000D03*
X233135523Y-248244000D03*
X230935818Y-249514000D03*
X228736114Y-250784000D03*
X226536409Y-252054000D03*
X224336705Y-253324000D03*
X222137000Y-254594000D03*
X219937295Y-255864000D03*
X217737591Y-257134000D03*
X215537886Y-258404000D03*
X213338182Y-259674000D03*
X211138477Y-260944000D03*
X208938773Y-262214000D03*
X206739068Y-263484000D03*
%TD*%
D11*
%TO.C,H3*%
X279400000Y-279400000D03*
%TD*%
%TO.C,H4*%
X76200000Y-279400000D03*
%TD*%
D18*
%TO.C,J1*%
X287020000Y-87528400D03*
D19*
X289026600Y-92024200D03*
D18*
X287020000Y-96520000D03*
D20*
X280035000Y-92024200D03*
D18*
X286029400Y-92024200D03*
%TD*%
D21*
%TO.C,P5*%
X118065068Y-109896000D03*
D13*
X120264773Y-108626000D03*
X122464477Y-107356000D03*
X124664182Y-106086000D03*
X126863886Y-104816000D03*
X129063591Y-103546000D03*
X131263295Y-102276000D03*
X133463000Y-101006000D03*
X135662705Y-99736000D03*
X137862409Y-98466000D03*
X140062114Y-97196000D03*
X142261818Y-95926000D03*
X144461523Y-94656000D03*
X146661227Y-93386000D03*
X148860932Y-92116000D03*
%TD*%
D12*
%TO.C,P4*%
X160020000Y-89126000D03*
D13*
X162560000Y-89126000D03*
X165100000Y-89126000D03*
X167640000Y-89126000D03*
X170180000Y-89126000D03*
X172720000Y-89126000D03*
X175260000Y-89126000D03*
X177800000Y-89126000D03*
X180340000Y-89126000D03*
X182880000Y-89126000D03*
X185420000Y-89126000D03*
X187960000Y-89126000D03*
X190500000Y-89126000D03*
X193040000Y-89126000D03*
X195580000Y-89126000D03*
%TD*%
D11*
%TO.C,H5*%
X285750000Y-190500000D03*
%TD*%
D12*
%TO.C,P1*%
X266474000Y-160020000D03*
D13*
X266474000Y-162560000D03*
X266474000Y-165100000D03*
X266474000Y-167640000D03*
X266474000Y-170180000D03*
X266474000Y-172720000D03*
X266474000Y-175260000D03*
X266474000Y-177800000D03*
X266474000Y-180340000D03*
X266474000Y-182880000D03*
X266474000Y-185420000D03*
X266474000Y-187960000D03*
X266474000Y-190500000D03*
X266474000Y-193040000D03*
X266474000Y-195580000D03*
%TD*%
D22*
%TO.C,P6*%
X92116000Y-148860932D03*
D13*
X93386000Y-146661227D03*
X94656000Y-144461523D03*
X95926000Y-142261818D03*
X97196000Y-140062114D03*
X98466000Y-137862409D03*
X99736000Y-135662705D03*
X101006000Y-133463000D03*
X102276000Y-131263295D03*
X103546000Y-129063591D03*
X104816000Y-126863886D03*
X106086000Y-124664182D03*
X107356000Y-122464477D03*
X108626000Y-120264773D03*
X109896000Y-118065068D03*
%TD*%
D23*
%TO.C,P8*%
X109896000Y-237534932D03*
D13*
X108626000Y-235335227D03*
X107356000Y-233135523D03*
X106086000Y-230935818D03*
X104816000Y-228736114D03*
X103546000Y-226536409D03*
X102276000Y-224336705D03*
X101006000Y-222137000D03*
X99736000Y-219937295D03*
X98466000Y-217737591D03*
X97196000Y-215537886D03*
X95926000Y-213338182D03*
X94656000Y-211138477D03*
X93386000Y-208938773D03*
X92116000Y-206739068D03*
%TD*%
D11*
%TO.C,H2*%
X279400000Y-76200000D03*
%TD*%
%TO.C,H6*%
X285750000Y-266700000D03*
%TD*%
D24*
%TO.C,P2*%
X245704000Y-118065068D03*
D13*
X246974000Y-120264773D03*
X248244000Y-122464477D03*
X249514000Y-124664182D03*
X250784000Y-126863886D03*
X252054000Y-129063591D03*
X253324000Y-131263295D03*
X254594000Y-133463000D03*
X255864000Y-135662705D03*
X257134000Y-137862409D03*
X258404000Y-140062114D03*
X259674000Y-142261818D03*
X260944000Y-144461523D03*
X262214000Y-146661227D03*
X263484000Y-148860932D03*
%TD*%
D25*
%TO.C,J2*%
X288607500Y-207645000D03*
X286702500Y-208915000D03*
X288607500Y-210185000D03*
X286702500Y-211455000D03*
X288607500Y-212725000D03*
X286702500Y-213995000D03*
X288607500Y-215265000D03*
X286702500Y-216535000D03*
X288607500Y-217805000D03*
X286702500Y-219075000D03*
X288607500Y-220345000D03*
X286702500Y-221615000D03*
X288607500Y-222885000D03*
X286702500Y-224155000D03*
X288607500Y-225425000D03*
X286702500Y-226695000D03*
X288607500Y-227965000D03*
X286702500Y-229235000D03*
X288607500Y-230505000D03*
X286702500Y-231775000D03*
X288607500Y-233045000D03*
X286702500Y-234315000D03*
X288607500Y-235585000D03*
X286702500Y-236855000D03*
X288607500Y-238125000D03*
X286702500Y-239395000D03*
X288607500Y-240665000D03*
X286702500Y-241935000D03*
X288607500Y-243205000D03*
X286702500Y-244475000D03*
X288607500Y-245745000D03*
X286702500Y-247015000D03*
X288607500Y-248285000D03*
X286702500Y-249555000D03*
X284797500Y-207645000D03*
X282892500Y-208915000D03*
X284797500Y-210185000D03*
X282892500Y-211455000D03*
X284797500Y-212725000D03*
X282892500Y-213995000D03*
X284797500Y-215265000D03*
X282892500Y-216535000D03*
X284797500Y-217805000D03*
X282892500Y-219075000D03*
X284797500Y-220345000D03*
X282892500Y-221615000D03*
X284797500Y-222885000D03*
X282892500Y-224155000D03*
X284797500Y-225425000D03*
X282892500Y-226695000D03*
X284797500Y-227965000D03*
X282892500Y-229235000D03*
X284797500Y-230505000D03*
X282892500Y-231775000D03*
X284797500Y-233045000D03*
X282892500Y-234315000D03*
X284797500Y-235585000D03*
X282892500Y-236855000D03*
X284797500Y-238125000D03*
X282892500Y-239395000D03*
X284797500Y-240665000D03*
X282892500Y-241935000D03*
X284797500Y-243205000D03*
X282892500Y-244475000D03*
X284797500Y-245745000D03*
X282892500Y-247015000D03*
X284797500Y-248285000D03*
X282892500Y-249555000D03*
D26*
X285750000Y-199645000D03*
X285750000Y-257555000D03*
%TD*%
D27*
%TO.C,P3*%
X206739068Y-92116000D03*
D13*
X208938773Y-93386000D03*
X211138477Y-94656000D03*
X213338182Y-95926000D03*
X215537886Y-97196000D03*
X217737591Y-98466000D03*
X219937295Y-99736000D03*
X222137000Y-101006000D03*
X224336705Y-102276000D03*
X226536409Y-103546000D03*
X228736114Y-104816000D03*
X230935818Y-106086000D03*
X233135523Y-107356000D03*
X235335227Y-108626000D03*
X237534932Y-109896000D03*
%TD*%
%LPD*%
M02*
