%TF.GenerationSoftware,KiCad,Pcbnew,8.0.6-8.0.6-0~ubuntu22.04.1*%
%TF.CreationDate,2024-12-20T08:13:23-08:00*%
%TF.ProjectId,teensy_arena_12-12,7465656e-7379-45f6-9172-656e615f3132,rev?*%
%TF.SameCoordinates,Original*%
%TF.FileFunction,Copper,L6,Bot*%
%TF.FilePolarity,Positive*%
%FSLAX46Y46*%
G04 Gerber Fmt 4.6, Leading zero omitted, Abs format (unit mm)*
G04 Created by KiCad (PCBNEW 8.0.6-8.0.6-0~ubuntu22.04.1) date 2024-12-20 08:13:23*
%MOMM*%
%LPD*%
G01*
G04 APERTURE LIST*
G04 Aperture macros list*
%AMRotRect*
0 Rectangle, with rotation*
0 The origin of the aperture is its center*
0 $1 length*
0 $2 width*
0 $3 Rotation angle, in degrees counterclockwise*
0 Add horizontal line*
21,1,$1,$2,0,0,$3*%
G04 Aperture macros list end*
%TA.AperFunction,ComponentPad*%
%ADD10C,9.000000*%
%TD*%
%TA.AperFunction,ComponentPad*%
%ADD11C,3.556000*%
%TD*%
%TA.AperFunction,ComponentPad*%
%ADD12C,1.930400*%
%TD*%
%TA.AperFunction,ComponentPad*%
%ADD13C,4.064000*%
%TD*%
%TA.AperFunction,ComponentPad*%
%ADD14R,1.600000X1.600000*%
%TD*%
%TA.AperFunction,ComponentPad*%
%ADD15C,1.600000*%
%TD*%
%TA.AperFunction,ComponentPad*%
%ADD16RotRect,1.600000X1.600000X240.000000*%
%TD*%
%TA.AperFunction,ComponentPad*%
%ADD17C,2.540000*%
%TD*%
%TA.AperFunction,ComponentPad*%
%ADD18RotRect,1.600000X1.600000X150.000000*%
%TD*%
%TA.AperFunction,ComponentPad*%
%ADD19RotRect,1.600000X1.600000X210.000000*%
%TD*%
%TA.AperFunction,ComponentPad*%
%ADD20RotRect,1.600000X1.600000X30.000000*%
%TD*%
%TA.AperFunction,ComponentPad*%
%ADD21RotRect,1.600000X1.600000X200.000000*%
%TD*%
%TA.AperFunction,ComponentPad*%
%ADD22RotRect,1.600000X1.600000X60.000000*%
%TD*%
%TA.AperFunction,ComponentPad*%
%ADD23RotRect,1.600000X1.600000X120.000000*%
%TD*%
%TA.AperFunction,ComponentPad*%
%ADD24RotRect,1.600000X1.600000X300.000000*%
%TD*%
%TA.AperFunction,ComponentPad*%
%ADD25RotRect,1.600000X1.600000X330.000000*%
%TD*%
%TA.AperFunction,ViaPad*%
%ADD26C,0.600000*%
%TD*%
%TA.AperFunction,ViaPad*%
%ADD27C,1.650000*%
%TD*%
%TA.AperFunction,Conductor*%
%ADD28C,3.000000*%
%TD*%
%TA.AperFunction,Conductor*%
%ADD29C,0.200000*%
%TD*%
G04 APERTURE END LIST*
D10*
%TO.P,H1,1,1*%
%TO.N,GND*%
X76200000Y-76200000D03*
%TD*%
D11*
%TO.P,J4,*%
%TO.N,*%
X90504200Y-68506600D03*
D12*
X95000000Y-66500000D03*
D11*
X99495800Y-68506600D03*
D13*
%TO.P,J4,1*%
%TO.N,+5V*%
X95000000Y-75491600D03*
D11*
%TO.P,J4,2*%
%TO.N,GND*%
X95000000Y-69497200D03*
%TD*%
D14*
%TO.P,P10,1*%
%TO.N,+5V*%
X195580000Y-266474000D03*
D15*
%TO.P,P10,2*%
%TO.N,GND*%
X193040000Y-266474000D03*
%TO.P,P10,3*%
%TO.N,/Panel Headers/HDR_RESET*%
X190500000Y-266474000D03*
%TO.P,P10,4*%
%TO.N,/Panel Headers/HDR_SCK_1_P10*%
X187960000Y-266474000D03*
%TO.P,P10,5*%
%TO.N,/Panel Headers/HDR_MOSI_1_P10*%
X185420000Y-266474000D03*
%TO.P,P10,6*%
%TO.N,/Panel Headers/HDR_MISO_1_P10*%
X182880000Y-266474000D03*
%TO.P,P10,7*%
%TO.N,/Panel Headers/HDR_CS_15_P10*%
X180340000Y-266474000D03*
%TO.P,P10,8*%
%TO.N,/Panel Headers/HDR_CS_16_P10*%
X177800000Y-266474000D03*
%TO.P,P10,9*%
%TO.N,/Panel Headers/HDR_CS_17_P10*%
X175260000Y-266474000D03*
%TO.P,P10,10*%
%TO.N,/Panel Headers/HDR_CS_18_P10*%
X172720000Y-266474000D03*
%TO.P,P10,11*%
%TO.N,/Panel Headers/HDR_CS_19_P10*%
X170180000Y-266474000D03*
%TO.P,P10,12*%
%TO.N,unconnected-(P10-Pad12)*%
X167640000Y-266474000D03*
%TO.P,P10,13*%
%TO.N,unconnected-(P10-Pad13)*%
X165100000Y-266474000D03*
%TO.P,P10,14*%
%TO.N,unconnected-(P10-Pad14)*%
X162560000Y-266474000D03*
%TO.P,P10,15*%
%TO.N,/Panel Headers/HDR_EXT_INT_P10*%
X160020000Y-266474000D03*
%TD*%
D16*
%TO.P,P12,1*%
%TO.N,+5V*%
X263484000Y-206739068D03*
D15*
%TO.P,P12,2*%
%TO.N,GND*%
X262214000Y-208938773D03*
%TO.P,P12,3*%
%TO.N,/Panel Headers/HDR_RESET*%
X260944000Y-211138477D03*
%TO.P,P12,4*%
%TO.N,/Panel Headers/HDR_SCK_1_P12*%
X259674000Y-213338182D03*
%TO.P,P12,5*%
%TO.N,/Panel Headers/HDR_MOSI_1_P12*%
X258404000Y-215537886D03*
%TO.P,P12,6*%
%TO.N,/Panel Headers/HDR_MISO_1_P12*%
X257134000Y-217737591D03*
%TO.P,P12,7*%
%TO.N,/Panel Headers/HDR_CS_25_P12*%
X255864000Y-219937295D03*
%TO.P,P12,8*%
%TO.N,/Panel Headers/HDR_CS_26_P12*%
X254594000Y-222137000D03*
%TO.P,P12,9*%
%TO.N,/Panel Headers/HDR_CS_27_P12*%
X253324000Y-224336705D03*
%TO.P,P12,10*%
%TO.N,/Panel Headers/HDR_CS_28_P12*%
X252054000Y-226536409D03*
%TO.P,P12,11*%
%TO.N,/Panel Headers/HDR_CS_29_P12*%
X250784000Y-228736114D03*
%TO.P,P12,12*%
%TO.N,unconnected-(P12-Pad12)*%
X249514000Y-230935818D03*
%TO.P,P12,13*%
%TO.N,unconnected-(P12-Pad13)*%
X248244000Y-233135523D03*
%TO.P,P12,14*%
%TO.N,unconnected-(P12-Pad14)*%
X246974000Y-235335227D03*
%TO.P,P12,15*%
%TO.N,/Panel Headers/HDR_EXT_INT_P12*%
X245704000Y-237534932D03*
%TD*%
D14*
%TO.P,P7,1*%
%TO.N,+5V*%
X89126000Y-195580000D03*
D15*
%TO.P,P7,2*%
%TO.N,GND*%
X89126000Y-193040000D03*
%TO.P,P7,3*%
%TO.N,/Panel Headers/HDR_RESET*%
X89126000Y-190500000D03*
%TO.P,P7,4*%
%TO.N,/Panel Headers/HDR_SCK_1_P7*%
X89126000Y-187960000D03*
%TO.P,P7,5*%
%TO.N,/Panel Headers/HDR_MOSI_1_P7*%
X89126000Y-185420000D03*
%TO.P,P7,6*%
%TO.N,/Panel Headers/HDR_MISO_1_P7*%
X89126000Y-182880000D03*
%TO.P,P7,7*%
%TO.N,/Panel Headers/HDR_CS_00_P7*%
X89126000Y-180340000D03*
%TO.P,P7,8*%
%TO.N,/Panel Headers/HDR_CS_01_P7*%
X89126000Y-177800000D03*
%TO.P,P7,9*%
%TO.N,/Panel Headers/HDR_CS_02_P7*%
X89126000Y-175260000D03*
%TO.P,P7,10*%
%TO.N,/Panel Headers/HDR_CS_03_P7*%
X89126000Y-172720000D03*
%TO.P,P7,11*%
%TO.N,/Panel Headers/HDR_CS_04_P7*%
X89126000Y-170180000D03*
%TO.P,P7,12*%
%TO.N,unconnected-(P7-Pad12)*%
X89126000Y-167640000D03*
%TO.P,P7,13*%
%TO.N,unconnected-(P7-Pad13)*%
X89126000Y-165100000D03*
%TO.P,P7,14*%
%TO.N,unconnected-(P7-Pad14)*%
X89126000Y-162560000D03*
%TO.P,P7,15*%
%TO.N,/Panel Headers/HDR_EXT_INT_P7*%
X89126000Y-160020000D03*
%TD*%
D17*
%TO.P,SW1,1,A*%
%TO.N,/Power/SW_5V*%
X284480000Y-117752500D03*
%TO.P,SW1,2,B*%
%TO.N,+5V*%
X284480000Y-113002700D03*
%TO.P,SW1,3,C*%
%TO.N,GND*%
X284480000Y-108252900D03*
%TD*%
D18*
%TO.P,P9,1*%
%TO.N,+5V*%
X148860932Y-263484000D03*
D15*
%TO.P,P9,2*%
%TO.N,GND*%
X146661227Y-262214000D03*
%TO.P,P9,3*%
%TO.N,/Panel Headers/HDR_RESET*%
X144461523Y-260944000D03*
%TO.P,P9,4*%
%TO.N,/Panel Headers/HDR_SCK_1_P9*%
X142261818Y-259674000D03*
%TO.P,P9,5*%
%TO.N,/Panel Headers/HDR_MOSI_1_P9*%
X140062114Y-258404000D03*
%TO.P,P9,6*%
%TO.N,/Panel Headers/HDR_MISO_1_P9*%
X137862409Y-257134000D03*
%TO.P,P9,7*%
%TO.N,/Panel Headers/HDR_CS_10_P9*%
X135662705Y-255864000D03*
%TO.P,P9,8*%
%TO.N,/Panel Headers/HDR_CS_11_P9*%
X133463000Y-254594000D03*
%TO.P,P9,9*%
%TO.N,/Panel Headers/HDR_CS_12_P9*%
X131263295Y-253324000D03*
%TO.P,P9,10*%
%TO.N,/Panel Headers/HDR_CS_13_P9*%
X129063591Y-252054000D03*
%TO.P,P9,11*%
%TO.N,/Panel Headers/HDR_CS_14_P9*%
X126863886Y-250784000D03*
%TO.P,P9,12*%
%TO.N,unconnected-(P9-Pad12)*%
X124664182Y-249514000D03*
%TO.P,P9,13*%
%TO.N,unconnected-(P9-Pad13)*%
X122464477Y-248244000D03*
%TO.P,P9,14*%
%TO.N,unconnected-(P9-Pad14)*%
X120264773Y-246974000D03*
%TO.P,P9,15*%
%TO.N,/Panel Headers/HDR_EXT_INT_P9*%
X118065068Y-245704000D03*
%TD*%
D19*
%TO.P,P11,1*%
%TO.N,+5V*%
X237534932Y-245704000D03*
D15*
%TO.P,P11,2*%
%TO.N,GND*%
X235335227Y-246974000D03*
%TO.P,P11,3*%
%TO.N,/Panel Headers/HDR_RESET*%
X233135523Y-248244000D03*
%TO.P,P11,4*%
%TO.N,/Panel Headers/HDR_SCK_1_P11*%
X230935818Y-249514000D03*
%TO.P,P11,5*%
%TO.N,/Panel Headers/HDR_MOSI_1_P11*%
X228736114Y-250784000D03*
%TO.P,P11,6*%
%TO.N,/Panel Headers/HDR_MISO_1_P11*%
X226536409Y-252054000D03*
%TO.P,P11,7*%
%TO.N,/Panel Headers/HDR_CS_20_P11*%
X224336705Y-253324000D03*
%TO.P,P11,8*%
%TO.N,/Panel Headers/HDR_CS_21_P11*%
X222137000Y-254594000D03*
%TO.P,P11,9*%
%TO.N,/Panel Headers/HDR_CS_22_P11*%
X219937295Y-255864000D03*
%TO.P,P11,10*%
%TO.N,/Panel Headers/HDR_CS_23_P11*%
X217737591Y-257134000D03*
%TO.P,P11,11*%
%TO.N,/Panel Headers/HDR_CS_24_P11*%
X215537886Y-258404000D03*
%TO.P,P11,12*%
%TO.N,unconnected-(P11-Pad12)*%
X213338182Y-259674000D03*
%TO.P,P11,13*%
%TO.N,unconnected-(P11-Pad13)*%
X211138477Y-260944000D03*
%TO.P,P11,14*%
%TO.N,unconnected-(P11-Pad14)*%
X208938773Y-262214000D03*
%TO.P,P11,15*%
%TO.N,/Panel Headers/HDR_EXT_INT_P11*%
X206739068Y-263484000D03*
%TD*%
D10*
%TO.P,H3,1,1*%
%TO.N,GND*%
X279400000Y-279400000D03*
%TD*%
%TO.P,H4,1,1*%
%TO.N,GND*%
X76200000Y-279400000D03*
%TD*%
D11*
%TO.P,J1,*%
%TO.N,*%
X287096200Y-87706200D03*
D12*
X289102800Y-92202000D03*
D11*
X287096200Y-96697800D03*
D13*
%TO.P,J1,1*%
%TO.N,/Power/SW_5V*%
X280111200Y-92202000D03*
D11*
%TO.P,J1,2*%
%TO.N,GND*%
X286105600Y-92202000D03*
%TD*%
D20*
%TO.P,P5,1*%
%TO.N,+5V*%
X118065068Y-109896000D03*
D15*
%TO.P,P5,2*%
%TO.N,GND*%
X120264773Y-108626000D03*
%TO.P,P5,3*%
%TO.N,/Panel Headers/HDR_RESET*%
X122464477Y-107356000D03*
%TO.P,P5,4*%
%TO.N,/Panel Headers/HDR_SCK_0_P5*%
X124664182Y-106086000D03*
%TO.P,P5,5*%
%TO.N,/Panel Headers/HDR_MOSI_0_P5*%
X126863886Y-104816000D03*
%TO.P,P5,6*%
%TO.N,/Panel Headers/HDR_MISO_0_P5*%
X129063591Y-103546000D03*
%TO.P,P5,7*%
%TO.N,/Panel Headers/HDR_CS_20_P5*%
X131263295Y-102276000D03*
%TO.P,P5,8*%
%TO.N,/Panel Headers/HDR_CS_21_P5*%
X133463000Y-101006000D03*
%TO.P,P5,9*%
%TO.N,/Panel Headers/HDR_CS_22_P5*%
X135662705Y-99736000D03*
%TO.P,P5,10*%
%TO.N,/Panel Headers/HDR_CS_23_P5*%
X137862409Y-98466000D03*
%TO.P,P5,11*%
%TO.N,/Panel Headers/HDR_CS_24_P5*%
X140062114Y-97196000D03*
%TO.P,P5,12*%
%TO.N,unconnected-(P5-Pad12)*%
X142261818Y-95926000D03*
%TO.P,P5,13*%
%TO.N,unconnected-(P5-Pad13)*%
X144461523Y-94656000D03*
%TO.P,P5,14*%
%TO.N,unconnected-(P5-Pad14)*%
X146661227Y-93386000D03*
%TO.P,P5,15*%
%TO.N,/Panel Headers/HDR_EXT_INT_P5*%
X148860932Y-92116000D03*
%TD*%
D14*
%TO.P,P4,1*%
%TO.N,+5V*%
X160020000Y-89126000D03*
D15*
%TO.P,P4,2*%
%TO.N,GND*%
X162560000Y-89126000D03*
%TO.P,P4,3*%
%TO.N,/Panel Headers/HDR_RESET*%
X165100000Y-89126000D03*
%TO.P,P4,4*%
%TO.N,/Panel Headers/HDR_SCK_0_P4*%
X167640000Y-89126000D03*
%TO.P,P4,5*%
%TO.N,/Panel Headers/HDR_MOSI_0_P4*%
X170180000Y-89126000D03*
%TO.P,P4,6*%
%TO.N,/Panel Headers/HDR_MISO_0_P4*%
X172720000Y-89126000D03*
%TO.P,P4,7*%
%TO.N,/Panel Headers/HDR_CS_15_P4*%
X175260000Y-89126000D03*
%TO.P,P4,8*%
%TO.N,/Panel Headers/HDR_CS_16_P4*%
X177800000Y-89126000D03*
%TO.P,P4,9*%
%TO.N,/Panel Headers/HDR_CS_17_P4*%
X180340000Y-89126000D03*
%TO.P,P4,10*%
%TO.N,/Panel Headers/HDR_CS_18_P4*%
X182880000Y-89126000D03*
%TO.P,P4,11*%
%TO.N,/Panel Headers/HDR_CS_19_P4*%
X185420000Y-89126000D03*
%TO.P,P4,12*%
%TO.N,unconnected-(P4-Pad12)*%
X187960000Y-89126000D03*
%TO.P,P4,13*%
%TO.N,unconnected-(P4-Pad13)*%
X190500000Y-89126000D03*
%TO.P,P4,14*%
%TO.N,unconnected-(P4-Pad14)*%
X193040000Y-89126000D03*
%TO.P,P4,15*%
%TO.N,/Panel Headers/HDR_EXT_INT_P4*%
X195580000Y-89126000D03*
%TD*%
D21*
%TO.P,U1,1,GND*%
%TO.N,GND*%
X285152628Y-253394534D03*
D15*
%TO.P,U1,2,0_RX1_CRX2_CS1*%
%TO.N,/Teensy/TNY_CS_00*%
X282765809Y-254263265D03*
%TO.P,U1,3,1_TX1_CTX2_MISO1*%
%TO.N,/Teensy/TNY_MISO_1*%
X280378989Y-255131996D03*
%TO.P,U1,4,2_OUT2*%
%TO.N,/Teensy/TNY_CS_01*%
X277992170Y-256000727D03*
%TO.P,U1,5,3_LRCLK2*%
%TO.N,/Teensy/TNY_CS_02*%
X275605351Y-256869458D03*
%TO.P,U1,6,4_BCLK2*%
%TO.N,/Teensy/TNY_CS_03*%
X273218532Y-257738190D03*
%TO.P,U1,7,5_IN2*%
%TO.N,/Teensy/TNY_CS_04*%
X270831712Y-258606921D03*
%TO.P,U1,8,6_OUT1D*%
%TO.N,/Teensy/TNY_CS_05*%
X268444893Y-259475652D03*
%TO.P,U1,9,7_RX2_OUT1A*%
%TO.N,/Teensy/TNY_CS_06*%
X266058074Y-260344383D03*
%TO.P,U1,10,8_TX2_IN1*%
%TO.N,/Teensy/TNY_CS_07*%
X263671255Y-261213114D03*
%TO.P,U1,11,9_OUT1C*%
%TO.N,/Teensy/TNY_CS_08*%
X261284435Y-262081845D03*
%TO.P,U1,12,10_CS_MQSR*%
%TO.N,/Teensy/TNY_CS_09*%
X258897616Y-262950577D03*
%TO.P,U1,13,11_MOSI_CTX1*%
%TO.N,/Teensy/TNY_MOSI_0*%
X256510797Y-263819308D03*
%TO.P,U1,14,12_MISO_MQSL*%
%TO.N,/Teensy/TNY_MISO_0*%
X254123978Y-264688039D03*
%TO.P,U1,15,3V3*%
%TO.N,+3.3V*%
X251737158Y-265556770D03*
%TO.P,U1,16,24_A10_TX6_SCL2*%
%TO.N,/Teensy/TNY_CS_10*%
X249350339Y-266425501D03*
%TO.P,U1,17,25_A11_RX6_SDA2*%
%TO.N,/Teensy/TNY_CS_11*%
X246963520Y-267294232D03*
%TO.P,U1,18,26_A12_MOSI1*%
%TO.N,/Teensy/TNY_MOSI_1*%
X244576701Y-268162964D03*
%TO.P,U1,19,27_A13_SCK1*%
%TO.N,/Teensy/TNY_SCK_1*%
X242189881Y-269031695D03*
%TO.P,U1,20,28_RX7*%
%TO.N,/Teensy/TNY_CS_12*%
X239803062Y-269900426D03*
%TO.P,U1,21,29_TX7*%
%TO.N,/Teensy/TNY_CS_13*%
X237416243Y-270769157D03*
%TO.P,U1,22,30_CRX3*%
%TO.N,/Teensy/TNY_CS_14*%
X235029425Y-271637888D03*
%TO.P,U1,23,31_CTX3*%
%TO.N,/Teensy/TNY_CS_15*%
X232642604Y-272506619D03*
%TO.P,U1,24,32_OUT1B*%
%TO.N,/Teensy/TNY_CS_16*%
X230255785Y-273375351D03*
%TO.P,U1,25,33_MCLK2*%
%TO.N,/Teensy/TNY_EXT_INT*%
X235468172Y-287696266D03*
%TO.P,U1,26,34_RX8*%
%TO.N,/Teensy/TNY_RESET*%
X237854991Y-286827535D03*
%TO.P,U1,27,35_TX8*%
%TO.N,/Teensy/TNY_CS_29*%
X240241811Y-285958804D03*
%TO.P,U1,28,36_CS*%
%TO.N,/Teensy/TNY_CS_28*%
X242628630Y-285090073D03*
%TO.P,U1,29,37_CS*%
%TO.N,/Teensy/TNY_CS_27*%
X245015449Y-284221342D03*
%TO.P,U1,30,38_CS1_IN1*%
%TO.N,/Teensy/TNY_CS_26*%
X247402268Y-283352610D03*
%TO.P,U1,31,39_MISO1_OUT1A*%
%TO.N,/Teensy/TNY_CS_25*%
X249789088Y-282483879D03*
%TO.P,U1,32,40_A16*%
%TO.N,/Teensy/TNY_CS_24*%
X252175907Y-281615148D03*
%TO.P,U1,33,41_A17*%
%TO.N,/Teensy/TNY_CS_23*%
X254562726Y-280746417D03*
%TO.P,U1,34,GND*%
%TO.N,GND*%
X256949545Y-279877686D03*
%TO.P,U1,35,13_SCK_LED*%
%TO.N,/Teensy/TNY_SCK_0*%
X259336365Y-279008955D03*
%TO.P,U1,36,14_A0_TX3_SPDIF_OUT*%
%TO.N,/Teensy/A0*%
X261723184Y-278140223D03*
%TO.P,U1,37,15_A1_RX3_SPDIF_IN*%
%TO.N,/Teensy/A1*%
X264110003Y-277271492D03*
%TO.P,U1,38,16_A2_RX4_SCL1*%
%TO.N,/Teensy/TNY_CS_22*%
X266496822Y-276402761D03*
%TO.P,U1,39,17_A3_TX4_SDA1*%
%TO.N,/Teensy/TNY_CS_21*%
X268883642Y-275534030D03*
%TO.P,U1,40,18_A4_SDA*%
%TO.N,/Teensy/SDA*%
X271270461Y-274665299D03*
%TO.P,U1,41,19_A5_SCL*%
%TO.N,/Teensy/SCL*%
X273657280Y-273796568D03*
%TO.P,U1,42,20_A6_TX5_LRCLK1*%
%TO.N,/Teensy/TNY_CS_20*%
X276044099Y-272927836D03*
%TO.P,U1,43,21_A7_RX5_BCLK1*%
%TO.N,/Teensy/TNY_CS_19*%
X278430919Y-272059105D03*
%TO.P,U1,44,22_A8_CTX1*%
%TO.N,/Teensy/TNY_CS_18*%
X280817738Y-271190374D03*
%TO.P,U1,45,23_A9_CRX1_MCLK1*%
%TO.N,/Teensy/TNY_CS_17*%
X283204557Y-270321643D03*
%TO.P,U1,46,3V3*%
%TO.N,+3.3V*%
X285591375Y-269452912D03*
%TO.P,U1,47,GND*%
%TO.N,GND*%
X287978196Y-268584181D03*
%TO.P,U1,48,VIN*%
%TO.N,unconnected-(U1-VIN-Pad48)*%
X290365015Y-267715449D03*
%TD*%
D14*
%TO.P,P1,1*%
%TO.N,+5V*%
X266474000Y-160020000D03*
D15*
%TO.P,P1,2*%
%TO.N,GND*%
X266474000Y-162560000D03*
%TO.P,P1,3*%
%TO.N,/Panel Headers/HDR_RESET*%
X266474000Y-165100000D03*
%TO.P,P1,4*%
%TO.N,/Panel Headers/HDR_SCK_0_P1*%
X266474000Y-167640000D03*
%TO.P,P1,5*%
%TO.N,/Panel Headers/HDR_MOSI_0_P1*%
X266474000Y-170180000D03*
%TO.P,P1,6*%
%TO.N,/Panel Headers/HDR_MISO_0_P1*%
X266474000Y-172720000D03*
%TO.P,P1,7*%
%TO.N,/Panel Headers/HDR_CS_00_P1*%
X266474000Y-175260000D03*
%TO.P,P1,8*%
%TO.N,/Panel Headers/HDR_CS_01_P1*%
X266474000Y-177800000D03*
%TO.P,P1,9*%
%TO.N,/Panel Headers/HDR_CS_02_P1*%
X266474000Y-180340000D03*
%TO.P,P1,10*%
%TO.N,/Panel Headers/HDR_CS_03_P1*%
X266474000Y-182880000D03*
%TO.P,P1,11*%
%TO.N,/Panel Headers/HDR_CS_04_P1*%
X266474000Y-185420000D03*
%TO.P,P1,12*%
%TO.N,unconnected-(P1-Pad12)*%
X266474000Y-187960000D03*
%TO.P,P1,13*%
%TO.N,unconnected-(P1-Pad13)*%
X266474000Y-190500000D03*
%TO.P,P1,14*%
%TO.N,unconnected-(P1-Pad14)*%
X266474000Y-193040000D03*
%TO.P,P1,15*%
%TO.N,/Panel Headers/HDR_EXT_INT_P1*%
X266474000Y-195580000D03*
%TD*%
D22*
%TO.P,P6,1*%
%TO.N,+5V*%
X92116000Y-148860932D03*
D15*
%TO.P,P6,2*%
%TO.N,GND*%
X93386000Y-146661227D03*
%TO.P,P6,3*%
%TO.N,/Panel Headers/HDR_RESET*%
X94656000Y-144461523D03*
%TO.P,P6,4*%
%TO.N,/Panel Headers/HDR_SCK_0_P6*%
X95926000Y-142261818D03*
%TO.P,P6,5*%
%TO.N,/Panel Headers/HDR_MOSI_0_P6*%
X97196000Y-140062114D03*
%TO.P,P6,6*%
%TO.N,/Panel Headers/HDR_MISO_0_P6*%
X98466000Y-137862409D03*
%TO.P,P6,7*%
%TO.N,/Panel Headers/HDR_CS_25_P6*%
X99736000Y-135662705D03*
%TO.P,P6,8*%
%TO.N,/Panel Headers/HDR_CS_26_P6*%
X101006000Y-133463000D03*
%TO.P,P6,9*%
%TO.N,/Panel Headers/HDR_CS_27_P6*%
X102276000Y-131263295D03*
%TO.P,P6,10*%
%TO.N,/Panel Headers/HDR_CS_28_P6*%
X103546000Y-129063591D03*
%TO.P,P6,11*%
%TO.N,/Panel Headers/HDR_CS_29_P6*%
X104816000Y-126863886D03*
%TO.P,P6,12*%
%TO.N,unconnected-(P6-Pad12)*%
X106086000Y-124664182D03*
%TO.P,P6,13*%
%TO.N,unconnected-(P6-Pad13)*%
X107356000Y-122464477D03*
%TO.P,P6,14*%
%TO.N,unconnected-(P6-Pad14)*%
X108626000Y-120264773D03*
%TO.P,P6,15*%
%TO.N,/Panel Headers/HDR_EXT_INT_P6*%
X109896000Y-118065068D03*
%TD*%
D23*
%TO.P,P8,1*%
%TO.N,+5V*%
X109896000Y-237534932D03*
D15*
%TO.P,P8,2*%
%TO.N,GND*%
X108626000Y-235335227D03*
%TO.P,P8,3*%
%TO.N,/Panel Headers/HDR_RESET*%
X107356000Y-233135523D03*
%TO.P,P8,4*%
%TO.N,/Panel Headers/HDR_SCK_1_P8*%
X106086000Y-230935818D03*
%TO.P,P8,5*%
%TO.N,/Panel Headers/HDR_MOSI_1_P8*%
X104816000Y-228736114D03*
%TO.P,P8,6*%
%TO.N,/Panel Headers/HDR_MISO_1_P8*%
X103546000Y-226536409D03*
%TO.P,P8,7*%
%TO.N,/Panel Headers/HDR_CS_05_P8*%
X102276000Y-224336705D03*
%TO.P,P8,8*%
%TO.N,/Panel Headers/HDR_CS_06_P8*%
X101006000Y-222137000D03*
%TO.P,P8,9*%
%TO.N,/Panel Headers/HDR_CS_07_P8*%
X99736000Y-219937295D03*
%TO.P,P8,10*%
%TO.N,/Panel Headers/HDR_CS_08_P8*%
X98466000Y-217737591D03*
%TO.P,P8,11*%
%TO.N,/Panel Headers/HDR_CS_09_P8*%
X97196000Y-215537886D03*
%TO.P,P8,12*%
%TO.N,unconnected-(P8-Pad12)*%
X95926000Y-213338182D03*
%TO.P,P8,13*%
%TO.N,unconnected-(P8-Pad13)*%
X94656000Y-211138477D03*
%TO.P,P8,14*%
%TO.N,unconnected-(P8-Pad14)*%
X93386000Y-208938773D03*
%TO.P,P8,15*%
%TO.N,/Panel Headers/HDR_EXT_INT_P8*%
X92116000Y-206739068D03*
%TD*%
D10*
%TO.P,H2,1,1*%
%TO.N,GND*%
X279400000Y-76200000D03*
%TD*%
D24*
%TO.P,P2,1*%
%TO.N,+5V*%
X245704000Y-118065068D03*
D15*
%TO.P,P2,2*%
%TO.N,GND*%
X246974000Y-120264773D03*
%TO.P,P2,3*%
%TO.N,/Panel Headers/HDR_RESET*%
X248244000Y-122464477D03*
%TO.P,P2,4*%
%TO.N,/Panel Headers/HDR_SCK_0_P2*%
X249514000Y-124664182D03*
%TO.P,P2,5*%
%TO.N,/Panel Headers/HDR_MOSI_0_P2*%
X250784000Y-126863886D03*
%TO.P,P2,6*%
%TO.N,/Panel Headers/HDR_MISO_0_P2*%
X252054000Y-129063591D03*
%TO.P,P2,7*%
%TO.N,/Panel Headers/HDR_CS_05_P2*%
X253324000Y-131263295D03*
%TO.P,P2,8*%
%TO.N,/Panel Headers/HDR_CS_06_P2*%
X254594000Y-133463000D03*
%TO.P,P2,9*%
%TO.N,/Panel Headers/HDR_CS_07_P2*%
X255864000Y-135662705D03*
%TO.P,P2,10*%
%TO.N,/Panel Headers/HDR_CS_08_P2*%
X257134000Y-137862409D03*
%TO.P,P2,11*%
%TO.N,/Panel Headers/HDR_CS_09_P2*%
X258404000Y-140062114D03*
%TO.P,P2,12*%
%TO.N,unconnected-(P2-Pad12)*%
X259674000Y-142261818D03*
%TO.P,P2,13*%
%TO.N,unconnected-(P2-Pad13)*%
X260944000Y-144461523D03*
%TO.P,P2,14*%
%TO.N,unconnected-(P2-Pad14)*%
X262214000Y-146661227D03*
%TO.P,P2,15*%
%TO.N,/Panel Headers/HDR_EXT_INT_P2*%
X263484000Y-148860932D03*
%TD*%
D25*
%TO.P,P3,1*%
%TO.N,+5V*%
X206739068Y-92116000D03*
D15*
%TO.P,P3,2*%
%TO.N,GND*%
X208938773Y-93386000D03*
%TO.P,P3,3*%
%TO.N,/Panel Headers/HDR_RESET*%
X211138477Y-94656000D03*
%TO.P,P3,4*%
%TO.N,/Panel Headers/HDR_SCK_0_P3*%
X213338182Y-95926000D03*
%TO.P,P3,5*%
%TO.N,/Panel Headers/HDR_MOSI_0_P3*%
X215537886Y-97196000D03*
%TO.P,P3,6*%
%TO.N,/Panel Headers/HDR_MISO_0_P3*%
X217737591Y-98466000D03*
%TO.P,P3,7*%
%TO.N,/Panel Headers/HDR_CS_10_P3*%
X219937295Y-99736000D03*
%TO.P,P3,8*%
%TO.N,/Panel Headers/HDR_CS_11_P3*%
X222137000Y-101006000D03*
%TO.P,P3,9*%
%TO.N,/Panel Headers/HDR_CS_12_P3*%
X224336705Y-102276000D03*
%TO.P,P3,10*%
%TO.N,/Panel Headers/HDR_CS_13_P3*%
X226536409Y-103546000D03*
%TO.P,P3,11*%
%TO.N,/Panel Headers/HDR_CS_14_P3*%
X228736114Y-104816000D03*
%TO.P,P3,12*%
%TO.N,unconnected-(P3-Pad12)*%
X230935818Y-106086000D03*
%TO.P,P3,13*%
%TO.N,unconnected-(P3-Pad13)*%
X233135523Y-107356000D03*
%TO.P,P3,14*%
%TO.N,unconnected-(P3-Pad14)*%
X235335227Y-108626000D03*
%TO.P,P3,15*%
%TO.N,/Panel Headers/HDR_EXT_INT_P3*%
X237534932Y-109896000D03*
%TD*%
D26*
%TO.N,+3.3V*%
X106502000Y-266598000D03*
X285369000Y-162890000D03*
X285344000Y-153899000D03*
X287020000Y-225806000D03*
X200558000Y-281686000D03*
X284759000Y-205715000D03*
X73583800Y-230505000D03*
X270637000Y-246151000D03*
X152806000Y-281788000D03*
X76987400Y-220650000D03*
X180391000Y-281686000D03*
X180543000Y-286878000D03*
X252323600Y-260146800D03*
X203606000Y-284886000D03*
X283591000Y-235382000D03*
X152806000Y-287020000D03*
X125019000Y-281737000D03*
X97358200Y-263169000D03*
X97332800Y-281762200D03*
X183744000Y-284328000D03*
X71856600Y-249936000D03*
X251104400Y-257403400D03*
X162230000Y-285191000D03*
X77089000Y-249987000D03*
X71780400Y-220777000D03*
X282956000Y-196494000D03*
X97561400Y-286961000D03*
X125087000Y-286927000D03*
X134290000Y-285166000D03*
X200609000Y-286868000D03*
X106756000Y-285191000D03*
X220523000Y-281686000D03*
X220472000Y-286868000D03*
X281813000Y-226009000D03*
X73634600Y-259359000D03*
X223571000Y-284429000D03*
X97485200Y-268376000D03*
X273253000Y-242443000D03*
X288138000Y-196444000D03*
X79197200Y-209702000D03*
%TO.N,/Teensy/SDA*%
X278230500Y-161890000D03*
%TO.N,/Teensy/SCL*%
X283684900Y-165911200D03*
%TO.N,/Teensy/A0*%
X279024100Y-159968200D03*
%TO.N,/Teensy/A1*%
X284608200Y-151053700D03*
%TO.N,/Level Shifters/PAN5V.MISO_0*%
X220317300Y-101190000D03*
X126054800Y-100876300D03*
X232666500Y-113539200D03*
X92438700Y-195467300D03*
X92815100Y-135996200D03*
%TO.N,/Panel Headers/HDR_RESET*%
X191254100Y-259806800D03*
X95796500Y-201375500D03*
X228797900Y-112956500D03*
%TO.N,/Level Shifters/PAN5V.EXT_INT*%
X133489600Y-276273000D03*
X131075500Y-87908700D03*
X75919000Y-212807700D03*
X247031100Y-238684000D03*
X118391700Y-257534300D03*
X90377100Y-124159300D03*
X83696200Y-217059500D03*
X83003200Y-237285600D03*
X80109600Y-166815200D03*
X217695800Y-268893900D03*
D27*
%TO.N,GND*%
X118618000Y-102184000D03*
D26*
X258572000Y-222783000D03*
X168580000Y-277470000D03*
X69850000Y-211886800D03*
X78460600Y-186690000D03*
X173965000Y-270180000D03*
X93700600Y-124841000D03*
X225222000Y-257048000D03*
X282931000Y-201295000D03*
X124765000Y-261925000D03*
X186250000Y-282499000D03*
X87122000Y-219507000D03*
X70891400Y-241351000D03*
X102108000Y-268351000D03*
X95707200Y-220751000D03*
X164762000Y-283439000D03*
X226289000Y-91008200D03*
X129692000Y-286893000D03*
X181635000Y-85267800D03*
X93040200Y-216103000D03*
X173939000Y-277495000D03*
X277190000Y-187046000D03*
X121818000Y-281711000D03*
X129870000Y-283388000D03*
X282931000Y-208356000D03*
X90957400Y-129337000D03*
X75174000Y-226146000D03*
X270408000Y-176352000D03*
X77495400Y-214173000D03*
X265760000Y-131420000D03*
X85166200Y-168580000D03*
X98323400Y-225374000D03*
X136728000Y-283362000D03*
X220624000Y-259715000D03*
X228803000Y-263246000D03*
X85140800Y-173965000D03*
X75285600Y-233121000D03*
D27*
X266878000Y-213614000D03*
D26*
X263119000Y-126898000D03*
X109220000Y-286969000D03*
X268478000Y-136093000D03*
X157785000Y-283464000D03*
X222707000Y-97053400D03*
X253314000Y-232054000D03*
X286537000Y-208407000D03*
X78409800Y-179248000D03*
X268351000Y-247447000D03*
X128219000Y-256007000D03*
X224257000Y-265862000D03*
X187020000Y-85344000D03*
X281772000Y-237896000D03*
X280949400Y-187883800D03*
X102210000Y-123520000D03*
X92379800Y-228752000D03*
X285369000Y-230988000D03*
X206232000Y-283108000D03*
X257149600Y-130302000D03*
X251587200Y-254736400D03*
X259385000Y-235585000D03*
X281813000Y-230886000D03*
X71882000Y-262001000D03*
D27*
X82727800Y-191313000D03*
D26*
X109017000Y-268326000D03*
X136068000Y-87071200D03*
X235280000Y-259486000D03*
X75412600Y-261849000D03*
X264693000Y-226289000D03*
X71780400Y-225654000D03*
D27*
X102184000Y-237058000D03*
D26*
X130353000Y-98450400D03*
X164661000Y-286944000D03*
X85191600Y-179248000D03*
X168580000Y-270231000D03*
X186690000Y-277292000D03*
X96215200Y-235179000D03*
X120371000Y-96189800D03*
X71805800Y-233020000D03*
X219634000Y-268656000D03*
X168885000Y-78460600D03*
X94259400Y-263144000D03*
X96901000Y-132766000D03*
X273279000Y-239573000D03*
X270408000Y-181635000D03*
X76987400Y-217602000D03*
X216281000Y-93243400D03*
D27*
X237109000Y-253314000D03*
D26*
X102057000Y-264871000D03*
X287020000Y-222885000D03*
X126797000Y-92456000D03*
X176027000Y-280975000D03*
D27*
X141910000Y-266852000D03*
D26*
X139268000Y-262407000D03*
X227305000Y-99695000D03*
X187020000Y-78384400D03*
X271602000Y-249758000D03*
X88849200Y-269240000D03*
X144348000Y-287884000D03*
X255930000Y-227355000D03*
X185166000Y-286604000D03*
X102210000Y-286969000D03*
X249656200Y-260172400D03*
X262382000Y-216332000D03*
X102083000Y-231826000D03*
X285384000Y-237830000D03*
X231699000Y-253390000D03*
X77089000Y-246990000D03*
X268173000Y-234721000D03*
X172466000Y-286817000D03*
X259943600Y-134797800D03*
X217221000Y-281635000D03*
X123495000Y-253390000D03*
X89763600Y-224180000D03*
X280695000Y-217246000D03*
X225146000Y-286588000D03*
X78359000Y-173990000D03*
X109245000Y-283439000D03*
X197256000Y-281686000D03*
X230861000Y-93624400D03*
X277089000Y-168910000D03*
X205317000Y-287105000D03*
X262661000Y-139446000D03*
X120066000Y-259283000D03*
X85242400Y-186715000D03*
X149606000Y-281788000D03*
X226272000Y-282550000D03*
X108966000Y-264846000D03*
X259359000Y-120472000D03*
X262001000Y-230861000D03*
X131369000Y-89763600D03*
X96291400Y-120142000D03*
X192532000Y-286715000D03*
X179248000Y-270180000D03*
X123901000Y-102235000D03*
X136779000Y-286969000D03*
X93218000Y-139268000D03*
D27*
X191364000Y-272872000D03*
D26*
X232029000Y-102260000D03*
X77495400Y-207315000D03*
X134874000Y-95732600D03*
X71856600Y-254889000D03*
X75412600Y-254914000D03*
X176352000Y-78409800D03*
X88544400Y-287909000D03*
X168885000Y-85369400D03*
X135839000Y-268275000D03*
X286537000Y-201193000D03*
X78409800Y-168580000D03*
X285344000Y-154889000D03*
D27*
X88747600Y-141910000D03*
X253416000Y-118669000D03*
D26*
X277114000Y-176378000D03*
X253365000Y-123876000D03*
X216002000Y-262433000D03*
X186741000Y-270154000D03*
X235534000Y-96291400D03*
X139548000Y-93065600D03*
X288163000Y-193421000D03*
X132740000Y-258724000D03*
X102286000Y-283439000D03*
X129286000Y-264693000D03*
X212547000Y-286741000D03*
X270358000Y-187020000D03*
X87325200Y-135890000D03*
X179248000Y-277343000D03*
X270281000Y-168885000D03*
X176352000Y-85267800D03*
D27*
X164313000Y-82753200D03*
D26*
X285394000Y-163906000D03*
X116434000Y-287807000D03*
X268300000Y-219786000D03*
X99542600Y-128194000D03*
D27*
X272847000Y-164262000D03*
D26*
X277139000Y-181635000D03*
D27*
X213614000Y-88722200D03*
D26*
X94259400Y-281788000D03*
X219786000Y-87274400D03*
X75641200Y-198247000D03*
X181635000Y-78435200D03*
X157632000Y-286969000D03*
%TO.N,/Level Shifters/PAN5V.MISO_1*%
X231225400Y-257419600D03*
X98033600Y-228757900D03*
X136986500Y-262334100D03*
X260934300Y-221151500D03*
X82742500Y-207490900D03*
X111060900Y-253580400D03*
X183523100Y-267851000D03*
X83736900Y-183710100D03*
X89595800Y-207490900D03*
%TO.N,/Level Shifters/PAN3V.RESET*%
X231045800Y-283734400D03*
X206645600Y-289743000D03*
X232621700Y-283901200D03*
X74296300Y-232840500D03*
%TO.N,/Level Shifters/PAN3V.SCK_0*%
X230216600Y-283919000D03*
X234533300Y-282071800D03*
%TO.N,/Level Shifters/PAN3V.MISO_0*%
X84360500Y-239522400D03*
X78036000Y-228553600D03*
%TO.N,/Level Shifters/PAN3V.MOSI_1*%
X191483800Y-280958300D03*
X189925300Y-282297100D03*
%TO.N,/Level Shifters/PAN3V.MISO_1*%
X81052600Y-245893200D03*
X77744600Y-224818000D03*
%TO.N,/Level Shifters/PAN3V.CS_01*%
X278303700Y-251988400D03*
X284702700Y-206895300D03*
%TO.N,/Level Shifters/PAN3V.CS_02*%
X282708600Y-209314700D03*
X276144900Y-252932200D03*
%TO.N,/Level Shifters/PAN3V.CS_03*%
X284084900Y-210355500D03*
X277355800Y-250088100D03*
%TO.N,/Level Shifters/PAN3V.CS_08*%
X239296500Y-262168900D03*
X180664700Y-278141400D03*
X144373500Y-270508300D03*
X260190100Y-258577700D03*
%TO.N,/Level Shifters/PAN3V.CS_09*%
X259185800Y-258722700D03*
X249756600Y-243898400D03*
X210282100Y-254314500D03*
X156808500Y-261575200D03*
%TO.N,/Level Shifters/PAN3V.CS_11*%
X141874900Y-268789000D03*
X178076100Y-279010600D03*
%TO.N,/Level Shifters/PAN3V.CS_13*%
X166925800Y-286204200D03*
X202352300Y-279693100D03*
%TO.N,/Level Shifters/PAN3V.CS_16*%
X195849800Y-279583800D03*
X140057000Y-285739800D03*
%TO.N,/Level Shifters/PAN3V.CS_17*%
X208747300Y-284193200D03*
X138761200Y-286941300D03*
%TO.N,/Level Shifters/PAN3V.CS_19*%
X206976400Y-287200500D03*
X143527100Y-287668000D03*
%TO.N,/Level Shifters/PAN3V.CS_20*%
X116470300Y-289054900D03*
X269132900Y-270611600D03*
%TO.N,/Level Shifters/PAN3V.CS_21*%
X207114200Y-288833200D03*
X225391400Y-288761700D03*
X253033900Y-285627200D03*
X109754900Y-285386000D03*
%TO.N,/Level Shifters/PAN3V.CS_22*%
X259816600Y-275849700D03*
X241388000Y-263387500D03*
%TO.N,/Level Shifters/PAN3V.CS_23*%
X111236600Y-282253800D03*
X233530700Y-278236300D03*
X207164300Y-278331100D03*
X253033900Y-284026900D03*
%TO.N,/Level Shifters/PAN3V.CS_24*%
X107002900Y-270495400D03*
X238382800Y-288815900D03*
%TO.N,/Level Shifters/PAN3V.CS_25*%
X201644300Y-266733300D03*
X237243200Y-289000800D03*
%TO.N,/Level Shifters/PAN3V.CS_26*%
X245056400Y-280080900D03*
X129082600Y-272016900D03*
X204359500Y-278962500D03*
X232756200Y-278962500D03*
%TO.N,/Level Shifters/PAN3V.CS_27*%
X237537200Y-281101400D03*
X206775200Y-266637900D03*
%TO.N,/Level Shifters/PAN3V.CS_28*%
X196577300Y-263484400D03*
X238790100Y-281914600D03*
%TO.N,/Level Shifters/PAN3V.CS_29*%
X238829700Y-282753000D03*
X133935200Y-268215900D03*
%TO.N,/Level Shifters/PAN3V.EXT_INT*%
X231872100Y-284652600D03*
X198414400Y-256657600D03*
%TO.N,/Level Shifters/PAN5V.SCK_0_P1*%
X217874200Y-286258800D03*
X269102100Y-171652200D03*
%TO.N,/Level Shifters/PAN5V.SCK_0_P2*%
X212579200Y-284734100D03*
X259257800Y-124790200D03*
%TO.N,/Level Shifters/PAN5V.SCK_0_P3*%
X222351600Y-87982100D03*
X212593000Y-283842000D03*
%TO.N,/Level Shifters/PAN5V.SCK_0_P4*%
X212616100Y-282871000D03*
X174600900Y-82512900D03*
%TO.N,/Level Shifters/PAN5V.SCK_0_P5*%
X117498900Y-96692800D03*
X204635400Y-289864700D03*
%TO.N,/Level Shifters/PAN5V.SCK_0_P6*%
X198451200Y-255427900D03*
X212624200Y-281533600D03*
%TO.N,/Level Shifters/PAN5V.MOSI_0_P1*%
X274723100Y-171045300D03*
X274045000Y-226498900D03*
%TO.N,/Level Shifters/PAN5V.MOSI_0_P2*%
X258544600Y-122892700D03*
X269157500Y-234817600D03*
%TO.N,/Level Shifters/PAN5V.MOSI_0_P3*%
X269973800Y-234810400D03*
X230305900Y-89636100D03*
%TO.N,/Level Shifters/PAN5V.MOSI_0_P4*%
X270826600Y-234499300D03*
X235881500Y-93978200D03*
%TO.N,/Level Shifters/PAN5V.MOSI_0_P5*%
X123454200Y-97031700D03*
X272342600Y-234827000D03*
%TO.N,/Level Shifters/PAN5V.MOSI_0_P6*%
X271287700Y-231592900D03*
X252839000Y-119989400D03*
%TO.N,/Level Shifters/PAN5V.SCK_1_P7*%
X100750100Y-191780100D03*
X165867000Y-282134900D03*
%TO.N,/Level Shifters/PAN5V.SCK_1_P8*%
X187707100Y-284204300D03*
X114630600Y-241931100D03*
%TO.N,/Level Shifters/PAN5V.SCK_1_P9*%
X176841000Y-280829500D03*
X140859400Y-267699700D03*
%TO.N,/Level Shifters/PAN5V.SCK_1_P10*%
X190443500Y-280999300D03*
X187596500Y-277092600D03*
%TO.N,/Level Shifters/PAN5V.SCK_1_P12*%
X266984900Y-222406900D03*
X224397400Y-275829700D03*
%TO.N,/Level Shifters/PAN5V.MOSI_1_P7*%
X166843200Y-282057700D03*
X101441900Y-196063700D03*
%TO.N,/Level Shifters/PAN5V.MOSI_1_P8*%
X116029400Y-242350600D03*
X163214400Y-281155400D03*
%TO.N,/Level Shifters/PAN5V.MOSI_1_P9*%
X134562000Y-266749700D03*
X149646900Y-280671100D03*
%TO.N,/Level Shifters/PAN5V.MOSI_1_P10*%
X183492200Y-275920200D03*
X172630800Y-282929000D03*
%TO.N,/Level Shifters/PAN5V.MOSI_1_P11*%
X230740300Y-260986000D03*
X231163500Y-265072300D03*
%TO.N,/Level Shifters/PAN5V.MOSI_1_P12*%
X265932200Y-220569900D03*
X234165200Y-265153400D03*
%TO.N,/Level Shifters/PAN5V.CS_00_P7*%
X275382200Y-184664700D03*
X273900400Y-166505400D03*
%TO.N,/Level Shifters/PAN5V.CS_01_P1*%
X276716100Y-179828800D03*
X278170200Y-184642100D03*
%TO.N,/Level Shifters/PAN5V.CS_02_P1*%
X278209800Y-183279100D03*
X278174400Y-181882600D03*
%TO.N,/Level Shifters/PAN5V.CS_02_P7*%
X277191400Y-167690500D03*
X281326800Y-183256300D03*
%TO.N,/Level Shifters/PAN5V.CS_00_P1*%
X279092400Y-186932600D03*
X277082100Y-178037500D03*
%TO.N,/Level Shifters/PAN5V.CS_04_P1*%
X278570200Y-187559500D03*
X278570200Y-219176700D03*
%TO.N,/Level Shifters/PAN5V.CS_04_P7*%
X106929500Y-228243100D03*
X96971800Y-171450000D03*
%TO.N,/Level Shifters/PAN5V.CS_05_P2*%
X282008400Y-216909200D03*
X268752100Y-129734000D03*
%TO.N,/Level Shifters/PAN5V.CS_06_P2*%
X261496400Y-129861900D03*
X268498800Y-201932900D03*
%TO.N,/Level Shifters/PAN5V.CS_07_P2*%
X269156500Y-130484200D03*
X288347800Y-217509500D03*
%TO.N,/Level Shifters/PAN5V.CS_07_P8*%
X102038800Y-234362600D03*
X93537000Y-224404700D03*
%TO.N,/Level Shifters/PAN5V.CS_08_P2*%
X79011500Y-161182100D03*
X72556800Y-237452800D03*
%TO.N,/Level Shifters/PAN5V.CS_09_P2*%
X90197500Y-210268000D03*
X97375400Y-145251500D03*
%TO.N,/Level Shifters/PAN5V.CS_10_P3*%
X75899000Y-241342400D03*
X79646300Y-129086200D03*
%TO.N,/Level Shifters/PAN5V.CS_10_P9*%
X123572900Y-264507900D03*
X123572900Y-262709400D03*
%TO.N,/Level Shifters/PAN5V.CS_11_P3*%
X226743300Y-93600600D03*
X90385800Y-241435400D03*
%TO.N,/Level Shifters/PAN5V.CS_12_P3*%
X217094100Y-276229900D03*
X232561700Y-92986000D03*
%TO.N,/Level Shifters/PAN5V.CS_12_P9*%
X126990200Y-261969500D03*
X141473300Y-283784100D03*
%TO.N,/Level Shifters/PAN5V.CS_13_P3*%
X231494900Y-96003400D03*
X143389700Y-282991000D03*
%TO.N,/Level Shifters/PAN5V.CS_13_P9*%
X140871700Y-282174900D03*
X127815500Y-262183400D03*
%TO.N,/Level Shifters/PAN5V.CS_14_P3*%
X139533900Y-281485900D03*
X230986400Y-96699200D03*
%TO.N,/Level Shifters/PAN5V.CS_14_P9*%
X139484500Y-280354800D03*
X124229700Y-258694300D03*
%TO.N,/Level Shifters/PAN5V.CS_15_P4*%
X144318100Y-281081400D03*
X156762900Y-89868200D03*
%TO.N,/Level Shifters/PAN5V.CS_16_P4*%
X114935000Y-279409500D03*
X178104900Y-80403100D03*
%TO.N,/Level Shifters/PAN5V.CS_17_P4*%
X116138500Y-285191300D03*
X178160000Y-79264500D03*
%TO.N,/Level Shifters/PAN5V.CS_17_P10*%
X116468300Y-284135100D03*
X124545600Y-277938400D03*
%TO.N,/Level Shifters/PAN5V.CS_18_P4*%
X116140000Y-282572600D03*
X183142800Y-80748500D03*
%TO.N,/Level Shifters/PAN5V.CS_18_P10*%
X172927100Y-277159900D03*
X171738600Y-279507000D03*
%TO.N,/Level Shifters/PAN5V.CS_19_P4*%
X116455200Y-281161100D03*
X183539900Y-80010400D03*
%TO.N,/Level Shifters/PAN5V.CS_19_P10*%
X132630800Y-277590400D03*
X124420100Y-279950300D03*
%TO.N,/Level Shifters/PAN5V.CS_20_P5*%
X92324600Y-288960300D03*
X125942500Y-102159100D03*
%TO.N,/Level Shifters/PAN5V.CS_20_P11*%
X220410400Y-270152600D03*
X225471400Y-264434000D03*
%TO.N,/Level Shifters/PAN5V.CS_21_P11*%
X194215300Y-263751600D03*
X204627100Y-263889900D03*
%TO.N,/Level Shifters/PAN5V.CS_22_P5*%
X88479200Y-282803800D03*
X123632300Y-91146900D03*
%TO.N,/Level Shifters/PAN5V.CS_22_P11*%
X205294400Y-268306100D03*
X209212300Y-270500700D03*
%TO.N,/Level Shifters/PAN5V.CS_23_P5*%
X88691900Y-281307200D03*
X129414800Y-90414700D03*
%TO.N,/Level Shifters/PAN5V.CS_24_P5*%
X135438800Y-89607100D03*
X91331300Y-270893100D03*
%TO.N,/Level Shifters/PAN5V.CS_25_P6*%
X92139200Y-132029600D03*
X88928800Y-267049200D03*
%TO.N,/Level Shifters/PAN5V.CS_25_P12*%
X200021300Y-256266700D03*
X195217400Y-262865600D03*
%TO.N,/Level Shifters/PAN5V.CS_26_P6*%
X88928600Y-265176000D03*
X91520800Y-133485900D03*
%TO.N,/Level Shifters/PAN5V.CS_26_P12*%
X229557200Y-249196000D03*
X258081700Y-226472500D03*
%TO.N,/Level Shifters/PAN5V.CS_27_P6*%
X88875900Y-262329300D03*
X94190500Y-128872500D03*
%TO.N,/Level Shifters/PAN5V.CS_27_P12*%
X245097600Y-240475800D03*
X227384300Y-250492700D03*
%TO.N,/Level Shifters/PAN5V.CS_28_P6*%
X88581000Y-148343800D03*
X91985800Y-126985100D03*
%TO.N,/Level Shifters/PAN5V.CS_29_P6*%
X73089700Y-210330600D03*
X89479900Y-125263200D03*
%TO.N,/Level Shifters/PAN5V.CS_29_P12*%
X220181400Y-243704900D03*
X137310800Y-249110100D03*
X73289700Y-211300000D03*
X78612200Y-207379100D03*
%TO.N,+5V*%
X260883000Y-127610000D03*
D27*
X112928000Y-105512000D03*
X250114000Y-113030000D03*
D26*
X218186000Y-89128600D03*
X70332600Y-214986000D03*
X218745000Y-266217000D03*
X136855000Y-89357200D03*
X266217000Y-136830000D03*
X268072000Y-239624000D03*
X80746600Y-174447000D03*
X223393000Y-263525000D03*
D27*
X157963000Y-82753200D03*
D26*
X266471000Y-218186000D03*
X137465000Y-266497000D03*
X257429000Y-233909000D03*
X260147000Y-229235000D03*
X217297000Y-286842000D03*
X89382600Y-218719000D03*
X262763000Y-224688000D03*
X91567000Y-268503000D03*
X126390000Y-260172000D03*
X121183000Y-98501200D03*
X127635000Y-94691200D03*
X92811600Y-130937000D03*
X91490800Y-287350000D03*
X174447000Y-274828000D03*
X98501200Y-234391000D03*
X186563000Y-80721200D03*
X274828000Y-181153000D03*
X94716600Y-227990000D03*
X169062000Y-274828000D03*
X187198000Y-274752000D03*
X224688000Y-92811600D03*
X121691000Y-257454000D03*
X282473000Y-190779000D03*
D27*
X197688000Y-272898000D03*
X208026000Y-85521800D03*
D26*
X274777000Y-168427000D03*
X227940000Y-260883000D03*
X98145600Y-121666000D03*
X229235000Y-95427800D03*
X177343000Y-286868000D03*
X274828000Y-175870000D03*
X80746600Y-169037000D03*
X233909000Y-98120200D03*
D27*
X105486000Y-242595000D03*
X147650000Y-270129000D03*
D26*
X257099000Y-121183000D03*
X263500000Y-132156000D03*
X119094000Y-287341000D03*
X175895000Y-80746600D03*
X197256000Y-286868000D03*
X274828000Y-186563000D03*
X281076000Y-220091000D03*
X95427800Y-126390000D03*
X168427000Y-80797400D03*
X179730000Y-274828000D03*
X130912000Y-262788000D03*
D27*
X85394800Y-147625000D03*
D26*
X132182000Y-92075000D03*
X181153000Y-80746600D03*
X89128600Y-137414000D03*
D27*
X82753200Y-197714000D03*
D26*
X80822800Y-187173000D03*
D27*
X242494000Y-250165000D03*
D26*
X92075000Y-223393000D03*
X80746600Y-179654000D03*
D27*
X272872000Y-157937000D03*
D26*
X234417000Y-257124000D03*
D27*
X270027000Y-208102000D03*
D26*
X146990000Y-287350000D03*
X71678800Y-244145000D03*
%TD*%
D28*
%TO.N,/Power/SW_5V*%
X280111000Y-99542400D02*
X280111000Y-115646000D01*
X280111000Y-115646000D02*
X282218000Y-117752000D01*
X282218000Y-117752000D02*
X284479500Y-117752000D01*
D29*
X284479500Y-117752000D02*
X284480000Y-117752500D01*
X280111200Y-99542200D02*
X280111200Y-92202000D01*
D28*
X280111000Y-92202000D02*
X280111000Y-99542400D01*
D29*
X280111000Y-99542400D02*
X280111200Y-99542200D01*
D28*
X284479500Y-117752000D02*
X284480000Y-117752000D01*
D29*
%TO.N,/Teensy/SDA*%
X274426300Y-260081000D02*
X271270500Y-263236800D01*
X275984200Y-225781000D02*
X274426300Y-227338900D01*
X275984200Y-164136300D02*
X275984200Y-225781000D01*
X271270500Y-263236800D02*
X271270500Y-274665300D01*
X278230500Y-161890000D02*
X275984200Y-164136300D01*
X274426300Y-227338900D02*
X274426300Y-260081000D01*
%TO.N,/Teensy/SCL*%
X283379500Y-209577600D02*
X283684900Y-209272200D01*
X283684900Y-209272200D02*
X283684900Y-165911200D01*
X276707300Y-228120500D02*
X283379500Y-221448300D01*
X276707300Y-251630400D02*
X276707300Y-228120500D01*
X276781400Y-251704500D02*
X276707300Y-251630400D01*
X273657300Y-273796600D02*
X273657300Y-261418000D01*
X283379500Y-221448300D02*
X283379500Y-209577600D01*
X273657300Y-261418000D02*
X276781400Y-258293900D01*
X276781400Y-258293900D02*
X276781400Y-251704500D01*
%TO.N,/Teensy/A0*%
X260781800Y-265226800D02*
X260781800Y-277198800D01*
X273241700Y-236457200D02*
X262384435Y-247314465D01*
X260781800Y-277198800D02*
X261723200Y-278140200D01*
X262384435Y-263624165D02*
X260781800Y-265226800D01*
X262384435Y-247314465D02*
X262384435Y-263624165D01*
X279024100Y-159968200D02*
X273241700Y-165750600D01*
X273241700Y-165750600D02*
X273241700Y-236457200D01*
%TO.N,/Teensy/A1*%
X285386600Y-165953800D02*
X284608200Y-165175400D01*
X274942400Y-274155100D02*
X274942400Y-265655400D01*
X279101700Y-261496100D02*
X279101700Y-251273000D01*
X284608200Y-165175400D02*
X284608200Y-151053700D01*
X284702700Y-230788000D02*
X285386600Y-230104100D01*
X285386600Y-230104100D02*
X285386600Y-165953800D01*
X264110000Y-277271500D02*
X264363000Y-277524500D01*
X279101700Y-251273000D02*
X284702700Y-245672000D01*
X284702700Y-245672000D02*
X284702700Y-230788000D01*
X264363000Y-277524500D02*
X271573000Y-277524500D01*
X274942400Y-265655400D02*
X279101700Y-261496100D01*
X271573000Y-277524500D02*
X274942400Y-274155100D01*
%TO.N,/Level Shifters/PAN5V.MISO_0*%
X122058100Y-104985800D02*
X126054800Y-100989100D01*
X92615000Y-144330000D02*
X94497400Y-146212400D01*
X92815100Y-135996200D02*
X103373700Y-125437600D01*
X94497400Y-146212400D02*
X94497400Y-193408600D01*
X220317300Y-101190000D02*
X232666500Y-113539200D01*
X94497400Y-193408600D02*
X92438700Y-195467300D01*
X103373700Y-122677100D02*
X121065000Y-104985800D01*
X103373700Y-125437600D02*
X103373700Y-122677100D01*
X121065000Y-104985800D02*
X122058100Y-104985800D01*
X92815100Y-135996200D02*
X92615000Y-136196300D01*
X92615000Y-136196300D02*
X92615000Y-144330000D01*
X126054800Y-100989100D02*
X126054800Y-100876300D01*
%TO.N,/Panel Headers/HDR_RESET*%
X248244000Y-132830300D02*
X257484500Y-142070800D01*
X105974300Y-228136500D02*
X105314900Y-227477100D01*
X260315700Y-211138500D02*
X260944000Y-211138500D01*
X233135500Y-238318700D02*
X260315700Y-211138500D01*
X257484500Y-156110500D02*
X266474000Y-165100000D01*
X190500000Y-266474000D02*
X190500000Y-260560900D01*
X105314900Y-227477100D02*
X105314900Y-222648600D01*
X190500000Y-260560900D02*
X191254100Y-259806800D01*
X266474000Y-165100000D02*
X260944000Y-170630000D01*
X122464500Y-107356000D02*
X122464500Y-117281400D01*
X107356000Y-229772700D02*
X105974300Y-228391000D01*
X260944000Y-170630000D02*
X260944000Y-211138500D01*
X211138500Y-94656000D02*
X211138500Y-95297100D01*
X122464500Y-117281400D02*
X95284400Y-144461500D01*
X233135500Y-248244000D02*
X233135500Y-238318700D01*
X98731000Y-216064700D02*
X98731000Y-214342200D01*
X105974300Y-228391000D02*
X105974300Y-228136500D01*
X248244000Y-122464500D02*
X248244000Y-132830300D01*
X107356000Y-233135500D02*
X107356000Y-229772700D01*
X105314900Y-222648600D02*
X98731000Y-216064700D01*
X95796500Y-211407700D02*
X95796500Y-201375500D01*
X98731000Y-214342200D02*
X95796500Y-211407700D01*
X95284400Y-144461500D02*
X94656000Y-144461500D01*
X257484500Y-142070800D02*
X257484500Y-156110500D01*
X211138500Y-95297100D02*
X228797900Y-112956500D01*
%TO.N,/Level Shifters/PAN5V.EXT_INT*%
X80109600Y-212807700D02*
X83696200Y-216394300D01*
X217695800Y-268893900D02*
X222148500Y-264441200D01*
X118391700Y-260475100D02*
X133464300Y-275547700D01*
X247029600Y-239394900D02*
X247029600Y-238685500D01*
X90377100Y-124159300D02*
X90377100Y-122892800D01*
X118391700Y-257534300D02*
X118391700Y-260475100D01*
X222148500Y-264441200D02*
X223331000Y-264441200D01*
X223331000Y-264441200D02*
X230195700Y-257576500D01*
X80109600Y-212807700D02*
X75919000Y-212807700D01*
X83003200Y-217752500D02*
X83003200Y-237285600D01*
X80109600Y-212807700D02*
X80109600Y-166815200D01*
X247029600Y-238685500D02*
X247031100Y-238684000D01*
X230195700Y-257576500D02*
X230195700Y-256228800D01*
X90377100Y-122892800D02*
X125361200Y-87908700D01*
X230195700Y-256228800D02*
X247029600Y-239394900D01*
X80109600Y-135710100D02*
X90377100Y-125442600D01*
X83696200Y-217059500D02*
X83003200Y-217752500D01*
X83696200Y-216394300D02*
X83696200Y-217059500D01*
X90377100Y-125442600D02*
X90377100Y-124159300D01*
X133464300Y-275547700D02*
X133464300Y-276247700D01*
X133464300Y-276247700D02*
X133489600Y-276273000D01*
X80109600Y-166815200D02*
X80109600Y-135710100D01*
X125361200Y-87908700D02*
X131075500Y-87908700D01*
%TO.N,/Level Shifters/PAN5V.MISO_1*%
X259627800Y-222458000D02*
X259627800Y-225892100D01*
X97721700Y-219037500D02*
X89595800Y-210911600D01*
X83736900Y-183710100D02*
X83879900Y-183853100D01*
X260934300Y-221151500D02*
X259627800Y-222458000D01*
X247431300Y-239257700D02*
X247431300Y-239563300D01*
X89595800Y-210911600D02*
X89595800Y-207490900D01*
X232848100Y-255796900D02*
X231225400Y-257419600D01*
X182679600Y-267851000D02*
X181751500Y-266922900D01*
X247233200Y-239761400D02*
X247231100Y-239761400D01*
X111060900Y-253580400D02*
X111060900Y-241785200D01*
X181751500Y-266922900D02*
X181751500Y-266271600D01*
X247431300Y-239563300D02*
X247233200Y-239761400D01*
X140024700Y-265372300D02*
X136986500Y-262334100D01*
X247231100Y-239761400D02*
X232848100Y-254144400D01*
X232848100Y-254144400D02*
X232848100Y-255796900D01*
X83879900Y-183853100D02*
X83879900Y-206353500D01*
X259627800Y-225892100D02*
X255550500Y-229969400D01*
X111060900Y-241785200D02*
X98033600Y-228757900D01*
X255550500Y-229969400D02*
X255550500Y-231138500D01*
X97721700Y-228446000D02*
X97721700Y-219037500D01*
X98033600Y-228757900D02*
X97721700Y-228446000D01*
X255550500Y-231138500D02*
X247431300Y-239257700D01*
X183523100Y-267851000D02*
X182679600Y-267851000D01*
X181751500Y-266271600D02*
X180852200Y-265372300D01*
X180852200Y-265372300D02*
X140024700Y-265372300D01*
X83879900Y-206353500D02*
X82742500Y-207490900D01*
%TO.N,/Level Shifters/PAN3V.RESET*%
X92407300Y-290466400D02*
X205922200Y-290466400D01*
X81369000Y-279428100D02*
X92407300Y-290466400D01*
X81369000Y-270733800D02*
X81369000Y-279428100D01*
X74296300Y-263661100D02*
X81369000Y-270733800D01*
X74296300Y-232840500D02*
X74296300Y-263661100D01*
X231212600Y-283901200D02*
X231045800Y-283734400D01*
X205922200Y-290466400D02*
X206645600Y-289743000D01*
X232621700Y-283901200D02*
X231212600Y-283901200D01*
%TO.N,/Level Shifters/PAN3V.SCK_0*%
X230216600Y-283688000D02*
X230216600Y-283919000D01*
X234533300Y-282071800D02*
X231832800Y-282071800D01*
X231832800Y-282071800D02*
X230216600Y-283688000D01*
%TO.N,/Level Shifters/PAN3V.MISO_0*%
X78036100Y-228553600D02*
X78036000Y-228553600D01*
X84360500Y-239522400D02*
X78036100Y-233198000D01*
X78036100Y-233198000D02*
X78036100Y-228553600D01*
%TO.N,/Level Shifters/PAN3V.MOSI_1*%
X189925300Y-282297100D02*
X190145000Y-282297100D01*
X190145000Y-282297100D02*
X191483800Y-280958300D01*
%TO.N,/Level Shifters/PAN3V.MISO_1*%
X77434300Y-225128300D02*
X77434300Y-242274900D01*
X77744600Y-224818000D02*
X77434300Y-225128300D01*
X77434300Y-242274900D02*
X81052600Y-245893200D01*
%TO.N,/Level Shifters/PAN3V.CS_01*%
X278303700Y-251420400D02*
X278303700Y-251988400D01*
X284301000Y-230421500D02*
X284301000Y-245423100D01*
X284702700Y-230019800D02*
X284301000Y-230421500D01*
X284301000Y-245423100D02*
X278303700Y-251420400D01*
X284702700Y-206895300D02*
X284702700Y-230019800D01*
%TO.N,/Level Shifters/PAN3V.CS_02*%
X281982700Y-218491400D02*
X281982700Y-222277100D01*
X281982700Y-222277100D02*
X276144900Y-228114900D01*
X282708600Y-209314700D02*
X282708600Y-217765500D01*
X276144900Y-228114900D02*
X276144900Y-252932200D01*
X282708600Y-217765500D02*
X281982700Y-218491400D01*
%TO.N,/Level Shifters/PAN3V.CS_03*%
X283899300Y-210541100D02*
X283899300Y-230419600D01*
X277355800Y-236963100D02*
X277355800Y-250088100D01*
X284084900Y-210355500D02*
X283899300Y-210541100D01*
X283899300Y-230419600D02*
X277355800Y-236963100D01*
%TO.N,/Level Shifters/PAN3V.CS_08*%
X255367600Y-265002900D02*
X252828200Y-267542300D01*
X260190100Y-258577700D02*
X255367600Y-263400200D01*
X255367600Y-263400200D02*
X255367600Y-265002900D01*
X180664700Y-278433800D02*
X177071200Y-282027300D01*
X160460900Y-271880100D02*
X145745300Y-271880100D01*
X243535700Y-262168900D02*
X239296500Y-262168900D01*
X170608100Y-282027300D02*
X160460900Y-271880100D01*
X180664700Y-278141400D02*
X180664700Y-278433800D01*
X252828200Y-267542300D02*
X248909100Y-267542300D01*
X177071200Y-282027300D02*
X170608100Y-282027300D01*
X248909100Y-267542300D02*
X243535700Y-262168900D01*
X145745300Y-271880100D02*
X144373500Y-270508300D01*
%TO.N,/Level Shifters/PAN3V.CS_09*%
X198145800Y-254314500D02*
X197342000Y-255118300D01*
X197342000Y-255118300D02*
X193871100Y-255118300D01*
X193871100Y-255118300D02*
X187414200Y-261575200D01*
X259185800Y-258722700D02*
X249756600Y-249293500D01*
X187414200Y-261575200D02*
X156808500Y-261575200D01*
X249756600Y-249293500D02*
X249756600Y-243898400D01*
X210282100Y-254314500D02*
X198145800Y-254314500D01*
%TO.N,/Level Shifters/PAN3V.CS_11*%
X178076100Y-279010600D02*
X178076100Y-280447700D01*
X176898200Y-281625600D02*
X170786700Y-281625600D01*
X157950100Y-268789000D02*
X141874900Y-268789000D01*
X170786700Y-281625600D02*
X157950100Y-268789000D01*
X178076100Y-280447700D02*
X176898200Y-281625600D01*
%TO.N,/Level Shifters/PAN3V.CS_13*%
X166925800Y-286204200D02*
X167129700Y-286000300D01*
X190423900Y-286000300D02*
X196731100Y-279693100D01*
X196731100Y-279693100D02*
X202352300Y-279693100D01*
X167129700Y-286000300D02*
X190423900Y-286000300D01*
%TO.N,/Level Shifters/PAN3V.CS_16*%
X189842600Y-285591000D02*
X166527000Y-285591000D01*
X140231900Y-285564900D02*
X140057000Y-285739800D01*
X162021200Y-285833100D02*
X161753000Y-285564900D01*
X161753000Y-285564900D02*
X140231900Y-285564900D01*
X195849800Y-279583800D02*
X189842600Y-285591000D01*
X166527000Y-285591000D02*
X166284900Y-285833100D01*
X166284900Y-285833100D02*
X162021200Y-285833100D01*
%TO.N,/Level Shifters/PAN3V.CS_17*%
X153613600Y-286409200D02*
X155142400Y-287938000D01*
X140985100Y-286409200D02*
X153613600Y-286409200D01*
X197159200Y-284193200D02*
X208747300Y-284193200D01*
X138761200Y-286941300D02*
X140453000Y-286941300D01*
X140453000Y-286941300D02*
X140985100Y-286409200D01*
X155142400Y-287938000D02*
X193414400Y-287938000D01*
X193414400Y-287938000D02*
X197159200Y-284193200D01*
%TO.N,/Level Shifters/PAN3V.CS_19*%
X201003500Y-288793500D02*
X146488300Y-288793500D01*
X206976400Y-287200500D02*
X206459800Y-287717100D01*
X143746000Y-287635200D02*
X143559900Y-287635200D01*
X144144600Y-287236500D02*
X143746000Y-287635100D01*
X146488300Y-288793500D02*
X144931300Y-287236500D01*
X206459800Y-287717100D02*
X202079900Y-287717100D01*
X143559900Y-287635200D02*
X143527100Y-287668000D01*
X202079900Y-287717100D02*
X201003500Y-288793500D01*
X144931300Y-287236500D02*
X144144600Y-287236500D01*
X143746000Y-287635100D02*
X143746000Y-287635200D01*
%TO.N,/Level Shifters/PAN3V.CS_20*%
X116610600Y-289195200D02*
X201370000Y-289195200D01*
X262976700Y-276767800D02*
X269132900Y-270611600D01*
X201370000Y-289195200D02*
X202384000Y-288181200D01*
X262976700Y-278477600D02*
X262976700Y-276767800D01*
X251240800Y-290213500D02*
X262976700Y-278477600D01*
X210353600Y-290213500D02*
X251240800Y-290213500D01*
X202384000Y-288181200D02*
X208321300Y-288181200D01*
X116470300Y-289054900D02*
X116610600Y-289195200D01*
X208321300Y-288181200D02*
X210353600Y-290213500D01*
%TO.N,/Level Shifters/PAN3V.CS_21*%
X203042100Y-289656700D02*
X203865500Y-288833300D01*
X250447000Y-288214100D02*
X236957300Y-288214100D01*
X253033900Y-285627200D02*
X250447000Y-288214100D01*
X203865500Y-288833300D02*
X207114200Y-288833300D01*
X236957300Y-288214100D02*
X236356900Y-288814500D01*
X207114200Y-288833300D02*
X207114200Y-288833200D01*
X236356900Y-288814500D02*
X225444200Y-288814500D01*
X114025600Y-289656700D02*
X203042100Y-289656700D01*
X225444200Y-288814500D02*
X225391400Y-288761700D01*
X109754900Y-285386000D02*
X114025600Y-289656700D01*
%TO.N,/Level Shifters/PAN3V.CS_22*%
X259816600Y-275849700D02*
X253850200Y-275849700D01*
X253850200Y-275849700D02*
X241388000Y-263387500D01*
%TO.N,/Level Shifters/PAN3V.CS_23*%
X154314100Y-285973700D02*
X154617200Y-286276800D01*
X190741900Y-287536200D02*
X195770300Y-282507800D01*
X139807900Y-286341500D02*
X140484700Y-286341500D01*
X202987600Y-282507800D02*
X207164300Y-278331100D01*
X115138400Y-286155600D02*
X138719800Y-286155600D01*
X245658100Y-279913400D02*
X245658100Y-279831700D01*
X140852500Y-285973700D02*
X154314100Y-285973700D01*
X138830800Y-286266600D02*
X139733000Y-286266600D01*
X140484700Y-286341500D02*
X140852500Y-285973700D01*
X253033900Y-284026900D02*
X249771600Y-284026900D01*
X138719800Y-286155600D02*
X138830800Y-286266600D01*
X139733000Y-286266600D02*
X139807900Y-286341500D01*
X245658100Y-279831700D02*
X244062700Y-278236300D01*
X249771600Y-284026900D02*
X245658100Y-279913400D01*
X195770300Y-282507800D02*
X202987600Y-282507800D01*
X166447200Y-287536200D02*
X190741900Y-287536200D01*
X154617200Y-286276800D02*
X165187800Y-286276800D01*
X165187800Y-286276800D02*
X166447200Y-287536200D01*
X244062700Y-278236300D02*
X233530700Y-278236300D01*
X111236600Y-282253800D02*
X115138400Y-286155600D01*
%TO.N,/Level Shifters/PAN3V.CS_24*%
X146923400Y-288391800D02*
X194382700Y-288391800D01*
X120551500Y-287626900D02*
X141093600Y-287626900D01*
X237389400Y-289809300D02*
X238382800Y-288815900D01*
X119564400Y-286639800D02*
X120551500Y-287626900D01*
X207073100Y-286232200D02*
X210650200Y-289809300D01*
X210650200Y-289809300D02*
X237389400Y-289809300D01*
X107002900Y-270495400D02*
X107002900Y-278870900D01*
X141887200Y-286833300D02*
X145364900Y-286833300D01*
X194382700Y-288391800D02*
X196542300Y-286232200D01*
X196542300Y-286232200D02*
X207073100Y-286232200D01*
X145364900Y-286833300D02*
X146923400Y-288391800D01*
X141093600Y-287626900D02*
X141887200Y-286833300D01*
X107002900Y-278870900D02*
X114771800Y-286639800D01*
X114771800Y-286639800D02*
X119564400Y-286639800D01*
%TO.N,/Level Shifters/PAN3V.CS_25*%
X209432300Y-283944100D02*
X208947200Y-283459000D01*
X237243200Y-289000800D02*
X236857400Y-289386600D01*
X236857400Y-289386600D02*
X213680800Y-289386600D01*
X209432300Y-285138100D02*
X209432300Y-283944100D01*
X208947200Y-274036200D02*
X201644300Y-266733300D01*
X213680800Y-289386600D02*
X209432300Y-285138100D01*
X208947200Y-283459000D02*
X208947200Y-274036200D01*
%TO.N,/Level Shifters/PAN3V.CS_26*%
X140905500Y-284583700D02*
X162487800Y-284583700D01*
X204359500Y-278962600D02*
X204359500Y-278962500D01*
X162487800Y-284583700D02*
X162870600Y-284966500D01*
X194920800Y-278962600D02*
X204359500Y-278962600D01*
X245056400Y-280080900D02*
X233874600Y-280080900D01*
X129082600Y-272016900D02*
X129082600Y-272760800D01*
X162870600Y-284966500D02*
X188916900Y-284966500D01*
X129082600Y-272760800D02*
X140905500Y-284583700D01*
X188916900Y-284966500D02*
X194920800Y-278962600D01*
X233874600Y-280080900D02*
X232756200Y-278962500D01*
%TO.N,/Level Shifters/PAN3V.CS_27*%
X223607700Y-287289200D02*
X231349400Y-287289200D01*
X211022400Y-270885000D02*
X211022400Y-284635400D01*
X212962600Y-285737600D02*
X213550400Y-286325400D01*
X231349400Y-287289200D02*
X237537200Y-281101400D01*
X213550400Y-286325400D02*
X213550400Y-286443500D01*
X213550400Y-286443500D02*
X214992500Y-287885600D01*
X212124600Y-285737600D02*
X212962600Y-285737600D01*
X211022300Y-270885000D02*
X211022400Y-270885000D01*
X206775200Y-266637900D02*
X211022300Y-270885000D01*
X211022400Y-284635400D02*
X212124600Y-285737600D01*
X214992500Y-287885600D02*
X223011300Y-287885600D01*
X223011300Y-287885600D02*
X223607700Y-287289200D01*
%TO.N,/Level Shifters/PAN3V.CS_28*%
X210235700Y-284429400D02*
X210235700Y-274098500D01*
X213148700Y-286491700D02*
X212796300Y-286139300D01*
X210235700Y-274098500D02*
X204358300Y-268221100D01*
X232980100Y-287724600D02*
X223940500Y-287724600D01*
X204358300Y-267946900D02*
X199895900Y-263484500D01*
X199895900Y-263484500D02*
X196577300Y-263484500D01*
X223366900Y-288298200D02*
X214823600Y-288298200D01*
X214823600Y-288298200D02*
X213148700Y-286623300D01*
X211945600Y-286139300D02*
X210235700Y-284429400D01*
X238790100Y-281914600D02*
X232980100Y-287724600D01*
X212796300Y-286139300D02*
X211945600Y-286139300D01*
X213148700Y-286623300D02*
X213148700Y-286491700D01*
X196577300Y-263484500D02*
X196577300Y-263484400D01*
X223940500Y-287724600D02*
X223366900Y-288298200D01*
X204358300Y-268221100D02*
X204358300Y-267946900D01*
%TO.N,/Level Shifters/PAN3V.CS_29*%
X201934500Y-266131000D02*
X201323900Y-266131000D01*
X213617000Y-288729900D02*
X209834000Y-284946900D01*
X142075200Y-282579800D02*
X142075200Y-276355900D01*
X233439600Y-288143100D02*
X225064400Y-288143100D01*
X224477600Y-288729900D02*
X213617000Y-288729900D01*
X176987000Y-284055500D02*
X164209900Y-284055500D01*
X201323900Y-266131000D02*
X191550100Y-275904800D01*
X143101700Y-283606300D02*
X142075200Y-282579800D01*
X191550100Y-275904800D02*
X185137700Y-275904800D01*
X209358700Y-283302400D02*
X209358700Y-273789500D01*
X164209900Y-284055500D02*
X162993200Y-282838800D01*
X144572500Y-282838800D02*
X143805000Y-283606300D01*
X209358700Y-273789500D02*
X202246100Y-266676900D01*
X142075200Y-276355900D02*
X133935200Y-268215900D01*
X185137700Y-275904800D02*
X176987000Y-284055500D01*
X202246100Y-266442600D02*
X201934500Y-266131000D01*
X162993200Y-282838800D02*
X144572500Y-282838800D01*
X209834000Y-283777700D02*
X209358700Y-283302400D01*
X238829700Y-282753000D02*
X233439600Y-288143100D01*
X202246100Y-266676900D02*
X202246100Y-266442600D01*
X209834000Y-284946900D02*
X209834000Y-283777700D01*
X143805000Y-283606300D02*
X143101700Y-283606300D01*
X225064400Y-288143100D02*
X224477600Y-288729900D01*
%TO.N,/Level Shifters/PAN3V.EXT_INT*%
X213128900Y-285335900D02*
X212312800Y-285335900D01*
X211568900Y-284592000D02*
X211568900Y-269908300D01*
X212312800Y-285335900D02*
X211568900Y-284592000D01*
X224413600Y-284652600D02*
X221589500Y-287476700D01*
X221589500Y-287476700D02*
X215269700Y-287476700D01*
X215269700Y-287476700D02*
X213128900Y-285335900D01*
X211568900Y-269908300D02*
X198414400Y-256753800D01*
X231872100Y-284652600D02*
X224413600Y-284652600D01*
X198414400Y-256753800D02*
X198414400Y-256657600D01*
%TO.N,/Level Shifters/PAN5V.SCK_0_P1*%
X234217200Y-259174400D02*
X235127500Y-258264100D01*
X256495400Y-231715700D02*
X256495400Y-231098500D01*
X256495400Y-231098500D02*
X261168500Y-226425400D01*
X217874200Y-279526400D02*
X234217200Y-263183400D01*
X235127500Y-258264100D02*
X235127500Y-253083600D01*
X269102100Y-202564900D02*
X269102100Y-171652200D01*
X235127500Y-253083600D02*
X256495400Y-231715700D01*
X261168500Y-226425400D02*
X261168500Y-222336200D01*
X265655900Y-217848800D02*
X265655900Y-212488800D01*
X265939500Y-212205200D02*
X265939500Y-205727500D01*
X265939500Y-205727500D02*
X269102100Y-202564900D01*
X265655900Y-212488800D02*
X265939500Y-212205200D01*
X234217200Y-263183400D02*
X234217200Y-259174400D01*
X261168500Y-222336200D02*
X265655900Y-217848800D01*
X217874200Y-286258800D02*
X217874200Y-279526400D01*
%TO.N,/Level Shifters/PAN5V.SCK_0_P2*%
X267575700Y-200665100D02*
X265255700Y-202985100D01*
X260766800Y-222169800D02*
X260766800Y-226122200D01*
X265255700Y-212120800D02*
X261536000Y-215840500D01*
X260766800Y-226122200D02*
X256093700Y-230795300D01*
X265255700Y-202985100D02*
X265255700Y-212120800D01*
X259232400Y-124815600D02*
X259232400Y-134966500D01*
X234557300Y-255667200D02*
X227492100Y-262732400D01*
X217077300Y-280236000D02*
X212579200Y-284734100D01*
X261536000Y-215840500D02*
X261536000Y-221400700D01*
X217077300Y-279672700D02*
X217077300Y-280236000D01*
X227492100Y-262732400D02*
X227492100Y-269257900D01*
X234557300Y-253005300D02*
X234557300Y-255667200D01*
X261536000Y-221400700D02*
X261183500Y-221753200D01*
X256093700Y-231468900D02*
X234557300Y-253005300D01*
X259232400Y-134966500D02*
X267575700Y-143309800D01*
X267575700Y-143309800D02*
X267575700Y-200665100D01*
X261183500Y-221753200D02*
X261183400Y-221753200D01*
X261183400Y-221753200D02*
X260766800Y-222169800D01*
X227492100Y-269257900D02*
X217077300Y-279672700D01*
X256093700Y-230795300D02*
X256093700Y-231468900D01*
X259257800Y-124790200D02*
X259232400Y-124815600D01*
%TO.N,/Level Shifters/PAN5V.SCK_0_P3*%
X216353500Y-266234100D02*
X216353500Y-280081500D01*
X231212600Y-94294900D02*
X232683000Y-95765300D01*
X232541600Y-98160700D02*
X241438200Y-107057300D01*
X223239300Y-253784600D02*
X223239300Y-259348300D01*
X223239300Y-259348300D02*
X216353500Y-266234100D01*
X222351600Y-87982100D02*
X228664400Y-94294900D01*
X223216000Y-246646000D02*
X223216000Y-253761300D01*
X241438200Y-129819800D02*
X256625500Y-145007100D01*
X232541600Y-96189800D02*
X232541600Y-98160700D01*
X232683000Y-96048400D02*
X232541600Y-96189800D01*
X256625500Y-213236500D02*
X223216000Y-246646000D01*
X241438200Y-107057300D02*
X241438200Y-129819800D01*
X223216000Y-253761300D02*
X223239300Y-253784600D01*
X228664400Y-94294900D02*
X231212600Y-94294900D01*
X216353500Y-280081500D02*
X212593000Y-283842000D01*
X232683000Y-95765300D02*
X232683000Y-96048400D01*
X256625500Y-145007100D02*
X256625500Y-213236500D01*
%TO.N,/Level Shifters/PAN5V.SCK_0_P4*%
X213251300Y-282235800D02*
X212616100Y-282871000D01*
X240635900Y-106823000D02*
X240635900Y-130352600D01*
X232256500Y-95906800D02*
X232256500Y-95906900D01*
X221030400Y-255208400D02*
X221096100Y-255274100D01*
X256223800Y-213070100D02*
X221030400Y-248263500D01*
X225392600Y-94765600D02*
X231115300Y-94765600D01*
X231115300Y-94765600D02*
X232256500Y-95906800D01*
X174600900Y-82512900D02*
X213139900Y-82512900D01*
X221096100Y-255274100D02*
X221096100Y-258392000D01*
X232139900Y-96023500D02*
X232139900Y-98327000D01*
X213251300Y-266236800D02*
X213251300Y-282235800D01*
X256223800Y-145940500D02*
X256223800Y-213070100D01*
X232139900Y-98327000D02*
X240635900Y-106823000D01*
X221096100Y-258392000D02*
X213251300Y-266236800D01*
X240635900Y-130352600D02*
X256223800Y-145940500D01*
X221030400Y-248263500D02*
X221030400Y-255208400D01*
X213139900Y-82512900D02*
X225392600Y-94765600D01*
X232256500Y-95906900D02*
X232139900Y-96023500D01*
%TO.N,/Level Shifters/PAN5V.SCK_0_P5*%
X84465300Y-224554500D02*
X84465300Y-151047800D01*
X91216700Y-122975000D02*
X117498900Y-96692800D01*
X204440200Y-290059900D02*
X92573100Y-290059900D01*
X84962200Y-239273200D02*
X84622000Y-238933000D01*
X84622000Y-224711200D02*
X84465300Y-224554500D01*
X204635400Y-289864700D02*
X204440200Y-290059900D01*
X91216700Y-125195700D02*
X91216700Y-122975000D01*
X84465300Y-151047800D02*
X86792900Y-148720200D01*
X92573100Y-290059900D02*
X84962200Y-282449000D01*
X84622000Y-238933000D02*
X84622000Y-224711200D01*
X86792900Y-148637600D02*
X86631000Y-148475700D01*
X86631000Y-148475700D02*
X86631000Y-129781400D01*
X84962200Y-282449000D02*
X84962200Y-239273200D01*
X86631000Y-129781400D02*
X91216700Y-125195700D01*
X86792900Y-148720200D02*
X86792900Y-148637600D01*
%TO.N,/Level Shifters/PAN5V.SCK_0_P6*%
X212624200Y-281533600D02*
X212624200Y-267775000D01*
X200477200Y-255628000D02*
X198651300Y-255628000D01*
X198651300Y-255628000D02*
X198451200Y-255427900D01*
X212624200Y-267775000D02*
X200477200Y-255628000D01*
%TO.N,/Level Shifters/PAN5V.MOSI_0_P1*%
X274045000Y-226498900D02*
X274045000Y-171723400D01*
X274045000Y-171723400D02*
X274723100Y-171045300D01*
%TO.N,/Level Shifters/PAN5V.MOSI_0_P2*%
X260066800Y-124414900D02*
X258544600Y-122892700D01*
X269706900Y-171336200D02*
X269098600Y-170727900D01*
X269157500Y-219441500D02*
X268841000Y-219125000D01*
X269706900Y-203116900D02*
X269706900Y-171336200D01*
X269098600Y-170727900D02*
X269098600Y-134160300D01*
X269098600Y-134160300D02*
X266542000Y-131603700D01*
X268841000Y-203982800D02*
X269706900Y-203116900D01*
X263204000Y-128457000D02*
X260066800Y-125319800D01*
X263670800Y-128457000D02*
X263204000Y-128457000D01*
X260066800Y-125319800D02*
X260066800Y-124414900D01*
X266542000Y-131603700D02*
X266542000Y-131328200D01*
X269157500Y-234817600D02*
X269157500Y-219441500D01*
X266542000Y-131328200D02*
X263670800Y-128457000D01*
X268841000Y-219125000D02*
X268841000Y-203982800D01*
%TO.N,/Level Shifters/PAN5V.MOSI_0_P3*%
X271889500Y-168888300D02*
X271889500Y-232349500D01*
X270107200Y-134032300D02*
X270107200Y-167106000D01*
X230305900Y-89636100D02*
X267345400Y-126675600D01*
X267345400Y-126675600D02*
X267345400Y-131270500D01*
X269973800Y-234265200D02*
X269973800Y-234810400D01*
X271889500Y-232349500D02*
X269973800Y-234265200D01*
X270107200Y-167106000D02*
X271889500Y-168888300D01*
X267345400Y-131270500D02*
X270107200Y-134032300D01*
%TO.N,/Level Shifters/PAN5V.MOSI_0_P4*%
X272291200Y-168721900D02*
X272291200Y-233034700D01*
X235881500Y-93978200D02*
X267748600Y-125845300D01*
X267748600Y-125845300D02*
X267748600Y-131069700D01*
X272291200Y-233034700D02*
X270826600Y-234499300D01*
X267748600Y-131069700D02*
X270508900Y-133830000D01*
X270508900Y-166939600D02*
X272291200Y-168721900D01*
X270508900Y-133830000D02*
X270508900Y-166939600D01*
%TO.N,/Level Shifters/PAN5V.MOSI_0_P5*%
X272692900Y-166906200D02*
X272692900Y-234476700D01*
X130298000Y-89979700D02*
X142903200Y-77374500D01*
X271173900Y-133924900D02*
X271173900Y-165387200D01*
X130298000Y-90389600D02*
X130298000Y-89979700D01*
X123655900Y-97031700D02*
X130298000Y-90389600D01*
X271173900Y-165387200D02*
X272692900Y-166906200D01*
X268150300Y-130901300D02*
X271173900Y-133924900D01*
X268150300Y-125386400D02*
X268150300Y-130901300D01*
X272692900Y-234476700D02*
X272342600Y-234827000D01*
X220138400Y-77374500D02*
X268150300Y-125386400D01*
X142903200Y-77374500D02*
X220138400Y-77374500D01*
X123454200Y-97031700D02*
X123655900Y-97031700D01*
%TO.N,/Level Shifters/PAN5V.MOSI_0_P6*%
X269705500Y-167272300D02*
X269705500Y-134198900D01*
X266943700Y-131437100D02*
X266943700Y-131091100D01*
X263412600Y-128055300D02*
X261833200Y-126475900D01*
X271287700Y-231592900D02*
X271287700Y-169422400D01*
X261833200Y-125029600D02*
X256793000Y-119989400D01*
X261833200Y-126475900D02*
X261833200Y-125029600D01*
X269705500Y-134198900D02*
X266943700Y-131437100D01*
X266943700Y-131091100D02*
X263907900Y-128055300D01*
X271087600Y-169222300D02*
X271087600Y-168654400D01*
X271287700Y-169422400D02*
X271087600Y-169222300D01*
X271087600Y-168654400D02*
X269705500Y-167272300D01*
X263907900Y-128055300D02*
X263412600Y-128055300D01*
X256793000Y-119989400D02*
X252839000Y-119989400D01*
%TO.N,/Level Shifters/PAN5V.SCK_1_P7*%
X139489000Y-267859100D02*
X152059200Y-280429300D01*
X100750100Y-209318700D02*
X110958200Y-219526800D01*
X110958200Y-220680200D02*
X112004300Y-221726300D01*
X134491900Y-255123200D02*
X134491900Y-262542000D01*
X110958200Y-219526800D02*
X110958200Y-220680200D01*
X100750100Y-191780100D02*
X100750100Y-209318700D01*
X152059200Y-280429300D02*
X164161400Y-280429300D01*
X134491900Y-262542000D02*
X139489000Y-267539100D01*
X139489000Y-267539100D02*
X139489000Y-267859100D01*
X112004300Y-221726300D02*
X112004300Y-224296800D01*
X112004300Y-224296800D02*
X134569000Y-246861500D01*
X134569000Y-246861500D02*
X134569000Y-255046100D01*
X134569000Y-255046100D02*
X134491900Y-255123200D01*
X164161400Y-280429300D02*
X165867000Y-282134900D01*
%TO.N,/Level Shifters/PAN5V.SCK_1_P8*%
X187226000Y-283723200D02*
X187707100Y-284204300D01*
X183067000Y-283723200D02*
X187226000Y-283723200D01*
X141473500Y-277734100D02*
X141473500Y-282598100D01*
X141473500Y-282598100D02*
X143001300Y-284125900D01*
X114630600Y-241931100D02*
X114630600Y-247522900D01*
X143001300Y-284125900D02*
X163712200Y-284125900D01*
X128684300Y-264944900D02*
X141473500Y-277734100D01*
X163712200Y-284125900D02*
X164062400Y-284476100D01*
X128684300Y-261576600D02*
X128684300Y-264944900D01*
X164062400Y-284476100D02*
X182314100Y-284476100D01*
X182314100Y-284476100D02*
X183067000Y-283723200D01*
X114630600Y-247522900D02*
X128684300Y-261576600D01*
%TO.N,/Level Shifters/PAN5V.SCK_1_P9*%
X141214500Y-268054800D02*
X157947800Y-268054800D01*
X176337100Y-280325600D02*
X176841000Y-280829500D01*
X157947800Y-268054800D02*
X170218600Y-280325600D01*
X140859400Y-267699700D02*
X141214500Y-268054800D01*
X170218600Y-280325600D02*
X176337100Y-280325600D01*
%TO.N,/Level Shifters/PAN5V.SCK_1_P10*%
X187596500Y-277092600D02*
X187596500Y-278152300D01*
X187596500Y-278152300D02*
X190443500Y-280999300D01*
%TO.N,/Level Shifters/PAN5V.SCK_1_P12*%
X248808700Y-251418400D02*
X248808700Y-243448900D01*
X248808700Y-243448900D02*
X261200600Y-231057000D01*
X261200600Y-231057000D02*
X261200600Y-228191200D01*
X224397400Y-275829700D02*
X248808700Y-251418400D01*
X261200600Y-228191200D02*
X266984900Y-222406900D01*
%TO.N,/Level Shifters/PAN5V.MOSI_1_P7*%
X111683500Y-219617100D02*
X111683500Y-220753700D01*
X150332100Y-278097200D02*
X162882700Y-278097200D01*
X140090500Y-266289400D02*
X140090500Y-267855600D01*
X140090500Y-267855600D02*
X150332100Y-278097200D01*
X111683500Y-220753700D02*
X113944300Y-223014500D01*
X136764400Y-256320400D02*
X136368100Y-256716700D01*
X136764400Y-249414500D02*
X136764400Y-256320400D01*
X101441900Y-196063700D02*
X101441900Y-209375500D01*
X113944300Y-225469000D02*
X136709100Y-248233800D01*
X136368100Y-262567000D02*
X140090500Y-266289400D01*
X101441900Y-209375500D02*
X111683500Y-219617100D01*
X136709100Y-249359200D02*
X136764400Y-249414500D01*
X136368100Y-256716700D02*
X136368100Y-262567000D01*
X162882700Y-278097200D02*
X166843200Y-282057700D01*
X136709100Y-248233800D02*
X136709100Y-249359200D01*
X113944300Y-223014500D02*
X113944300Y-225469000D01*
%TO.N,/Level Shifters/PAN5V.MOSI_1_P8*%
X130658300Y-261438800D02*
X130987900Y-261438800D01*
X141979200Y-272430100D02*
X142790800Y-272430100D01*
X151516100Y-281155400D02*
X163214400Y-281155400D01*
X116029400Y-246809900D02*
X130658300Y-261438800D01*
X142790800Y-272430100D02*
X151516100Y-281155400D01*
X130987900Y-261438800D02*
X141979200Y-272430100D01*
X116029400Y-242350600D02*
X116029400Y-246809900D01*
%TO.N,/Level Shifters/PAN5V.MOSI_1_P9*%
X134562000Y-266749700D02*
X135725500Y-266749700D01*
X135725500Y-266749700D02*
X149646900Y-280671100D01*
%TO.N,/Level Shifters/PAN5V.MOSI_1_P10*%
X183492200Y-276175900D02*
X176739100Y-282929000D01*
X183492200Y-275920200D02*
X183492200Y-276175900D01*
X176739100Y-282929000D02*
X172630800Y-282929000D01*
%TO.N,/Level Shifters/PAN5V.MOSI_1_P11*%
X230740300Y-260986000D02*
X230740300Y-264649100D01*
X230740300Y-264649100D02*
X231163500Y-265072300D01*
%TO.N,/Level Shifters/PAN5V.MOSI_1_P12*%
X256897100Y-232823800D02*
X256897100Y-231619800D01*
X234165200Y-265153400D02*
X248407000Y-250911600D01*
X248407000Y-250911600D02*
X248407000Y-241313900D01*
X256897100Y-231619800D02*
X265932200Y-222584700D01*
X265932200Y-222584700D02*
X265932200Y-220569900D01*
X248407000Y-241313900D02*
X256897100Y-232823800D01*
%TO.N,/Level Shifters/PAN5V.CS_00_P7*%
X275451500Y-168056500D02*
X273900400Y-166505400D01*
X275451500Y-184595400D02*
X275451500Y-168056500D01*
X275382200Y-184664700D02*
X275451500Y-184595400D01*
%TO.N,/Level Shifters/PAN5V.CS_01_P1*%
X276716100Y-179828800D02*
X276525200Y-180019700D01*
X276525200Y-180019700D02*
X276525200Y-182997100D01*
X276525200Y-182997100D02*
X278170200Y-184642100D01*
%TO.N,/Level Shifters/PAN5V.CS_02_P1*%
X278174400Y-183243700D02*
X278209800Y-183279100D01*
X278174400Y-181882600D02*
X278174400Y-183243700D01*
%TO.N,/Level Shifters/PAN5V.CS_02_P7*%
X281326800Y-183256300D02*
X281326700Y-183256300D01*
X281326700Y-183256300D02*
X281326700Y-171825800D01*
X281326700Y-171825800D02*
X277191400Y-167690500D01*
%TO.N,/Level Shifters/PAN5V.CS_00_P1*%
X279092400Y-186932600D02*
X279092400Y-180047800D01*
X279092400Y-180047800D02*
X277082100Y-178037500D01*
%TO.N,/Level Shifters/PAN5V.CS_04_P1*%
X278570200Y-219176700D02*
X278570200Y-187559500D01*
%TO.N,/Level Shifters/PAN5V.CS_04_P7*%
X103480400Y-218523600D02*
X103480400Y-218525800D01*
X103480400Y-218525800D02*
X106184900Y-221230300D01*
X96971900Y-171450000D02*
X96971900Y-211449300D01*
X96971800Y-171450000D02*
X96971900Y-171450000D01*
X96971900Y-211449300D02*
X97911900Y-212389300D01*
X97911900Y-212955100D02*
X103480400Y-218523600D01*
X97911900Y-212389300D02*
X97911900Y-212955100D01*
X106184900Y-227498500D02*
X106929500Y-228243100D01*
X106184900Y-221230300D02*
X106184900Y-227498500D01*
%TO.N,/Level Shifters/PAN5V.CS_05_P2*%
X281860900Y-183573100D02*
X281928600Y-183505400D01*
X268552000Y-130730800D02*
X268552000Y-129934100D01*
X281860900Y-216761700D02*
X281860900Y-183573100D01*
X281928600Y-144107400D02*
X268552000Y-130730800D01*
X282008400Y-216909200D02*
X281860900Y-216761700D01*
X268552000Y-129934100D02*
X268752100Y-129734000D01*
X281928600Y-183505400D02*
X281928600Y-144107400D01*
%TO.N,/Level Shifters/PAN5V.CS_06_P2*%
X261496400Y-129861900D02*
X261496400Y-131093400D01*
X268498800Y-138095800D02*
X268498800Y-201932900D01*
X261496400Y-131093400D02*
X268498800Y-138095800D01*
%TO.N,/Level Shifters/PAN5V.CS_07_P2*%
X288347800Y-217509500D02*
X287252300Y-216414000D01*
X287252300Y-216414000D02*
X287252300Y-148580000D01*
X287252300Y-148580000D02*
X269156500Y-130484200D01*
%TO.N,/Level Shifters/PAN5V.CS_07_P8*%
X93537000Y-225860800D02*
X93537000Y-224404700D01*
X102038800Y-234362600D02*
X93537000Y-225860800D01*
%TO.N,/Level Shifters/PAN5V.CS_08_P2*%
X79220900Y-207621300D02*
X79220900Y-185863800D01*
X78960700Y-174239300D02*
X78960700Y-173740700D01*
X78863100Y-168977700D02*
X79011500Y-168829300D01*
X79011500Y-185654400D02*
X79011500Y-178998700D01*
X78863100Y-178850300D02*
X78863100Y-174336900D01*
X72556800Y-214285400D02*
X79220900Y-207621300D01*
X78863100Y-173643100D02*
X78863100Y-168977700D01*
X79011500Y-178998700D02*
X78863100Y-178850300D01*
X79011500Y-168829300D02*
X79011500Y-161182100D01*
X72556800Y-237452800D02*
X72556800Y-214285400D01*
X78960700Y-173740700D02*
X78863100Y-173643100D01*
X79220900Y-185863800D02*
X79011500Y-185654400D01*
X78863100Y-174336900D02*
X78960700Y-174239300D01*
%TO.N,/Level Shifters/PAN5V.CS_09_P2*%
X95977300Y-200334700D02*
X90197500Y-206114500D01*
X90197500Y-206114500D02*
X90197500Y-210268000D01*
X95977300Y-149439100D02*
X95977300Y-200334700D01*
X97375400Y-145251500D02*
X97375700Y-145251800D01*
X97375700Y-145251800D02*
X97375700Y-148040700D01*
X97375700Y-148040700D02*
X95977300Y-149439100D01*
%TO.N,/Level Shifters/PAN5V.CS_10_P3*%
X75273300Y-225304400D02*
X75273300Y-212437300D01*
X75899000Y-225930100D02*
X75273300Y-225304400D01*
X75273300Y-212437300D02*
X79672600Y-208038000D01*
X79270900Y-169137900D02*
X79413200Y-168995600D01*
X79646300Y-161581900D02*
X79646300Y-129086200D01*
X79672600Y-179091800D02*
X79270900Y-178690100D01*
X79362400Y-174405600D02*
X79362400Y-173574400D01*
X79270900Y-178690100D02*
X79270900Y-174497100D01*
X75899000Y-241342400D02*
X75899000Y-225930100D01*
X79413200Y-161815000D02*
X79646300Y-161581900D01*
X79270900Y-173482900D02*
X79270900Y-169137900D01*
X79413200Y-168995600D02*
X79413200Y-161815000D01*
X79672600Y-208038000D02*
X79672600Y-179091800D01*
X79362400Y-173574400D02*
X79270900Y-173482900D01*
X79270900Y-174497100D02*
X79362400Y-174405600D01*
%TO.N,/Level Shifters/PAN5V.CS_10_P9*%
X123572900Y-262709400D02*
X123572900Y-264507900D01*
%TO.N,/Level Shifters/PAN5V.CS_11_P3*%
X226743300Y-93368800D02*
X226743300Y-93600600D01*
X165058600Y-77776200D02*
X211150700Y-77776200D01*
X95570900Y-200018600D02*
X95570900Y-149077500D01*
X88994000Y-206595500D02*
X95570900Y-200018600D01*
X88994000Y-211605800D02*
X88994000Y-206595500D01*
X148558100Y-93217700D02*
X149617100Y-93217700D01*
X149617100Y-93217700D02*
X165058600Y-77776200D01*
X90385800Y-212997600D02*
X88994000Y-211605800D01*
X95570900Y-149077500D02*
X96773300Y-147875100D01*
X211150700Y-77776200D02*
X226743300Y-93368800D01*
X90385800Y-241435400D02*
X90385800Y-212997600D01*
X96773300Y-145002500D02*
X148558100Y-93217700D01*
X96773300Y-147875100D02*
X96773300Y-145002500D01*
%TO.N,/Level Shifters/PAN5V.CS_12_P3*%
X232561700Y-94170000D02*
X242244200Y-103852500D01*
X217446700Y-268292200D02*
X217094100Y-268644800D01*
X257082800Y-144529800D02*
X257082800Y-213796300D01*
X227638100Y-251597600D02*
X227638100Y-258181100D01*
X242244200Y-103852500D02*
X242244200Y-129691200D01*
X226754700Y-250714200D02*
X227638100Y-251597600D01*
X232561700Y-92986000D02*
X232561700Y-94170000D01*
X227638100Y-258181100D02*
X217527000Y-268292200D01*
X257082800Y-213796300D02*
X226754700Y-244124400D01*
X217527000Y-268292200D02*
X217446700Y-268292200D01*
X217094100Y-268644800D02*
X217094100Y-276229900D01*
X242244200Y-129691200D02*
X257082800Y-144529800D01*
X226754700Y-244124400D02*
X226754700Y-250714200D01*
%TO.N,/Level Shifters/PAN5V.CS_12_P9*%
X126990200Y-265999900D02*
X140270000Y-279279700D01*
X126990200Y-261969500D02*
X126990200Y-265999900D01*
X140270000Y-279279700D02*
X140270000Y-282580800D01*
X140270000Y-282580800D02*
X141473300Y-283784100D01*
%TO.N,/Level Shifters/PAN5V.CS_13_P3*%
X176698700Y-283590000D02*
X166471300Y-283590000D01*
X234182100Y-107867500D02*
X234182100Y-123335100D01*
X231494900Y-96003400D02*
X231636500Y-96145000D01*
X184166100Y-276122600D02*
X176698700Y-283590000D01*
X198202100Y-254826200D02*
X197849500Y-255178800D01*
X193922400Y-259182400D02*
X191027700Y-259182400D01*
X166471300Y-283590000D02*
X165313900Y-282432600D01*
X234237200Y-101010600D02*
X234237200Y-107812400D01*
X255822100Y-210156800D02*
X210800200Y-255178700D01*
X255822100Y-146346300D02*
X255822100Y-210156800D01*
X143948100Y-282432600D02*
X143389700Y-282991000D01*
X197849500Y-255255300D02*
X193922400Y-259182400D01*
X197849500Y-255178800D02*
X197849500Y-255255300D01*
X184166100Y-266044000D02*
X184166100Y-276122600D01*
X165313900Y-282432600D02*
X143948100Y-282432600D01*
X239832500Y-128985500D02*
X239832500Y-130356700D01*
X234237200Y-107812400D02*
X234182100Y-107867500D01*
X191027700Y-259182400D02*
X184166100Y-266044000D01*
X199052900Y-255178700D02*
X198700400Y-254826200D01*
X231636500Y-98409900D02*
X234237200Y-101010600D01*
X210800200Y-255178700D02*
X199052900Y-255178700D01*
X231636500Y-96145000D02*
X231636500Y-98409900D01*
X234182100Y-123335100D02*
X239832500Y-128985500D01*
X239832500Y-130356700D02*
X255822100Y-146346300D01*
X198700400Y-254826200D02*
X198202100Y-254826200D01*
%TO.N,/Level Shifters/PAN5V.CS_13_P9*%
X127815500Y-264838900D02*
X140871700Y-277895100D01*
X127815500Y-262183400D02*
X127815500Y-264838900D01*
X140871700Y-277895100D02*
X140871700Y-282174900D01*
%TO.N,/Level Shifters/PAN5V.CS_14_P3*%
X99383800Y-209872800D02*
X99383800Y-150710700D01*
X133866000Y-275729300D02*
X133866000Y-275161400D01*
X110156300Y-225461700D02*
X110156300Y-221251000D01*
X123448900Y-257646000D02*
X113766900Y-247964000D01*
X139533900Y-281397200D02*
X133866000Y-275729300D01*
X210384700Y-93498200D02*
X215062300Y-93498200D01*
X139533900Y-281485900D02*
X139533900Y-281397200D01*
X125917200Y-261252300D02*
X123448900Y-258784000D01*
X163323800Y-94529300D02*
X209353600Y-94529300D01*
X215062300Y-93498200D02*
X217659900Y-96095800D01*
X156591900Y-89188000D02*
X157982500Y-89188000D01*
X133866000Y-275161400D02*
X125917200Y-267212600D01*
X109754600Y-220243600D02*
X99383800Y-209872800D01*
X99383800Y-150710700D02*
X100802400Y-149292100D01*
X125917200Y-267212600D02*
X125917200Y-261252300D01*
X230383000Y-96095800D02*
X230986400Y-96699200D01*
X209353600Y-94529300D02*
X210384700Y-93498200D01*
X113766900Y-229072300D02*
X110156300Y-225461700D01*
X149309500Y-95400200D02*
X150379700Y-95400200D01*
X110156300Y-221251000D02*
X109754600Y-220849300D01*
X150379700Y-95400200D02*
X156591900Y-89188000D01*
X217659900Y-96095800D02*
X230383000Y-96095800D01*
X109754600Y-220849300D02*
X109754600Y-220243600D01*
X123448900Y-258784000D02*
X123448900Y-257646000D01*
X100802400Y-143907300D02*
X149309500Y-95400200D01*
X157982500Y-89188000D02*
X163323800Y-94529300D01*
X113766900Y-247964000D02*
X113766900Y-229072300D01*
X100802400Y-149292100D02*
X100802400Y-143907300D01*
%TO.N,/Level Shifters/PAN5V.CS_14_P9*%
X126339200Y-267066500D02*
X126339200Y-261038200D01*
X139484500Y-280354800D02*
X139484500Y-280211800D01*
X126339200Y-261038200D02*
X124229700Y-258928700D01*
X139484500Y-280211800D02*
X126339200Y-267066500D01*
X124229700Y-258928700D02*
X124229700Y-258694300D01*
%TO.N,/Level Shifters/PAN5V.CS_15_P4*%
X110156300Y-219865200D02*
X110156300Y-220683000D01*
X111602600Y-222129300D02*
X111602600Y-225031100D01*
X156762900Y-89868200D02*
X150199600Y-96431500D01*
X110156300Y-220683000D02*
X111602600Y-222129300D01*
X148846200Y-96431500D02*
X101204100Y-144073600D01*
X150199600Y-96431500D02*
X148846200Y-96431500D01*
X129581700Y-262909200D02*
X144318100Y-277645600D01*
X101204100Y-149458400D02*
X99785500Y-150877000D01*
X99785500Y-150877000D02*
X99785500Y-209494400D01*
X115232800Y-247331100D02*
X129581700Y-261680000D01*
X99785500Y-209494400D02*
X110156300Y-219865200D01*
X115232800Y-228661300D02*
X115232800Y-247331100D01*
X111602600Y-225031100D02*
X115232800Y-228661300D01*
X129581700Y-261680000D02*
X129581700Y-262909200D01*
X101204100Y-144073600D02*
X101204100Y-149458400D01*
X144318100Y-277645600D02*
X144318100Y-281081400D01*
%TO.N,/Level Shifters/PAN5V.CS_16_P4*%
X177834700Y-80132900D02*
X178104900Y-80403100D01*
X114935000Y-279409500D02*
X112560300Y-277034800D01*
X98779300Y-148148800D02*
X98779300Y-144204900D01*
X163938800Y-80132900D02*
X177834700Y-80132900D01*
X104283800Y-217625200D02*
X98176900Y-211518300D01*
X112560300Y-232248500D02*
X108693400Y-228381600D01*
X112560300Y-277034800D02*
X112560300Y-232248500D01*
X148963100Y-94021100D02*
X150050600Y-94021100D01*
X104283800Y-218193100D02*
X104283800Y-217625200D01*
X98779300Y-144204900D02*
X148963100Y-94021100D01*
X108693400Y-228381600D02*
X108693400Y-222602700D01*
X98176900Y-211518300D02*
X98176900Y-148751200D01*
X150050600Y-94021100D02*
X163938800Y-80132900D01*
X108693400Y-222602700D02*
X104283800Y-218193100D01*
X98176900Y-148751200D02*
X98779300Y-148148800D01*
%TO.N,/Level Shifters/PAN5V.CS_17_P4*%
X164038900Y-79464200D02*
X177960400Y-79464200D01*
X97775200Y-211684600D02*
X97775200Y-209903400D01*
X97720700Y-209848900D02*
X97720700Y-148263700D01*
X149883700Y-93619400D02*
X164038900Y-79464200D01*
X98377600Y-147606800D02*
X98377600Y-143972200D01*
X116138500Y-285191300D02*
X111946700Y-280999500D01*
X177960400Y-79464200D02*
X177960400Y-79464100D01*
X98377600Y-143972200D02*
X148730400Y-93619400D01*
X148730400Y-93619400D02*
X149883700Y-93619400D01*
X111946700Y-232203000D02*
X106586600Y-226842900D01*
X103882100Y-217802100D02*
X98313600Y-212233600D01*
X111946700Y-280999500D02*
X111946700Y-232203000D01*
X98313600Y-212223000D02*
X97775200Y-211684600D01*
X97720700Y-148263700D02*
X98377600Y-147606800D01*
X97775200Y-209903400D02*
X97720700Y-209848900D01*
X103882100Y-218359500D02*
X103882100Y-217802100D01*
X106586600Y-226842900D02*
X106586600Y-221064000D01*
X106586600Y-221064000D02*
X103882100Y-218359500D01*
X98313600Y-212233600D02*
X98313600Y-212223000D01*
X177960400Y-79464100D02*
X178160000Y-79264500D01*
%TO.N,/Level Shifters/PAN5V.CS_17_P10*%
X118348900Y-284135100D02*
X124545600Y-277938400D01*
X116468300Y-284135100D02*
X118348900Y-284135100D01*
%TO.N,/Level Shifters/PAN5V.CS_18_P4*%
X117085700Y-281626900D02*
X117085700Y-259409900D01*
X161097800Y-84113600D02*
X171703700Y-84113600D01*
X109352900Y-221015600D02*
X109352900Y-220765800D01*
X150219800Y-94991600D02*
X161097800Y-84113600D01*
X98982100Y-150544300D02*
X100400700Y-149125700D01*
X149140700Y-94991600D02*
X150219800Y-94991600D01*
X109754600Y-225630200D02*
X109754600Y-221417300D01*
X116140000Y-282572600D02*
X117085700Y-281626900D01*
X98982100Y-210395000D02*
X98982100Y-150544300D01*
X113365200Y-255689400D02*
X113365200Y-229240800D01*
X113365200Y-229240800D02*
X109754600Y-225630200D01*
X174000700Y-81816600D02*
X182074700Y-81816600D01*
X117085700Y-259409900D02*
X113365200Y-255689400D01*
X171703700Y-84113600D02*
X174000700Y-81816600D01*
X109352900Y-220765800D02*
X98982100Y-210395000D01*
X182074700Y-81816600D02*
X183142800Y-80748500D01*
X100400700Y-149125700D02*
X100400700Y-143731600D01*
X109754600Y-221417300D02*
X109352900Y-221015600D01*
X100400700Y-143731600D02*
X149140700Y-94991600D01*
%TO.N,/Level Shifters/PAN5V.CS_18_P10*%
X171738600Y-279507000D02*
X172927100Y-278318500D01*
X172927100Y-278318500D02*
X172927100Y-277159900D01*
%TO.N,/Level Shifters/PAN5V.CS_19_P4*%
X109095100Y-222365800D02*
X109095100Y-228144700D01*
X183539900Y-80010400D02*
X179545500Y-80010400D01*
X98580400Y-150095300D02*
X98580400Y-210808900D01*
X112962000Y-232011600D02*
X112962000Y-273013500D01*
X170137600Y-81455200D02*
X163185500Y-81455200D01*
X109095100Y-228144700D02*
X112962000Y-232011600D01*
X112962000Y-273013500D02*
X116455200Y-276506700D01*
X163185500Y-81455200D02*
X150050800Y-94589900D01*
X178158300Y-81397600D02*
X170195200Y-81397600D01*
X98580400Y-210808900D02*
X104826800Y-217055300D01*
X104826800Y-217055300D02*
X104826800Y-218097500D01*
X99857700Y-148818000D02*
X98580400Y-150095300D01*
X150050800Y-94589900D02*
X148968300Y-94589900D01*
X99857700Y-143700500D02*
X99857700Y-148818000D01*
X104826800Y-218097500D02*
X109095100Y-222365800D01*
X170195200Y-81397600D02*
X170137600Y-81455200D01*
X148968300Y-94589900D02*
X99857700Y-143700500D01*
X179545500Y-80010400D02*
X178158300Y-81397600D01*
X116455200Y-276506700D02*
X116455200Y-281161100D01*
%TO.N,/Level Shifters/PAN5V.CS_19_P10*%
X130270900Y-279950300D02*
X124420100Y-279950300D01*
X132630800Y-277590400D02*
X130270900Y-279950300D01*
%TO.N,/Level Shifters/PAN5V.CS_20_P5*%
X95167100Y-146365100D02*
X95970500Y-145561700D01*
X92324600Y-245604500D02*
X88592300Y-241872200D01*
X88592300Y-241872200D02*
X88592300Y-206412900D01*
X95970500Y-145561700D02*
X95970500Y-144642000D01*
X125743200Y-105253300D02*
X125743200Y-102358400D01*
X88592300Y-206412900D02*
X95167100Y-199838100D01*
X95167100Y-199838100D02*
X95167100Y-146365100D01*
X125743200Y-102358400D02*
X125942500Y-102159100D01*
X125794800Y-114817700D02*
X125794800Y-105304900D01*
X125794800Y-105304900D02*
X125743200Y-105253300D01*
X95970500Y-144642000D02*
X125794800Y-114817700D01*
X92324600Y-288960300D02*
X92324600Y-245604500D01*
%TO.N,/Level Shifters/PAN5V.CS_20_P11*%
X224767300Y-264434000D02*
X225471400Y-264434000D01*
X220410400Y-270152600D02*
X220410400Y-268790900D01*
X220410400Y-268790900D02*
X224767300Y-264434000D01*
%TO.N,/Level Shifters/PAN5V.CS_21_P11*%
X203582300Y-262845100D02*
X196194600Y-262845100D01*
X195288100Y-263751600D02*
X194215300Y-263751600D01*
X204627100Y-263889900D02*
X203582300Y-262845100D01*
X196194600Y-262845100D02*
X195288100Y-263751600D01*
%TO.N,/Level Shifters/PAN5V.CS_22_P5*%
X86635600Y-187281500D02*
X86635600Y-149445500D01*
X88125200Y-139569100D02*
X88125200Y-128877900D01*
X87035900Y-148312600D02*
X87035900Y-140658400D01*
X87035900Y-140658400D02*
X88125200Y-139569100D01*
X88479200Y-282803800D02*
X85363900Y-279688500D01*
X88125200Y-128877900D02*
X92077000Y-124926100D01*
X92077000Y-122965600D02*
X123632200Y-91410400D01*
X123632200Y-91146900D02*
X123632300Y-91146900D01*
X85223900Y-188693200D02*
X86635600Y-187281500D01*
X85363900Y-279688500D02*
X85363900Y-239106900D01*
X123632200Y-91410400D02*
X123632200Y-91146900D01*
X86635600Y-149445500D02*
X87235900Y-148845200D01*
X87235900Y-148845200D02*
X87235900Y-148512600D01*
X92077000Y-124926100D02*
X92077000Y-122965600D01*
X85363900Y-239106900D02*
X85223900Y-238966900D01*
X87235900Y-148512600D02*
X87035900Y-148312600D01*
X85223900Y-238966900D02*
X85223900Y-188693200D01*
%TO.N,/Level Shifters/PAN5V.CS_22_P11*%
X209212300Y-270500700D02*
X207017800Y-268306200D01*
X205294400Y-268306200D02*
X205294400Y-268306100D01*
X207017800Y-268306200D02*
X205294400Y-268306200D01*
%TO.N,/Level Shifters/PAN5V.CS_23_P5*%
X85668800Y-201321200D02*
X87037300Y-199952700D01*
X87637600Y-148346300D02*
X87529300Y-148238000D01*
X125231400Y-90414700D02*
X129414800Y-90414700D01*
X96950700Y-120694700D02*
X96950700Y-118695400D01*
X88691900Y-281307200D02*
X85765600Y-278380900D01*
X87529300Y-140933800D02*
X88526900Y-139936200D01*
X85765600Y-238940600D02*
X85668800Y-238843800D01*
X88526900Y-129118500D02*
X96950700Y-120694700D01*
X85765600Y-278380900D02*
X85765600Y-238940600D01*
X87037300Y-199952700D02*
X87037300Y-149816300D01*
X87529300Y-148238000D02*
X87529300Y-140933800D01*
X87637600Y-149216000D02*
X87637600Y-148346300D01*
X96950700Y-118695400D02*
X125231400Y-90414700D01*
X87037300Y-149816300D02*
X87637600Y-149216000D01*
X85668800Y-238843800D02*
X85668800Y-201321200D01*
X88526900Y-139936200D02*
X88526900Y-129118500D01*
%TO.N,/Level Shifters/PAN5V.CS_24_P5*%
X94645000Y-127552900D02*
X95792700Y-127552900D01*
X89378400Y-149597900D02*
X89378400Y-143885600D01*
X133738500Y-89607100D02*
X135438800Y-89607100D01*
X86070600Y-238677600D02*
X86070600Y-201813000D01*
X86167300Y-238774300D02*
X86070600Y-238677600D01*
X89378400Y-143885600D02*
X90475900Y-142788100D01*
X95792700Y-127552900D02*
X133738500Y-89607100D01*
X86070600Y-201813000D02*
X87495200Y-200388400D01*
X90475900Y-142788100D02*
X90475900Y-131722000D01*
X87495200Y-200388400D02*
X87495200Y-151481100D01*
X90475900Y-131722000D02*
X94645000Y-127552900D01*
X91331300Y-270826900D02*
X86167300Y-265662900D01*
X87495200Y-151481100D02*
X89378400Y-149597900D01*
X86167300Y-265662900D02*
X86167300Y-238774300D01*
X91331300Y-270893100D02*
X91331300Y-270826900D01*
%TO.N,/Level Shifters/PAN5V.CS_25_P6*%
X88190600Y-243877800D02*
X88190600Y-205675800D01*
X92139200Y-147005300D02*
X92139200Y-132029600D01*
X90720700Y-148423800D02*
X92139200Y-147005300D01*
X89887600Y-245574800D02*
X88190600Y-243877800D01*
X90720700Y-203145700D02*
X90720700Y-148423800D01*
X88190600Y-205675800D02*
X90720700Y-203145700D01*
X89887600Y-266090400D02*
X89887600Y-245574800D01*
X88928800Y-267049200D02*
X89887600Y-266090400D01*
%TO.N,/Level Shifters/PAN5V.CS_25_P12*%
X198191400Y-256029700D02*
X195217400Y-259003700D01*
X199784300Y-256029700D02*
X198191400Y-256029700D01*
X195217400Y-259003700D02*
X195217400Y-262865600D01*
X200021300Y-256266700D02*
X199784300Y-256029700D01*
%TO.N,/Level Shifters/PAN5V.CS_26_P6*%
X90283300Y-146647300D02*
X91520800Y-145409800D01*
X87788900Y-256731900D02*
X87788900Y-202752200D01*
X91520800Y-145409800D02*
X91520800Y-133485900D01*
X87788900Y-202752200D02*
X90283300Y-200257800D01*
X90283300Y-200257800D02*
X90283300Y-146647300D01*
X88928600Y-265176000D02*
X89477700Y-264626900D01*
X89477700Y-264626900D02*
X89477700Y-258420700D01*
X89477700Y-258420700D02*
X87788900Y-256731900D01*
%TO.N,/Level Shifters/PAN5V.CS_26_P12*%
X241928300Y-242794300D02*
X241928300Y-243186100D01*
X241928300Y-243186100D02*
X235727900Y-249386500D01*
X232370000Y-249386500D02*
X231385400Y-248401900D01*
X235727900Y-249386500D02*
X232370000Y-249386500D01*
X257961000Y-226472500D02*
X252603100Y-231830400D01*
X231385400Y-248401900D02*
X230351300Y-248401900D01*
X258081700Y-226472500D02*
X257961000Y-226472500D01*
X252603100Y-231830400D02*
X252603100Y-232208400D01*
X252603100Y-232208400D02*
X244937400Y-239874100D01*
X244937400Y-239874100D02*
X244848500Y-239874100D01*
X244848500Y-239874100D02*
X241928300Y-242794300D01*
X230351300Y-248401900D02*
X229557200Y-249196000D01*
%TO.N,/Level Shifters/PAN5V.CS_27_P6*%
X87954500Y-159064400D02*
X87954500Y-200697300D01*
X86569000Y-238608000D02*
X86569000Y-260022400D01*
X86569000Y-260022400D02*
X88875900Y-262329300D01*
X89845800Y-146222600D02*
X89845800Y-157173100D01*
X90918500Y-145149900D02*
X89845800Y-146222600D01*
X89845800Y-157173100D02*
X87954500Y-159064400D01*
X90918500Y-131964600D02*
X90918500Y-145149900D01*
X94190500Y-128872500D02*
X94010600Y-128872500D01*
X86477500Y-202174300D02*
X86477500Y-238516500D01*
X94010600Y-128872500D02*
X90918500Y-131964600D01*
X86477500Y-238516500D02*
X86569000Y-238608000D01*
X87954500Y-200697300D02*
X86477500Y-202174300D01*
%TO.N,/Level Shifters/PAN5V.CS_27_P12*%
X230180100Y-250669900D02*
X229192500Y-249682300D01*
X245097600Y-240617300D02*
X235045000Y-250669900D01*
X229192500Y-249682300D02*
X228194700Y-249682300D01*
X245097600Y-240475800D02*
X245097600Y-240617300D01*
X228194700Y-249682300D02*
X227384300Y-250492700D01*
X235045000Y-250669900D02*
X230180100Y-250669900D01*
%TO.N,/Level Shifters/PAN5V.CS_28_P6*%
X90025800Y-128945100D02*
X90025800Y-142225300D01*
X90025800Y-142225300D02*
X88581000Y-143670100D01*
X91985800Y-126985100D02*
X90025800Y-128945100D01*
X88581000Y-143670100D02*
X88581000Y-148343800D01*
%TO.N,/Level Shifters/PAN5V.CS_29_P6*%
X89479900Y-125263200D02*
X82612500Y-125263200D01*
X82612500Y-125263200D02*
X73089700Y-134786000D01*
X73089700Y-134786000D02*
X73089700Y-210330600D01*
%TO.N,/Level Shifters/PAN5V.CS_29_P12*%
X197452200Y-254316400D02*
X198514100Y-253254500D01*
X144015900Y-255815200D02*
X191884600Y-255815200D01*
X193383400Y-254316400D02*
X197452200Y-254316400D01*
X210631800Y-253254500D02*
X220181400Y-243704900D01*
X137310800Y-249110100D02*
X144015900Y-255815200D01*
X73289700Y-211300000D02*
X74691300Y-211300000D01*
X198514100Y-253254500D02*
X210631800Y-253254500D01*
X74691300Y-211300000D02*
X78612200Y-207379100D01*
X191884600Y-255815200D02*
X193383400Y-254316400D01*
%TO.N,+5V*%
X281076000Y-220091000D02*
X281229000Y-220243000D01*
%TD*%
M02*
