M48
; DRILL file {KiCad 8.0.6-8.0.6-0~ubuntu22.04.1} date 2024-12-20T08:13:17-0800
; FORMAT={-:-/ absolute / inch / decimal}
; #@! TF.CreationDate,2024-12-20T08:13:17-08:00
; #@! TF.GenerationSoftware,Kicad,Pcbnew,8.0.6-8.0.6-0~ubuntu22.04.1
; #@! TF.FileFunction,Plated,1,6,PTH
FMAT,2
INCH
; #@! TA.AperFunction,Plated,PTH,ViaDrill
T1C0.0118
; #@! TA.AperFunction,Plated,PTH,ViaDrill
T2C0.0315
; #@! TA.AperFunction,Plated,PTH,ComponentDrill
T3C0.0400
; #@! TA.AperFunction,Plated,PTH,ComponentDrill
T4C0.0433
; #@! TA.AperFunction,Plated,PTH,ComponentDrill
T5C0.0630
; #@! TA.AperFunction,Plated,PTH,ComponentDrill
T6C0.0700
; #@! TA.AperFunction,Plated,PTH,ComponentDrill
T7C0.1060
; #@! TA.AperFunction,Plated,PTH,ComponentDrill
T8C0.1240
; #@! TA.AperFunction,Plated,PTH,ComponentDrill
T9C0.1772
%
G90
G05
T1
X2.75Y-8.342
X2.769Y-8.464
X2.791Y-9.502
X2.822Y-9.612
X2.826Y-8.692
X2.826Y-8.884
X2.827Y-9.174
X2.829Y-9.84
X2.829Y-10.035
X2.83Y-10.315
X2.8566Y-9.3485
X2.8775Y-8.2807
X2.8854Y-8.3189
X2.897Y-9.075
X2.899Y-10.211
X2.9251Y-9.1669
X2.9596Y-8.9034
X2.964Y-9.178
X2.969Y-10.036
X2.969Y-10.309
X2.978Y-7.805
X2.9881Y-9.5017
X2.9889Y-8.3783
X3.031Y-8.567
X3.031Y-8.687
X3.035Y-9.724
X3.035Y-9.842
X3.051Y-8.162
X3.051Y-8.432
X3.0608Y-8.8511
X3.0723Y-8.9982
X3.085Y-6.85
X3.087Y-6.637
X3.087Y-7.057
X3.089Y-7.35
X3.095Y-8.1645
X3.1107Y-6.3458
X3.118Y-8.256
X3.1357Y-5.0821
X3.1539Y-6.5675
X3.179Y-6.655
X3.179Y-6.868
X3.179Y-7.073
X3.182Y-7.369
X3.191Y-9.6808
X3.2576Y-8.1689
X3.2678Y-9.342
X3.2951Y-8.5456
X3.2967Y-7.2327
X3.3213Y-9.43
X3.352Y-6.849
X3.353Y-6.637
X3.354Y-7.057
X3.356Y-7.351
X3.43Y-8.642
X3.438Y-5.35
X3.4834Y-11.134
X3.486Y-11.335
X3.4874Y-5.8403
X3.4918Y-11.0751
X3.498Y-10.6
X3.4991Y-10.3279
X3.5011Y-10.44
X3.5011Y-10.5137
X3.509Y-5.41
X3.519Y-8.611
X3.5228Y-4.9316
X3.5274Y-8.1689
X3.534Y-8.826
X3.5511Y-8.2783
X3.5582Y-4.8882
X3.5585Y-9.5053
X3.581Y-5.092
X3.5957Y-10.6651
X3.602Y-11.313
X3.6032Y-5.2554
X3.605Y-10.571
X3.6215Y-4.9994
X3.625Y-8.795
X3.6275Y-5.198
X3.6348Y-11.3764
X3.637Y-9.006
X3.6393Y-7.6956
X3.654Y-5.155
X3.6541Y-5.3542
X3.663Y-8.508
X3.67Y-5.483
X3.6826Y-8.8348
X3.689Y-4.915
X3.7083Y-5.0737
X3.711Y-10.36
X3.711Y-11.094
X3.729Y-8.976
X3.757Y-4.976
X3.768Y-8.691
X3.7715Y-7.9282
X3.788Y-9.259
X3.791Y-4.73
X3.815Y-5.227
X3.8178Y-6.75
X3.832Y-11.093
X3.833Y-10.361
X3.8337Y-5.7186
X3.838Y-10.566
X3.841Y-11.2977
X3.8596Y-9.0062
X3.864Y-4.79
X3.871Y-8.873
X3.878Y-9.228
X3.919Y-5.047
X3.9665Y-7.5504
X3.9938Y-7.719
X4.0173Y-9.2269
X4.018Y-10.428
X4.019Y-9.127
X4.02Y-10.565
X4.024Y-4.863
X4.024Y-11.298
X4.027Y-11.159
X4.193Y-10.496
X4.203Y-11.228
X4.2098Y-8.9859
X4.2127Y-10.6494
X4.29Y-10.427
X4.292Y-10.564
X4.3Y-11.298
X4.301Y-11.159
X4.3211Y-11.2357
X4.3725Y-9.9835
X4.3794Y-11.1124
X4.513Y-9.5248
X4.525Y-11.0004
X4.5681Y-9.5414
X4.5724Y-11.228
X4.5724Y-11.1249
X4.584Y-11.331
X4.5849Y-11.0693
X4.5854Y-11.1864
X4.5854Y-11.3801
X4.6259Y-3.8068
X4.6611Y-10.1391
X4.6887Y-11.3126
X4.727Y-10.208
X4.739Y-3.787
X4.771Y-3.878
X4.791Y-10.136
X4.796Y-11.091
X4.8604Y-3.8201
X4.862Y-9.976
X4.8651Y-10.3429
X4.8651Y-10.4137
X4.8674Y-3.5885
X4.878Y-4.025
X4.8909Y-10.1848
X4.8984Y-11.0217
X4.9034Y-10.9425
X4.912Y-10.312
X4.922Y-11.092
X4.9247Y-11.2963
X4.9584Y-4.022
X4.9628Y-3.9715
X4.976Y-10.243
X4.992Y-3.64
X4.9996Y-10.3138
X5.025Y-3.728
X5.0321Y-10.3222
X5.048Y-10.079
X5.082Y-10.7093
X5.09Y-10.421
X5.0951Y-3.5596
X5.106Y-11.295
X5.113Y-11.157
X5.132Y-3.876
X5.154Y-10.346
X5.1605Y-3.461
X5.172Y-3.534
X5.204Y-3.625
X5.2217Y-10.9288
X5.226Y-10.186
X5.2555Y-10.8769
X5.273Y-10.5597
X5.287Y-11.227
X5.2977Y-10.502
X5.31Y-3.769
X5.3322Y-3.5278
X5.348Y-10.562
X5.357Y-3.428
X5.383Y-11.156
X5.385Y-11.298
X5.388Y-3.518
X5.3932Y-10.3281
X5.4059Y-9.8075
X5.412Y-10.492
X5.463Y-11.2969
X5.483Y-10.331
X5.4915Y-11.0376
X5.4935Y-11.0821
X5.494Y-3.664
X5.5141Y-11.2496
X5.5456Y-10.5394
X5.5461Y-11.1092
X5.5698Y-11.1726
X5.5856Y-10.5822
X5.6453Y-11.1414
X5.6507Y-11.3255
X5.6818Y-11.0662
X5.683Y-11.334
X5.684Y-10.6499
X5.787Y-11.313
X5.89Y-11.094
X5.8916Y-11.05
X6.016Y-11.094
X6.016Y-11.3
X6.1718Y-3.5381
X6.1736Y-10.2982
X6.206Y-11.298
X6.212Y-11.16
X6.387Y-11.228
X6.4258Y-11.0691
X6.4827Y-11.297
X6.4867Y-11.159
X6.5302Y-11.1077
X6.5686Y-11.1046
X6.5719Y-11.2679
X6.631Y-3.181
X6.637Y-10.639
X6.637Y-10.924
X6.649Y-3.089
X6.649Y-3.361
X6.656Y-10.82
X6.7614Y-11.0042
X6.79Y-11.292
X6.7965Y-11.1389
X6.8082Y-10.9118
X6.848Y-10.925
X6.849Y-10.637
X6.868Y-10.82
X6.8741Y-3.2485
X6.925Y-3.179
X6.9302Y-11.062
X6.943Y-3.087
X6.943Y-3.357
X6.9622Y-11.0563
X6.982Y-11.294
X7.0109Y-10.9847
X7.012Y-3.1655
X7.0142Y-3.1206
X7.057Y-10.637
X7.057Y-10.919
X7.076Y-10.82
X7.102Y-11.09
X7.108Y-11.2944
X7.1128Y-10.9504
X7.132Y-3.179
X7.151Y-3.088
X7.151Y-3.357
X7.2103Y-3.1791
X7.2241Y-10.863
X7.2253Y-10.5453
X7.226Y-3.15
X7.234Y-11.194
X7.29Y-11.2836
X7.3327Y-11.122
X7.345Y-3.178
X7.35Y-10.917
X7.352Y-10.636
X7.363Y-3.086
X7.363Y-3.36
X7.37Y-10.817
X7.3857Y-10.9092
X7.39Y-11.1891
X7.4774Y-11.1141
X7.4978Y-11.063
X7.5297Y-10.2286
X7.5387Y-11.0614
X7.58Y-11.288
X7.6463Y-10.3839
X7.6857Y-10.349
X7.7106Y-11.0072
X7.7393Y-10.3734
X7.766Y-11.09
X7.766Y-11.294
X7.8116Y-10.1046
X7.813Y-10.0562
X7.8749Y-10.0892
X7.896Y-11.09
X7.898Y-11.294
X7.9388Y-10.5013
X7.9666Y-11.0115
X8.016Y-11.216
X8.0456Y-10.9828
X8.0562Y-10.3894
X8.0565Y-11.412
X8.0825Y-10.5632
X8.0833Y-11.3033
X8.1194Y-11.146
X8.1357Y-11.4072
X8.1408Y-10.4976
X8.1487Y-11.3071
X8.1541Y-11.3714
X8.1561Y-10.9579
X8.2184Y-11.1887
X8.2367Y-10.6496
X8.2788Y-10.0124
X8.368Y-11.289
X8.3693Y-11.21
X8.3698Y-11.1749
X8.3707Y-11.1367
X8.371Y-11.084
X8.504Y-10.332
X8.515Y-3.671
X8.547Y-10.8752
X8.552Y-11.088
X8.555Y-11.293
X8.5707Y-10.5864
X8.5777Y-11.27
X8.59Y-3.509
X8.612Y-10.481
X8.647Y-10.577
X8.653Y-3.436
X8.6686Y-9.5947
X8.6739Y-3.9839
X8.6776Y-10.6359
X8.68Y-11.294
X8.682Y-11.09
X8.686Y-10.225
X8.754Y-3.4639
X8.768Y-3.821
X8.795Y-10.375
X8.802Y-11.198
X8.829Y-10.467
X8.8345Y-10.8594
X8.846Y-3.654
X8.864Y-11.283
X8.867Y-10.12
X8.8737Y-11.3686
X8.8768Y-10.4108
X8.9083Y-11.124
X8.909Y-3.583
X8.9269Y-3.6851
X8.949Y-3.925
X8.9521Y-9.8619
X8.974Y-10.271
X9.0078Y-4.4471
X9.008Y-10.364
X9.025Y-3.757
X9.0377Y-9.8109
X9.0636Y-11.1779
X9.0672Y-3.529
X9.0843Y-10.275
X9.089Y-3.686
X9.094Y-3.8071
X9.0963Y-11.1706
X9.1009Y-10.4359
X9.1034Y-10.1346
X9.114Y-3.7797
X9.122Y-9.976
X9.1288Y-11.2068
X9.135Y-4.026
X9.156Y-3.6609
X9.1583Y-11.1772
X9.1601Y-4.47
X9.1636Y-10.9828
X9.1941Y-10.9542
X9.209Y-3.863
X9.2191Y-10.4391
X9.229Y-10.123
X9.2336Y-11.1052
X9.263Y-10.216
X9.273Y-3.791
X9.2867Y-3.6999
X9.3403Y-11.378
X9.3519Y-11.067
X9.3851Y-11.3707
X9.4012Y-11.099
X9.4027Y-11.132
X9.4211Y-10.3216
X9.5035Y-10.3696
X9.6479Y-11.0268
X9.6495Y-9.4676
X9.7256Y-9.397
X9.829Y-10.243
X9.8329Y-9.6023
X9.886Y-10.134
X9.905Y-10.029
X9.934Y-10.242
X9.9543Y-4.724
X9.962Y-11.1822
X9.962Y-11.2452
X9.973Y-9.136
X9.975Y-4.877
X10.076Y-8.951
X10.122Y-4.771
X10.124Y-5.13
X10.135Y-9.209
X10.1607Y-8.9162
X10.1789Y-4.8383
X10.18Y-8.771
X10.2042Y-10.1859
X10.207Y-4.913
X10.211Y-4.743
X10.212Y-9.275
X10.229Y-10.8602
X10.234Y-5.307
X10.242Y-9.025
X10.2437Y-10.1802
X10.271Y-5.024
X10.273Y-8.7068
X10.2951Y-5.1127
X10.315Y-9.089
X10.33Y-8.517
X10.341Y-5.49
X10.345Y-8.846
X10.359Y-4.996
X10.374Y-5.203
X10.421Y-8.909
X10.463Y-5.174
X10.4698Y-8.6839
X10.481Y-5.387
X10.491Y-8.59
X10.5112Y-8.7562
X10.554Y-9.434
X10.558Y-9.241
X10.563Y-8.653
X10.565Y-9.742
X10.57Y-5.358
X10.5708Y-7.9501
X10.5808Y-5.1076
X10.5946Y-6.758
X10.5958Y-10.654
X10.5967Y-5.1372
X10.5968Y-9.2448
X10.6289Y-9.2445
X10.641Y-6.649
X10.644Y-7.363
X10.646Y-6.943
X10.646Y-7.151
X10.655Y-9.691
X10.6625Y-9.2323
X10.6806Y-9.1178
X10.693Y-9.833
X10.7221Y-9.2452
X10.758Y-9.545
X10.759Y-9.432
X10.7835Y-6.5553
X10.7892Y-8.9173
X10.8159Y-6.7341
X10.818Y-6.631
X10.82Y-6.924
X10.82Y-7.132
X10.82Y-7.345
X10.8418Y-7.2703
X10.8718Y-9.958
X10.8943Y-7.0799
X10.9087Y-7.0094
X10.909Y-6.65
X10.91Y-6.944
X10.911Y-7.151
X10.913Y-7.364
X10.913Y-6.602
X10.9195Y-9.846
X10.9516Y-7.2694
X10.9517Y-7.1607
X10.9531Y-7.2157
X10.954Y-6.3736
X10.9568Y-9.9208
X10.9673Y-7.3842
X10.9673Y-8.629
X10.9852Y-6.298
X10.9879Y-7.3596
X11.051Y-8.553
X11.061Y-7.397
X11.066Y-8.665
X11.0759Y-7.2148
X11.0934Y-9.366
X11.095Y-8.898
X11.095Y-9.09
X11.1027Y-8.5397
X11.121Y-7.511
X11.1303Y-8.2407
X11.139Y-7.925
X11.139Y-8.203
X11.14Y-7.736
X11.165Y-9.267
X11.1687Y-6.5319
X11.1844Y-8.2817
X11.205Y-5.947
X11.2088Y-8.1455
X11.211Y-8.099
X11.234Y-6.059
X11.234Y-6.098
X11.235Y-6.413
X11.235Y-9.094
X11.2356Y-9.3634
X11.236Y-6.453
X11.281Y-7.921
X11.281Y-8.205
X11.3Y-8.775
X11.3Y-8.89
X11.344Y-7.734
X11.345Y-7.615
X11.3523Y-8.5634
T2
X3.257Y-7.532
X3.258Y-7.784
X3.362Y-5.812
X3.494Y-5.587
X4.023Y-9.333
X4.153Y-9.551
X4.446Y-4.154
X4.67Y-4.023
X5.587Y-10.506
X5.813Y-10.635
X6.219Y-3.258
X6.469Y-3.258
X7.534Y-10.743
X7.783Y-10.744
X8.19Y-3.367
X8.41Y-3.493
X9.335Y-9.973
X9.547Y-9.849
X9.847Y-4.45
X9.977Y-4.672
X10.507Y-8.41
X10.631Y-8.193
X10.742Y-6.467
X10.743Y-6.218
T3
X3.5089Y-6.3
X3.5089Y-6.4
X3.5089Y-6.5
X3.5089Y-6.6
X3.5089Y-6.7
X3.5089Y-6.8
X3.5089Y-6.9
X3.5089Y-7.0
X3.5089Y-7.1
X3.5089Y-7.2
X3.5089Y-7.3
X3.5089Y-7.4
X3.5089Y-7.5
X3.5089Y-7.6
X3.5089Y-7.7
X3.6266Y-5.8607
X3.6266Y-8.1393
X3.6766Y-5.7741
X3.6766Y-8.2259
X3.7266Y-5.6875
X3.7266Y-8.3125
X3.7766Y-5.6009
X3.7766Y-8.3991
X3.8266Y-5.5143
X3.8266Y-8.4857
X3.8766Y-5.4277
X3.8766Y-8.5723
X3.9266Y-5.3411
X3.9266Y-8.6589
X3.9766Y-5.2544
X3.9766Y-8.7456
X4.0266Y-5.1678
X4.0266Y-8.8322
X4.0766Y-5.0812
X4.0766Y-8.9188
X4.1266Y-4.9946
X4.1266Y-9.0054
X4.1766Y-4.908
X4.1766Y-9.092
X4.2266Y-4.8214
X4.2266Y-9.1786
X4.2766Y-4.7348
X4.2766Y-9.2652
X4.3266Y-4.6482
X4.3266Y-9.3518
X4.6482Y-4.3266
X4.6482Y-9.6734
X4.7348Y-4.2766
X4.7348Y-9.7234
X4.8214Y-4.2266
X4.8214Y-9.7734
X4.908Y-4.1766
X4.908Y-9.8234
X4.9946Y-4.1266
X4.9946Y-9.8734
X5.0812Y-4.0766
X5.0812Y-9.9234
X5.1678Y-4.0266
X5.1678Y-9.9734
X5.2544Y-3.9766
X5.2544Y-10.0234
X5.3411Y-3.9266
X5.3411Y-10.0734
X5.4277Y-3.8766
X5.4277Y-10.1234
X5.5143Y-3.8266
X5.5143Y-10.1734
X5.6009Y-3.7766
X5.6009Y-10.2234
X5.6875Y-3.7266
X5.6875Y-10.2734
X5.7741Y-3.6766
X5.7741Y-10.3234
X5.8607Y-3.6266
X5.8607Y-10.3734
X6.3Y-3.5089
X6.3Y-10.4911
X6.4Y-3.5089
X6.4Y-10.4911
X6.5Y-3.5089
X6.5Y-10.4911
X6.6Y-3.5089
X6.6Y-10.4911
X6.7Y-3.5089
X6.7Y-10.4911
X6.8Y-3.5089
X6.8Y-10.4911
X6.9Y-3.5089
X6.9Y-10.4911
X7.0Y-3.5089
X7.0Y-10.4911
X7.1Y-3.5089
X7.1Y-10.4911
X7.2Y-3.5089
X7.2Y-10.4911
X7.3Y-3.5089
X7.3Y-10.4911
X7.4Y-3.5089
X7.4Y-10.4911
X7.5Y-3.5089
X7.5Y-10.4911
X7.6Y-3.5089
X7.6Y-10.4911
X7.7Y-3.5089
X7.7Y-10.4911
X8.1393Y-3.6266
X8.1393Y-10.3734
X8.2259Y-3.6766
X8.2259Y-10.3234
X8.3125Y-3.7266
X8.3125Y-10.2734
X8.3991Y-3.7766
X8.3991Y-10.2234
X8.4857Y-3.8266
X8.4857Y-10.1734
X8.5723Y-3.8766
X8.5723Y-10.1234
X8.6589Y-3.9266
X8.6589Y-10.0734
X8.7456Y-3.9766
X8.7456Y-10.0234
X8.8322Y-4.0266
X8.8322Y-9.9734
X8.9188Y-4.0766
X8.9188Y-9.9234
X9.0054Y-4.1266
X9.0054Y-9.8734
X9.092Y-4.1766
X9.092Y-9.8234
X9.1786Y-4.2266
X9.1786Y-9.7734
X9.2652Y-4.2766
X9.2652Y-9.7234
X9.3518Y-4.3266
X9.3518Y-9.6734
X9.6734Y-4.6482
X9.6734Y-9.3518
X9.7234Y-4.7348
X9.7234Y-9.2652
X9.7734Y-4.8214
X9.7734Y-9.1786
X9.8234Y-4.908
X9.8234Y-9.092
X9.8734Y-4.9946
X9.8734Y-9.0054
X9.9234Y-5.0812
X9.9234Y-8.9188
X9.9734Y-5.1678
X9.9734Y-8.8322
X10.0234Y-5.2544
X10.0234Y-8.7456
X10.0734Y-5.3411
X10.0734Y-8.6589
X10.1234Y-5.4277
X10.1234Y-8.5723
X10.1734Y-5.5143
X10.1734Y-8.4857
X10.2234Y-5.6009
X10.2234Y-8.3991
X10.2734Y-5.6875
X10.2734Y-8.3125
X10.3234Y-5.7741
X10.3234Y-8.2259
X10.3734Y-5.8607
X10.3734Y-8.1393
X10.4911Y-6.3
X10.4911Y-6.4
X10.4911Y-6.5
X10.4911Y-6.6
X10.4911Y-6.7
X10.4911Y-6.8
X10.4911Y-6.9
X10.4911Y-7.0
X10.4911Y-7.1
X10.4911Y-7.2
X10.4911Y-7.3
X10.4911Y-7.4
X10.4911Y-7.5
X10.4911Y-7.6
X10.4911Y-7.7
T4
X9.0652Y-10.7628
X9.1592Y-10.7286
X9.2531Y-10.6944
X9.2704Y-11.3266
X9.3471Y-10.6602
X9.3644Y-11.2924
X9.4411Y-10.626
X9.4583Y-11.2582
X9.535Y-10.5918
X9.5523Y-11.224
X9.629Y-10.5576
X9.6463Y-11.1898
X9.723Y-10.5234
X9.7402Y-11.1556
X9.8169Y-10.4892
X9.8342Y-11.1214
X9.9109Y-10.455
X9.9282Y-11.0872
X10.0049Y-10.4208
X10.0222Y-11.053
X10.0989Y-10.3866
X10.1161Y-11.0188
X10.1928Y-10.3524
X10.2101Y-10.9846
X10.2868Y-10.3182
X10.3041Y-10.9504
X10.3808Y-10.284
X10.398Y-10.9162
X10.4747Y-10.2498
X10.492Y-10.882
X10.5687Y-10.2156
X10.586Y-10.8478
X10.6627Y-10.1814
X10.6799Y-10.8136
X10.7566Y-10.1472
X10.7739Y-10.7794
X10.8506Y-10.113
X10.8679Y-10.7452
X10.9446Y-10.0788
X10.9618Y-10.711
X11.0385Y-10.0446
X11.0558Y-10.6768
X11.1325Y-10.0104
X11.1498Y-10.6426
X11.2265Y-9.9762
X11.2438Y-10.6084
X11.3377Y-10.5742
X11.4317Y-10.54
T5
X3.7402Y-2.6181
X11.382Y-3.63
T6
X11.2Y-4.2619
X11.2Y-4.4489
X11.2Y-4.6359
T7
X3.5632Y-2.6971
X3.7402Y-2.7361
X3.9172Y-2.6971
X11.264Y-3.63
X11.303Y-3.453
X11.303Y-3.807
T8
X3.7402Y-2.9721
X11.028Y-3.63
T9
X3.0Y-3.0
X3.0Y-11.0
X11.0Y-3.0
X11.0Y-11.0
M30
