%TF.GenerationSoftware,KiCad,Pcbnew,8.0.6-8.0.6-0~ubuntu22.04.1*%
%TF.CreationDate,2024-12-20T08:13:23-08:00*%
%TF.ProjectId,teensy_arena_12-12,7465656e-7379-45f6-9172-656e615f3132,rev?*%
%TF.SameCoordinates,Original*%
%TF.FileFunction,Soldermask,Top*%
%TF.FilePolarity,Negative*%
%FSLAX46Y46*%
G04 Gerber Fmt 4.6, Leading zero omitted, Abs format (unit mm)*
G04 Created by KiCad (PCBNEW 8.0.6-8.0.6-0~ubuntu22.04.1) date 2024-12-20 08:13:23*
%MOMM*%
%LPD*%
G01*
G04 APERTURE LIST*
G04 Aperture macros list*
%AMRoundRect*
0 Rectangle with rounded corners*
0 $1 Rounding radius*
0 $2 $3 $4 $5 $6 $7 $8 $9 X,Y pos of 4 corners*
0 Add a 4 corners polygon primitive as box body*
4,1,4,$2,$3,$4,$5,$6,$7,$8,$9,$2,$3,0*
0 Add four circle primitives for the rounded corners*
1,1,$1+$1,$2,$3*
1,1,$1+$1,$4,$5*
1,1,$1+$1,$6,$7*
1,1,$1+$1,$8,$9*
0 Add four rect primitives between the rounded corners*
20,1,$1+$1,$2,$3,$4,$5,0*
20,1,$1+$1,$4,$5,$6,$7,0*
20,1,$1+$1,$6,$7,$8,$9,0*
20,1,$1+$1,$8,$9,$2,$3,0*%
%AMRotRect*
0 Rectangle, with rotation*
0 The origin of the aperture is its center*
0 $1 length*
0 $2 width*
0 $3 Rotation angle, in degrees counterclockwise*
0 Add horizontal line*
21,1,$1,$2,0,0,$3*%
G04 Aperture macros list end*
%ADD10RoundRect,0.135000X-0.209413X-0.092715X0.024413X-0.227715X0.209413X0.092715X-0.024413X0.227715X0*%
%ADD11RoundRect,0.135000X-0.135000X-0.185000X0.135000X-0.185000X0.135000X0.185000X-0.135000X0.185000X0*%
%ADD12RoundRect,0.135000X-0.185000X0.135000X-0.185000X-0.135000X0.185000X-0.135000X0.185000X0.135000X0*%
%ADD13RoundRect,0.140000X0.170000X-0.140000X0.170000X0.140000X-0.170000X0.140000X-0.170000X-0.140000X0*%
%ADD14RoundRect,0.150000X0.512500X0.150000X-0.512500X0.150000X-0.512500X-0.150000X0.512500X-0.150000X0*%
%ADD15RoundRect,0.150000X-0.512500X-0.150000X0.512500X-0.150000X0.512500X0.150000X-0.512500X0.150000X0*%
%ADD16RoundRect,0.135000X0.209413X0.092715X-0.024413X0.227715X-0.209413X-0.092715X0.024413X-0.227715X0*%
%ADD17RoundRect,0.140000X-0.206244X-0.077224X0.036244X-0.217224X0.206244X0.077224X-0.036244X0.217224X0*%
%ADD18RoundRect,0.135000X0.135000X0.185000X-0.135000X0.185000X-0.135000X-0.185000X0.135000X-0.185000X0*%
%ADD19RoundRect,0.150000X0.150000X-0.512500X0.150000X0.512500X-0.150000X0.512500X-0.150000X-0.512500X0*%
%ADD20RoundRect,0.135000X-0.227715X0.024413X-0.092715X-0.209413X0.227715X-0.024413X0.092715X0.209413X0*%
%ADD21RoundRect,0.150000X0.126346X0.518838X-0.386154X-0.368838X-0.126346X-0.518838X0.386154X0.368838X0*%
%ADD22RoundRect,0.140000X0.140000X0.170000X-0.140000X0.170000X-0.140000X-0.170000X0.140000X-0.170000X0*%
%ADD23RoundRect,0.140000X0.206244X0.077224X-0.036244X0.217224X-0.206244X-0.077224X0.036244X-0.217224X0*%
%ADD24RoundRect,0.135000X0.092715X-0.209413X0.227715X0.024413X-0.092715X0.209413X-0.227715X-0.024413X0*%
%ADD25RoundRect,0.135000X0.185000X-0.135000X0.185000X0.135000X-0.185000X0.135000X-0.185000X-0.135000X0*%
%ADD26RoundRect,0.150000X-0.150000X0.512500X-0.150000X-0.512500X0.150000X-0.512500X0.150000X0.512500X0*%
%ADD27RoundRect,0.250000X-0.831458X-0.790128X-0.268542X-1.115128X0.831458X0.790128X0.268542X1.115128X0*%
%ADD28RoundRect,0.135000X-0.024413X-0.227715X0.209413X-0.092715X0.024413X0.227715X-0.209413X0.092715X0*%
%ADD29C,9.000000*%
%ADD30RoundRect,0.135000X0.024413X0.227715X-0.209413X0.092715X-0.024413X-0.227715X0.209413X-0.092715X0*%
%ADD31RoundRect,0.140000X-0.170000X0.140000X-0.170000X-0.140000X0.170000X-0.140000X0.170000X0.140000X0*%
%ADD32C,3.556000*%
%ADD33C,1.930400*%
%ADD34C,4.064000*%
%ADD35R,1.600000X1.600000*%
%ADD36C,1.600000*%
%ADD37RoundRect,0.140000X-0.140000X-0.170000X0.140000X-0.170000X0.140000X0.170000X-0.140000X0.170000X0*%
%ADD38RoundRect,0.100000X0.637500X0.100000X-0.637500X0.100000X-0.637500X-0.100000X0.637500X-0.100000X0*%
%ADD39RoundRect,0.150000X0.386154X-0.368838X-0.126346X0.518838X-0.386154X0.368838X0.126346X-0.518838X0*%
%ADD40RotRect,1.600000X1.600000X240.000000*%
%ADD41RoundRect,0.140000X-0.036244X-0.217224X0.206244X-0.077224X0.036244X0.217224X-0.206244X0.077224X0*%
%ADD42RoundRect,0.135000X0.227715X-0.024413X0.092715X0.209413X-0.227715X0.024413X-0.092715X-0.209413X0*%
%ADD43RoundRect,0.135000X-0.092715X0.209413X-0.227715X-0.024413X0.092715X-0.209413X0.227715X0.024413X0*%
%ADD44RoundRect,0.250000X-0.325000X-1.100000X0.325000X-1.100000X0.325000X1.100000X-0.325000X1.100000X0*%
%ADD45RoundRect,0.250000X-0.790128X0.831458X-1.115128X0.268542X0.790128X-0.831458X1.115128X-0.268542X0*%
%ADD46RoundRect,0.150000X-0.126346X-0.518838X0.386154X0.368838X0.126346X0.518838X-0.386154X-0.368838X0*%
%ADD47C,2.540000*%
%ADD48RoundRect,0.150000X-0.518838X0.126346X0.368838X-0.386154X0.518838X-0.126346X-0.368838X0.386154X0*%
%ADD49RoundRect,0.150000X-0.386154X0.368838X0.126346X-0.518838X0.386154X-0.368838X-0.126346X0.518838X0*%
%ADD50RoundRect,0.250000X1.115128X0.268542X0.790128X0.831458X-1.115128X-0.268542X-0.790128X-0.831458X0*%
%ADD51RotRect,1.600000X1.600000X150.000000*%
%ADD52RotRect,1.600000X1.600000X210.000000*%
%ADD53RoundRect,0.140000X-0.077224X0.206244X-0.217224X-0.036244X0.077224X-0.206244X0.217224X0.036244X0*%
%ADD54RoundRect,0.140000X0.036244X0.217224X-0.206244X0.077224X-0.036244X-0.217224X0.206244X-0.077224X0*%
%ADD55RoundRect,0.150000X0.625000X-0.150000X0.625000X0.150000X-0.625000X0.150000X-0.625000X-0.150000X0*%
%ADD56RoundRect,0.250000X0.650000X-0.350000X0.650000X0.350000X-0.650000X0.350000X-0.650000X-0.350000X0*%
%ADD57RoundRect,0.140000X-0.217224X0.036244X-0.077224X-0.206244X0.217224X-0.036244X0.077224X0.206244X0*%
%ADD58RoundRect,0.140000X0.217224X-0.036244X0.077224X0.206244X-0.217224X0.036244X-0.077224X-0.206244X0*%
%ADD59RoundRect,0.150000X0.518838X-0.126346X-0.368838X0.386154X-0.518838X0.126346X0.368838X-0.386154X0*%
%ADD60RoundRect,0.140000X0.077224X-0.206244X0.217224X0.036244X-0.077224X0.206244X-0.217224X-0.036244X0*%
%ADD61RoundRect,0.150000X0.368838X0.386154X-0.518838X-0.126346X-0.368838X-0.386154X0.518838X0.126346X0*%
%ADD62RoundRect,0.250000X0.268542X-1.115128X0.831458X-0.790128X-0.268542X1.115128X-0.831458X0.790128X0*%
%ADD63RotRect,1.600000X1.600000X30.000000*%
%ADD64RoundRect,0.150000X-0.368838X-0.386154X0.518838X0.126346X0.368838X0.386154X-0.518838X-0.126346X0*%
%ADD65RoundRect,0.250000X-0.268542X1.115128X-0.831458X0.790128X0.268542X-1.115128X0.831458X-0.790128X0*%
%ADD66RoundRect,0.100000X0.100000X-0.637500X0.100000X0.637500X-0.100000X0.637500X-0.100000X-0.637500X0*%
%ADD67RoundRect,0.250000X-1.100000X0.325000X-1.100000X-0.325000X1.100000X-0.325000X1.100000X0.325000X0*%
%ADD68RoundRect,0.250000X-1.115128X-0.268542X-0.790128X-0.831458X1.115128X0.268542X0.790128X0.831458X0*%
%ADD69RotRect,1.600000X1.600000X200.000000*%
%ADD70RotRect,1.600000X1.600000X60.000000*%
%ADD71RotRect,1.600000X1.600000X120.000000*%
%ADD72RoundRect,0.250000X0.790128X-0.831458X1.115128X-0.268542X-0.790128X0.831458X-1.115128X0.268542X0*%
%ADD73RotRect,1.600000X1.600000X300.000000*%
%ADD74RoundRect,0.250000X0.325000X1.100000X-0.325000X1.100000X-0.325000X-1.100000X0.325000X-1.100000X0*%
%ADD75RoundRect,0.250000X0.831458X0.790128X0.268542X1.115128X-0.831458X-0.790128X-0.268542X-1.115128X0*%
%ADD76RoundRect,0.250000X1.100000X-0.325000X1.100000X0.325000X-1.100000X0.325000X-1.100000X-0.325000X0*%
%ADD77RotRect,1.600000X1.600000X330.000000*%
G04 APERTURE END LIST*
D10*
%TO.C,R215*%
X263608427Y-215879500D03*
X264491773Y-216389500D03*
%TD*%
D11*
%TO.C,R62*%
X173408400Y-281575000D03*
X174428400Y-281575000D03*
%TD*%
D12*
%TO.C,R48*%
X271272000Y-235608400D03*
X271272000Y-236628400D03*
%TD*%
D13*
%TO.C,C30*%
X282935600Y-203155000D03*
X282935600Y-202195000D03*
%TD*%
D14*
%TO.C,U36*%
X275920200Y-169849800D03*
X275920200Y-168899800D03*
X275920200Y-167949800D03*
X273645200Y-167949800D03*
X273645200Y-168899800D03*
X273645200Y-169849800D03*
%TD*%
D12*
%TO.C,R75*%
X284748800Y-218182900D03*
X284748800Y-219202900D03*
%TD*%
D15*
%TO.C,U60*%
X79679800Y-185750200D03*
X79679800Y-186700200D03*
X79679800Y-187650200D03*
X81954800Y-187650200D03*
X81954800Y-186700200D03*
X81954800Y-185750200D03*
%TD*%
D12*
%TO.C,R201*%
X180263800Y-271145000D03*
X180263800Y-272165000D03*
%TD*%
D16*
%TO.C,R173*%
X100993573Y-124041000D03*
X100110227Y-123531000D03*
%TD*%
D14*
%TO.C,Q1*%
X74026000Y-200717000D03*
X74026000Y-198817000D03*
X71751000Y-199767000D03*
%TD*%
D17*
%TO.C,C67*%
X91657808Y-138360400D03*
X92489192Y-138840400D03*
%TD*%
D18*
%TO.C,R177*%
X84455000Y-180263800D03*
X83435000Y-180263800D03*
%TD*%
D10*
%TO.C,R222*%
X253561627Y-233419400D03*
X254444973Y-233929400D03*
%TD*%
D17*
%TO.C,C69*%
X98017208Y-127308600D03*
X98848592Y-127788600D03*
%TD*%
D19*
%TO.C,U33*%
X70860800Y-231672100D03*
X71810800Y-231672100D03*
X72760800Y-231672100D03*
X72760800Y-229397100D03*
X71810800Y-229397100D03*
X70860800Y-229397100D03*
%TD*%
D20*
%TO.C,R214*%
X215601800Y-263848627D03*
X216111800Y-264731973D03*
%TD*%
D21*
%TO.C,U45*%
X226472474Y-92521696D03*
X225649750Y-92046696D03*
X224827026Y-91571696D03*
X223689526Y-93541904D03*
X224512250Y-94016904D03*
X225334974Y-94491904D03*
%TD*%
D19*
%TO.C,U20*%
X285577200Y-206908400D03*
X286527200Y-206908400D03*
X287477200Y-206908400D03*
X287477200Y-204633400D03*
X286527200Y-204633400D03*
X285577200Y-204633400D03*
%TD*%
D22*
%TO.C,C48*%
X272114200Y-176352200D03*
X271154200Y-176352200D03*
%TD*%
D14*
%TO.C,U28*%
X135432800Y-284327600D03*
X135432800Y-283377600D03*
X135432800Y-282427600D03*
X133157800Y-282427600D03*
X133157800Y-283377600D03*
X133157800Y-284327600D03*
%TD*%
D23*
%TO.C,C91*%
X263942192Y-217239600D03*
X263110808Y-216759600D03*
%TD*%
D24*
%TO.C,R147*%
X226882900Y-98323173D03*
X227392900Y-97439827D03*
%TD*%
D25*
%TO.C,R10*%
X275615400Y-254660400D03*
X275615400Y-253640400D03*
%TD*%
D13*
%TO.C,C5*%
X268173200Y-236625800D03*
X268173200Y-235665800D03*
%TD*%
D20*
%TO.C,R212*%
X220261800Y-261099527D03*
X220771800Y-261982873D03*
%TD*%
D12*
%TO.C,R203*%
X175031400Y-271170400D03*
X175031400Y-272190400D03*
%TD*%
D26*
%TO.C,U2*%
X252547200Y-256260400D03*
X251597200Y-256260400D03*
X250647200Y-256260400D03*
X250647200Y-258535400D03*
X251597200Y-258535400D03*
X252547200Y-258535400D03*
%TD*%
D27*
%TO.C,C97*%
X209581313Y-86383100D03*
X212136087Y-87858100D03*
%TD*%
D16*
%TO.C,R168*%
X93007573Y-137960800D03*
X92124227Y-137450800D03*
%TD*%
D28*
%TO.C,R139*%
X260045427Y-133512500D03*
X260928773Y-133002500D03*
%TD*%
D11*
%TO.C,R91*%
X145170600Y-283819600D03*
X146190600Y-283819600D03*
%TD*%
D12*
%TO.C,R86*%
X78003400Y-242222000D03*
X78003400Y-243242000D03*
%TD*%
D29*
%TO.C,H1*%
X76200000Y-76200000D03*
%TD*%
D28*
%TO.C,R135*%
X253682027Y-122527500D03*
X254565373Y-122017500D03*
%TD*%
D30*
%TO.C,R189*%
X92840173Y-217436800D03*
X91956827Y-217946800D03*
%TD*%
D10*
%TO.C,R234*%
X261153727Y-220058400D03*
X262037073Y-220568400D03*
%TD*%
D31*
%TO.C,C61*%
X181635400Y-83460400D03*
X181635400Y-84420400D03*
%TD*%
D18*
%TO.C,R181*%
X84404200Y-169646600D03*
X83384200Y-169646600D03*
%TD*%
D32*
%TO.C,J4*%
X90504200Y-68506600D03*
D33*
X95000000Y-66500000D03*
D32*
X99495800Y-68506600D03*
D34*
X95000000Y-75491600D03*
D32*
X95000000Y-69497200D03*
%TD*%
D35*
%TO.C,P10*%
X195580000Y-266474000D03*
D36*
X193040000Y-266474000D03*
X190500000Y-266474000D03*
X187960000Y-266474000D03*
X185420000Y-266474000D03*
X182880000Y-266474000D03*
X180340000Y-266474000D03*
X177800000Y-266474000D03*
X175260000Y-266474000D03*
X172720000Y-266474000D03*
X170180000Y-266474000D03*
X167640000Y-266474000D03*
X165100000Y-266474000D03*
X162560000Y-266474000D03*
X160020000Y-266474000D03*
%TD*%
D37*
%TO.C,C26*%
X223514000Y-286588200D03*
X224474000Y-286588200D03*
%TD*%
D26*
%TO.C,U48*%
X169849800Y-79679800D03*
X168899800Y-79679800D03*
X167949800Y-79679800D03*
X167949800Y-81954800D03*
X168899800Y-81954800D03*
X169849800Y-81954800D03*
%TD*%
D38*
%TO.C,U13*%
X98677200Y-269005600D03*
X98677200Y-268355600D03*
X98677200Y-267705600D03*
X98677200Y-267055600D03*
X98677200Y-266405600D03*
X98677200Y-265755600D03*
X98677200Y-265105600D03*
X98677200Y-264455600D03*
X98677200Y-263805600D03*
X98677200Y-263155600D03*
X92952200Y-263155600D03*
X92952200Y-263805600D03*
X92952200Y-264455600D03*
X92952200Y-265105600D03*
X92952200Y-265755600D03*
X92952200Y-266405600D03*
X92952200Y-267055600D03*
X92952200Y-267705600D03*
X92952200Y-268355600D03*
X92952200Y-269005600D03*
%TD*%
D14*
%TO.C,U38*%
X275989400Y-182575200D03*
X275989400Y-181625200D03*
X275989400Y-180675200D03*
X273714400Y-180675200D03*
X273714400Y-181625200D03*
X273714400Y-182575200D03*
%TD*%
D39*
%TO.C,U79*%
X218078226Y-267924704D03*
X218900950Y-267449704D03*
X219723674Y-266974704D03*
X218586174Y-265004496D03*
X217763450Y-265479496D03*
X216940726Y-265954496D03*
%TD*%
D28*
%TO.C,R141*%
X262759827Y-138163200D03*
X263643173Y-137653200D03*
%TD*%
D22*
%TO.C,C19*%
X118268200Y-287812400D03*
X117308200Y-287812400D03*
%TD*%
D40*
%TO.C,P12*%
X263484000Y-206739068D03*
D36*
X262214000Y-208938773D03*
X260944000Y-211138477D03*
X259674000Y-213338182D03*
X258404000Y-215537886D03*
X257134000Y-217737591D03*
X255864000Y-219937295D03*
X254594000Y-222137000D03*
X253324000Y-224336705D03*
X252054000Y-226536409D03*
X250784000Y-228736114D03*
X249514000Y-230935818D03*
X248244000Y-233135523D03*
X246974000Y-235335227D03*
X245704000Y-237534932D03*
%TD*%
D25*
%TO.C,R151*%
X167873600Y-84448000D03*
X167873600Y-83428000D03*
%TD*%
D22*
%TO.C,C39*%
X131679400Y-283392800D03*
X130719400Y-283392800D03*
%TD*%
D25*
%TO.C,R9*%
X278003000Y-253796800D03*
X278003000Y-252776800D03*
%TD*%
%TO.C,R226*%
X172720000Y-84484400D03*
X172720000Y-83464400D03*
%TD*%
D12*
%TO.C,R74*%
X283732800Y-218184900D03*
X283732800Y-219204900D03*
%TD*%
D15*
%TO.C,U62*%
X79610600Y-173024800D03*
X79610600Y-173974800D03*
X79610600Y-174924800D03*
X81885600Y-174924800D03*
X81885600Y-173974800D03*
X81885600Y-173024800D03*
%TD*%
D35*
%TO.C,P7*%
X89126000Y-195580000D03*
D36*
X89126000Y-193040000D03*
X89126000Y-190500000D03*
X89126000Y-187960000D03*
X89126000Y-185420000D03*
X89126000Y-182880000D03*
X89126000Y-180340000D03*
X89126000Y-177800000D03*
X89126000Y-175260000D03*
X89126000Y-172720000D03*
X89126000Y-170180000D03*
X89126000Y-167640000D03*
X89126000Y-165100000D03*
X89126000Y-162560000D03*
X89126000Y-160020000D03*
%TD*%
D12*
%TO.C,R68*%
X288066400Y-188931000D03*
X288066400Y-189951000D03*
%TD*%
D22*
%TO.C,C40*%
X104149200Y-286985400D03*
X103189200Y-286985400D03*
%TD*%
D11*
%TO.C,R44*%
X213404800Y-281533600D03*
X214424800Y-281533600D03*
%TD*%
D41*
%TO.C,C76*%
X96845408Y-226210900D03*
X97676792Y-225730900D03*
%TD*%
D37*
%TO.C,C73*%
X83460400Y-173964600D03*
X84420400Y-173964600D03*
%TD*%
D12*
%TO.C,R206*%
X167513000Y-271221200D03*
X167513000Y-272241200D03*
%TD*%
D42*
%TO.C,R163*%
X133512500Y-95554573D03*
X133002500Y-94671227D03*
%TD*%
D43*
%TO.C,R231*%
X135541600Y-261153727D03*
X135031600Y-262037073D03*
%TD*%
D25*
%TO.C,R8*%
X282778200Y-252044200D03*
X282778200Y-251024200D03*
%TD*%
D12*
%TO.C,R82*%
X73939400Y-242226000D03*
X73939400Y-243246000D03*
%TD*%
D43*
%TO.C,R194*%
X131479500Y-258842327D03*
X130969500Y-259725673D03*
%TD*%
D12*
%TO.C,R124*%
X74980800Y-212776400D03*
X74980800Y-213796400D03*
%TD*%
D37*
%TO.C,C2*%
X223539400Y-287629600D03*
X224499400Y-287629600D03*
%TD*%
D12*
%TO.C,R70*%
X289082400Y-188931000D03*
X289082400Y-189951000D03*
%TD*%
D44*
%TO.C,C98*%
X159615000Y-82740000D03*
X162565000Y-82740000D03*
%TD*%
D14*
%TO.C,U37*%
X275989400Y-177312400D03*
X275989400Y-176362400D03*
X275989400Y-175412400D03*
X273714400Y-175412400D03*
X273714400Y-176362400D03*
X273714400Y-177312400D03*
%TD*%
D15*
%TO.C,U63*%
X79610600Y-167619600D03*
X79610600Y-168569600D03*
X79610600Y-169519600D03*
X81885600Y-169519600D03*
X81885600Y-168569600D03*
X81885600Y-167619600D03*
%TD*%
D20*
%TO.C,R233*%
X228857200Y-256073727D03*
X229367200Y-256957073D03*
%TD*%
D45*
%TO.C,C106*%
X269216900Y-209581313D03*
X267741900Y-212136087D03*
%TD*%
D11*
%TO.C,R42*%
X213408800Y-283616400D03*
X214428800Y-283616400D03*
%TD*%
D26*
%TO.C,U49*%
X177312400Y-79610600D03*
X176362400Y-79610600D03*
X175412400Y-79610600D03*
X175412400Y-81885600D03*
X176362400Y-81885600D03*
X177312400Y-81885600D03*
%TD*%
D14*
%TO.C,U26*%
X163390600Y-287929400D03*
X163390600Y-286979400D03*
X163390600Y-286029400D03*
X161115600Y-286029400D03*
X161115600Y-286979400D03*
X161115600Y-287929400D03*
%TD*%
D25*
%TO.C,R152*%
X169905600Y-84448000D03*
X169905600Y-83428000D03*
%TD*%
D23*
%TO.C,C93*%
X257582792Y-228291400D03*
X256751408Y-227811400D03*
%TD*%
D46*
%TO.C,U70*%
X124569826Y-260446904D03*
X125392550Y-260921904D03*
X126215274Y-261396904D03*
X127352774Y-259426696D03*
X126530050Y-258951696D03*
X125707326Y-258476696D03*
%TD*%
D30*
%TO.C,R184*%
X100901973Y-231312700D03*
X100018627Y-231822700D03*
%TD*%
D12*
%TO.C,R50*%
X273354800Y-235608400D03*
X273354800Y-236628400D03*
%TD*%
D47*
%TO.C,SW1*%
X284480000Y-117752500D03*
X284480000Y-113002700D03*
X284480000Y-108252900D03*
%TD*%
D39*
%TO.C,U76*%
X233745126Y-258799504D03*
X234567850Y-258324504D03*
X235390574Y-257849504D03*
X234253074Y-255879296D03*
X233430350Y-256354296D03*
X232607626Y-256829296D03*
%TD*%
D48*
%TO.C,U56*%
X88850296Y-135624926D03*
X88375296Y-136447650D03*
X87900296Y-137270374D03*
X89870504Y-138407874D03*
X90345504Y-137585150D03*
X90820504Y-136762426D03*
%TD*%
D11*
%TO.C,R133*%
X271195800Y-185953400D03*
X272215800Y-185953400D03*
%TD*%
D49*
%TO.C,U53*%
X128282974Y-93009296D03*
X127460250Y-93484296D03*
X126637526Y-93959296D03*
X127775026Y-95929504D03*
X128597750Y-95454504D03*
X129420474Y-94979504D03*
%TD*%
D16*
%TO.C,R171*%
X98323173Y-128717100D03*
X97439827Y-128207100D03*
%TD*%
D11*
%TO.C,R107*%
X89527400Y-283852000D03*
X90547400Y-283852000D03*
%TD*%
D10*
%TO.C,R216*%
X262592427Y-217639200D03*
X263475773Y-218149200D03*
%TD*%
D11*
%TO.C,R127*%
X271152000Y-167873600D03*
X272172000Y-167873600D03*
%TD*%
D42*
%TO.C,R161*%
X128993800Y-98192773D03*
X128483800Y-97309427D03*
%TD*%
D28*
%TO.C,R136*%
X254698027Y-124287300D03*
X255581373Y-123777300D03*
%TD*%
D38*
%TO.C,U6*%
X181751700Y-287528000D03*
X181751700Y-286878000D03*
X181751700Y-286228000D03*
X181751700Y-285578000D03*
X181751700Y-284928000D03*
X181751700Y-284278000D03*
X181751700Y-283628000D03*
X181751700Y-282978000D03*
X181751700Y-282328000D03*
X181751700Y-281678000D03*
X176026700Y-281678000D03*
X176026700Y-282328000D03*
X176026700Y-282978000D03*
X176026700Y-283628000D03*
X176026700Y-284278000D03*
X176026700Y-284928000D03*
X176026700Y-285578000D03*
X176026700Y-286228000D03*
X176026700Y-286878000D03*
X176026700Y-287528000D03*
%TD*%
D12*
%TO.C,R80*%
X71907400Y-242226000D03*
X71907400Y-243246000D03*
%TD*%
D43*
%TO.C,R193*%
X133261200Y-259871027D03*
X132751200Y-260754373D03*
%TD*%
D31*
%TO.C,C60*%
X176352200Y-83485800D03*
X176352200Y-84445800D03*
%TD*%
D18*
%TO.C,R179*%
X84429600Y-175031400D03*
X83409600Y-175031400D03*
%TD*%
D11*
%TO.C,R43*%
X213406800Y-282575000D03*
X214426800Y-282575000D03*
%TD*%
D38*
%TO.C,U10*%
X154100000Y-287629600D03*
X154100000Y-286979600D03*
X154100000Y-286329600D03*
X154100000Y-285679600D03*
X154100000Y-285029600D03*
X154100000Y-284379600D03*
X154100000Y-283729600D03*
X154100000Y-283079600D03*
X154100000Y-282429600D03*
X154100000Y-281779600D03*
X148375000Y-281779600D03*
X148375000Y-282429600D03*
X148375000Y-283079600D03*
X148375000Y-283729600D03*
X148375000Y-284379600D03*
X148375000Y-285029600D03*
X148375000Y-285679600D03*
X148375000Y-286329600D03*
X148375000Y-286979600D03*
X148375000Y-287629600D03*
%TD*%
D24*
%TO.C,R144*%
X217639200Y-93007573D03*
X218149200Y-92124227D03*
%TD*%
D22*
%TO.C,C50*%
X272190400Y-187020200D03*
X271230400Y-187020200D03*
%TD*%
D42*
%TO.C,R160*%
X124287300Y-100901973D03*
X123777300Y-100018627D03*
%TD*%
D30*
%TO.C,R230*%
X99526273Y-228857200D03*
X98642927Y-229367200D03*
%TD*%
D43*
%TO.C,R191*%
X139720500Y-263608427D03*
X139210500Y-264491773D03*
%TD*%
D13*
%TO.C,C25*%
X69850000Y-213764400D03*
X69850000Y-212804400D03*
%TD*%
D20*
%TO.C,R211*%
X222087500Y-260045427D03*
X222597500Y-260928773D03*
%TD*%
D11*
%TO.C,R90*%
X145172600Y-284835600D03*
X146192600Y-284835600D03*
%TD*%
D13*
%TO.C,C15*%
X70891400Y-243236800D03*
X70891400Y-242276800D03*
%TD*%
D50*
%TO.C,C102*%
X104568100Y-241078687D03*
X103093100Y-238523913D03*
%TD*%
D51*
%TO.C,P9*%
X148860932Y-263484000D03*
D36*
X146661227Y-262214000D03*
X144461523Y-260944000D03*
X142261818Y-259674000D03*
X140062114Y-258404000D03*
X137862409Y-257134000D03*
X135662705Y-255864000D03*
X133463000Y-254594000D03*
X131263295Y-253324000D03*
X129063591Y-252054000D03*
X126863886Y-250784000D03*
X124664182Y-249514000D03*
X122464477Y-248244000D03*
X120264773Y-246974000D03*
X118065068Y-245704000D03*
%TD*%
D24*
%TO.C,R143*%
X215879500Y-91991573D03*
X216389500Y-91108227D03*
%TD*%
D11*
%TO.C,R92*%
X145170600Y-282803600D03*
X146190600Y-282803600D03*
%TD*%
D25*
%TO.C,R36*%
X242544600Y-282934600D03*
X242544600Y-281914600D03*
%TD*%
D31*
%TO.C,C46*%
X77500400Y-212326400D03*
X77500400Y-213286400D03*
%TD*%
D12*
%TO.C,R200*%
X185694400Y-271152000D03*
X185694400Y-272172000D03*
%TD*%
D11*
%TO.C,R56*%
X193437400Y-281567400D03*
X194457400Y-281567400D03*
%TD*%
D52*
%TO.C,P11*%
X237534932Y-245704000D03*
D36*
X235335227Y-246974000D03*
X233135523Y-248244000D03*
X230935818Y-249514000D03*
X228736114Y-250784000D03*
X226536409Y-252054000D03*
X224336705Y-253324000D03*
X222137000Y-254594000D03*
X219937295Y-255864000D03*
X217737591Y-257134000D03*
X215537886Y-258404000D03*
X213338182Y-259674000D03*
X211138477Y-260944000D03*
X208938773Y-262214000D03*
X206739068Y-263484000D03*
%TD*%
D53*
%TO.C,C57*%
X228291400Y-98017208D03*
X227811400Y-98848592D03*
%TD*%
D13*
%TO.C,C84*%
X179247800Y-272114200D03*
X179247800Y-271154200D03*
%TD*%
D12*
%TO.C,R123*%
X73964800Y-212776400D03*
X73964800Y-213796400D03*
%TD*%
%TO.C,R29*%
X268859000Y-278003000D03*
X268859000Y-279023000D03*
%TD*%
D54*
%TO.C,C54*%
X264154592Y-138589700D03*
X263323208Y-139069700D03*
%TD*%
D43*
%TO.C,R197*%
X124041000Y-254606427D03*
X123531000Y-255489773D03*
%TD*%
D28*
%TO.C,R140*%
X261099527Y-135338200D03*
X261982873Y-134828200D03*
%TD*%
D55*
%TO.C,J3*%
X286701000Y-154879000D03*
X286701000Y-153879000D03*
X286701000Y-152879000D03*
X286701000Y-151879000D03*
D56*
X290576000Y-156179000D03*
X290576000Y-150579000D03*
%TD*%
D11*
%TO.C,R110*%
X89527400Y-280804000D03*
X90547400Y-280804000D03*
%TD*%
%TO.C,R132*%
X271170400Y-182676800D03*
X272190400Y-182676800D03*
%TD*%
D12*
%TO.C,R49*%
X272313400Y-235608400D03*
X272313400Y-236628400D03*
%TD*%
%TO.C,R77*%
X286780800Y-218186900D03*
X286780800Y-219206900D03*
%TD*%
D57*
%TO.C,C64*%
X129389100Y-96845408D03*
X129869100Y-97676792D03*
%TD*%
D23*
%TO.C,C94*%
X254934392Y-232980100D03*
X254103008Y-232500100D03*
%TD*%
D22*
%TO.C,C47*%
X272121200Y-168884600D03*
X271161200Y-168884600D03*
%TD*%
D13*
%TO.C,C34*%
X71856600Y-256903200D03*
X71856600Y-255943200D03*
%TD*%
D24*
%TO.C,R145*%
X222338800Y-95728973D03*
X222848800Y-94845627D03*
%TD*%
D46*
%TO.C,U69*%
X129127526Y-263078304D03*
X129950250Y-263553304D03*
X130772974Y-264028304D03*
X131910474Y-262058096D03*
X131087750Y-261583096D03*
X130265026Y-261108096D03*
%TD*%
D38*
%TO.C,U3*%
X221761400Y-287506000D03*
X221761400Y-286856000D03*
X221761400Y-286206000D03*
X221761400Y-285556000D03*
X221761400Y-284906000D03*
X221761400Y-284256000D03*
X221761400Y-283606000D03*
X221761400Y-282956000D03*
X221761400Y-282306000D03*
X221761400Y-281656000D03*
X216036400Y-281656000D03*
X216036400Y-282306000D03*
X216036400Y-282956000D03*
X216036400Y-283606000D03*
X216036400Y-284256000D03*
X216036400Y-284906000D03*
X216036400Y-285556000D03*
X216036400Y-286206000D03*
X216036400Y-286856000D03*
X216036400Y-287506000D03*
%TD*%
D25*
%TO.C,R155*%
X180568600Y-84429600D03*
X180568600Y-83409600D03*
%TD*%
D10*
%TO.C,R217*%
X259871027Y-222338800D03*
X260754373Y-222848800D03*
%TD*%
D13*
%TO.C,C11*%
X281919600Y-189945800D03*
X281919600Y-188985800D03*
%TD*%
D37*
%TO.C,C18*%
X127851800Y-286898000D03*
X128811800Y-286898000D03*
%TD*%
D20*
%TO.C,R210*%
X224824500Y-258435927D03*
X225334500Y-259319273D03*
%TD*%
D11*
%TO.C,R223*%
X271115600Y-172720000D03*
X272135600Y-172720000D03*
%TD*%
D14*
%TO.C,U29*%
X107899200Y-287934400D03*
X107899200Y-286984400D03*
X107899200Y-286034400D03*
X105624200Y-286034400D03*
X105624200Y-286984400D03*
X105624200Y-287934400D03*
%TD*%
D58*
%TO.C,C89*%
X221648200Y-261418192D03*
X221168200Y-260586808D03*
%TD*%
D11*
%TO.C,R40*%
X213410800Y-285699200D03*
X214430800Y-285699200D03*
%TD*%
D37*
%TO.C,C72*%
X83485800Y-179247800D03*
X84445800Y-179247800D03*
%TD*%
D59*
%TO.C,U80*%
X266749704Y-219975074D03*
X267224704Y-219152350D03*
X267699704Y-218329626D03*
X265729496Y-217192126D03*
X265254496Y-218014850D03*
X264779496Y-218837574D03*
%TD*%
D58*
%TO.C,C88*%
X226210900Y-258754592D03*
X225730900Y-257923208D03*
%TD*%
D37*
%TO.C,C20*%
X100223400Y-286950800D03*
X101183400Y-286950800D03*
%TD*%
D12*
%TO.C,R32*%
X252171200Y-284018800D03*
X252171200Y-285038800D03*
%TD*%
D37*
%TO.C,C29*%
X183494800Y-286604200D03*
X184454800Y-286604200D03*
%TD*%
D12*
%TO.C,R69*%
X280903600Y-188931000D03*
X280903600Y-189951000D03*
%TD*%
D14*
%TO.C,U30*%
X107902600Y-284415000D03*
X107902600Y-283465000D03*
X107902600Y-282515000D03*
X105627600Y-282515000D03*
X105627600Y-283465000D03*
X105627600Y-284415000D03*
%TD*%
D31*
%TO.C,C24*%
X71780400Y-223525200D03*
X71780400Y-224485200D03*
%TD*%
D25*
%TO.C,R15*%
X263677400Y-258990600D03*
X263677400Y-257970600D03*
%TD*%
D12*
%TO.C,R23*%
X232664000Y-274773200D03*
X232664000Y-275793200D03*
%TD*%
D30*
%TO.C,R187*%
X95554573Y-222087500D03*
X94671227Y-222597500D03*
%TD*%
D12*
%TO.C,R4*%
X259334000Y-281428000D03*
X259334000Y-282448000D03*
%TD*%
D11*
%TO.C,R100*%
X117257400Y-282732400D03*
X118277400Y-282732400D03*
%TD*%
D16*
%TO.C,R228*%
X94446273Y-135541600D03*
X93562927Y-135031600D03*
%TD*%
D11*
%TO.C,R108*%
X89527400Y-282836000D03*
X90547400Y-282836000D03*
%TD*%
%TO.C,R95*%
X117253400Y-288828400D03*
X118273400Y-288828400D03*
%TD*%
D12*
%TO.C,R122*%
X72898000Y-212776400D03*
X72898000Y-213796400D03*
%TD*%
D60*
%TO.C,C82*%
X122619900Y-254934392D03*
X123099900Y-254103008D03*
%TD*%
D22*
%TO.C,C21*%
X90538200Y-287916000D03*
X89578200Y-287916000D03*
%TD*%
D28*
%TO.C,R138*%
X258435927Y-130775500D03*
X259319273Y-130265500D03*
%TD*%
D22*
%TO.C,C41*%
X104152600Y-283445600D03*
X103192600Y-283445600D03*
%TD*%
D12*
%TO.C,R84*%
X75971400Y-242226000D03*
X75971400Y-243246000D03*
%TD*%
D57*
%TO.C,C66*%
X138589700Y-91445408D03*
X139069700Y-92276792D03*
%TD*%
D25*
%TO.C,R6*%
X242189000Y-266801600D03*
X242189000Y-265781600D03*
%TD*%
D57*
%TO.C,C63*%
X122918500Y-100573208D03*
X123398500Y-101404592D03*
%TD*%
D18*
%TO.C,R182*%
X84378800Y-167513000D03*
X83358800Y-167513000D03*
%TD*%
D11*
%TO.C,R111*%
X89701000Y-270256000D03*
X90721000Y-270256000D03*
%TD*%
%TO.C,R53*%
X193435400Y-284666200D03*
X194455400Y-284666200D03*
%TD*%
D16*
%TO.C,R169*%
X95728973Y-133261200D03*
X94845627Y-132751200D03*
%TD*%
D42*
%TO.C,R166*%
X139998200Y-91751373D03*
X139488200Y-90868027D03*
%TD*%
D53*
%TO.C,C55*%
X217239600Y-91657808D03*
X216759600Y-92489192D03*
%TD*%
D12*
%TO.C,R63*%
X282935600Y-188933000D03*
X282935600Y-189953000D03*
%TD*%
D28*
%TO.C,R224*%
X256073727Y-126742800D03*
X256957073Y-126232800D03*
%TD*%
D14*
%TO.C,U31*%
X107645200Y-269290800D03*
X107645200Y-268340800D03*
X107645200Y-267390800D03*
X105370200Y-267390800D03*
X105370200Y-268340800D03*
X105370200Y-269290800D03*
%TD*%
D11*
%TO.C,R103*%
X89527400Y-288932000D03*
X90547400Y-288932000D03*
%TD*%
%TO.C,R118*%
X89701000Y-262128000D03*
X90721000Y-262128000D03*
%TD*%
%TO.C,R60*%
X173410400Y-283708600D03*
X174430400Y-283708600D03*
%TD*%
D14*
%TO.C,U25*%
X163398200Y-284388600D03*
X163398200Y-283438600D03*
X163398200Y-282488600D03*
X161123200Y-282488600D03*
X161123200Y-283438600D03*
X161123200Y-284388600D03*
%TD*%
D22*
%TO.C,C37*%
X159716000Y-286994600D03*
X158756000Y-286994600D03*
%TD*%
D11*
%TO.C,R128*%
X271152000Y-169905600D03*
X272172000Y-169905600D03*
%TD*%
D12*
%TO.C,R72*%
X281700800Y-218184900D03*
X281700800Y-219204900D03*
%TD*%
%TO.C,R22*%
X235051600Y-274011200D03*
X235051600Y-275031200D03*
%TD*%
D11*
%TO.C,R97*%
X117257400Y-285780400D03*
X118277400Y-285780400D03*
%TD*%
D17*
%TO.C,C70*%
X100665608Y-122619900D03*
X101496992Y-123099900D03*
%TD*%
D11*
%TO.C,R89*%
X145170600Y-285851600D03*
X146190600Y-285851600D03*
%TD*%
%TO.C,R116*%
X89697000Y-264160000D03*
X90717000Y-264160000D03*
%TD*%
D29*
%TO.C,H3*%
X279400000Y-279400000D03*
%TD*%
D39*
%TO.C,U77*%
X227317026Y-262590704D03*
X228139750Y-262115704D03*
X228962474Y-261640704D03*
X227824974Y-259670496D03*
X227002250Y-260145496D03*
X226179526Y-260620496D03*
%TD*%
D11*
%TO.C,R115*%
X89701000Y-265176000D03*
X90721000Y-265176000D03*
%TD*%
D13*
%TO.C,C83*%
X186715400Y-272121200D03*
X186715400Y-271161200D03*
%TD*%
D25*
%TO.C,R38*%
X235331000Y-285550800D03*
X235331000Y-284530800D03*
%TD*%
D29*
%TO.C,H4*%
X76200000Y-279400000D03*
%TD*%
D13*
%TO.C,C86*%
X168579800Y-272190400D03*
X168579800Y-271230400D03*
%TD*%
D14*
%TO.C,U17*%
X206232000Y-285778800D03*
X206232000Y-284828800D03*
X206232000Y-283878800D03*
X203957000Y-283878800D03*
X203957000Y-285778800D03*
%TD*%
D19*
%TO.C,U16*%
X269697200Y-248399000D03*
X270647200Y-248399000D03*
X271597200Y-248399000D03*
X271597200Y-246124000D03*
X269697200Y-246124000D03*
%TD*%
D22*
%TO.C,C1*%
X251559000Y-260110200D03*
X250599000Y-260110200D03*
%TD*%
D61*
%TO.C,U41*%
X262590704Y-128282974D03*
X262115704Y-127460250D03*
X261640704Y-126637526D03*
X259670496Y-127775026D03*
X260145496Y-128597750D03*
X260620496Y-129420474D03*
%TD*%
D25*
%TO.C,R18*%
X249351800Y-264185400D03*
X249351800Y-263165400D03*
%TD*%
D11*
%TO.C,R88*%
X145170600Y-286867600D03*
X146190600Y-286867600D03*
%TD*%
D14*
%TO.C,U32*%
X107645200Y-265806000D03*
X107645200Y-264856000D03*
X107645200Y-263906000D03*
X105370200Y-263906000D03*
X105370200Y-264856000D03*
X105370200Y-265806000D03*
%TD*%
D25*
%TO.C,R12*%
X270840200Y-256413000D03*
X270840200Y-255393000D03*
%TD*%
D21*
%TO.C,U46*%
X231030174Y-95153096D03*
X230207450Y-94678096D03*
X229384726Y-94203096D03*
X228247226Y-96173304D03*
X229069950Y-96648304D03*
X229892674Y-97123304D03*
%TD*%
D48*
%TO.C,U58*%
X95153096Y-124569826D03*
X94678096Y-125392550D03*
X94203096Y-126215274D03*
X96173304Y-127352774D03*
X96648304Y-126530050D03*
X97123304Y-125707326D03*
%TD*%
D32*
%TO.C,J1*%
X287096200Y-87706200D03*
D33*
X289102800Y-92202000D03*
D32*
X287096200Y-96697800D03*
D34*
X280111200Y-92202000D03*
D32*
X286105600Y-92202000D03*
%TD*%
D18*
%TO.C,R25*%
X283214000Y-267843000D03*
X282194000Y-267843000D03*
%TD*%
D22*
%TO.C,C36*%
X159644800Y-283423400D03*
X158684800Y-283423400D03*
%TD*%
D43*
%TO.C,R196*%
X126891400Y-256222727D03*
X126381400Y-257106073D03*
%TD*%
D12*
%TO.C,R73*%
X282716800Y-218184900D03*
X282716800Y-219204900D03*
%TD*%
D13*
%TO.C,C13*%
X280684800Y-219174900D03*
X280684800Y-218214900D03*
%TD*%
D11*
%TO.C,R58*%
X173404400Y-285791400D03*
X174424400Y-285791400D03*
%TD*%
D22*
%TO.C,C49*%
X272139600Y-181635400D03*
X271179600Y-181635400D03*
%TD*%
D26*
%TO.C,U35*%
X78435200Y-208562000D03*
X77485200Y-208562000D03*
X76535200Y-208562000D03*
X76535200Y-210837000D03*
X77485200Y-210837000D03*
X78435200Y-210837000D03*
%TD*%
D11*
%TO.C,R87*%
X145170600Y-288899600D03*
X146190600Y-288899600D03*
%TD*%
D25*
%TO.C,R126*%
X76911200Y-224818000D03*
X76911200Y-223798000D03*
%TD*%
D24*
%TO.C,R146*%
X224120500Y-96757673D03*
X224630500Y-95874327D03*
%TD*%
D20*
%TO.C,R209*%
X226606200Y-257407227D03*
X227116200Y-258290573D03*
%TD*%
D12*
%TO.C,R71*%
X279668800Y-218184900D03*
X279668800Y-219204900D03*
%TD*%
D15*
%TO.C,U61*%
X79610600Y-178287600D03*
X79610600Y-179237600D03*
X79610600Y-180187600D03*
X81885600Y-180187600D03*
X81885600Y-179237600D03*
X81885600Y-178287600D03*
%TD*%
D62*
%TO.C,C99*%
X114521313Y-104568100D03*
X117076087Y-103093100D03*
%TD*%
D37*
%TO.C,C28*%
X203505000Y-287104600D03*
X204465000Y-287104600D03*
%TD*%
D11*
%TO.C,R104*%
X89527400Y-286900000D03*
X90547400Y-286900000D03*
%TD*%
D63*
%TO.C,P5*%
X118065068Y-109896000D03*
D36*
X120264773Y-108626000D03*
X122464477Y-107356000D03*
X124664182Y-106086000D03*
X126863886Y-104816000D03*
X129063591Y-103546000D03*
X131263295Y-102276000D03*
X133463000Y-101006000D03*
X135662705Y-99736000D03*
X137862409Y-98466000D03*
X140062114Y-97196000D03*
X142261818Y-95926000D03*
X144461523Y-94656000D03*
X146661227Y-93386000D03*
X148860932Y-92116000D03*
%TD*%
D64*
%TO.C,U65*%
X93009296Y-227317026D03*
X93484296Y-228139750D03*
X93959296Y-228962474D03*
X95929504Y-227824974D03*
X95454504Y-227002250D03*
X94979504Y-226179526D03*
%TD*%
D25*
%TO.C,R3*%
X237769400Y-284687200D03*
X237769400Y-283667200D03*
%TD*%
D65*
%TO.C,C105*%
X241078687Y-251031900D03*
X238523913Y-252506900D03*
%TD*%
D37*
%TO.C,C16*%
X155695400Y-286969200D03*
X156655400Y-286969200D03*
%TD*%
D54*
%TO.C,C51*%
X255026792Y-122918400D03*
X254195408Y-123398400D03*
%TD*%
D12*
%TO.C,R45*%
X267131800Y-235633800D03*
X267131800Y-236653800D03*
%TD*%
D19*
%TO.C,U74*%
X173024800Y-275989400D03*
X173974800Y-275989400D03*
X174924800Y-275989400D03*
X174924800Y-273714400D03*
X173974800Y-273714400D03*
X173024800Y-273714400D03*
%TD*%
D37*
%TO.C,C22*%
X100221800Y-268325600D03*
X101181800Y-268325600D03*
%TD*%
D14*
%TO.C,U27*%
X135410700Y-287900800D03*
X135410700Y-286950800D03*
X135410700Y-286000800D03*
X133135700Y-286000800D03*
X133135700Y-286950800D03*
X133135700Y-287900800D03*
%TD*%
D66*
%TO.C,U14*%
X71140800Y-222008600D03*
X71790800Y-222008600D03*
X72440800Y-222008600D03*
X73090800Y-222008600D03*
X73740800Y-222008600D03*
X74390800Y-222008600D03*
X75040800Y-222008600D03*
X75690800Y-222008600D03*
X76340800Y-222008600D03*
X76990800Y-222008600D03*
X76990800Y-216283600D03*
X76340800Y-216283600D03*
X75690800Y-216283600D03*
X75040800Y-216283600D03*
X74390800Y-216283600D03*
X73740800Y-216283600D03*
X73090800Y-216283600D03*
X72440800Y-216283600D03*
X71790800Y-216283600D03*
X71140800Y-216283600D03*
%TD*%
D25*
%TO.C,R158*%
X188087000Y-84378800D03*
X188087000Y-83358800D03*
%TD*%
D30*
%TO.C,R188*%
X94500473Y-220261800D03*
X93617127Y-220771800D03*
%TD*%
D58*
%TO.C,C90*%
X217010300Y-264154592D03*
X216530300Y-263323208D03*
%TD*%
D12*
%TO.C,R21*%
X237490000Y-273147600D03*
X237490000Y-274167600D03*
%TD*%
D41*
%TO.C,C75*%
X100573208Y-232681500D03*
X101404592Y-232201500D03*
%TD*%
D16*
%TO.C,R174*%
X102038373Y-122180600D03*
X101155027Y-121670600D03*
%TD*%
D12*
%TO.C,R199*%
X187726400Y-271152000D03*
X187726400Y-272172000D03*
%TD*%
D54*
%TO.C,C53*%
X261418192Y-133951800D03*
X260586808Y-134431800D03*
%TD*%
D19*
%TO.C,U24*%
X74447400Y-260604000D03*
X75397400Y-260604000D03*
X76347400Y-260604000D03*
X76347400Y-258329000D03*
X75397400Y-258329000D03*
X74447400Y-258329000D03*
%TD*%
D35*
%TO.C,P4*%
X160020000Y-89126000D03*
D36*
X162560000Y-89126000D03*
X165100000Y-89126000D03*
X167640000Y-89126000D03*
X170180000Y-89126000D03*
X172720000Y-89126000D03*
X175260000Y-89126000D03*
X177800000Y-89126000D03*
X180340000Y-89126000D03*
X182880000Y-89126000D03*
X185420000Y-89126000D03*
X187960000Y-89126000D03*
X190500000Y-89126000D03*
X193040000Y-89126000D03*
X195580000Y-89126000D03*
%TD*%
D12*
%TO.C,R1*%
X73990200Y-202103800D03*
X73990200Y-203123800D03*
%TD*%
D43*
%TO.C,R195*%
X128717100Y-257276827D03*
X128207100Y-258160173D03*
%TD*%
D13*
%TO.C,C45*%
X75285600Y-227962400D03*
X75285600Y-227002400D03*
%TD*%
D18*
%TO.C,R28*%
X275996400Y-270611600D03*
X274976400Y-270611600D03*
%TD*%
D11*
%TO.C,R51*%
X193439400Y-287714200D03*
X194459400Y-287714200D03*
%TD*%
D13*
%TO.C,C85*%
X173964600Y-272139600D03*
X173964600Y-271179600D03*
%TD*%
D18*
%TO.C,R175*%
X84448000Y-187726400D03*
X83428000Y-187726400D03*
%TD*%
D12*
%TO.C,R205*%
X169646600Y-271195800D03*
X169646600Y-272215800D03*
%TD*%
%TO.C,R64*%
X283951600Y-188933000D03*
X283951600Y-189953000D03*
%TD*%
D31*
%TO.C,C4*%
X267284200Y-245616000D03*
X267284200Y-246576000D03*
%TD*%
D12*
%TO.C,R79*%
X69875400Y-242224000D03*
X69875400Y-243244000D03*
%TD*%
%TO.C,R47*%
X270230600Y-235612400D03*
X270230600Y-236632400D03*
%TD*%
D10*
%TO.C,R221*%
X254606427Y-231559000D03*
X255489773Y-232069000D03*
%TD*%
D59*
%TO.C,U81*%
X263078304Y-226472474D03*
X263553304Y-225649750D03*
X264028304Y-224827026D03*
X262058096Y-223689526D03*
X261583096Y-224512250D03*
X261108096Y-225334974D03*
%TD*%
D16*
%TO.C,R167*%
X91991573Y-139720500D03*
X91108227Y-139210500D03*
%TD*%
D31*
%TO.C,C14*%
X71856600Y-252793600D03*
X71856600Y-253753600D03*
%TD*%
D48*
%TO.C,U57*%
X92521696Y-129127526D03*
X92046696Y-129950250D03*
X91571696Y-130772974D03*
X93541904Y-131910474D03*
X94016904Y-131087750D03*
X94491904Y-130265026D03*
%TD*%
D11*
%TO.C,R130*%
X271145000Y-177393600D03*
X272165000Y-177393600D03*
%TD*%
D25*
%TO.C,R13*%
X268478000Y-257225800D03*
X268478000Y-256205800D03*
%TD*%
D12*
%TO.C,R232*%
X182880000Y-271115600D03*
X182880000Y-272135600D03*
%TD*%
D14*
%TO.C,U39*%
X275989400Y-187980400D03*
X275989400Y-187030400D03*
X275989400Y-186080400D03*
X273714400Y-186080400D03*
X273714400Y-187030400D03*
X273714400Y-187980400D03*
%TD*%
D19*
%TO.C,U75*%
X167619600Y-275989400D03*
X168569600Y-275989400D03*
X169519600Y-275989400D03*
X169519600Y-273714400D03*
X168569600Y-273714400D03*
X167619600Y-273714400D03*
%TD*%
D21*
%TO.C,U44*%
X219975074Y-88850296D03*
X219152350Y-88375296D03*
X218329626Y-87900296D03*
X217192126Y-89870504D03*
X218014850Y-90345504D03*
X218837574Y-90820504D03*
%TD*%
D11*
%TO.C,R57*%
X173409600Y-287823400D03*
X174429600Y-287823400D03*
%TD*%
%TO.C,R106*%
X89527400Y-284868000D03*
X90547400Y-284868000D03*
%TD*%
D48*
%TO.C,U59*%
X97855696Y-119888826D03*
X97380696Y-120711550D03*
X96905696Y-121534274D03*
X98875904Y-122671774D03*
X99350904Y-121849050D03*
X99825904Y-121026326D03*
%TD*%
D31*
%TO.C,C62*%
X187020200Y-83409600D03*
X187020200Y-84369600D03*
%TD*%
D67*
%TO.C,C95*%
X272860000Y-159615000D03*
X272860000Y-162565000D03*
%TD*%
D68*
%TO.C,C96*%
X251031900Y-114521313D03*
X252506900Y-117076087D03*
%TD*%
D69*
%TO.C,U1*%
X285152628Y-253394534D03*
D36*
X282765809Y-254263265D03*
X280378989Y-255131996D03*
X277992170Y-256000727D03*
X275605351Y-256869458D03*
X273218532Y-257738190D03*
X270831712Y-258606921D03*
X268444893Y-259475652D03*
X266058074Y-260344383D03*
X263671255Y-261213114D03*
X261284435Y-262081845D03*
X258897616Y-262950577D03*
X256510797Y-263819308D03*
X254123978Y-264688039D03*
X251737158Y-265556770D03*
X249350339Y-266425501D03*
X246963520Y-267294232D03*
X244576701Y-268162964D03*
X242189881Y-269031695D03*
X239803062Y-269900426D03*
X237416243Y-270769157D03*
X235029425Y-271637888D03*
X232642604Y-272506619D03*
X230255785Y-273375351D03*
X235468172Y-287696266D03*
X237854991Y-286827535D03*
X240241811Y-285958804D03*
X242628630Y-285090073D03*
X245015449Y-284221342D03*
X247402268Y-283352610D03*
X249789088Y-282483879D03*
X252175907Y-281615148D03*
X254562726Y-280746417D03*
X256949545Y-279877686D03*
X259336365Y-279008955D03*
X261723184Y-278140223D03*
X264110003Y-277271492D03*
X266496822Y-276402761D03*
X268883642Y-275534030D03*
X271270461Y-274665299D03*
X273657280Y-273796568D03*
X276044099Y-272927836D03*
X278430919Y-272059105D03*
X280817738Y-271190374D03*
X283204557Y-270321643D03*
X285591375Y-269452912D03*
X287978196Y-268584181D03*
X290365015Y-267715449D03*
%TD*%
D66*
%TO.C,U4*%
X267396200Y-243898800D03*
X268046200Y-243898800D03*
X268696200Y-243898800D03*
X269346200Y-243898800D03*
X269996200Y-243898800D03*
X270646200Y-243898800D03*
X271296200Y-243898800D03*
X271946200Y-243898800D03*
X272596200Y-243898800D03*
X273246200Y-243898800D03*
X273246200Y-238173800D03*
X272596200Y-238173800D03*
X271946200Y-238173800D03*
X271296200Y-238173800D03*
X270646200Y-238173800D03*
X269996200Y-238173800D03*
X269346200Y-238173800D03*
X268696200Y-238173800D03*
X268046200Y-238173800D03*
X267396200Y-238173800D03*
%TD*%
D21*
%TO.C,U47*%
X235711174Y-97855696D03*
X234888450Y-97380696D03*
X234065726Y-96905696D03*
X232928226Y-98875904D03*
X233750950Y-99350904D03*
X234573674Y-99825904D03*
%TD*%
D35*
%TO.C,P1*%
X266474000Y-160020000D03*
D36*
X266474000Y-162560000D03*
X266474000Y-165100000D03*
X266474000Y-167640000D03*
X266474000Y-170180000D03*
X266474000Y-172720000D03*
X266474000Y-175260000D03*
X266474000Y-177800000D03*
X266474000Y-180340000D03*
X266474000Y-182880000D03*
X266474000Y-185420000D03*
X266474000Y-187960000D03*
X266474000Y-190500000D03*
X266474000Y-193040000D03*
X266474000Y-195580000D03*
%TD*%
D12*
%TO.C,R66*%
X286034400Y-188931000D03*
X286034400Y-189951000D03*
%TD*%
D59*
%TO.C,U83*%
X257744304Y-235711174D03*
X258219304Y-234888450D03*
X258694304Y-234065726D03*
X256724096Y-232928226D03*
X256249096Y-233750950D03*
X255774096Y-234573674D03*
%TD*%
D18*
%TO.C,R26*%
X280797000Y-268732000D03*
X279777000Y-268732000D03*
%TD*%
D46*
%TO.C,U68*%
X135624926Y-266749704D03*
X136447650Y-267224704D03*
X137270374Y-267699704D03*
X138407874Y-265729496D03*
X137585150Y-265254496D03*
X136762426Y-264779496D03*
%TD*%
D39*
%TO.C,U78*%
X222759226Y-265222104D03*
X223581950Y-264747104D03*
X224404674Y-264272104D03*
X223267174Y-262301896D03*
X222444450Y-262776896D03*
X221621726Y-263251896D03*
%TD*%
D43*
%TO.C,R198*%
X122180600Y-253561627D03*
X121670600Y-254444973D03*
%TD*%
D25*
%TO.C,R7*%
X244551200Y-265963400D03*
X244551200Y-264943400D03*
%TD*%
D13*
%TO.C,C32*%
X281802400Y-232812100D03*
X281802400Y-231852100D03*
%TD*%
D30*
%TO.C,R186*%
X97164073Y-224824500D03*
X96280727Y-225334500D03*
%TD*%
D66*
%TO.C,U7*%
X282298600Y-197782300D03*
X282948600Y-197782300D03*
X283598600Y-197782300D03*
X284248600Y-197782300D03*
X284898600Y-197782300D03*
X285548600Y-197782300D03*
X286198600Y-197782300D03*
X286848600Y-197782300D03*
X287498600Y-197782300D03*
X288148600Y-197782300D03*
X288148600Y-192057300D03*
X287498600Y-192057300D03*
X286848600Y-192057300D03*
X286198600Y-192057300D03*
X285548600Y-192057300D03*
X284898600Y-192057300D03*
X284248600Y-192057300D03*
X283598600Y-192057300D03*
X282948600Y-192057300D03*
X282298600Y-192057300D03*
%TD*%
D18*
%TO.C,R27*%
X278384000Y-269748000D03*
X277364000Y-269748000D03*
%TD*%
D22*
%TO.C,C17*%
X146185400Y-287883600D03*
X145225400Y-287883600D03*
%TD*%
D25*
%TO.C,R14*%
X266065000Y-258114800D03*
X266065000Y-257094800D03*
%TD*%
D11*
%TO.C,R59*%
X173406400Y-284775400D03*
X174426400Y-284775400D03*
%TD*%
D23*
%TO.C,C92*%
X260202392Y-223703300D03*
X259371008Y-223223300D03*
%TD*%
D11*
%TO.C,R129*%
X271145000Y-175336200D03*
X272165000Y-175336200D03*
%TD*%
D70*
%TO.C,P6*%
X92116000Y-148860932D03*
D36*
X93386000Y-146661227D03*
X94656000Y-144461523D03*
X95926000Y-142261818D03*
X97196000Y-140062114D03*
X98466000Y-137862409D03*
X99736000Y-135662705D03*
X101006000Y-133463000D03*
X102276000Y-131263295D03*
X103546000Y-129063591D03*
X104816000Y-126863886D03*
X106086000Y-124664182D03*
X107356000Y-122464477D03*
X108626000Y-120264773D03*
X109896000Y-118065068D03*
%TD*%
D11*
%TO.C,R61*%
X173408400Y-282641800D03*
X174428400Y-282641800D03*
%TD*%
D25*
%TO.C,R37*%
X240131600Y-283747400D03*
X240131600Y-282727400D03*
%TD*%
D11*
%TO.C,R93*%
X145170600Y-281787600D03*
X146190600Y-281787600D03*
%TD*%
D12*
%TO.C,R78*%
X287796800Y-218186900D03*
X287796800Y-219206900D03*
%TD*%
D11*
%TO.C,R101*%
X117255400Y-281716400D03*
X118275400Y-281716400D03*
%TD*%
D22*
%TO.C,C42*%
X103942600Y-268325600D03*
X102982600Y-268325600D03*
%TD*%
D42*
%TO.C,R165*%
X138163200Y-92840173D03*
X137653200Y-91956827D03*
%TD*%
D20*
%TO.C,R213*%
X217436800Y-262759827D03*
X217946800Y-263643173D03*
%TD*%
D13*
%TO.C,C35*%
X75412600Y-256898000D03*
X75412600Y-255938000D03*
%TD*%
D19*
%TO.C,U23*%
X70916800Y-260604000D03*
X71866800Y-260604000D03*
X72816800Y-260604000D03*
X72816800Y-258329000D03*
X71866800Y-258329000D03*
X70916800Y-258329000D03*
%TD*%
D30*
%TO.C,R190*%
X91751373Y-215601800D03*
X90868027Y-216111800D03*
%TD*%
D26*
%TO.C,U50*%
X182575200Y-79610600D03*
X181625200Y-79610600D03*
X180675200Y-79610600D03*
X180675200Y-81885600D03*
X181625200Y-81885600D03*
X182575200Y-81885600D03*
%TD*%
D16*
%TO.C,R172*%
X99377273Y-126891400D03*
X98493927Y-126381400D03*
%TD*%
D12*
%TO.C,R76*%
X285764800Y-218186900D03*
X285764800Y-219206900D03*
%TD*%
%TO.C,R33*%
X249834400Y-284882400D03*
X249834400Y-285902400D03*
%TD*%
D37*
%TO.C,C6*%
X203477000Y-288120600D03*
X204437000Y-288120600D03*
%TD*%
D60*
%TO.C,C80*%
X131896700Y-260202392D03*
X132376700Y-259371008D03*
%TD*%
D41*
%TO.C,C78*%
X91445408Y-217010300D03*
X92276792Y-216530300D03*
%TD*%
D71*
%TO.C,P8*%
X109896000Y-237534932D03*
D36*
X108626000Y-235335227D03*
X107356000Y-233135523D03*
X106086000Y-230935818D03*
X104816000Y-228736114D03*
X103546000Y-226536409D03*
X102276000Y-224336705D03*
X101006000Y-222137000D03*
X99736000Y-219937295D03*
X98466000Y-217737591D03*
X97196000Y-215537886D03*
X95926000Y-213338182D03*
X94656000Y-211138477D03*
X93386000Y-208938773D03*
X92116000Y-206739068D03*
%TD*%
D11*
%TO.C,R96*%
X117257400Y-286796400D03*
X118277400Y-286796400D03*
%TD*%
%TO.C,R114*%
X89699000Y-266192000D03*
X90719000Y-266192000D03*
%TD*%
D19*
%TO.C,U19*%
X281954800Y-206895300D03*
X282904800Y-206895300D03*
X283854800Y-206895300D03*
X283854800Y-204620300D03*
X282904800Y-204620300D03*
X281954800Y-204620300D03*
%TD*%
D12*
%TO.C,R83*%
X74955400Y-242226000D03*
X74955400Y-243246000D03*
%TD*%
D53*
%TO.C,C58*%
X232980100Y-100665608D03*
X232500100Y-101496992D03*
%TD*%
D19*
%TO.C,U73*%
X178287600Y-275989400D03*
X179237600Y-275989400D03*
X180187600Y-275989400D03*
X180187600Y-273714400D03*
X179237600Y-273714400D03*
X178287600Y-273714400D03*
%TD*%
D11*
%TO.C,R98*%
X117257400Y-284764400D03*
X118277400Y-284764400D03*
%TD*%
%TO.C,R99*%
X117257400Y-283748400D03*
X118277400Y-283748400D03*
%TD*%
D12*
%TO.C,R67*%
X287050400Y-188931000D03*
X287050400Y-189951000D03*
%TD*%
%TO.C,R119*%
X68834000Y-212774400D03*
X68834000Y-213794400D03*
%TD*%
D60*
%TO.C,C81*%
X127308600Y-257582792D03*
X127788600Y-256751408D03*
%TD*%
D12*
%TO.C,R30*%
X266496800Y-278765000D03*
X266496800Y-279785000D03*
%TD*%
D38*
%TO.C,U12*%
X98706800Y-287611200D03*
X98706800Y-286961200D03*
X98706800Y-286311200D03*
X98706800Y-285661200D03*
X98706800Y-285011200D03*
X98706800Y-284361200D03*
X98706800Y-283711200D03*
X98706800Y-283061200D03*
X98706800Y-282411200D03*
X98706800Y-281761200D03*
X92981800Y-281761200D03*
X92981800Y-282411200D03*
X92981800Y-283061200D03*
X92981800Y-283711200D03*
X92981800Y-284361200D03*
X92981800Y-285011200D03*
X92981800Y-285661200D03*
X92981800Y-286311200D03*
X92981800Y-286961200D03*
X92981800Y-287611200D03*
%TD*%
D29*
%TO.C,H2*%
X279400000Y-76200000D03*
%TD*%
D25*
%TO.C,R16*%
X261315200Y-259867400D03*
X261315200Y-258847400D03*
%TD*%
D18*
%TO.C,R229*%
X84484400Y-182880000D03*
X83464400Y-182880000D03*
%TD*%
D12*
%TO.C,R202*%
X178206400Y-271145000D03*
X178206400Y-272165000D03*
%TD*%
D11*
%TO.C,R41*%
X213408800Y-284657800D03*
X214428800Y-284657800D03*
%TD*%
D19*
%TO.C,U72*%
X185750200Y-275920200D03*
X186700200Y-275920200D03*
X187650200Y-275920200D03*
X187650200Y-273645200D03*
X186700200Y-273645200D03*
X185750200Y-273645200D03*
%TD*%
D24*
%TO.C,R149*%
X231559000Y-100993573D03*
X232069000Y-100110227D03*
%TD*%
D25*
%TO.C,R19*%
X246989600Y-265049000D03*
X246989600Y-264029000D03*
%TD*%
%TO.C,R35*%
X244729000Y-282119800D03*
X244729000Y-281099800D03*
%TD*%
D12*
%TO.C,R121*%
X71882000Y-212774400D03*
X71882000Y-213794400D03*
%TD*%
D22*
%TO.C,C43*%
X103869000Y-264871200D03*
X102909000Y-264871200D03*
%TD*%
D11*
%TO.C,R109*%
X89527400Y-281820000D03*
X90547400Y-281820000D03*
%TD*%
D42*
%TO.C,R227*%
X126742800Y-99526273D03*
X126232800Y-98642927D03*
%TD*%
D64*
%TO.C,U64*%
X96800496Y-233745126D03*
X97275496Y-234567850D03*
X97750496Y-235390574D03*
X99720704Y-234253074D03*
X99245704Y-233430350D03*
X98770704Y-232607626D03*
%TD*%
D25*
%TO.C,R156*%
X182676800Y-84429600D03*
X182676800Y-83409600D03*
%TD*%
D61*
%TO.C,U42*%
X265222104Y-132840774D03*
X264747104Y-132018050D03*
X264272104Y-131195326D03*
X262301896Y-132332826D03*
X262776896Y-133155550D03*
X263251896Y-133978274D03*
%TD*%
D11*
%TO.C,R102*%
X117257400Y-280700400D03*
X118277400Y-280700400D03*
%TD*%
D25*
%TO.C,R34*%
X247294400Y-281436000D03*
X247294400Y-280416000D03*
%TD*%
%TO.C,R17*%
X258927600Y-260705600D03*
X258927600Y-259685600D03*
%TD*%
D31*
%TO.C,C27*%
X268351000Y-245641400D03*
X268351000Y-246601400D03*
%TD*%
D61*
%TO.C,U43*%
X267924704Y-137521774D03*
X267449704Y-136699050D03*
X266974704Y-135876326D03*
X265004496Y-137013826D03*
X265479496Y-137836550D03*
X265954496Y-138659274D03*
%TD*%
D12*
%TO.C,R20*%
X239826800Y-272540000D03*
X239826800Y-273560000D03*
%TD*%
D14*
%TO.C,U15*%
X226271600Y-285216600D03*
X226271600Y-284266600D03*
X226271600Y-283316600D03*
X223996600Y-283316600D03*
X223996600Y-285216600D03*
%TD*%
D25*
%TO.C,R11*%
X273202400Y-255549400D03*
X273202400Y-254529400D03*
%TD*%
D16*
%TO.C,R170*%
X96757673Y-131479500D03*
X95874327Y-130969500D03*
%TD*%
D43*
%TO.C,R192*%
X137960800Y-262592427D03*
X137450800Y-263475773D03*
%TD*%
D12*
%TO.C,R120*%
X70866000Y-212774400D03*
X70866000Y-213794400D03*
%TD*%
%TO.C,R65*%
X285018400Y-188933000D03*
X285018400Y-189953000D03*
%TD*%
D64*
%TO.C,U66*%
X90377896Y-222759226D03*
X90852896Y-223581950D03*
X91327896Y-224404674D03*
X93298104Y-223267174D03*
X92823104Y-222444450D03*
X92348104Y-221621726D03*
%TD*%
D22*
%TO.C,C23*%
X90711800Y-269240000D03*
X89751800Y-269240000D03*
%TD*%
D49*
%TO.C,U55*%
X137521774Y-87675296D03*
X136699050Y-88150296D03*
X135876326Y-88625296D03*
X137013826Y-90595504D03*
X137836550Y-90120504D03*
X138659274Y-89645504D03*
%TD*%
D25*
%TO.C,R125*%
X75895200Y-224818000D03*
X75895200Y-223798000D03*
%TD*%
D46*
%TO.C,U71*%
X119888826Y-257744304D03*
X120711550Y-258219304D03*
X121534274Y-258694304D03*
X122671774Y-256724096D03*
X121849050Y-256249096D03*
X121026326Y-255774096D03*
%TD*%
D11*
%TO.C,R113*%
X89701000Y-267208000D03*
X90721000Y-267208000D03*
%TD*%
D22*
%TO.C,C3*%
X214426200Y-286715200D03*
X213466200Y-286715200D03*
%TD*%
D25*
%TO.C,R5*%
X256565400Y-261620000D03*
X256565400Y-260600000D03*
%TD*%
D22*
%TO.C,C9*%
X174424400Y-286807400D03*
X173464400Y-286807400D03*
%TD*%
D31*
%TO.C,C59*%
X168884600Y-83478800D03*
X168884600Y-84438800D03*
%TD*%
D18*
%TO.C,R24*%
X227842000Y-274066000D03*
X226822000Y-274066000D03*
%TD*%
D12*
%TO.C,R81*%
X72923400Y-242226000D03*
X72923400Y-243246000D03*
%TD*%
D11*
%TO.C,R112*%
X89699000Y-268224000D03*
X90719000Y-268224000D03*
%TD*%
D28*
%TO.C,R142*%
X263848627Y-139998200D03*
X264731973Y-139488200D03*
%TD*%
D11*
%TO.C,R94*%
X145170600Y-280771600D03*
X146190600Y-280771600D03*
%TD*%
D72*
%TO.C,C100*%
X86383100Y-146018687D03*
X87858100Y-143463913D03*
%TD*%
D37*
%TO.C,C71*%
X83478800Y-186715400D03*
X84438800Y-186715400D03*
%TD*%
D12*
%TO.C,R204*%
X172923200Y-271170400D03*
X172923200Y-272190400D03*
%TD*%
D17*
%TO.C,C68*%
X95397608Y-131896700D03*
X96228992Y-132376700D03*
%TD*%
D31*
%TO.C,C10*%
X282935600Y-199401000D03*
X282935600Y-200361000D03*
%TD*%
D24*
%TO.C,R225*%
X220058400Y-94446273D03*
X220568400Y-93562927D03*
%TD*%
D25*
%TO.C,R154*%
X177393600Y-84455000D03*
X177393600Y-83435000D03*
%TD*%
D41*
%TO.C,C77*%
X94181808Y-221648200D03*
X95013192Y-221168200D03*
%TD*%
D18*
%TO.C,R176*%
X84448000Y-185694400D03*
X83428000Y-185694400D03*
%TD*%
D11*
%TO.C,R134*%
X271221200Y-188087000D03*
X272241200Y-188087000D03*
%TD*%
D26*
%TO.C,U51*%
X187980400Y-79610600D03*
X187030400Y-79610600D03*
X186080400Y-79610600D03*
X186080400Y-81885600D03*
X187030400Y-81885600D03*
X187980400Y-81885600D03*
%TD*%
D58*
%TO.C,C87*%
X232681500Y-255026792D03*
X232201500Y-254195408D03*
%TD*%
D37*
%TO.C,C8*%
X183494800Y-287620200D03*
X184454800Y-287620200D03*
%TD*%
D18*
%TO.C,R178*%
X84455000Y-178206400D03*
X83435000Y-178206400D03*
%TD*%
D64*
%TO.C,U67*%
X87675296Y-218078226D03*
X88150296Y-218900950D03*
X88625296Y-219723674D03*
X90595504Y-218586174D03*
X90120504Y-217763450D03*
X89645504Y-216940726D03*
%TD*%
D66*
%TO.C,U8*%
X281163400Y-227196200D03*
X281813400Y-227196200D03*
X282463400Y-227196200D03*
X283113400Y-227196200D03*
X283763400Y-227196200D03*
X284413400Y-227196200D03*
X285063400Y-227196200D03*
X285713400Y-227196200D03*
X286363400Y-227196200D03*
X287013400Y-227196200D03*
X287013400Y-221471200D03*
X286363400Y-221471200D03*
X285713400Y-221471200D03*
X285063400Y-221471200D03*
X284413400Y-221471200D03*
X283763400Y-221471200D03*
X283113400Y-221471200D03*
X282463400Y-221471200D03*
X281813400Y-221471200D03*
X281163400Y-221471200D03*
%TD*%
D10*
%TO.C,R218*%
X258842327Y-224120500D03*
X259725673Y-224630500D03*
%TD*%
D19*
%TO.C,U22*%
X280837600Y-236524800D03*
X281787600Y-236524800D03*
X282737600Y-236524800D03*
X282737600Y-234249800D03*
X281787600Y-234249800D03*
X280837600Y-234249800D03*
%TD*%
D22*
%TO.C,C38*%
X131668400Y-286918400D03*
X130708400Y-286918400D03*
%TD*%
D30*
%TO.C,R185*%
X98192773Y-226606200D03*
X97309427Y-227116200D03*
%TD*%
D42*
%TO.C,R164*%
X135338200Y-94500473D03*
X134828200Y-93617127D03*
%TD*%
D61*
%TO.C,U40*%
X258799504Y-121854774D03*
X258324504Y-121032050D03*
X257849504Y-120209326D03*
X255879296Y-121346826D03*
X256354296Y-122169550D03*
X256829296Y-122992274D03*
%TD*%
D13*
%TO.C,C33*%
X285369000Y-232812100D03*
X285369000Y-231852100D03*
%TD*%
D73*
%TO.C,P2*%
X245704000Y-118065068D03*
D36*
X246974000Y-120264773D03*
X248244000Y-122464477D03*
X249514000Y-124664182D03*
X250784000Y-126863886D03*
X252054000Y-129063591D03*
X253324000Y-131263295D03*
X254594000Y-133463000D03*
X255864000Y-135662705D03*
X257134000Y-137862409D03*
X258404000Y-140062114D03*
X259674000Y-142261818D03*
X260944000Y-144461523D03*
X262214000Y-146661227D03*
X263484000Y-148860932D03*
%TD*%
D74*
%TO.C,C104*%
X195985000Y-272860000D03*
X193035000Y-272860000D03*
%TD*%
D31*
%TO.C,C12*%
X281802400Y-228781300D03*
X281802400Y-229741300D03*
%TD*%
D11*
%TO.C,R54*%
X193435400Y-283650200D03*
X194455400Y-283650200D03*
%TD*%
D12*
%TO.C,R46*%
X269189200Y-235610400D03*
X269189200Y-236630400D03*
%TD*%
D13*
%TO.C,C44*%
X71780400Y-227962400D03*
X71780400Y-227002400D03*
%TD*%
D37*
%TO.C,C74*%
X83409600Y-168579800D03*
X84369600Y-168579800D03*
%TD*%
D11*
%TO.C,R117*%
X89697000Y-263144000D03*
X90717000Y-263144000D03*
%TD*%
D66*
%TO.C,U9*%
X71217600Y-251282100D03*
X71867600Y-251282100D03*
X72517600Y-251282100D03*
X73167600Y-251282100D03*
X73817600Y-251282100D03*
X74467600Y-251282100D03*
X75117600Y-251282100D03*
X75767600Y-251282100D03*
X76417600Y-251282100D03*
X77067600Y-251282100D03*
X77067600Y-245557100D03*
X76417600Y-245557100D03*
X75767600Y-245557100D03*
X75117600Y-245557100D03*
X74467600Y-245557100D03*
X73817600Y-245557100D03*
X73167600Y-245557100D03*
X72517600Y-245557100D03*
X71867600Y-245557100D03*
X71217600Y-245557100D03*
%TD*%
D42*
%TO.C,R159*%
X122527500Y-101917973D03*
X122017500Y-101034627D03*
%TD*%
%TO.C,R162*%
X130775500Y-97164073D03*
X130265500Y-96280727D03*
%TD*%
D20*
%TO.C,R208*%
X231312700Y-254698027D03*
X231822700Y-255581373D03*
%TD*%
D19*
%TO.C,U21*%
X284444400Y-236509600D03*
X285394400Y-236509600D03*
X286344400Y-236509600D03*
X286344400Y-234234600D03*
X285394400Y-234234600D03*
X284444400Y-234234600D03*
%TD*%
D10*
%TO.C,R219*%
X257276827Y-226882900D03*
X258160173Y-227392900D03*
%TD*%
D30*
%TO.C,R183*%
X101917973Y-233072500D03*
X101034627Y-233582500D03*
%TD*%
D55*
%TO.C,J2*%
X286701000Y-163890000D03*
X286701000Y-162890000D03*
X286701000Y-161890000D03*
X286701000Y-160890000D03*
D56*
X290576000Y-165190000D03*
X290576000Y-159590000D03*
%TD*%
D57*
%TO.C,C65*%
X133951800Y-94181808D03*
X134431800Y-95013192D03*
%TD*%
D53*
%TO.C,C56*%
X223703300Y-95397608D03*
X223223300Y-96228992D03*
%TD*%
D49*
%TO.C,U52*%
X121854874Y-96800496D03*
X121032150Y-97275496D03*
X120209426Y-97750496D03*
X121346926Y-99720704D03*
X122169650Y-99245704D03*
X122992374Y-98770704D03*
%TD*%
%TO.C,U54*%
X132840774Y-90377896D03*
X132018050Y-90852896D03*
X131195326Y-91327896D03*
X132332826Y-93298104D03*
X133155550Y-92823104D03*
X133978274Y-92348104D03*
%TD*%
D18*
%TO.C,R180*%
X84429600Y-172923200D03*
X83409600Y-172923200D03*
%TD*%
D54*
%TO.C,C52*%
X258754592Y-129389100D03*
X257923208Y-129869100D03*
%TD*%
D28*
%TO.C,R137*%
X257407227Y-128993800D03*
X258290573Y-128483800D03*
%TD*%
D24*
%TO.C,R148*%
X228708600Y-99377273D03*
X229218600Y-98493927D03*
%TD*%
D75*
%TO.C,C103*%
X146018687Y-269216900D03*
X143463913Y-267741900D03*
%TD*%
D19*
%TO.C,U34*%
X74350800Y-231665000D03*
X75300800Y-231665000D03*
X76250800Y-231665000D03*
X76250800Y-229390000D03*
X75300800Y-229390000D03*
X74350800Y-229390000D03*
%TD*%
D76*
%TO.C,C101*%
X82740000Y-195985000D03*
X82740000Y-193035000D03*
%TD*%
D12*
%TO.C,R85*%
X76987400Y-242226000D03*
X76987400Y-243246000D03*
%TD*%
D11*
%TO.C,R52*%
X193435400Y-285682200D03*
X194455400Y-285682200D03*
%TD*%
D22*
%TO.C,C7*%
X194427400Y-286698200D03*
X193467400Y-286698200D03*
%TD*%
D77*
%TO.C,P3*%
X206739068Y-92116000D03*
D36*
X208938773Y-93386000D03*
X211138477Y-94656000D03*
X213338182Y-95926000D03*
X215537886Y-97196000D03*
X217737591Y-98466000D03*
X219937295Y-99736000D03*
X222137000Y-101006000D03*
X224336705Y-102276000D03*
X226536409Y-103546000D03*
X228736114Y-104816000D03*
X230935818Y-106086000D03*
X233135523Y-107356000D03*
X235335227Y-108626000D03*
X237534932Y-109896000D03*
%TD*%
D20*
%TO.C,R207*%
X233072500Y-253682027D03*
X233582500Y-254565373D03*
%TD*%
D38*
%TO.C,U11*%
X126335200Y-287576800D03*
X126335200Y-286926800D03*
X126335200Y-286276800D03*
X126335200Y-285626800D03*
X126335200Y-284976800D03*
X126335200Y-284326800D03*
X126335200Y-283676800D03*
X126335200Y-283026800D03*
X126335200Y-282376800D03*
X126335200Y-281726800D03*
X120610200Y-281726800D03*
X120610200Y-282376800D03*
X120610200Y-283026800D03*
X120610200Y-283676800D03*
X120610200Y-284326800D03*
X120610200Y-284976800D03*
X120610200Y-285626800D03*
X120610200Y-286276800D03*
X120610200Y-286926800D03*
X120610200Y-287576800D03*
%TD*%
D11*
%TO.C,R105*%
X89527400Y-285884000D03*
X90547400Y-285884000D03*
%TD*%
%TO.C,R131*%
X271170400Y-180568600D03*
X272190400Y-180568600D03*
%TD*%
D25*
%TO.C,R153*%
X175336200Y-84455000D03*
X175336200Y-83435000D03*
%TD*%
D12*
%TO.C,R2*%
X75641200Y-199180800D03*
X75641200Y-200200800D03*
%TD*%
D11*
%TO.C,R39*%
X213410800Y-287731200D03*
X214430800Y-287731200D03*
%TD*%
D10*
%TO.C,R220*%
X256222727Y-228708600D03*
X257106073Y-229218600D03*
%TD*%
D38*
%TO.C,U5*%
X201774900Y-287505600D03*
X201774900Y-286855600D03*
X201774900Y-286205600D03*
X201774900Y-285555600D03*
X201774900Y-284905600D03*
X201774900Y-284255600D03*
X201774900Y-283605600D03*
X201774900Y-282955600D03*
X201774900Y-282305600D03*
X201774900Y-281655600D03*
X196049900Y-281655600D03*
X196049900Y-282305600D03*
X196049900Y-282955600D03*
X196049900Y-283605600D03*
X196049900Y-284255600D03*
X196049900Y-284905600D03*
X196049900Y-285555600D03*
X196049900Y-286205600D03*
X196049900Y-286855600D03*
X196049900Y-287505600D03*
%TD*%
D25*
%TO.C,R157*%
X185953400Y-84404200D03*
X185953400Y-83384200D03*
%TD*%
D60*
%TO.C,C79*%
X138360400Y-263942192D03*
X138840400Y-263110808D03*
%TD*%
D12*
%TO.C,R31*%
X254558800Y-283155200D03*
X254558800Y-284175200D03*
%TD*%
D14*
%TO.C,U18*%
X186249800Y-285232600D03*
X186249800Y-284282600D03*
X186249800Y-283332600D03*
X183974800Y-283332600D03*
X183974800Y-285232600D03*
%TD*%
D11*
%TO.C,R55*%
X193435400Y-282583400D03*
X194455400Y-282583400D03*
%TD*%
D24*
%TO.C,R150*%
X233419400Y-102038373D03*
X233929400Y-101155027D03*
%TD*%
D59*
%TO.C,U82*%
X260446904Y-231030174D03*
X260921904Y-230207450D03*
X261396904Y-229384726D03*
X259426696Y-228247226D03*
X258951696Y-229069950D03*
X258476696Y-229892674D03*
%TD*%
D13*
%TO.C,C31*%
X286542400Y-203155000D03*
X286542400Y-202195000D03*
%TD*%
M02*
