%TF.GenerationSoftware,KiCad,Pcbnew,8.0.6-8.0.6-0~ubuntu22.04.1*%
%TF.CreationDate,2024-12-20T11:09:35-08:00*%
%TF.ProjectId,arena_top_12-12,6172656e-615f-4746-9f70-5f31322d3132,rev?*%
%TF.SameCoordinates,Original*%
%TF.FileFunction,Legend,Top*%
%TF.FilePolarity,Positive*%
%FSLAX46Y46*%
G04 Gerber Fmt 4.6, Leading zero omitted, Abs format (unit mm)*
G04 Created by KiCad (PCBNEW 8.0.6-8.0.6-0~ubuntu22.04.1) date 2024-12-20 11:09:35*
%MOMM*%
%LPD*%
G01*
G04 APERTURE LIST*
G04 Aperture macros list*
%AMRoundRect*
0 Rectangle with rounded corners*
0 $1 Rounding radius*
0 $2 $3 $4 $5 $6 $7 $8 $9 X,Y pos of 4 corners*
0 Add a 4 corners polygon primitive as box body*
4,1,4,$2,$3,$4,$5,$6,$7,$8,$9,$2,$3,0*
0 Add four circle primitives for the rounded corners*
1,1,$1+$1,$2,$3*
1,1,$1+$1,$4,$5*
1,1,$1+$1,$6,$7*
1,1,$1+$1,$8,$9*
0 Add four rect primitives between the rounded corners*
20,1,$1+$1,$2,$3,$4,$5,0*
20,1,$1+$1,$4,$5,$6,$7,0*
20,1,$1+$1,$6,$7,$8,$9,0*
20,1,$1+$1,$8,$9,$2,$3,0*%
%AMRotRect*
0 Rectangle, with rotation*
0 The origin of the aperture is its center*
0 $1 length*
0 $2 width*
0 $3 Rotation angle, in degrees counterclockwise*
0 Add horizontal line*
21,1,$1,$2,0,0,$3*%
G04 Aperture macros list end*
%ADD10C,0.514144*%
%ADD11C,0.154870*%
%ADD12C,0.179621*%
%ADD13C,0.168772*%
%ADD14C,0.000000*%
%ADD15C,0.125869*%
%ADD16C,0.355600*%
%ADD17C,0.150000*%
%ADD18C,0.304800*%
%ADD19C,0.120000*%
%ADD20C,0.381000*%
%ADD21R,1.600000X1.600000*%
%ADD22C,1.600000*%
%ADD23RoundRect,0.250000X-0.831458X-0.790128X-0.268542X-1.115128X0.831458X0.790128X0.268542X1.115128X0*%
%ADD24C,9.000000*%
%ADD25C,3.556000*%
%ADD26C,1.930400*%
%ADD27C,4.064000*%
%ADD28RotRect,1.600000X1.600000X240.000000*%
%ADD29RoundRect,0.250000X-0.325000X-1.100000X0.325000X-1.100000X0.325000X1.100000X-0.325000X1.100000X0*%
%ADD30RoundRect,0.250000X-0.790128X0.831458X-1.115128X0.268542X0.790128X-0.831458X1.115128X-0.268542X0*%
%ADD31RotRect,1.600000X1.600000X210.000000*%
%ADD32RoundRect,0.250000X1.115128X0.268542X0.790128X0.831458X-1.115128X-0.268542X-0.790128X-0.831458X0*%
%ADD33RotRect,1.600000X1.600000X150.000000*%
%ADD34RoundRect,0.250000X0.268542X-1.115128X0.831458X-0.790128X-0.268542X1.115128X-0.831458X0.790128X0*%
%ADD35RoundRect,0.250000X-0.268542X1.115128X-0.831458X0.790128X0.268542X-1.115128X0.831458X-0.790128X0*%
%ADD36RoundRect,0.250000X-1.100000X0.325000X-1.100000X-0.325000X1.100000X-0.325000X1.100000X0.325000X0*%
%ADD37RoundRect,0.250000X-1.115128X-0.268542X-0.790128X-0.831458X1.115128X0.268542X0.790128X0.831458X0*%
%ADD38RotRect,1.600000X1.600000X300.000000*%
%ADD39RotRect,1.600000X1.600000X60.000000*%
%ADD40RotRect,1.600000X1.600000X30.000000*%
%ADD41RotRect,1.600000X1.600000X120.000000*%
%ADD42RoundRect,0.250000X0.790128X-0.831458X1.115128X-0.268542X-0.790128X0.831458X-1.115128X0.268542X0*%
%ADD43RoundRect,0.250000X0.325000X1.100000X-0.325000X1.100000X-0.325000X-1.100000X0.325000X-1.100000X0*%
%ADD44RoundRect,0.250000X0.831458X0.790128X0.268542X1.115128X-0.831458X-0.790128X-0.268542X-1.115128X0*%
%ADD45RoundRect,0.250000X1.100000X-0.325000X1.100000X0.325000X-1.100000X0.325000X-1.100000X-0.325000X0*%
%ADD46RotRect,1.600000X1.600000X330.000000*%
G04 APERTURE END LIST*
D10*
X256199044Y-87297682D02*
X256271976Y-87058327D01*
X253328128Y-89085184D02*
X253428895Y-89190784D01*
X253398643Y-85370906D02*
X253047927Y-85471590D01*
D11*
X95842562Y-83086632D02*
X95776476Y-83132692D01*
D12*
X87581538Y-81465651D02*
X87599381Y-81388344D01*
X87866524Y-82743765D02*
X87821974Y-82681116D01*
D10*
X256682667Y-84850824D02*
X256710096Y-84544275D01*
X252017720Y-82164110D02*
X251877536Y-82169920D01*
X252053344Y-83360095D02*
X252337198Y-83279574D01*
X252648282Y-87995452D02*
X252864904Y-88424901D01*
X255368341Y-88978587D02*
X255474286Y-88838667D01*
D12*
X103135742Y-81238271D02*
X103160864Y-81312517D01*
X100806211Y-80421118D02*
X100873127Y-80382643D01*
D10*
X253852396Y-89497068D02*
X253962792Y-89543132D01*
X253107055Y-88828682D02*
X253329101Y-89139146D01*
D12*
X90726494Y-82031034D02*
X90712442Y-82109723D01*
D11*
X95708673Y-80400338D02*
X95776476Y-80442713D01*
D10*
X253599513Y-89404428D02*
X253881595Y-89536188D01*
D12*
X102817594Y-82862096D02*
X102764685Y-82917592D01*
X103001368Y-82616268D02*
X102959805Y-82681101D01*
D11*
X95121607Y-80193990D02*
X95197995Y-80206887D01*
D10*
X255525857Y-82231349D02*
X253909263Y-83976567D01*
D12*
X100401759Y-82804129D02*
X100354322Y-82743765D01*
D10*
X252552095Y-78774228D02*
X252838191Y-78144863D01*
X251969289Y-84954351D02*
X251774238Y-84647473D01*
X253435013Y-77325878D02*
X253641567Y-77156405D01*
D12*
X90742826Y-81869915D02*
X90736656Y-81951064D01*
D10*
X259176866Y-80098993D02*
X259525148Y-80289985D01*
D12*
X102528198Y-83112714D02*
X102463365Y-83154278D01*
X88903643Y-83367207D02*
X88824955Y-83353155D01*
D10*
X252166875Y-85147003D02*
X251969289Y-84954351D01*
X252693095Y-88053999D02*
X252775458Y-88230525D01*
D12*
X90329796Y-80713291D02*
X90380019Y-80771270D01*
D10*
X251774238Y-84647473D02*
X251684112Y-84419114D01*
D12*
X88385329Y-80382643D02*
X88454228Y-80347355D01*
X90744906Y-81787686D02*
X90742826Y-81869915D01*
X87567486Y-81544340D02*
X87581538Y-81465651D01*
D10*
X255063430Y-89325641D02*
X255481002Y-88897170D01*
D12*
X88318413Y-83154286D02*
X88253581Y-83112723D01*
X101471411Y-80198036D02*
X101552560Y-80191866D01*
X100194444Y-81094927D02*
X100229732Y-81026029D01*
D11*
X96086199Y-82866270D02*
X96029086Y-82926344D01*
D10*
X255036411Y-82539878D02*
X255042022Y-82457412D01*
D12*
X89839752Y-80347355D02*
X89908651Y-80382643D01*
D10*
X255276137Y-77430101D02*
X255346218Y-77514994D01*
D12*
X88824955Y-80222250D02*
X88903643Y-80208198D01*
D10*
X253521335Y-77222379D02*
X253965722Y-76961480D01*
D12*
X100560386Y-80604889D02*
X100618366Y-80554666D01*
D10*
X256875322Y-83833962D02*
X256742183Y-83877680D01*
X254654616Y-76988025D02*
X254738231Y-77019672D01*
D12*
X87674647Y-82409683D02*
X87646036Y-82337118D01*
D11*
X95423153Y-83307720D02*
X95348911Y-83331671D01*
D12*
X100055284Y-82031041D02*
X100045122Y-81951070D01*
X90647944Y-81238271D02*
X90673066Y-81312517D01*
X101717017Y-80191866D02*
X101798166Y-80198036D01*
X102915254Y-82743751D02*
X102867817Y-82804116D01*
D10*
X254131302Y-89588144D02*
X254188191Y-89596579D01*
D11*
X96493360Y-81633352D02*
X96498887Y-81710456D01*
D12*
X90513570Y-80959113D02*
X90552046Y-81026029D01*
D11*
X96498887Y-81710456D02*
X96500730Y-81787703D01*
D10*
X259542541Y-82121242D02*
X259303428Y-82485940D01*
X255432428Y-81506674D02*
X255645993Y-81235336D01*
D13*
X94242676Y-81787686D02*
X90817917Y-81787686D01*
D12*
X102463365Y-83154278D02*
X102396449Y-83192755D01*
D10*
X253135036Y-82646298D02*
X253292690Y-82463024D01*
X251858224Y-83534084D02*
X252053344Y-83360095D01*
D12*
X103107131Y-82409670D02*
X103075132Y-82480452D01*
X89064762Y-83383539D02*
X88983613Y-83377369D01*
X90736656Y-81951064D02*
X90726494Y-82031034D01*
X90587334Y-81094927D02*
X90619333Y-81165708D01*
X102256769Y-80315356D02*
X102327550Y-80347355D01*
D10*
X255220933Y-77362302D02*
X255627103Y-77919080D01*
X259525148Y-80289985D02*
X259789890Y-80507871D01*
X246348282Y-81480219D02*
X233048664Y-75525588D01*
D11*
X94736089Y-83390627D02*
X94659272Y-83381415D01*
X95044789Y-80184778D02*
X95121607Y-80193990D01*
D10*
X246463759Y-81532354D02*
X247222944Y-79751814D01*
X254303207Y-76931315D02*
X254393603Y-76934890D01*
X256040481Y-87747626D02*
X256121828Y-87527581D01*
D12*
X100133834Y-82337118D02*
X100108712Y-82262871D01*
D10*
X253881595Y-89536188D02*
X254324682Y-89610855D01*
D11*
X96351499Y-81109652D02*
X96382819Y-81181747D01*
X96498887Y-81864950D02*
X96493360Y-81942054D01*
D10*
X257844701Y-80028055D02*
X258211627Y-79972669D01*
D11*
X96189371Y-80835581D02*
X96235430Y-80901666D01*
X96484148Y-82018871D02*
X96471252Y-82095260D01*
D12*
X90742826Y-81705458D02*
X90744906Y-81787686D01*
D10*
X258842153Y-80017626D02*
X259176866Y-80098993D01*
X253292690Y-82463024D02*
X253412685Y-82343878D01*
X256455241Y-80603086D02*
X256647542Y-80491892D01*
X259950052Y-81164050D02*
X259836255Y-81519547D01*
X255147913Y-89218914D02*
X255259498Y-89105469D01*
D11*
X96454671Y-81404330D02*
X96471252Y-81480146D01*
D12*
X88017093Y-80657797D02*
X88072588Y-80604889D01*
D10*
X253965362Y-76988768D02*
X254076566Y-76957025D01*
X259789890Y-80507871D02*
X259966569Y-80689146D01*
D12*
X88597573Y-83288659D02*
X88525010Y-83260048D01*
X103135742Y-82337105D02*
X103107131Y-82409670D01*
X103200239Y-82109723D02*
X103182397Y-82187031D01*
X89064762Y-80191866D02*
X89146990Y-80189787D01*
D10*
X256678724Y-81644514D02*
X256650167Y-81387806D01*
X254482303Y-76945573D02*
X254569307Y-76963305D01*
D12*
X87706646Y-81094927D02*
X87741934Y-81026029D01*
D11*
X96029086Y-80649061D02*
X96086199Y-80709136D01*
X94072206Y-83175067D02*
X94004403Y-83132692D01*
X94431968Y-83331671D02*
X94357726Y-83307720D01*
D12*
X102034132Y-83335311D02*
X101956824Y-83353154D01*
D10*
X251877536Y-82169920D02*
X251922517Y-81614249D01*
X233757241Y-73863743D02*
X247056859Y-79818372D01*
D12*
X100504891Y-80657797D02*
X100560386Y-80604889D01*
D11*
X95776476Y-80442713D02*
X95842562Y-80488773D01*
D10*
X255866011Y-88156561D02*
X255955157Y-87957419D01*
D11*
X94659272Y-80193990D02*
X94736089Y-80184778D01*
D10*
X254302959Y-89603371D02*
X254429429Y-89595126D01*
D12*
X101956824Y-80222250D02*
X102034132Y-80240092D01*
D10*
X255671304Y-78034008D02*
X255731261Y-78156298D01*
D12*
X88318413Y-80421118D02*
X88385329Y-80382643D01*
D11*
X94659272Y-83381415D02*
X94582884Y-83368518D01*
D10*
X256005789Y-78856859D02*
X256103824Y-79177541D01*
X257779754Y-83532072D02*
X257434774Y-83689800D01*
X256357616Y-80272018D02*
X255706384Y-80763982D01*
D12*
X90380019Y-82804116D02*
X90329796Y-82862096D01*
D10*
X258090858Y-83404417D02*
X257779754Y-83532072D01*
X259966569Y-80689146D02*
X259993367Y-80838851D01*
D12*
X101012807Y-80315356D02*
X101085371Y-80286746D01*
D10*
X256942987Y-80339952D02*
X257168924Y-80231520D01*
X256750710Y-82712449D02*
X256739244Y-82439840D01*
X253269248Y-84659038D02*
X253123313Y-84504252D01*
D12*
X102817594Y-80713291D02*
X102867817Y-80771270D01*
X103232703Y-81787686D02*
X103230624Y-81869915D01*
X101012807Y-83260048D02*
X100942026Y-83228049D01*
X88983613Y-80198036D02*
X89064762Y-80191866D01*
X87821974Y-80894282D02*
X87866524Y-80831634D01*
D11*
X93811868Y-80591947D02*
X93874091Y-80538518D01*
X95906788Y-80538518D02*
X95969010Y-80591947D01*
D10*
X252560420Y-83133970D02*
X252542989Y-83175007D01*
D11*
X95121607Y-83381415D02*
X95044790Y-83390627D01*
D12*
X88597573Y-80286746D02*
X88671819Y-80261624D01*
X89696407Y-83288655D02*
X89622161Y-83313778D01*
D11*
X94072205Y-80400338D02*
X94141582Y-80361648D01*
D10*
X253672708Y-82321579D02*
X251877536Y-82169922D01*
X256650167Y-81387806D02*
X256617580Y-81135749D01*
D11*
X96382819Y-82393658D02*
X96351499Y-82465754D01*
D12*
X90427456Y-80831634D02*
X90472007Y-80894282D01*
X102396449Y-83192755D02*
X102327550Y-83228044D01*
X87964184Y-82862109D02*
X87913961Y-82804129D01*
D10*
X252264493Y-79665606D02*
X252552095Y-78774228D01*
D11*
X93811868Y-82983458D02*
X93751792Y-82926344D01*
X95969010Y-82983458D02*
X95906788Y-83036888D01*
D12*
X101312753Y-83353155D02*
X101235444Y-83335313D01*
X90619333Y-81165708D02*
X90647944Y-81238271D01*
X88130568Y-83020736D02*
X88072588Y-82970513D01*
X89908651Y-83192755D02*
X89839752Y-83228044D01*
X100354322Y-82743765D02*
X100309771Y-82681116D01*
X102109959Y-80261624D02*
X102184205Y-80286746D01*
D10*
X252813388Y-83330316D02*
X252914922Y-82982534D01*
D12*
X90619333Y-82409670D02*
X90587334Y-82480452D01*
X100451982Y-80713291D02*
X100504891Y-80657797D01*
D11*
X95639297Y-83213758D02*
X95568489Y-83248763D01*
D12*
X100678730Y-80507230D02*
X100741378Y-80462680D01*
X102764685Y-82917592D02*
X102709190Y-82970502D01*
D10*
X255042022Y-82457412D02*
X255046822Y-82396570D01*
X251877536Y-82169922D02*
X251908122Y-81714717D01*
D11*
X95906788Y-83036888D02*
X95842562Y-83086632D01*
D12*
X87567486Y-82031041D02*
X87557324Y-81951070D01*
X88190932Y-80507230D02*
X88253581Y-80462680D01*
X90380019Y-80771270D02*
X90427456Y-80831634D01*
D10*
X256760000Y-83267298D02*
X256757661Y-82988359D01*
D12*
X102867817Y-82804116D02*
X102817594Y-82862096D01*
D10*
X233048664Y-75525588D02*
X233757241Y-73863743D01*
D12*
X100942026Y-83228049D02*
X100873127Y-83192761D01*
X100401759Y-80771270D02*
X100451982Y-80713291D01*
D10*
X255259498Y-89105469D02*
X255368341Y-88978587D01*
D12*
X87646036Y-81238271D02*
X87674647Y-81165708D01*
D11*
X94507068Y-80223468D02*
X94582883Y-80206887D01*
D10*
X253428895Y-89190784D02*
X253531823Y-89285068D01*
D12*
X88903643Y-80208198D02*
X88983613Y-80198036D01*
D10*
X252164419Y-80079481D02*
X252277697Y-79618968D01*
X254820151Y-77058187D02*
X254900378Y-77103508D01*
X256463519Y-86287504D02*
X256517769Y-86014304D01*
D14*
G36*
X89215391Y-81721799D02*
G01*
X89664517Y-81721799D01*
X89664517Y-81853638D01*
X89215391Y-81853638D01*
X89215391Y-82302771D01*
X89078593Y-82302771D01*
X89078593Y-81853638D01*
X88629465Y-81853638D01*
X88629465Y-81721799D01*
X89078593Y-81721799D01*
X89078593Y-81272666D01*
X89215391Y-81272666D01*
X89215391Y-81721799D01*
G37*
D12*
X102709190Y-82970502D02*
X102651211Y-83020726D01*
X103182397Y-82187031D02*
X103160864Y-82262859D01*
X101552560Y-80191866D02*
X101634788Y-80189787D01*
D10*
X259023559Y-82799008D02*
X258722802Y-83026055D01*
D12*
X100055284Y-81544340D02*
X100069337Y-81465651D01*
X102590846Y-80507230D02*
X102651211Y-80554666D01*
D11*
X93751792Y-80649061D02*
X93811868Y-80591947D01*
D12*
X103182397Y-81388344D02*
X103200239Y-81465651D01*
X87557324Y-81951070D02*
X87551154Y-81869918D01*
D10*
X255789534Y-78284609D02*
X255846123Y-78418881D01*
D12*
X88671819Y-80261624D02*
X88747646Y-80240092D01*
D10*
X253133544Y-88841221D02*
X253229639Y-88968564D01*
D13*
X99975145Y-81787686D02*
X96550387Y-81787686D01*
D12*
X90221392Y-80604889D02*
X90276887Y-80657797D01*
X88671819Y-83313781D02*
X88597573Y-83288659D01*
D10*
X254873437Y-77076596D02*
X255220933Y-77362302D01*
D12*
X90726494Y-81544340D02*
X90736656Y-81624309D01*
X101798166Y-83377369D02*
X101717017Y-83383539D01*
X101159617Y-83313781D02*
X101085371Y-83288659D01*
D11*
X94212390Y-80326642D02*
X94284485Y-80295322D01*
D10*
X256703154Y-81905602D02*
X256678724Y-81644514D01*
X252277697Y-79618968D02*
X252405794Y-79187490D01*
X255046822Y-82396570D02*
X255049075Y-82373567D01*
D12*
X103039844Y-82549352D02*
X103001368Y-82616268D01*
D10*
X252914922Y-82982534D02*
X253135036Y-82646298D01*
D12*
X100087179Y-82187042D02*
X100069337Y-82109732D01*
X100194444Y-82480466D02*
X100162445Y-82409683D01*
X89146990Y-83385619D02*
X89064762Y-83383539D01*
X103214292Y-82031034D02*
X103200239Y-82109723D01*
X100618366Y-83020736D02*
X100560386Y-82970513D01*
D10*
X254393603Y-76934890D02*
X254482303Y-76945573D01*
D12*
X100038952Y-81869918D02*
X100036873Y-81787686D01*
X100942026Y-80347355D02*
X101012807Y-80315356D01*
D11*
X96189371Y-82739824D02*
X96139628Y-82804049D01*
D10*
X246413145Y-81651057D02*
X246463759Y-81532354D01*
D11*
X95348911Y-80243735D02*
X95423153Y-80267686D01*
D12*
X100354322Y-80831634D02*
X100401759Y-80771270D01*
X100873127Y-83192761D02*
X100806211Y-83154286D01*
X100309771Y-80894282D02*
X100354322Y-80831634D01*
D10*
X252066861Y-80566931D02*
X252164419Y-80079481D01*
D12*
X90163412Y-83020726D02*
X90103048Y-83068163D01*
D10*
X254429429Y-89595126D02*
X254554235Y-89570660D01*
D12*
X102764685Y-80657797D02*
X102817594Y-80713291D01*
D10*
X257434774Y-83689800D02*
X257147111Y-83738716D01*
D12*
X88824955Y-83353155D02*
X88747646Y-83335313D01*
D10*
X256566963Y-85733638D02*
X256610946Y-85445904D01*
D12*
X100229732Y-81026029D02*
X100268208Y-80959113D01*
D10*
X251985926Y-81079220D02*
X252066861Y-80566931D01*
X256588437Y-81139620D02*
X253909288Y-83976566D01*
D11*
X93874091Y-80538518D02*
X93938317Y-80488773D01*
D10*
X255864154Y-78448817D02*
X256087136Y-79124247D01*
X255773197Y-88344655D02*
X255866011Y-88156561D01*
X252862258Y-84007779D02*
X252804643Y-83656706D01*
X246942174Y-80746439D02*
X252560420Y-83133970D01*
X256610946Y-85445904D02*
X256649566Y-85151500D01*
D12*
X101878135Y-80208198D02*
X101956824Y-80222250D01*
D10*
X253747749Y-77088720D02*
X253855718Y-77032754D01*
D14*
G36*
X101891903Y-81862294D02*
G01*
X101377672Y-81862294D01*
X101377672Y-81713143D01*
X101891903Y-81713143D01*
X101891903Y-81862294D01*
G37*
D10*
X256731697Y-84232249D02*
X256747318Y-83915146D01*
D12*
X100873127Y-80382643D02*
X100942026Y-80347355D01*
X90103048Y-83068163D02*
X90040399Y-83112714D01*
D10*
X258722802Y-83026055D02*
X258371227Y-83226200D01*
X253909263Y-83976567D02*
X252648282Y-87995452D01*
X257168924Y-80231520D02*
X257485784Y-80119245D01*
X256279733Y-79885603D02*
X256357618Y-80272016D01*
D12*
X90276887Y-80657797D02*
X90329796Y-80713291D01*
D10*
X253229639Y-88968564D02*
X253328128Y-89085184D01*
D12*
X90587334Y-82480452D02*
X90552046Y-82549352D01*
X87599381Y-82187042D02*
X87581538Y-82109732D01*
X88130568Y-80554666D02*
X88190932Y-80507230D01*
X103107131Y-81165708D02*
X103135742Y-81238271D01*
D10*
X252687820Y-85409914D02*
X252402307Y-85308503D01*
D12*
X102651211Y-83020726D02*
X102590846Y-83068163D01*
D10*
X254420562Y-76894705D02*
X254873437Y-77076596D01*
D11*
X96277804Y-82605937D02*
X96235430Y-82673739D01*
X96484148Y-81556534D02*
X96493360Y-81633352D01*
D10*
X255073137Y-82733063D02*
X255036411Y-82539878D01*
D12*
X87706646Y-82480466D02*
X87674647Y-82409683D01*
D10*
X247222944Y-79751814D02*
X233689051Y-73692292D01*
X251709684Y-83828453D02*
X251858224Y-83534084D01*
D11*
X95776476Y-83132692D02*
X95708673Y-83175067D01*
X96410454Y-82320418D02*
X96382819Y-82393658D01*
D10*
X254074763Y-89576401D02*
X254131302Y-89588144D01*
D12*
X89546334Y-83335311D02*
X89469026Y-83353154D01*
D11*
X95197995Y-83368518D02*
X95121607Y-83381415D01*
D12*
X101235444Y-80240092D02*
X101312753Y-80222250D01*
D11*
X95044790Y-83390627D02*
X94967686Y-83396154D01*
D10*
X255474286Y-88838667D02*
X255577180Y-88686106D01*
D12*
X90472007Y-82681101D02*
X90427456Y-82743751D01*
D10*
X254900378Y-77103508D02*
X254978913Y-77155575D01*
D11*
X96471252Y-81480146D02*
X96484148Y-81556534D01*
D10*
X246924743Y-80787476D02*
X246942174Y-80746439D01*
X252560430Y-83133970D02*
X251578214Y-82728334D01*
D12*
X101956824Y-83353154D02*
X101878135Y-83367207D01*
X89146990Y-80189787D02*
X89229218Y-80191866D01*
D10*
X259836255Y-81519547D02*
X259696227Y-81826924D01*
D12*
X101878135Y-83367207D02*
X101798166Y-83377369D01*
X89975567Y-83154278D02*
X89908651Y-83192755D01*
X103230624Y-81869915D02*
X103224454Y-81951064D01*
D10*
X254324682Y-89610855D02*
X254665025Y-89571112D01*
X252949007Y-88555546D02*
X253039961Y-88703450D01*
D12*
X88385329Y-83192761D02*
X88318413Y-83154286D01*
D10*
X258371227Y-83226200D02*
X258090858Y-83404417D01*
X253188466Y-77597686D02*
X253521335Y-77222379D01*
X252775458Y-88230525D02*
X252860801Y-88397806D01*
D12*
X90040399Y-83112714D02*
X89975567Y-83154278D01*
D10*
X252673597Y-83279574D02*
X252673597Y-83254005D01*
X255706384Y-80763982D02*
X254954221Y-81363387D01*
X255790885Y-88395804D02*
X256248971Y-87209539D01*
D12*
X102034132Y-80240092D02*
X102109959Y-80261624D01*
D11*
X96235430Y-82673739D02*
X96189371Y-82739824D01*
D12*
X89908651Y-80382643D02*
X89975567Y-80421118D01*
X102528198Y-80462680D02*
X102590846Y-80507230D01*
X87780410Y-82616283D02*
X87741934Y-82549366D01*
X101391441Y-80208198D02*
X101471411Y-80198036D01*
X100036873Y-81787686D02*
X100038952Y-81705458D01*
D10*
X251922517Y-81614249D02*
X251985926Y-81079220D01*
X253329101Y-89139146D02*
X253599513Y-89404428D01*
X253636966Y-84854792D02*
X253457742Y-84793319D01*
X255481314Y-77703871D02*
X255546331Y-77807734D01*
X256430595Y-80273243D02*
X253672708Y-82321578D01*
D11*
X96351499Y-82465754D02*
X96316494Y-82536561D01*
D10*
X255955157Y-87957419D02*
X256040481Y-87747626D01*
D11*
X94357726Y-80267686D02*
X94431967Y-80243735D01*
X96471252Y-82095260D02*
X96454671Y-82171076D01*
D12*
X102709190Y-80604889D02*
X102764685Y-80657797D01*
X90736656Y-81624309D02*
X90742826Y-81705458D01*
D10*
X254738231Y-77019672D02*
X254820151Y-77058187D01*
D12*
X102959805Y-80894282D02*
X103001368Y-80959113D01*
X87620914Y-82262871D02*
X87599381Y-82187042D01*
D10*
X254665025Y-89571112D02*
X255063430Y-89325641D01*
X254189219Y-76937786D02*
X254303207Y-76931315D01*
X254954221Y-81363387D02*
X253672708Y-82321579D01*
D11*
X95496393Y-83280084D02*
X95423153Y-83307720D01*
D10*
X246889631Y-79885306D02*
X246282282Y-81309738D01*
D12*
X87549074Y-81787686D02*
X87551154Y-81705458D01*
X89469026Y-83353154D02*
X89390337Y-83367207D01*
X100133834Y-81238271D02*
X100162445Y-81165708D01*
D11*
X94967686Y-80179251D02*
X95044789Y-80184778D01*
D10*
X252869967Y-78088253D02*
X253048311Y-77793901D01*
X254657018Y-81746046D02*
X255004495Y-81752769D01*
X255414610Y-77606271D02*
X255481314Y-77703871D01*
D11*
X93938317Y-83086632D02*
X93874091Y-83036888D01*
D10*
X256195137Y-79520617D02*
X256279733Y-79885603D01*
D12*
X102256769Y-83260044D02*
X102184205Y-83288655D01*
X87581538Y-82109732D02*
X87567486Y-82031041D01*
X102651211Y-80554666D02*
X102709190Y-80604889D01*
X102463365Y-80421118D02*
X102528198Y-80462680D01*
X90276887Y-82917592D02*
X90221392Y-82970502D01*
X88525010Y-80315356D02*
X88597573Y-80286746D01*
D10*
X256739244Y-82439840D02*
X256723359Y-82170801D01*
D11*
X96277804Y-80969468D02*
X96316494Y-81038845D01*
D10*
X256517769Y-86014304D02*
X256566963Y-85733638D01*
X253047927Y-85471590D02*
X252687820Y-85409914D01*
D12*
X102327550Y-80347355D02*
X102396449Y-80382643D01*
D11*
X94212390Y-83248763D02*
X94141582Y-83213758D01*
D10*
X233689051Y-73692292D02*
X232879253Y-75591534D01*
X256710096Y-84544275D02*
X256731697Y-84232249D01*
D12*
X100087179Y-81388344D02*
X100108712Y-81312517D01*
D10*
X254188191Y-89596579D02*
X254245415Y-89601666D01*
X255033738Y-89318524D02*
X255147913Y-89218914D01*
D11*
X95348911Y-83331671D02*
X95273811Y-83351937D01*
D12*
X100451982Y-82862109D02*
X100401759Y-82804129D01*
X89310367Y-80198036D02*
X89390337Y-80208198D01*
D11*
X96410454Y-81254987D02*
X96434405Y-81329229D01*
D12*
X87551154Y-81869918D02*
X87549074Y-81787686D01*
X88017093Y-82917604D02*
X87964184Y-82862109D01*
D10*
X252097724Y-80452923D02*
X252264493Y-79665606D01*
D11*
X96382819Y-81181747D02*
X96410454Y-81254987D01*
D10*
X255546331Y-77807734D02*
X255609660Y-77917800D01*
X254798239Y-89474649D02*
X254917129Y-89403902D01*
D12*
X90552046Y-82549352D02*
X90513570Y-82616268D01*
D10*
X252976909Y-84256240D02*
X252862258Y-84007779D01*
X255609660Y-77917800D02*
X255671304Y-78034008D01*
D12*
X89546334Y-80240092D02*
X89622161Y-80261624D01*
X90673066Y-81312517D02*
X90694599Y-81388344D01*
D11*
X95842562Y-80488773D02*
X95906788Y-80538518D01*
X95568489Y-80326642D02*
X95639296Y-80361648D01*
D10*
X251908122Y-81714717D02*
X251962047Y-81294909D01*
X253743690Y-89438506D02*
X253852396Y-89497068D01*
D12*
X102915254Y-80831634D02*
X102959805Y-80894282D01*
X102184205Y-83288655D02*
X102109959Y-83313778D01*
X103224454Y-81624309D02*
X103230624Y-81705458D01*
D10*
X252547806Y-78787146D02*
X252702831Y-78420034D01*
D12*
X101471411Y-83377369D02*
X101391441Y-83367207D01*
D10*
X259696227Y-81826924D02*
X259542541Y-82121242D01*
X255131395Y-82050612D02*
X255166063Y-81963123D01*
D11*
X95273811Y-80223468D02*
X95348911Y-80243735D01*
D12*
X103075132Y-81094927D02*
X103107131Y-81165708D01*
X89696407Y-80286746D02*
X89768971Y-80315356D01*
X101235444Y-83335313D02*
X101159617Y-83313781D01*
X87551154Y-81705458D02*
X87557324Y-81624309D01*
D11*
X94582884Y-83368518D02*
X94507068Y-83351937D01*
D12*
X100504891Y-82917604D02*
X100451982Y-82862109D01*
X103001368Y-80959113D02*
X103039844Y-81026029D01*
D10*
X252337198Y-83279574D02*
X252673597Y-83279574D01*
D12*
X101391441Y-83367207D02*
X101312753Y-83353155D01*
X87741934Y-82549366D02*
X87706646Y-82480466D01*
X89229218Y-80191866D02*
X89310367Y-80198036D01*
D10*
X233823379Y-74035161D02*
X246889631Y-79885306D01*
X255050985Y-82360203D02*
X255131395Y-82050612D01*
D12*
X102184205Y-80286746D02*
X102256769Y-80315356D01*
D10*
X252542989Y-83175007D02*
X246924743Y-80787476D01*
X255627103Y-77919080D02*
X255864154Y-78448817D01*
X253123313Y-84504252D02*
X252976909Y-84256240D01*
X254917129Y-89403902D02*
X255033738Y-89318524D01*
D11*
X95639296Y-80361648D02*
X95708673Y-80400338D01*
D10*
X255954250Y-78705067D02*
X256005789Y-78856859D01*
D12*
X90472007Y-80894282D02*
X90513570Y-80959113D01*
X100806211Y-83154286D02*
X100741378Y-83112723D01*
D11*
X94813193Y-80179251D02*
X94890439Y-80177409D01*
D10*
X246282282Y-81309738D02*
X233216030Y-75459592D01*
D12*
X100162445Y-82409683D02*
X100133834Y-82337118D01*
D10*
X232879253Y-75591534D02*
X246413145Y-81651057D01*
D12*
X103224454Y-81951064D02*
X103214292Y-82031034D01*
X90040399Y-80462680D02*
X90103048Y-80507230D01*
D10*
X253672708Y-82321578D02*
X252017720Y-82164110D01*
X255731261Y-78156298D02*
X255789534Y-78284609D01*
D12*
X89622161Y-83313778D02*
X89546334Y-83335311D01*
D11*
X95197995Y-80206887D02*
X95273811Y-80223468D01*
D12*
X100560386Y-82970513D02*
X100504891Y-82917604D01*
X88454228Y-80347355D02*
X88525010Y-80315356D01*
X90513570Y-82616268D02*
X90472007Y-82681101D01*
X103200239Y-81465651D02*
X103214292Y-81544340D01*
D11*
X96493360Y-81942054D02*
X96484148Y-82018871D01*
D10*
X256647542Y-80491892D02*
X256942987Y-80339952D01*
X257147111Y-83738716D02*
X256875322Y-83833962D01*
D11*
X94357726Y-83307720D02*
X94284486Y-83280084D01*
D10*
X259993367Y-80838851D02*
X259950052Y-81164050D01*
D12*
X90673066Y-82262859D02*
X90647944Y-82337105D01*
D10*
X256723359Y-82170801D02*
X256703154Y-81905602D01*
X252405794Y-79187490D02*
X252547806Y-78787146D01*
D11*
X96139628Y-82804049D02*
X96086199Y-82866270D01*
D10*
X252804643Y-83656706D02*
X252813388Y-83330316D01*
X253412685Y-82343878D02*
X253439037Y-82302499D01*
D11*
X95568489Y-83248763D02*
X95496393Y-83280084D01*
D10*
X256747318Y-83915146D02*
X256756803Y-83593363D01*
D12*
X90427456Y-82743751D02*
X90380019Y-82804116D01*
D10*
X254554235Y-89570660D02*
X254677223Y-89530368D01*
D11*
X95969010Y-80591947D02*
X96029086Y-80649061D01*
X94967686Y-83396154D02*
X94890440Y-83397997D01*
D12*
X101085371Y-83288659D02*
X101012807Y-83260048D01*
D10*
X252702831Y-78420034D02*
X252869967Y-78088253D01*
D11*
X94736089Y-80184778D02*
X94813193Y-80179251D01*
D10*
X255346218Y-77514994D02*
X255414610Y-77606271D01*
D12*
X87913961Y-80771270D02*
X87964184Y-80713291D01*
D10*
X256121828Y-87527581D02*
X256199044Y-87297682D01*
D12*
X103214292Y-81544340D02*
X103224454Y-81624309D01*
X87964184Y-80713291D02*
X88017093Y-80657797D01*
D10*
X253039961Y-88703450D02*
X253133544Y-88841221D01*
X256756803Y-83593363D02*
X256760000Y-83267298D01*
D12*
X90694599Y-81388344D02*
X90712442Y-81465651D01*
D10*
X255049075Y-82373567D02*
X255050985Y-82360203D01*
D12*
X87913961Y-82804129D02*
X87866524Y-82743765D01*
X100741378Y-80462680D02*
X100806211Y-80421118D01*
D11*
X96235430Y-80901666D02*
X96277804Y-80969468D01*
X96434405Y-82246176D02*
X96410454Y-82320418D01*
D12*
X102327550Y-83228044D02*
X102256769Y-83260044D01*
X100108712Y-81312517D02*
X100133834Y-81238271D01*
D10*
X256748969Y-82736026D02*
X256617553Y-81135750D01*
D11*
X94004403Y-83132692D02*
X93938317Y-83086632D01*
D12*
X101552560Y-83383539D02*
X101471411Y-83377369D01*
X90694599Y-82187031D02*
X90673066Y-82262859D01*
X100038952Y-81705458D02*
X100045122Y-81624309D01*
X88983613Y-83377369D02*
X88903643Y-83367207D01*
X87780410Y-80959113D02*
X87821974Y-80894282D01*
D10*
X256747836Y-84319097D02*
X256748969Y-82736026D01*
D11*
X94284485Y-80295322D02*
X94357726Y-80267686D01*
X95423153Y-80267686D02*
X95496393Y-80295322D01*
D12*
X89768971Y-83260044D02*
X89696407Y-83288655D01*
X87821974Y-82681116D02*
X87780410Y-82616283D01*
X100229732Y-82549366D02*
X100194444Y-82480466D01*
X88525010Y-83260048D02*
X88454228Y-83228049D01*
D11*
X94141582Y-80361648D02*
X94212390Y-80326642D01*
X94431967Y-80243735D02*
X94507068Y-80223468D01*
D12*
X101634788Y-83385619D02*
X101552560Y-83383539D01*
D11*
X96086199Y-80709136D02*
X96139628Y-80771357D01*
X94890439Y-80177409D02*
X94967686Y-80179251D01*
D10*
X255055755Y-77214329D02*
X255130906Y-77279708D01*
X256248971Y-87209539D02*
X256645215Y-85500644D01*
D11*
X94284486Y-83280084D02*
X94212390Y-83248763D01*
X95273811Y-83351937D02*
X95197995Y-83368518D01*
D10*
X254245415Y-89601666D02*
X254302959Y-89603371D01*
D12*
X88072588Y-80604889D02*
X88130568Y-80554666D01*
X87646036Y-82337118D02*
X87620914Y-82262871D01*
X100309771Y-82681116D02*
X100268208Y-82616283D01*
X89768971Y-80315356D02*
X89839752Y-80347355D01*
X103160864Y-81312517D02*
X103182397Y-81388344D01*
X89622161Y-80261624D02*
X89696407Y-80286746D01*
D10*
X251648685Y-84125716D02*
X251709684Y-83828453D01*
D12*
X87557324Y-81624309D02*
X87567486Y-81544340D01*
X87620914Y-81312517D02*
X87646036Y-81238271D01*
D11*
X96029086Y-82926344D02*
X95969010Y-82983458D01*
D10*
X255204367Y-77351652D02*
X255276137Y-77430101D01*
D12*
X89469026Y-80222250D02*
X89546334Y-80240092D01*
X88747646Y-83335313D02*
X88671819Y-83313781D01*
D10*
X233216030Y-75459592D02*
X233823379Y-74035161D01*
D12*
X100268208Y-80959113D02*
X100309771Y-80894282D01*
X90712442Y-82109723D02*
X90694599Y-82187031D01*
D10*
X256252120Y-81494682D02*
X255525857Y-82231349D01*
D12*
X103075132Y-82480452D02*
X103039844Y-82549352D01*
D10*
X255218044Y-81787599D02*
X255432428Y-81506674D01*
D12*
X100045122Y-81624309D02*
X100055284Y-81544340D01*
D11*
X96434405Y-81329229D02*
X96454671Y-81404330D01*
X94813193Y-83396154D02*
X94736089Y-83390627D01*
D12*
X90552046Y-81026029D02*
X90587334Y-81094927D01*
D10*
X253909288Y-83976566D02*
X252648284Y-87995452D01*
D12*
X103230624Y-81705458D02*
X103232703Y-81787686D01*
D10*
X253531823Y-89285068D02*
X253636794Y-89367740D01*
D12*
X101085371Y-80286746D02*
X101159617Y-80261624D01*
D10*
X255901028Y-78559054D02*
X255954250Y-78705067D01*
X252648284Y-87995452D02*
X252693095Y-88053999D01*
D12*
X100069337Y-81465651D02*
X100087179Y-81388344D01*
D11*
X96139628Y-80771357D02*
X96189371Y-80835581D01*
D10*
X253641567Y-77156405D02*
X253747749Y-77088720D01*
D12*
X90103048Y-80507230D02*
X90163412Y-80554666D01*
X100162445Y-81165708D02*
X100194444Y-81094927D01*
D10*
X251684112Y-84419114D02*
X251648685Y-84125716D01*
D11*
X95496393Y-80295322D02*
X95568489Y-80326642D01*
D10*
X255577180Y-88686106D02*
X255676868Y-88521303D01*
D11*
X96316494Y-81038845D02*
X96351499Y-81109652D01*
D10*
X256617553Y-81135750D02*
X256252120Y-81494682D01*
X256271976Y-87058327D02*
X256340468Y-86809913D01*
D12*
X102396449Y-80382643D02*
X102463365Y-80421118D01*
X100069337Y-82109732D02*
X100055284Y-82031041D01*
D11*
X94141582Y-83213758D02*
X94072206Y-83175067D01*
D10*
X256645215Y-85500644D02*
X256747836Y-84319097D01*
X255676868Y-88521303D02*
X255773197Y-88344655D01*
X256142688Y-80786183D02*
X256455241Y-80603086D01*
D12*
X103160864Y-82262859D02*
X103135742Y-82337105D01*
X88747646Y-80240092D02*
X88824955Y-80222250D01*
D11*
X95708673Y-83175067D02*
X95639297Y-83213758D01*
X94582883Y-80206887D02*
X94659272Y-80193990D01*
D12*
X100268208Y-82616283D02*
X100229732Y-82549366D01*
D10*
X255130906Y-77279708D02*
X255204367Y-77351652D01*
D12*
X101634788Y-80189787D02*
X101717017Y-80191866D01*
D11*
X96316494Y-82536561D02*
X96277804Y-82605937D01*
D10*
X254569307Y-76963305D02*
X254654616Y-76988025D01*
X256649566Y-85151500D02*
X256682667Y-84850824D01*
D12*
X100618366Y-80554666D02*
X100678730Y-80507230D01*
X102959805Y-82681101D02*
X102915254Y-82743751D01*
D10*
X258506088Y-79961826D02*
X258842153Y-80017626D01*
D12*
X103039844Y-81026029D02*
X103075132Y-81094927D01*
D10*
X251578214Y-82728334D02*
X246721281Y-80660990D01*
D12*
X87599381Y-81388344D02*
X87620914Y-81312517D01*
X89839752Y-83228044D02*
X89768971Y-83260044D01*
X90712442Y-81465651D02*
X90726494Y-81544340D01*
X90329796Y-82862096D02*
X90276887Y-82917592D01*
X87741934Y-81026029D02*
X87780410Y-80959113D01*
D10*
X253962792Y-89543132D02*
X254018588Y-89561384D01*
D12*
X87866524Y-80831634D02*
X87913961Y-80771270D01*
D10*
X255166063Y-81963123D02*
X255218044Y-81787599D01*
D12*
X100045122Y-81951070D02*
X100038952Y-81869918D01*
D10*
X256103824Y-79177541D02*
X256195137Y-79520617D01*
D11*
X94507068Y-83351937D02*
X94431968Y-83331671D01*
D12*
X102109959Y-83313778D02*
X102034132Y-83335311D01*
X102590846Y-83068163D02*
X102528198Y-83112714D01*
D11*
X94890440Y-83397997D02*
X94813193Y-83396154D01*
D10*
X254395231Y-81777691D02*
X254657018Y-81746046D01*
D12*
X88253581Y-80462680D02*
X88318413Y-80421118D01*
X100108712Y-82262871D02*
X100087179Y-82187042D01*
D11*
X94004402Y-80442713D02*
X94072205Y-80400338D01*
D10*
X255481002Y-88897170D02*
X255790885Y-88395804D01*
X253636794Y-89367740D02*
X253743690Y-89438506D01*
X258211627Y-79972669D02*
X258506088Y-79961826D01*
D12*
X87674647Y-81165708D02*
X87706646Y-81094927D01*
X90163412Y-80554666D02*
X90221392Y-80604889D01*
D11*
X96500730Y-81787703D02*
X96498887Y-81864950D01*
D10*
X252402307Y-85308503D02*
X252166875Y-85147003D01*
X253048311Y-77793901D02*
X253236960Y-77539076D01*
D12*
X89390337Y-80208198D02*
X89469026Y-80222250D01*
D10*
X253965722Y-76961480D02*
X254420562Y-76894705D01*
X255846123Y-78418881D02*
X255901028Y-78559054D01*
X252838191Y-78144863D02*
X253188466Y-77597686D01*
D11*
X93938317Y-80488773D02*
X94004402Y-80442713D01*
X93874091Y-83036888D02*
X93811868Y-82983458D01*
D10*
X252864904Y-88424901D02*
X253107055Y-88828682D01*
D12*
X101159617Y-80261624D02*
X101235444Y-80240092D01*
X90221392Y-82970502D02*
X90163412Y-83020726D01*
D10*
X256757661Y-82988359D02*
X256750710Y-82712449D01*
X251962047Y-81294909D02*
X252097724Y-80452923D01*
D12*
X88454228Y-83228049D02*
X88385329Y-83192761D01*
D10*
X253236960Y-77539076D02*
X253435013Y-77325878D01*
X254978913Y-77155575D02*
X255055755Y-77214329D01*
D12*
X102867817Y-80771270D02*
X102915254Y-80831634D01*
X88190932Y-83068173D02*
X88130568Y-83020736D01*
D10*
X254076566Y-76957025D02*
X254189219Y-76937786D01*
D12*
X89229218Y-83383539D02*
X89146990Y-83385619D01*
D10*
X254018588Y-89561384D02*
X254074763Y-89576401D01*
D12*
X100678730Y-83068173D02*
X100618366Y-83020736D01*
X89390337Y-83367207D02*
X89310367Y-83377369D01*
X100741378Y-83112723D02*
X100678730Y-83068173D01*
D10*
X247056859Y-79818372D02*
X246348282Y-81480219D01*
X256404367Y-86552840D02*
X256463519Y-86287504D01*
D12*
X90647944Y-82337105D02*
X90619333Y-82409670D01*
D10*
X255004495Y-81752769D02*
X255218044Y-81787597D01*
D12*
X89975567Y-80421118D02*
X90040399Y-80462680D01*
D15*
X94945639Y-81176343D02*
X94976726Y-81178707D01*
X95007362Y-81182600D01*
X95037508Y-81187983D01*
X95067124Y-81194818D01*
X95096173Y-81203066D01*
X95124617Y-81212689D01*
X95152416Y-81223649D01*
X95179532Y-81235908D01*
X95205927Y-81249425D01*
X95231562Y-81264164D01*
X95256399Y-81280086D01*
X95280399Y-81297152D01*
X95303525Y-81315324D01*
X95325736Y-81334563D01*
X95346996Y-81354832D01*
X95367265Y-81376091D01*
X95386506Y-81398301D01*
X95404679Y-81421426D01*
X95421746Y-81445426D01*
X95437668Y-81470262D01*
X95452408Y-81495897D01*
X95465927Y-81522291D01*
X95478186Y-81549407D01*
X95489147Y-81577205D01*
X95498771Y-81605648D01*
X95507020Y-81634697D01*
X95513855Y-81664314D01*
X95519239Y-81694460D01*
X95523132Y-81725096D01*
X95525496Y-81756184D01*
X95526292Y-81787686D01*
X95525496Y-81819189D01*
X95523132Y-81850277D01*
X95519239Y-81880914D01*
X95513855Y-81911060D01*
X95507020Y-81940678D01*
X95498771Y-81969728D01*
X95489147Y-81998172D01*
X95478186Y-82025971D01*
X95465927Y-82053088D01*
X95452408Y-82079484D01*
X95437668Y-82105120D01*
X95421746Y-82129957D01*
X95404679Y-82153959D01*
X95386506Y-82177085D01*
X95367265Y-82199297D01*
X95346996Y-82220557D01*
X95325736Y-82240827D01*
X95303525Y-82260068D01*
X95280399Y-82278241D01*
X95256399Y-82295309D01*
X95231562Y-82311232D01*
X95205927Y-82325972D01*
X95179532Y-82339491D01*
X95152416Y-82351751D01*
X95124617Y-82362712D01*
X95096173Y-82372336D01*
X95067124Y-82380586D01*
X95037508Y-82387421D01*
X95007362Y-82392805D01*
X94976726Y-82396698D01*
X94945639Y-82399062D01*
X94914137Y-82399858D01*
X94882636Y-82399062D01*
X94851548Y-82396698D01*
X94820912Y-82392805D01*
X94790766Y-82387421D01*
X94761150Y-82380586D01*
X94732100Y-82372336D01*
X94703657Y-82362712D01*
X94675858Y-82351751D01*
X94648742Y-82339491D01*
X94622347Y-82325972D01*
X94596712Y-82311232D01*
X94571875Y-82295309D01*
X94547874Y-82278241D01*
X94524749Y-82260068D01*
X94502537Y-82240827D01*
X94481277Y-82220557D01*
X94461008Y-82199297D01*
X94441768Y-82177085D01*
X94423595Y-82153959D01*
X94406528Y-82129957D01*
X94390605Y-82105120D01*
X94375865Y-82079484D01*
X94362346Y-82053088D01*
X94350087Y-82025971D01*
X94339127Y-81998172D01*
X94329502Y-81969728D01*
X94321253Y-81940678D01*
X94314418Y-81911060D01*
X94309035Y-81880914D01*
X94305142Y-81850277D01*
X94302778Y-81819189D01*
X94301981Y-81787686D01*
X94302778Y-81756184D01*
X94305142Y-81725096D01*
X94309035Y-81694460D01*
X94314418Y-81664314D01*
X94321253Y-81634697D01*
X94329502Y-81605648D01*
X94339127Y-81577205D01*
X94350087Y-81549407D01*
X94362346Y-81522291D01*
X94375865Y-81495897D01*
X94390605Y-81470262D01*
X94406528Y-81445426D01*
X94423595Y-81421426D01*
X94441768Y-81398301D01*
X94461008Y-81376091D01*
X94481277Y-81354832D01*
X94502537Y-81334563D01*
X94524749Y-81315324D01*
X94547874Y-81297152D01*
X94571875Y-81280086D01*
X94596712Y-81264164D01*
X94622347Y-81249425D01*
X94648742Y-81235908D01*
X94675858Y-81223649D01*
X94703657Y-81212689D01*
X94732100Y-81203066D01*
X94761150Y-81194818D01*
X94790766Y-81187983D01*
X94820912Y-81182600D01*
X94851548Y-81178707D01*
X94882636Y-81176343D01*
X94914137Y-81175547D01*
X94945639Y-81176343D01*
G36*
X94945639Y-81176343D02*
G01*
X94976726Y-81178707D01*
X95007362Y-81182600D01*
X95037508Y-81187983D01*
X95067124Y-81194818D01*
X95096173Y-81203066D01*
X95124617Y-81212689D01*
X95152416Y-81223649D01*
X95179532Y-81235908D01*
X95205927Y-81249425D01*
X95231562Y-81264164D01*
X95256399Y-81280086D01*
X95280399Y-81297152D01*
X95303525Y-81315324D01*
X95325736Y-81334563D01*
X95346996Y-81354832D01*
X95367265Y-81376091D01*
X95386506Y-81398301D01*
X95404679Y-81421426D01*
X95421746Y-81445426D01*
X95437668Y-81470262D01*
X95452408Y-81495897D01*
X95465927Y-81522291D01*
X95478186Y-81549407D01*
X95489147Y-81577205D01*
X95498771Y-81605648D01*
X95507020Y-81634697D01*
X95513855Y-81664314D01*
X95519239Y-81694460D01*
X95523132Y-81725096D01*
X95525496Y-81756184D01*
X95526292Y-81787686D01*
X95525496Y-81819189D01*
X95523132Y-81850277D01*
X95519239Y-81880914D01*
X95513855Y-81911060D01*
X95507020Y-81940678D01*
X95498771Y-81969728D01*
X95489147Y-81998172D01*
X95478186Y-82025971D01*
X95465927Y-82053088D01*
X95452408Y-82079484D01*
X95437668Y-82105120D01*
X95421746Y-82129957D01*
X95404679Y-82153959D01*
X95386506Y-82177085D01*
X95367265Y-82199297D01*
X95346996Y-82220557D01*
X95325736Y-82240827D01*
X95303525Y-82260068D01*
X95280399Y-82278241D01*
X95256399Y-82295309D01*
X95231562Y-82311232D01*
X95205927Y-82325972D01*
X95179532Y-82339491D01*
X95152416Y-82351751D01*
X95124617Y-82362712D01*
X95096173Y-82372336D01*
X95067124Y-82380586D01*
X95037508Y-82387421D01*
X95007362Y-82392805D01*
X94976726Y-82396698D01*
X94945639Y-82399062D01*
X94914137Y-82399858D01*
X94882636Y-82399062D01*
X94851548Y-82396698D01*
X94820912Y-82392805D01*
X94790766Y-82387421D01*
X94761150Y-82380586D01*
X94732100Y-82372336D01*
X94703657Y-82362712D01*
X94675858Y-82351751D01*
X94648742Y-82339491D01*
X94622347Y-82325972D01*
X94596712Y-82311232D01*
X94571875Y-82295309D01*
X94547874Y-82278241D01*
X94524749Y-82260068D01*
X94502537Y-82240827D01*
X94481277Y-82220557D01*
X94461008Y-82199297D01*
X94441768Y-82177085D01*
X94423595Y-82153959D01*
X94406528Y-82129957D01*
X94390605Y-82105120D01*
X94375865Y-82079484D01*
X94362346Y-82053088D01*
X94350087Y-82025971D01*
X94339127Y-81998172D01*
X94329502Y-81969728D01*
X94321253Y-81940678D01*
X94314418Y-81911060D01*
X94309035Y-81880914D01*
X94305142Y-81850277D01*
X94302778Y-81819189D01*
X94301981Y-81787686D01*
X94302778Y-81756184D01*
X94305142Y-81725096D01*
X94309035Y-81694460D01*
X94314418Y-81664314D01*
X94321253Y-81634697D01*
X94329502Y-81605648D01*
X94339127Y-81577205D01*
X94350087Y-81549407D01*
X94362346Y-81522291D01*
X94375865Y-81495897D01*
X94390605Y-81470262D01*
X94406528Y-81445426D01*
X94423595Y-81421426D01*
X94441768Y-81398301D01*
X94461008Y-81376091D01*
X94481277Y-81354832D01*
X94502537Y-81334563D01*
X94524749Y-81315324D01*
X94547874Y-81297152D01*
X94571875Y-81280086D01*
X94596712Y-81264164D01*
X94622347Y-81249425D01*
X94648742Y-81235908D01*
X94675858Y-81223649D01*
X94703657Y-81212689D01*
X94732100Y-81203066D01*
X94761150Y-81194818D01*
X94790766Y-81187983D01*
X94820912Y-81182600D01*
X94851548Y-81178707D01*
X94882636Y-81176343D01*
X94914137Y-81175547D01*
X94945639Y-81176343D01*
G37*
D10*
X252860801Y-88397806D02*
X252949007Y-88555546D01*
D12*
X89310367Y-83377369D02*
X89229218Y-83383539D01*
D10*
X255901775Y-80996627D02*
X256142688Y-80786183D01*
X257485784Y-80119245D02*
X257844701Y-80028055D01*
D12*
X101312753Y-80222250D02*
X101391441Y-80208198D01*
D11*
X96454671Y-82171076D02*
X96434405Y-82246176D01*
D10*
X255645993Y-81235336D02*
X255901775Y-80996627D01*
D12*
X101717017Y-83383539D02*
X101634788Y-83385619D01*
X101798166Y-80198036D02*
X101878135Y-80208198D01*
D10*
X259303428Y-82485940D02*
X259023559Y-82799008D01*
X256340468Y-86809913D02*
X256404367Y-86552840D01*
X253855718Y-77032754D02*
X253965362Y-76988768D01*
D12*
X88072588Y-82970513D02*
X88017093Y-82917604D01*
D10*
X256087136Y-79124247D02*
X256357616Y-80272018D01*
D12*
X88253581Y-83112723D02*
X88190932Y-83068173D01*
D10*
X254677223Y-89530368D02*
X254798239Y-89474649D01*
X253457742Y-84793319D02*
X253269248Y-84659038D01*
D16*
X95096499Y-87234479D02*
X96064118Y-87234479D01*
X96064118Y-87234479D02*
X96160880Y-86266860D01*
X96160880Y-86266860D02*
X96064118Y-86363621D01*
X96064118Y-86363621D02*
X95870594Y-86460383D01*
X95870594Y-86460383D02*
X95386785Y-86460383D01*
X95386785Y-86460383D02*
X95193261Y-86363621D01*
X95193261Y-86363621D02*
X95096499Y-86266860D01*
X95096499Y-86266860D02*
X94999737Y-86073336D01*
X94999737Y-86073336D02*
X94999737Y-85589526D01*
X94999737Y-85589526D02*
X95096499Y-85396002D01*
X95096499Y-85396002D02*
X95193261Y-85299241D01*
X95193261Y-85299241D02*
X95386785Y-85202479D01*
X95386785Y-85202479D02*
X95870594Y-85202479D01*
X95870594Y-85202479D02*
X96064118Y-85299241D01*
X96064118Y-85299241D02*
X96160880Y-85396002D01*
X94419166Y-87234479D02*
X93741832Y-85202479D01*
X93741832Y-85202479D02*
X93064499Y-87234479D01*
X65112429Y-204012797D02*
X65112429Y-202851654D01*
X67144429Y-203432225D02*
X65112429Y-203432225D01*
X67047668Y-201400226D02*
X67144429Y-201593750D01*
X67144429Y-201593750D02*
X67144429Y-201980797D01*
X67144429Y-201980797D02*
X67047668Y-202174321D01*
X67047668Y-202174321D02*
X66854144Y-202271083D01*
X66854144Y-202271083D02*
X66080048Y-202271083D01*
X66080048Y-202271083D02*
X65886525Y-202174321D01*
X65886525Y-202174321D02*
X65789763Y-201980797D01*
X65789763Y-201980797D02*
X65789763Y-201593750D01*
X65789763Y-201593750D02*
X65886525Y-201400226D01*
X65886525Y-201400226D02*
X66080048Y-201303464D01*
X66080048Y-201303464D02*
X66273572Y-201303464D01*
X66273572Y-201303464D02*
X66467096Y-202271083D01*
X67047668Y-199658512D02*
X67144429Y-199852036D01*
X67144429Y-199852036D02*
X67144429Y-200239083D01*
X67144429Y-200239083D02*
X67047668Y-200432607D01*
X67047668Y-200432607D02*
X66854144Y-200529369D01*
X66854144Y-200529369D02*
X66080048Y-200529369D01*
X66080048Y-200529369D02*
X65886525Y-200432607D01*
X65886525Y-200432607D02*
X65789763Y-200239083D01*
X65789763Y-200239083D02*
X65789763Y-199852036D01*
X65789763Y-199852036D02*
X65886525Y-199658512D01*
X65886525Y-199658512D02*
X66080048Y-199561750D01*
X66080048Y-199561750D02*
X66273572Y-199561750D01*
X66273572Y-199561750D02*
X66467096Y-200529369D01*
X65789763Y-198690893D02*
X67144429Y-198690893D01*
X65983287Y-198690893D02*
X65886525Y-198594131D01*
X65886525Y-198594131D02*
X65789763Y-198400607D01*
X65789763Y-198400607D02*
X65789763Y-198110322D01*
X65789763Y-198110322D02*
X65886525Y-197916798D01*
X65886525Y-197916798D02*
X66080048Y-197820036D01*
X66080048Y-197820036D02*
X67144429Y-197820036D01*
X67047668Y-196949179D02*
X67144429Y-196755655D01*
X67144429Y-196755655D02*
X67144429Y-196368607D01*
X67144429Y-196368607D02*
X67047668Y-196175084D01*
X67047668Y-196175084D02*
X66854144Y-196078322D01*
X66854144Y-196078322D02*
X66757382Y-196078322D01*
X66757382Y-196078322D02*
X66563858Y-196175084D01*
X66563858Y-196175084D02*
X66467096Y-196368607D01*
X66467096Y-196368607D02*
X66467096Y-196658893D01*
X66467096Y-196658893D02*
X66370334Y-196852417D01*
X66370334Y-196852417D02*
X66176810Y-196949179D01*
X66176810Y-196949179D02*
X66080048Y-196949179D01*
X66080048Y-196949179D02*
X65886525Y-196852417D01*
X65886525Y-196852417D02*
X65789763Y-196658893D01*
X65789763Y-196658893D02*
X65789763Y-196368607D01*
X65789763Y-196368607D02*
X65886525Y-196175084D01*
X65789763Y-195400989D02*
X67144429Y-194917179D01*
X65789763Y-194433370D02*
X67144429Y-194917179D01*
X67144429Y-194917179D02*
X67628239Y-195110703D01*
X67628239Y-195110703D02*
X67725001Y-195207465D01*
X67725001Y-195207465D02*
X67821763Y-195400989D01*
X67144429Y-191046704D02*
X67144429Y-192207847D01*
X67144429Y-191627275D02*
X65112429Y-191627275D01*
X65112429Y-191627275D02*
X65402715Y-191820799D01*
X65402715Y-191820799D02*
X65596239Y-192014323D01*
X65596239Y-192014323D02*
X65693001Y-192207847D01*
X65305953Y-190272609D02*
X65209191Y-190175847D01*
X65209191Y-190175847D02*
X65112429Y-189982323D01*
X65112429Y-189982323D02*
X65112429Y-189498514D01*
X65112429Y-189498514D02*
X65209191Y-189304990D01*
X65209191Y-189304990D02*
X65305953Y-189208228D01*
X65305953Y-189208228D02*
X65499477Y-189111466D01*
X65499477Y-189111466D02*
X65693001Y-189111466D01*
X65693001Y-189111466D02*
X65983287Y-189208228D01*
X65983287Y-189208228D02*
X67144429Y-190369371D01*
X67144429Y-190369371D02*
X67144429Y-189111466D01*
X66370334Y-188240609D02*
X66370334Y-186692419D01*
X67144429Y-184660418D02*
X67144429Y-185821561D01*
X67144429Y-185240989D02*
X65112429Y-185240989D01*
X65112429Y-185240989D02*
X65402715Y-185434513D01*
X65402715Y-185434513D02*
X65596239Y-185628037D01*
X65596239Y-185628037D02*
X65693001Y-185821561D01*
X65305953Y-183886323D02*
X65209191Y-183789561D01*
X65209191Y-183789561D02*
X65112429Y-183596037D01*
X65112429Y-183596037D02*
X65112429Y-183112228D01*
X65112429Y-183112228D02*
X65209191Y-182918704D01*
X65209191Y-182918704D02*
X65305953Y-182821942D01*
X65305953Y-182821942D02*
X65499477Y-182725180D01*
X65499477Y-182725180D02*
X65693001Y-182725180D01*
X65693001Y-182725180D02*
X65983287Y-182821942D01*
X65983287Y-182821942D02*
X67144429Y-183983085D01*
X67144429Y-183983085D02*
X67144429Y-182725180D01*
X66563858Y-180402895D02*
X66563858Y-179435276D01*
X67144429Y-180596419D02*
X65112429Y-179919085D01*
X65112429Y-179919085D02*
X67144429Y-179241752D01*
X67144429Y-178564419D02*
X65789763Y-178564419D01*
X66176810Y-178564419D02*
X65983287Y-178467657D01*
X65983287Y-178467657D02*
X65886525Y-178370895D01*
X65886525Y-178370895D02*
X65789763Y-178177371D01*
X65789763Y-178177371D02*
X65789763Y-177983848D01*
X67047668Y-176532419D02*
X67144429Y-176725943D01*
X67144429Y-176725943D02*
X67144429Y-177112990D01*
X67144429Y-177112990D02*
X67047668Y-177306514D01*
X67047668Y-177306514D02*
X66854144Y-177403276D01*
X66854144Y-177403276D02*
X66080048Y-177403276D01*
X66080048Y-177403276D02*
X65886525Y-177306514D01*
X65886525Y-177306514D02*
X65789763Y-177112990D01*
X65789763Y-177112990D02*
X65789763Y-176725943D01*
X65789763Y-176725943D02*
X65886525Y-176532419D01*
X65886525Y-176532419D02*
X66080048Y-176435657D01*
X66080048Y-176435657D02*
X66273572Y-176435657D01*
X66273572Y-176435657D02*
X66467096Y-177403276D01*
X65789763Y-175564800D02*
X67144429Y-175564800D01*
X65983287Y-175564800D02*
X65886525Y-175468038D01*
X65886525Y-175468038D02*
X65789763Y-175274514D01*
X65789763Y-175274514D02*
X65789763Y-174984229D01*
X65789763Y-174984229D02*
X65886525Y-174790705D01*
X65886525Y-174790705D02*
X66080048Y-174693943D01*
X66080048Y-174693943D02*
X67144429Y-174693943D01*
X67144429Y-172855467D02*
X66080048Y-172855467D01*
X66080048Y-172855467D02*
X65886525Y-172952229D01*
X65886525Y-172952229D02*
X65789763Y-173145753D01*
X65789763Y-173145753D02*
X65789763Y-173532800D01*
X65789763Y-173532800D02*
X65886525Y-173726324D01*
X67047668Y-172855467D02*
X67144429Y-173048991D01*
X67144429Y-173048991D02*
X67144429Y-173532800D01*
X67144429Y-173532800D02*
X67047668Y-173726324D01*
X67047668Y-173726324D02*
X66854144Y-173823086D01*
X66854144Y-173823086D02*
X66660620Y-173823086D01*
X66660620Y-173823086D02*
X66467096Y-173726324D01*
X66467096Y-173726324D02*
X66370334Y-173532800D01*
X66370334Y-173532800D02*
X66370334Y-173048991D01*
X66370334Y-173048991D02*
X66273572Y-172855467D01*
X66370334Y-171887848D02*
X66370334Y-170339658D01*
X65112429Y-169662324D02*
X65112429Y-168501181D01*
X67144429Y-169081752D02*
X65112429Y-169081752D01*
X67144429Y-167533562D02*
X67047668Y-167727086D01*
X67047668Y-167727086D02*
X66950906Y-167823848D01*
X66950906Y-167823848D02*
X66757382Y-167920610D01*
X66757382Y-167920610D02*
X66176810Y-167920610D01*
X66176810Y-167920610D02*
X65983287Y-167823848D01*
X65983287Y-167823848D02*
X65886525Y-167727086D01*
X65886525Y-167727086D02*
X65789763Y-167533562D01*
X65789763Y-167533562D02*
X65789763Y-167243277D01*
X65789763Y-167243277D02*
X65886525Y-167049753D01*
X65886525Y-167049753D02*
X65983287Y-166952991D01*
X65983287Y-166952991D02*
X66176810Y-166856229D01*
X66176810Y-166856229D02*
X66757382Y-166856229D01*
X66757382Y-166856229D02*
X66950906Y-166952991D01*
X66950906Y-166952991D02*
X67047668Y-167049753D01*
X67047668Y-167049753D02*
X67144429Y-167243277D01*
X67144429Y-167243277D02*
X67144429Y-167533562D01*
X65789763Y-165985372D02*
X67821763Y-165985372D01*
X65886525Y-165985372D02*
X65789763Y-165791848D01*
X65789763Y-165791848D02*
X65789763Y-165404801D01*
X65789763Y-165404801D02*
X65886525Y-165211277D01*
X65886525Y-165211277D02*
X65983287Y-165114515D01*
X65983287Y-165114515D02*
X66176810Y-165017753D01*
X66176810Y-165017753D02*
X66757382Y-165017753D01*
X66757382Y-165017753D02*
X66950906Y-165114515D01*
X66950906Y-165114515D02*
X67047668Y-165211277D01*
X67047668Y-165211277D02*
X67144429Y-165404801D01*
X67144429Y-165404801D02*
X67144429Y-165791848D01*
X67144429Y-165791848D02*
X67047668Y-165985372D01*
X65112429Y-162888992D02*
X67144429Y-162211658D01*
X67144429Y-162211658D02*
X65112429Y-161534325D01*
X65112429Y-160469944D02*
X65112429Y-160276421D01*
X65112429Y-160276421D02*
X65209191Y-160082897D01*
X65209191Y-160082897D02*
X65305953Y-159986135D01*
X65305953Y-159986135D02*
X65499477Y-159889373D01*
X65499477Y-159889373D02*
X65886525Y-159792611D01*
X65886525Y-159792611D02*
X66370334Y-159792611D01*
X66370334Y-159792611D02*
X66757382Y-159889373D01*
X66757382Y-159889373D02*
X66950906Y-159986135D01*
X66950906Y-159986135D02*
X67047668Y-160082897D01*
X67047668Y-160082897D02*
X67144429Y-160276421D01*
X67144429Y-160276421D02*
X67144429Y-160469944D01*
X67144429Y-160469944D02*
X67047668Y-160663468D01*
X67047668Y-160663468D02*
X66950906Y-160760230D01*
X66950906Y-160760230D02*
X66757382Y-160856992D01*
X66757382Y-160856992D02*
X66370334Y-160953754D01*
X66370334Y-160953754D02*
X65886525Y-160953754D01*
X65886525Y-160953754D02*
X65499477Y-160856992D01*
X65499477Y-160856992D02*
X65305953Y-160760230D01*
X65305953Y-160760230D02*
X65209191Y-160663468D01*
X65209191Y-160663468D02*
X65112429Y-160469944D01*
X66950906Y-158921754D02*
X67047668Y-158824992D01*
X67047668Y-158824992D02*
X67144429Y-158921754D01*
X67144429Y-158921754D02*
X67047668Y-159018516D01*
X67047668Y-159018516D02*
X66950906Y-158921754D01*
X66950906Y-158921754D02*
X67144429Y-158921754D01*
X67144429Y-156889754D02*
X67144429Y-158050897D01*
X67144429Y-157470325D02*
X65112429Y-157470325D01*
X65112429Y-157470325D02*
X65402715Y-157663849D01*
X65402715Y-157663849D02*
X65596239Y-157857373D01*
X65596239Y-157857373D02*
X65693001Y-158050897D01*
X67144429Y-153309564D02*
X66176810Y-153986897D01*
X67144429Y-154470707D02*
X65112429Y-154470707D01*
X65112429Y-154470707D02*
X65112429Y-153696612D01*
X65112429Y-153696612D02*
X65209191Y-153503088D01*
X65209191Y-153503088D02*
X65305953Y-153406326D01*
X65305953Y-153406326D02*
X65499477Y-153309564D01*
X65499477Y-153309564D02*
X65789763Y-153309564D01*
X65789763Y-153309564D02*
X65983287Y-153406326D01*
X65983287Y-153406326D02*
X66080048Y-153503088D01*
X66080048Y-153503088D02*
X66176810Y-153696612D01*
X66176810Y-153696612D02*
X66176810Y-154470707D01*
X67144429Y-151374326D02*
X67144429Y-152535469D01*
X67144429Y-151954897D02*
X65112429Y-151954897D01*
X65112429Y-151954897D02*
X65402715Y-152148421D01*
X65402715Y-152148421D02*
X65596239Y-152341945D01*
X65596239Y-152341945D02*
X65693001Y-152535469D01*
D17*
X160627142Y-74179779D02*
X160579523Y-74227399D01*
X160579523Y-74227399D02*
X160436666Y-74275018D01*
X160436666Y-74275018D02*
X160341428Y-74275018D01*
X160341428Y-74275018D02*
X160198571Y-74227399D01*
X160198571Y-74227399D02*
X160103333Y-74132160D01*
X160103333Y-74132160D02*
X160055714Y-74036922D01*
X160055714Y-74036922D02*
X160008095Y-73846446D01*
X160008095Y-73846446D02*
X160008095Y-73703589D01*
X160008095Y-73703589D02*
X160055714Y-73513113D01*
X160055714Y-73513113D02*
X160103333Y-73417875D01*
X160103333Y-73417875D02*
X160198571Y-73322637D01*
X160198571Y-73322637D02*
X160341428Y-73275018D01*
X160341428Y-73275018D02*
X160436666Y-73275018D01*
X160436666Y-73275018D02*
X160579523Y-73322637D01*
X160579523Y-73322637D02*
X160627142Y-73370256D01*
X161579523Y-74275018D02*
X161008095Y-74275018D01*
X161293809Y-74275018D02*
X161293809Y-73275018D01*
X161293809Y-73275018D02*
X161198571Y-73417875D01*
X161198571Y-73417875D02*
X161103333Y-73513113D01*
X161103333Y-73513113D02*
X161008095Y-73560732D01*
X162436666Y-73275018D02*
X162246190Y-73275018D01*
X162246190Y-73275018D02*
X162150952Y-73322637D01*
X162150952Y-73322637D02*
X162103333Y-73370256D01*
X162103333Y-73370256D02*
X162008095Y-73513113D01*
X162008095Y-73513113D02*
X161960476Y-73703589D01*
X161960476Y-73703589D02*
X161960476Y-74084541D01*
X161960476Y-74084541D02*
X162008095Y-74179779D01*
X162008095Y-74179779D02*
X162055714Y-74227399D01*
X162055714Y-74227399D02*
X162150952Y-74275018D01*
X162150952Y-74275018D02*
X162341428Y-74275018D01*
X162341428Y-74275018D02*
X162436666Y-74227399D01*
X162436666Y-74227399D02*
X162484285Y-74179779D01*
X162484285Y-74179779D02*
X162531904Y-74084541D01*
X162531904Y-74084541D02*
X162531904Y-73846446D01*
X162531904Y-73846446D02*
X162484285Y-73751208D01*
X162484285Y-73751208D02*
X162436666Y-73703589D01*
X162436666Y-73703589D02*
X162341428Y-73655970D01*
X162341428Y-73655970D02*
X162150952Y-73655970D01*
X162150952Y-73655970D02*
X162055714Y-73703589D01*
X162055714Y-73703589D02*
X162008095Y-73751208D01*
X162008095Y-73751208D02*
X161960476Y-73846446D01*
D18*
X85293199Y-75771581D02*
X85293199Y-76860152D01*
X85293199Y-76860152D02*
X85220628Y-77077867D01*
X85220628Y-77077867D02*
X85075485Y-77223010D01*
X85075485Y-77223010D02*
X84857771Y-77295581D01*
X84857771Y-77295581D02*
X84712628Y-77295581D01*
X86672057Y-76279581D02*
X86672057Y-77295581D01*
X86309199Y-75699010D02*
X85946342Y-76787581D01*
X85946342Y-76787581D02*
X86889771Y-76787581D01*
D17*
X276104125Y-216211021D02*
X276121555Y-216276069D01*
X276121555Y-216276069D02*
X276091366Y-216423597D01*
X276091366Y-216423597D02*
X276043747Y-216506076D01*
X276043747Y-216506076D02*
X275931079Y-216605984D01*
X275931079Y-216605984D02*
X275800981Y-216640843D01*
X275800981Y-216640843D02*
X275694693Y-216634464D01*
X275694693Y-216634464D02*
X275505926Y-216580465D01*
X275505926Y-216580465D02*
X275382208Y-216509036D01*
X275382208Y-216509036D02*
X275241061Y-216372559D01*
X275241061Y-216372559D02*
X275182392Y-216283701D01*
X275182392Y-216283701D02*
X275147532Y-216153603D01*
X275147532Y-216153603D02*
X275177721Y-216006076D01*
X275177721Y-216006076D02*
X275225340Y-215923597D01*
X275225340Y-215923597D02*
X275338008Y-215823689D01*
X275338008Y-215823689D02*
X275403057Y-215806259D01*
X275593533Y-215476344D02*
X275576103Y-215411295D01*
X275576103Y-215411295D02*
X275582483Y-215305007D01*
X275582483Y-215305007D02*
X275701531Y-215098811D01*
X275701531Y-215098811D02*
X275790389Y-215040142D01*
X275790389Y-215040142D02*
X275855438Y-215022712D01*
X275855438Y-215022712D02*
X275961726Y-215029092D01*
X275961726Y-215029092D02*
X276044205Y-215076711D01*
X276044205Y-215076711D02*
X276144113Y-215189379D01*
X276144113Y-215189379D02*
X276353270Y-215969965D01*
X276353270Y-215969965D02*
X276662794Y-215433854D01*
X276514015Y-214358213D02*
X277091366Y-214691546D01*
X276065053Y-214373933D02*
X276564595Y-214937272D01*
X276564595Y-214937272D02*
X276874119Y-214401161D01*
X243728359Y-260216982D02*
X243710930Y-260282031D01*
X243710930Y-260282031D02*
X243611021Y-260394699D01*
X243611021Y-260394699D02*
X243528543Y-260442318D01*
X243528543Y-260442318D02*
X243381015Y-260472507D01*
X243381015Y-260472507D02*
X243250917Y-260437648D01*
X243250917Y-260437648D02*
X243162059Y-260378979D01*
X243162059Y-260378979D02*
X243025582Y-260237831D01*
X243025582Y-260237831D02*
X242954153Y-260114113D01*
X242954153Y-260114113D02*
X242900154Y-259925346D01*
X242900154Y-259925346D02*
X242893775Y-259819058D01*
X242893775Y-259819058D02*
X242928634Y-259688961D01*
X242928634Y-259688961D02*
X243028543Y-259576293D01*
X243028543Y-259576293D02*
X243111021Y-259528674D01*
X243111021Y-259528674D02*
X243258549Y-259498484D01*
X243258549Y-259498484D02*
X243323597Y-259515914D01*
X243653512Y-259325438D02*
X243670942Y-259260389D01*
X243670942Y-259260389D02*
X243729611Y-259171531D01*
X243729611Y-259171531D02*
X243935807Y-259052483D01*
X243935807Y-259052483D02*
X244042095Y-259046103D01*
X244042095Y-259046103D02*
X244107144Y-259063533D01*
X244107144Y-259063533D02*
X244196003Y-259122202D01*
X244196003Y-259122202D02*
X244243622Y-259204681D01*
X244243622Y-259204681D02*
X244273811Y-259352208D01*
X244273811Y-259352208D02*
X244064654Y-260132794D01*
X244064654Y-260132794D02*
X244600764Y-259823270D01*
X244389440Y-258790578D02*
X244925551Y-258481055D01*
X244925551Y-258481055D02*
X244827352Y-258977636D01*
X244827352Y-258977636D02*
X244951070Y-258906207D01*
X244951070Y-258906207D02*
X245057358Y-258899827D01*
X245057358Y-258899827D02*
X245122407Y-258917257D01*
X245122407Y-258917257D02*
X245211265Y-258975926D01*
X245211265Y-258975926D02*
X245330313Y-259182123D01*
X245330313Y-259182123D02*
X245336692Y-259288411D01*
X245336692Y-259288411D02*
X245319262Y-259353460D01*
X245319262Y-259353460D02*
X245260593Y-259442318D01*
X245260593Y-259442318D02*
X245013158Y-259585175D01*
X245013158Y-259585175D02*
X244906869Y-259591555D01*
X244906869Y-259591555D02*
X244841821Y-259574125D01*
X74179779Y-194972857D02*
X74227399Y-195020476D01*
X74227399Y-195020476D02*
X74275018Y-195163333D01*
X74275018Y-195163333D02*
X74275018Y-195258571D01*
X74275018Y-195258571D02*
X74227399Y-195401428D01*
X74227399Y-195401428D02*
X74132160Y-195496666D01*
X74132160Y-195496666D02*
X74036922Y-195544285D01*
X74036922Y-195544285D02*
X73846446Y-195591904D01*
X73846446Y-195591904D02*
X73703589Y-195591904D01*
X73703589Y-195591904D02*
X73513113Y-195544285D01*
X73513113Y-195544285D02*
X73417875Y-195496666D01*
X73417875Y-195496666D02*
X73322637Y-195401428D01*
X73322637Y-195401428D02*
X73275018Y-195258571D01*
X73275018Y-195258571D02*
X73275018Y-195163333D01*
X73275018Y-195163333D02*
X73322637Y-195020476D01*
X73322637Y-195020476D02*
X73370256Y-194972857D01*
X74275018Y-194020476D02*
X74275018Y-194591904D01*
X74275018Y-194306190D02*
X73275018Y-194306190D01*
X73275018Y-194306190D02*
X73417875Y-194401428D01*
X73417875Y-194401428D02*
X73513113Y-194496666D01*
X73513113Y-194496666D02*
X73560732Y-194591904D01*
X74275018Y-193544285D02*
X74275018Y-193353809D01*
X74275018Y-193353809D02*
X74227399Y-193258571D01*
X74227399Y-193258571D02*
X74179779Y-193210952D01*
X74179779Y-193210952D02*
X74036922Y-193115714D01*
X74036922Y-193115714D02*
X73846446Y-193068095D01*
X73846446Y-193068095D02*
X73465494Y-193068095D01*
X73465494Y-193068095D02*
X73370256Y-193115714D01*
X73370256Y-193115714D02*
X73322637Y-193163333D01*
X73322637Y-193163333D02*
X73275018Y-193258571D01*
X73275018Y-193258571D02*
X73275018Y-193449047D01*
X73275018Y-193449047D02*
X73322637Y-193544285D01*
X73322637Y-193544285D02*
X73370256Y-193591904D01*
X73370256Y-193591904D02*
X73465494Y-193639523D01*
X73465494Y-193639523D02*
X73703589Y-193639523D01*
X73703589Y-193639523D02*
X73798827Y-193591904D01*
X73798827Y-193591904D02*
X73846446Y-193544285D01*
X73846446Y-193544285D02*
X73894065Y-193449047D01*
X73894065Y-193449047D02*
X73894065Y-193258571D01*
X73894065Y-193258571D02*
X73846446Y-193163333D01*
X73846446Y-193163333D02*
X73798827Y-193115714D01*
X73798827Y-193115714D02*
X73703589Y-193068095D01*
X139388977Y-276104125D02*
X139323929Y-276121555D01*
X139323929Y-276121555D02*
X139176401Y-276091366D01*
X139176401Y-276091366D02*
X139093922Y-276043747D01*
X139093922Y-276043747D02*
X138994014Y-275931079D01*
X138994014Y-275931079D02*
X138959155Y-275800981D01*
X138959155Y-275800981D02*
X138965534Y-275694693D01*
X138965534Y-275694693D02*
X139019533Y-275505926D01*
X139019533Y-275505926D02*
X139090962Y-275382208D01*
X139090962Y-275382208D02*
X139227439Y-275241061D01*
X139227439Y-275241061D02*
X139316297Y-275182392D01*
X139316297Y-275182392D02*
X139446395Y-275147532D01*
X139446395Y-275147532D02*
X139593922Y-275177721D01*
X139593922Y-275177721D02*
X139676401Y-275225340D01*
X139676401Y-275225340D02*
X139776309Y-275338008D01*
X139776309Y-275338008D02*
X139793739Y-275403057D01*
X140123654Y-275593533D02*
X140188703Y-275576103D01*
X140188703Y-275576103D02*
X140294991Y-275582483D01*
X140294991Y-275582483D02*
X140501187Y-275701531D01*
X140501187Y-275701531D02*
X140559856Y-275790389D01*
X140559856Y-275790389D02*
X140577286Y-275855438D01*
X140577286Y-275855438D02*
X140570906Y-275961726D01*
X140570906Y-275961726D02*
X140523287Y-276044205D01*
X140523287Y-276044205D02*
X140410619Y-276144113D01*
X140410619Y-276144113D02*
X139630033Y-276353270D01*
X139630033Y-276353270D02*
X140166144Y-276662794D01*
X140990931Y-277138985D02*
X140496059Y-276853270D01*
X140743495Y-276996128D02*
X141243495Y-276130102D01*
X141243495Y-276130102D02*
X141089588Y-276206201D01*
X141089588Y-276206201D02*
X140959490Y-276241061D01*
X140959490Y-276241061D02*
X140853202Y-276234681D01*
X193687141Y-282139380D02*
X193639522Y-282187000D01*
X193639522Y-282187000D02*
X193496665Y-282234619D01*
X193496665Y-282234619D02*
X193401427Y-282234619D01*
X193401427Y-282234619D02*
X193258570Y-282187000D01*
X193258570Y-282187000D02*
X193163332Y-282091761D01*
X193163332Y-282091761D02*
X193115713Y-281996523D01*
X193115713Y-281996523D02*
X193068094Y-281806047D01*
X193068094Y-281806047D02*
X193068094Y-281663190D01*
X193068094Y-281663190D02*
X193115713Y-281472714D01*
X193115713Y-281472714D02*
X193163332Y-281377476D01*
X193163332Y-281377476D02*
X193258570Y-281282238D01*
X193258570Y-281282238D02*
X193401427Y-281234619D01*
X193401427Y-281234619D02*
X193496665Y-281234619D01*
X193496665Y-281234619D02*
X193639522Y-281282238D01*
X193639522Y-281282238D02*
X193687141Y-281329857D01*
X194068094Y-281329857D02*
X194115713Y-281282238D01*
X194115713Y-281282238D02*
X194210951Y-281234619D01*
X194210951Y-281234619D02*
X194449046Y-281234619D01*
X194449046Y-281234619D02*
X194544284Y-281282238D01*
X194544284Y-281282238D02*
X194591903Y-281329857D01*
X194591903Y-281329857D02*
X194639522Y-281425095D01*
X194639522Y-281425095D02*
X194639522Y-281520333D01*
X194639522Y-281520333D02*
X194591903Y-281663190D01*
X194591903Y-281663190D02*
X194020475Y-282234619D01*
X194020475Y-282234619D02*
X194639522Y-282234619D01*
X195020475Y-281329857D02*
X195068094Y-281282238D01*
X195068094Y-281282238D02*
X195163332Y-281234619D01*
X195163332Y-281234619D02*
X195401427Y-281234619D01*
X195401427Y-281234619D02*
X195496665Y-281282238D01*
X195496665Y-281282238D02*
X195544284Y-281329857D01*
X195544284Y-281329857D02*
X195591903Y-281425095D01*
X195591903Y-281425095D02*
X195591903Y-281520333D01*
X195591903Y-281520333D02*
X195544284Y-281663190D01*
X195544284Y-281663190D02*
X194972856Y-282234619D01*
X194972856Y-282234619D02*
X195591903Y-282234619D01*
X258951313Y-111117758D02*
X258886264Y-111100329D01*
X258886264Y-111100329D02*
X258773596Y-111000420D01*
X258773596Y-111000420D02*
X258725977Y-110917942D01*
X258725977Y-110917942D02*
X258695788Y-110770414D01*
X258695788Y-110770414D02*
X258730647Y-110640316D01*
X258730647Y-110640316D02*
X258789316Y-110551458D01*
X258789316Y-110551458D02*
X258930464Y-110414981D01*
X258930464Y-110414981D02*
X259054182Y-110343552D01*
X259054182Y-110343552D02*
X259242949Y-110289553D01*
X259242949Y-110289553D02*
X259349237Y-110283174D01*
X259349237Y-110283174D02*
X259479334Y-110318033D01*
X259479334Y-110318033D02*
X259592002Y-110417942D01*
X259592002Y-110417942D02*
X259639621Y-110500420D01*
X259639621Y-110500420D02*
X259669811Y-110647948D01*
X259669811Y-110647948D02*
X259652381Y-110712996D01*
X259345025Y-111990163D02*
X259059310Y-111495292D01*
X259202167Y-111742728D02*
X260068193Y-111242728D01*
X260068193Y-111242728D02*
X259896856Y-111231678D01*
X259896856Y-111231678D02*
X259766758Y-111196818D01*
X259766758Y-111196818D02*
X259677900Y-111138149D01*
X260350946Y-112399138D02*
X259773596Y-112732471D01*
X260561813Y-112002465D02*
X259824176Y-112153411D01*
X259824176Y-112153411D02*
X260133700Y-112689522D01*
X79475828Y-140862020D02*
X79493258Y-140927068D01*
X79493258Y-140927068D02*
X79463069Y-141074596D01*
X79463069Y-141074596D02*
X79415450Y-141157075D01*
X79415450Y-141157075D02*
X79302782Y-141256983D01*
X79302782Y-141256983D02*
X79172684Y-141291842D01*
X79172684Y-141291842D02*
X79066396Y-141285463D01*
X79066396Y-141285463D02*
X78877629Y-141231464D01*
X78877629Y-141231464D02*
X78753911Y-141160035D01*
X78753911Y-141160035D02*
X78612764Y-141023558D01*
X78612764Y-141023558D02*
X78554095Y-140934700D01*
X78554095Y-140934700D02*
X78519235Y-140804602D01*
X78519235Y-140804602D02*
X78549424Y-140657075D01*
X78549424Y-140657075D02*
X78597043Y-140574596D01*
X78597043Y-140574596D02*
X78709711Y-140474688D01*
X78709711Y-140474688D02*
X78774760Y-140457258D01*
X80034497Y-140084853D02*
X79748783Y-140579724D01*
X79891640Y-140332288D02*
X79025615Y-139832288D01*
X79025615Y-139832288D02*
X79101714Y-139986196D01*
X79101714Y-139986196D02*
X79136573Y-140116293D01*
X79136573Y-140116293D02*
X79130193Y-140222581D01*
X79825340Y-139304267D02*
X79736482Y-139362936D01*
X79736482Y-139362936D02*
X79671433Y-139380365D01*
X79671433Y-139380365D02*
X79565145Y-139373986D01*
X79565145Y-139373986D02*
X79523905Y-139350176D01*
X79523905Y-139350176D02*
X79465236Y-139261318D01*
X79465236Y-139261318D02*
X79447806Y-139196269D01*
X79447806Y-139196269D02*
X79454186Y-139089981D01*
X79454186Y-139089981D02*
X79549424Y-138925024D01*
X79549424Y-138925024D02*
X79638283Y-138866355D01*
X79638283Y-138866355D02*
X79703331Y-138848925D01*
X79703331Y-138848925D02*
X79809620Y-138855305D01*
X79809620Y-138855305D02*
X79850859Y-138879114D01*
X79850859Y-138879114D02*
X79909528Y-138967972D01*
X79909528Y-138967972D02*
X79926958Y-139033021D01*
X79926958Y-139033021D02*
X79920578Y-139139309D01*
X79920578Y-139139309D02*
X79825340Y-139304267D01*
X79825340Y-139304267D02*
X79818960Y-139410555D01*
X79818960Y-139410555D02*
X79836390Y-139475604D01*
X79836390Y-139475604D02*
X79895059Y-139564462D01*
X79895059Y-139564462D02*
X80060016Y-139659700D01*
X80060016Y-139659700D02*
X80166304Y-139666080D01*
X80166304Y-139666080D02*
X80231353Y-139648650D01*
X80231353Y-139648650D02*
X80320212Y-139589981D01*
X80320212Y-139589981D02*
X80415450Y-139425024D01*
X80415450Y-139425024D02*
X80421829Y-139318736D01*
X80421829Y-139318736D02*
X80404400Y-139253687D01*
X80404400Y-139253687D02*
X80345731Y-139164828D01*
X80345731Y-139164828D02*
X80180773Y-139069590D01*
X80180773Y-139069590D02*
X80074485Y-139063211D01*
X80074485Y-139063211D02*
X80009436Y-139080640D01*
X80009436Y-139080640D02*
X79920578Y-139139309D01*
X111117758Y-96648685D02*
X111100329Y-96713734D01*
X111100329Y-96713734D02*
X111000420Y-96826402D01*
X111000420Y-96826402D02*
X110917942Y-96874021D01*
X110917942Y-96874021D02*
X110770414Y-96904210D01*
X110770414Y-96904210D02*
X110640316Y-96869351D01*
X110640316Y-96869351D02*
X110551458Y-96810682D01*
X110551458Y-96810682D02*
X110414981Y-96669534D01*
X110414981Y-96669534D02*
X110343552Y-96545816D01*
X110343552Y-96545816D02*
X110289553Y-96357049D01*
X110289553Y-96357049D02*
X110283174Y-96250761D01*
X110283174Y-96250761D02*
X110318033Y-96120664D01*
X110318033Y-96120664D02*
X110417942Y-96007996D01*
X110417942Y-96007996D02*
X110500420Y-95960377D01*
X110500420Y-95960377D02*
X110647948Y-95930187D01*
X110647948Y-95930187D02*
X110712996Y-95947617D01*
X111990163Y-96254973D02*
X111495292Y-96540688D01*
X111742728Y-96397831D02*
X111242728Y-95531805D01*
X111242728Y-95531805D02*
X111231678Y-95703142D01*
X111231678Y-95703142D02*
X111196818Y-95833240D01*
X111196818Y-95833240D02*
X111138149Y-95922098D01*
X111778839Y-95222281D02*
X112356189Y-94888948D01*
X112356189Y-94888948D02*
X112485035Y-95969259D01*
X95383016Y-243728359D02*
X95317967Y-243710930D01*
X95317967Y-243710930D02*
X95205299Y-243611021D01*
X95205299Y-243611021D02*
X95157680Y-243528543D01*
X95157680Y-243528543D02*
X95127491Y-243381015D01*
X95127491Y-243381015D02*
X95162350Y-243250917D01*
X95162350Y-243250917D02*
X95221019Y-243162059D01*
X95221019Y-243162059D02*
X95362167Y-243025582D01*
X95362167Y-243025582D02*
X95485885Y-242954153D01*
X95485885Y-242954153D02*
X95674652Y-242900154D01*
X95674652Y-242900154D02*
X95780940Y-242893775D01*
X95780940Y-242893775D02*
X95911037Y-242928634D01*
X95911037Y-242928634D02*
X96023705Y-243028543D01*
X96023705Y-243028543D02*
X96071324Y-243111021D01*
X96071324Y-243111021D02*
X96101514Y-243258549D01*
X96101514Y-243258549D02*
X96084084Y-243323597D01*
X96274560Y-243653512D02*
X96339609Y-243670942D01*
X96339609Y-243670942D02*
X96428467Y-243729611D01*
X96428467Y-243729611D02*
X96547515Y-243935807D01*
X96547515Y-243935807D02*
X96553895Y-244042095D01*
X96553895Y-244042095D02*
X96536465Y-244107144D01*
X96536465Y-244107144D02*
X96477796Y-244196003D01*
X96477796Y-244196003D02*
X96395317Y-244243622D01*
X96395317Y-244243622D02*
X96247790Y-244273811D01*
X96247790Y-244273811D02*
X95467204Y-244064654D01*
X95467204Y-244064654D02*
X95776728Y-244600764D01*
X96952277Y-244636875D02*
X96999896Y-244719354D01*
X96999896Y-244719354D02*
X97006276Y-244825642D01*
X97006276Y-244825642D02*
X96988846Y-244890691D01*
X96988846Y-244890691D02*
X96930177Y-244979549D01*
X96930177Y-244979549D02*
X96789029Y-245116027D01*
X96789029Y-245116027D02*
X96582832Y-245235074D01*
X96582832Y-245235074D02*
X96394066Y-245289073D01*
X96394066Y-245289073D02*
X96287778Y-245295453D01*
X96287778Y-245295453D02*
X96222729Y-245278023D01*
X96222729Y-245278023D02*
X96133870Y-245219354D01*
X96133870Y-245219354D02*
X96086251Y-245136875D01*
X96086251Y-245136875D02*
X96079872Y-245030587D01*
X96079872Y-245030587D02*
X96097301Y-244965539D01*
X96097301Y-244965539D02*
X96155970Y-244876680D01*
X96155970Y-244876680D02*
X96297118Y-244740203D01*
X96297118Y-244740203D02*
X96503315Y-244621155D01*
X96503315Y-244621155D02*
X96692081Y-244567156D01*
X96692081Y-244567156D02*
X96798370Y-244560777D01*
X96798370Y-244560777D02*
X96863418Y-244578206D01*
X96863418Y-244578206D02*
X96952277Y-244636875D01*
X214737978Y-79475828D02*
X214672930Y-79493258D01*
X214672930Y-79493258D02*
X214525402Y-79463069D01*
X214525402Y-79463069D02*
X214442923Y-79415450D01*
X214442923Y-79415450D02*
X214343015Y-79302782D01*
X214343015Y-79302782D02*
X214308156Y-79172684D01*
X214308156Y-79172684D02*
X214314535Y-79066396D01*
X214314535Y-79066396D02*
X214368534Y-78877629D01*
X214368534Y-78877629D02*
X214439963Y-78753911D01*
X214439963Y-78753911D02*
X214576440Y-78612764D01*
X214576440Y-78612764D02*
X214665298Y-78554095D01*
X214665298Y-78554095D02*
X214795396Y-78519235D01*
X214795396Y-78519235D02*
X214942923Y-78549424D01*
X214942923Y-78549424D02*
X215025402Y-78597043D01*
X215025402Y-78597043D02*
X215125310Y-78709711D01*
X215125310Y-78709711D02*
X215142740Y-78774760D01*
X215515145Y-80034497D02*
X215020274Y-79748783D01*
X215267710Y-79891640D02*
X215767710Y-79025615D01*
X215767710Y-79025615D02*
X215613802Y-79101714D01*
X215613802Y-79101714D02*
X215483705Y-79136573D01*
X215483705Y-79136573D02*
X215377417Y-79130193D01*
X216798692Y-79620853D02*
X216386299Y-79382758D01*
X216386299Y-79382758D02*
X216106965Y-79771341D01*
X216106965Y-79771341D02*
X216172013Y-79753911D01*
X216172013Y-79753911D02*
X216278302Y-79760291D01*
X216278302Y-79760291D02*
X216484498Y-79879339D01*
X216484498Y-79879339D02*
X216543167Y-79968197D01*
X216543167Y-79968197D02*
X216560597Y-80033246D01*
X216560597Y-80033246D02*
X216554217Y-80139534D01*
X216554217Y-80139534D02*
X216435170Y-80345731D01*
X216435170Y-80345731D02*
X216346311Y-80404400D01*
X216346311Y-80404400D02*
X216281262Y-80421829D01*
X216281262Y-80421829D02*
X216174974Y-80415450D01*
X216174974Y-80415450D02*
X215968778Y-80296402D01*
X215968778Y-80296402D02*
X215910109Y-80207544D01*
X215910109Y-80207544D02*
X215892679Y-80142495D01*
X282139380Y-161912857D02*
X282187000Y-161960476D01*
X282187000Y-161960476D02*
X282234619Y-162103333D01*
X282234619Y-162103333D02*
X282234619Y-162198571D01*
X282234619Y-162198571D02*
X282187000Y-162341428D01*
X282187000Y-162341428D02*
X282091761Y-162436666D01*
X282091761Y-162436666D02*
X281996523Y-162484285D01*
X281996523Y-162484285D02*
X281806047Y-162531904D01*
X281806047Y-162531904D02*
X281663190Y-162531904D01*
X281663190Y-162531904D02*
X281472714Y-162484285D01*
X281472714Y-162484285D02*
X281377476Y-162436666D01*
X281377476Y-162436666D02*
X281282238Y-162341428D01*
X281282238Y-162341428D02*
X281234619Y-162198571D01*
X281234619Y-162198571D02*
X281234619Y-162103333D01*
X281234619Y-162103333D02*
X281282238Y-161960476D01*
X281282238Y-161960476D02*
X281329857Y-161912857D01*
X282234619Y-160960476D02*
X282234619Y-161531904D01*
X282234619Y-161246190D02*
X281234619Y-161246190D01*
X281234619Y-161246190D02*
X281377476Y-161341428D01*
X281377476Y-161341428D02*
X281472714Y-161436666D01*
X281472714Y-161436666D02*
X281520333Y-161531904D01*
X281234619Y-160627142D02*
X281234619Y-160008095D01*
X281234619Y-160008095D02*
X281615571Y-160341428D01*
X281615571Y-160341428D02*
X281615571Y-160198571D01*
X281615571Y-160198571D02*
X281663190Y-160103333D01*
X281663190Y-160103333D02*
X281710809Y-160055714D01*
X281710809Y-160055714D02*
X281806047Y-160008095D01*
X281806047Y-160008095D02*
X282044142Y-160008095D01*
X282044142Y-160008095D02*
X282139380Y-160055714D01*
X282139380Y-160055714D02*
X282187000Y-160103333D01*
X282187000Y-160103333D02*
X282234619Y-160198571D01*
X282234619Y-160198571D02*
X282234619Y-160484285D01*
X282234619Y-160484285D02*
X282187000Y-160579523D01*
X282187000Y-160579523D02*
X282139380Y-160627142D01*
D19*
%TO.C,C16*%
X156860302Y-76755199D02*
X157660302Y-76755199D01*
X157260302Y-76355199D02*
X157260302Y-77155199D01*
X161270000Y-74990199D02*
X161270000Y-83150199D01*
X161310000Y-74990199D02*
X161310000Y-83150199D01*
X161350000Y-74990199D02*
X161350000Y-83150199D01*
X161390000Y-74991199D02*
X161390000Y-83149199D01*
X161430000Y-74993199D02*
X161430000Y-83147199D01*
X161470000Y-74994199D02*
X161470000Y-83146199D01*
X161510000Y-74996199D02*
X161510000Y-78030199D01*
X161510000Y-80110199D02*
X161510000Y-83144199D01*
X161550000Y-74999199D02*
X161550000Y-78030199D01*
X161550000Y-80110199D02*
X161550000Y-83141199D01*
X161590000Y-75002199D02*
X161590000Y-78030199D01*
X161590000Y-80110199D02*
X161590000Y-83138199D01*
X161630000Y-75005199D02*
X161630000Y-78030199D01*
X161630000Y-80110199D02*
X161630000Y-83135199D01*
X161670000Y-75009199D02*
X161670000Y-78030199D01*
X161670000Y-80110199D02*
X161670000Y-83131199D01*
X161710000Y-75013199D02*
X161710000Y-78030199D01*
X161710000Y-80110199D02*
X161710000Y-83127199D01*
X161750000Y-75018199D02*
X161750000Y-78030199D01*
X161750000Y-80110199D02*
X161750000Y-83122199D01*
X161790000Y-75022199D02*
X161790000Y-78030199D01*
X161790000Y-80110199D02*
X161790000Y-83118199D01*
X161830000Y-75028199D02*
X161830000Y-78030199D01*
X161830000Y-80110199D02*
X161830000Y-83112199D01*
X161870000Y-75033199D02*
X161870000Y-78030199D01*
X161870000Y-80110199D02*
X161870000Y-83107199D01*
X161910000Y-75040199D02*
X161910000Y-78030199D01*
X161910000Y-80110199D02*
X161910000Y-83100199D01*
X161950000Y-75046199D02*
X161950000Y-78030199D01*
X161950000Y-80110199D02*
X161950000Y-83094199D01*
X161991000Y-75053199D02*
X161991000Y-78030199D01*
X161991000Y-80110199D02*
X161991000Y-83087199D01*
X162031000Y-75060199D02*
X162031000Y-78030199D01*
X162031000Y-80110199D02*
X162031000Y-83080199D01*
X162071000Y-75068199D02*
X162071000Y-78030199D01*
X162071000Y-80110199D02*
X162071000Y-83072199D01*
X162111000Y-75076199D02*
X162111000Y-78030199D01*
X162111000Y-80110199D02*
X162111000Y-83064199D01*
X162151000Y-75085199D02*
X162151000Y-78030199D01*
X162151000Y-80110199D02*
X162151000Y-83055199D01*
X162191000Y-75094199D02*
X162191000Y-78030199D01*
X162191000Y-80110199D02*
X162191000Y-83046199D01*
X162231000Y-75103199D02*
X162231000Y-78030199D01*
X162231000Y-80110199D02*
X162231000Y-83037199D01*
X162271000Y-75113199D02*
X162271000Y-78030199D01*
X162271000Y-80110199D02*
X162271000Y-83027199D01*
X162311000Y-75123199D02*
X162311000Y-78030199D01*
X162311000Y-80110199D02*
X162311000Y-83017199D01*
X162351000Y-75134199D02*
X162351000Y-78030199D01*
X162351000Y-80110199D02*
X162351000Y-83006199D01*
X162391000Y-75145199D02*
X162391000Y-78030199D01*
X162391000Y-80110199D02*
X162391000Y-82995199D01*
X162431000Y-75156199D02*
X162431000Y-78030199D01*
X162431000Y-80110199D02*
X162431000Y-82984199D01*
X162471000Y-75168199D02*
X162471000Y-78030199D01*
X162471000Y-80110199D02*
X162471000Y-82972199D01*
X162511000Y-75181199D02*
X162511000Y-78030199D01*
X162511000Y-80110199D02*
X162511000Y-82959199D01*
X162551000Y-75193199D02*
X162551000Y-78030199D01*
X162551000Y-80110199D02*
X162551000Y-82947199D01*
X162591000Y-75207199D02*
X162591000Y-78030199D01*
X162591000Y-80110199D02*
X162591000Y-82933199D01*
X162631000Y-75220199D02*
X162631000Y-78030199D01*
X162631000Y-80110199D02*
X162631000Y-82920199D01*
X162671000Y-75235199D02*
X162671000Y-78030199D01*
X162671000Y-80110199D02*
X162671000Y-82905199D01*
X162711000Y-75249199D02*
X162711000Y-78030199D01*
X162711000Y-80110199D02*
X162711000Y-82891199D01*
X162751000Y-75265199D02*
X162751000Y-78030199D01*
X162751000Y-80110199D02*
X162751000Y-82875199D01*
X162791000Y-75280199D02*
X162791000Y-78030199D01*
X162791000Y-80110199D02*
X162791000Y-82860199D01*
X162831000Y-75296199D02*
X162831000Y-78030199D01*
X162831000Y-80110199D02*
X162831000Y-82844199D01*
X162871000Y-75313199D02*
X162871000Y-78030199D01*
X162871000Y-80110199D02*
X162871000Y-82827199D01*
X162911000Y-75330199D02*
X162911000Y-78030199D01*
X162911000Y-80110199D02*
X162911000Y-82810199D01*
X162951000Y-75348199D02*
X162951000Y-78030199D01*
X162951000Y-80110199D02*
X162951000Y-82792199D01*
X162991000Y-75366199D02*
X162991000Y-78030199D01*
X162991000Y-80110199D02*
X162991000Y-82774199D01*
X163031000Y-75384199D02*
X163031000Y-78030199D01*
X163031000Y-80110199D02*
X163031000Y-82756199D01*
X163071000Y-75404199D02*
X163071000Y-78030199D01*
X163071000Y-80110199D02*
X163071000Y-82736199D01*
X163111000Y-75423199D02*
X163111000Y-78030199D01*
X163111000Y-80110199D02*
X163111000Y-82717199D01*
X163151000Y-75443199D02*
X163151000Y-78030199D01*
X163151000Y-80110199D02*
X163151000Y-82697199D01*
X163191000Y-75464199D02*
X163191000Y-78030199D01*
X163191000Y-80110199D02*
X163191000Y-82676199D01*
X163231000Y-75486199D02*
X163231000Y-78030199D01*
X163231000Y-80110199D02*
X163231000Y-82654199D01*
X163271000Y-75508199D02*
X163271000Y-78030199D01*
X163271000Y-80110199D02*
X163271000Y-82632199D01*
X163311000Y-75530199D02*
X163311000Y-78030199D01*
X163311000Y-80110199D02*
X163311000Y-82610199D01*
X163351000Y-75553199D02*
X163351000Y-78030199D01*
X163351000Y-80110199D02*
X163351000Y-82587199D01*
X163391000Y-75577199D02*
X163391000Y-78030199D01*
X163391000Y-80110199D02*
X163391000Y-82563199D01*
X163431000Y-75601199D02*
X163431000Y-78030199D01*
X163431000Y-80110199D02*
X163431000Y-82539199D01*
X163471000Y-75626199D02*
X163471000Y-78030199D01*
X163471000Y-80110199D02*
X163471000Y-82514199D01*
X163511000Y-75652199D02*
X163511000Y-78030199D01*
X163511000Y-80110199D02*
X163511000Y-82488199D01*
X163551000Y-75678199D02*
X163551000Y-78030199D01*
X163551000Y-80110199D02*
X163551000Y-82462199D01*
X163591000Y-75705199D02*
X163591000Y-82435199D01*
X163631000Y-75732199D02*
X163631000Y-82408199D01*
X163671000Y-75761199D02*
X163671000Y-82379199D01*
X163711000Y-75790199D02*
X163711000Y-82350199D01*
X163751000Y-75820199D02*
X163751000Y-82320199D01*
X163791000Y-75850199D02*
X163791000Y-82290199D01*
X163831000Y-75881199D02*
X163831000Y-82259199D01*
X163871000Y-75914199D02*
X163871000Y-82226199D01*
X163911000Y-75946199D02*
X163911000Y-82194199D01*
X163951000Y-75980199D02*
X163951000Y-82160199D01*
X163991000Y-76015199D02*
X163991000Y-82125199D01*
X164031000Y-76051199D02*
X164031000Y-82089199D01*
X164071000Y-76087199D02*
X164071000Y-82053199D01*
X164111000Y-76125199D02*
X164111000Y-82015199D01*
X164151000Y-76163199D02*
X164151000Y-81977199D01*
X164191000Y-76203199D02*
X164191000Y-81937199D01*
X164231000Y-76244199D02*
X164231000Y-81896199D01*
X164271000Y-76286199D02*
X164271000Y-81854199D01*
X164311000Y-76329199D02*
X164311000Y-81811199D01*
X164351000Y-76373199D02*
X164351000Y-81767199D01*
X164391000Y-76419199D02*
X164391000Y-81721199D01*
X164431000Y-76466199D02*
X164431000Y-81674199D01*
X164471000Y-76514199D02*
X164471000Y-81626199D01*
X164511000Y-76565199D02*
X164511000Y-81575199D01*
X164551000Y-76616199D02*
X164551000Y-81524199D01*
X164591000Y-76670199D02*
X164591000Y-81470199D01*
X164631000Y-76725199D02*
X164631000Y-81415199D01*
X164671000Y-76783199D02*
X164671000Y-81357199D01*
X164711000Y-76842199D02*
X164711000Y-81298199D01*
X164751000Y-76904199D02*
X164751000Y-81236199D01*
X164791000Y-76968199D02*
X164791000Y-81172199D01*
X164831000Y-77036199D02*
X164831000Y-81104199D01*
X164871000Y-77106199D02*
X164871000Y-81034199D01*
X164911000Y-77180199D02*
X164911000Y-80960199D01*
X164951000Y-77257199D02*
X164951000Y-80883199D01*
X164991000Y-77339199D02*
X164991000Y-80801199D01*
X165031000Y-77425199D02*
X165031000Y-80715199D01*
X165071000Y-77518199D02*
X165071000Y-80622199D01*
X165111000Y-77617199D02*
X165111000Y-80523199D01*
X165151000Y-77724199D02*
X165151000Y-80416199D01*
X165191000Y-77841199D02*
X165191000Y-80299199D01*
X165231000Y-77972199D02*
X165231000Y-80168199D01*
X165271000Y-78122199D02*
X165271000Y-80018199D01*
X165311000Y-78302199D02*
X165311000Y-79838199D01*
X165351000Y-78537199D02*
X165351000Y-79603199D01*
X165390000Y-79070199D02*
G75*
G02*
X157150000Y-79070199I-4120000J0D01*
G01*
X157150000Y-79070199D02*
G75*
G02*
X165390000Y-79070199I4120000J0D01*
G01*
%TO.C,C3*%
X208321503Y-90438302D02*
X209553427Y-91149554D01*
X209681503Y-88082712D02*
X210913427Y-88793964D01*
D20*
%TO.C,J4*%
X88015000Y-63502800D02*
X101985000Y-63502800D01*
X88015000Y-78107800D02*
X88015000Y-63502800D01*
X101985000Y-63502800D02*
X101985000Y-78107800D01*
X101985000Y-78107800D02*
X88015000Y-78107800D01*
D19*
%TO.C,C24*%
X269526349Y-214304904D02*
X267489457Y-213128904D01*
X269546349Y-214270263D02*
X267486940Y-213081263D01*
X269566349Y-214235622D02*
X267484424Y-213033622D01*
X269586349Y-214200981D02*
X267482773Y-212986481D01*
X269606349Y-214166340D02*
X267481988Y-212939840D01*
X269626349Y-214131699D02*
X267481204Y-212893199D01*
X269646349Y-214097058D02*
X267481285Y-212847058D01*
X269666349Y-214062417D02*
X267482233Y-212801417D01*
X269686349Y-214027776D02*
X267483180Y-212755776D01*
X269706349Y-213993135D02*
X267484127Y-212710135D01*
X269726349Y-213958494D02*
X267485941Y-212664994D01*
X269746349Y-213923853D02*
X267488620Y-212620353D01*
X269766349Y-213889212D02*
X267492166Y-212576212D01*
X269786349Y-213854570D02*
X267494844Y-212531570D01*
X269806349Y-213819929D02*
X267499257Y-212487929D01*
X269826349Y-213785288D02*
X267503668Y-212444288D01*
X269846349Y-213750647D02*
X267508080Y-212400647D01*
X269866349Y-213716006D02*
X267513358Y-212357506D01*
X269886349Y-213681365D02*
X267518635Y-212314365D01*
X269906349Y-213646724D02*
X267524779Y-212271724D01*
X269926349Y-213612083D02*
X267531788Y-212229583D01*
X269946349Y-213577441D02*
X267537932Y-212186942D01*
X269966349Y-213542800D02*
X267545808Y-212145300D01*
X269986349Y-213508160D02*
X267552817Y-212103160D01*
X269988607Y-216650249D02*
X269065423Y-216117249D01*
X270006349Y-213473519D02*
X267561559Y-212062019D01*
X270026349Y-213438878D02*
X267569435Y-212020377D01*
X270046349Y-213404237D02*
X267579042Y-211979737D01*
X270066349Y-213369596D02*
X267587784Y-211938596D01*
X270086349Y-213334955D02*
X267597392Y-211897955D01*
X270106349Y-213300314D02*
X267607865Y-211857814D01*
X270126349Y-213265673D02*
X267618339Y-211817673D01*
X270146349Y-213231032D02*
X267628813Y-211777532D01*
X270166349Y-213196391D02*
X267640152Y-211737891D01*
X270186349Y-213161750D02*
X267651492Y-211698250D01*
X270206349Y-213127109D02*
X267663698Y-211659109D01*
X270212123Y-216733108D02*
X268881907Y-215965108D01*
X270226349Y-213092468D02*
X267675904Y-211619968D01*
X270246349Y-213057827D02*
X267688110Y-211580827D01*
X270266349Y-213023186D02*
X267701181Y-211542186D01*
X270286349Y-212988545D02*
X267714253Y-211503545D01*
X270306349Y-212953904D02*
X267728191Y-211465404D01*
X270326849Y-212918397D02*
X267742629Y-211426397D01*
X270346849Y-212883756D02*
X267757433Y-211388756D01*
X270366849Y-212849115D02*
X267771370Y-211350615D01*
X270386849Y-212814474D02*
X267787040Y-211313474D01*
X270388007Y-216788467D02*
X268746023Y-215840467D01*
X270406849Y-212779833D02*
X267801844Y-211275833D01*
X270426849Y-212745192D02*
X267818380Y-211239192D01*
X270446849Y-212710551D02*
X267834050Y-211202051D01*
X270466849Y-212675910D02*
X267850586Y-211165410D01*
X270486849Y-212641269D02*
X267867122Y-211128769D01*
X270506849Y-212606628D02*
X267884524Y-211092628D01*
X270526849Y-212571987D02*
X267901926Y-211056487D01*
X270537911Y-216828826D02*
X268636119Y-215730826D01*
X270546849Y-212537346D02*
X267919328Y-211020346D01*
X270671360Y-216859685D02*
X268542670Y-215630685D01*
X270792685Y-216883544D02*
X268461345Y-215537544D01*
X270905350Y-216902403D02*
X268388680Y-215449403D01*
X271011086Y-216917262D02*
X268322944Y-215365262D01*
X271111627Y-216929121D02*
X268262403Y-215284121D01*
X271206105Y-216937480D02*
X268207925Y-215206480D01*
X271297119Y-216943839D02*
X268156911Y-215130839D01*
X271383803Y-216947698D02*
X268110227Y-215057698D01*
X271467889Y-216950057D02*
X268066141Y-214986057D01*
X271548511Y-216950416D02*
X268025519Y-214916416D01*
X271627400Y-216949775D02*
X267986630Y-214847775D01*
X271702826Y-216947134D02*
X267951204Y-214781134D01*
X271776520Y-216943493D02*
X267917510Y-214715493D01*
X271847615Y-216938352D02*
X267886415Y-214651352D01*
X271917845Y-216932711D02*
X267856185Y-214587711D01*
X271985476Y-216925570D02*
X267828554Y-214525570D01*
X272052241Y-216917929D02*
X267801789Y-214463929D01*
X272116409Y-216908788D02*
X267777621Y-214403788D01*
X272180576Y-216899647D02*
X267753454Y-214343647D01*
X272242145Y-216889006D02*
X267731885Y-214285006D01*
X272302848Y-216877865D02*
X267711182Y-214226865D01*
X272362686Y-216866224D02*
X267691344Y-214169224D01*
X272420791Y-216853583D02*
X267673239Y-214112583D01*
X272478030Y-216840442D02*
X267656000Y-214056442D01*
X272534403Y-216826801D02*
X267639627Y-214000801D01*
X272589910Y-216812660D02*
X267624120Y-213945660D01*
X272644551Y-216798019D02*
X267609479Y-213891019D01*
X272697460Y-216782378D02*
X267596570Y-213837378D01*
X272750369Y-216766737D02*
X267583661Y-213783737D01*
X272801546Y-216750096D02*
X267572484Y-213731096D01*
X272852723Y-216733455D02*
X267561307Y-213678455D01*
X272903033Y-216716314D02*
X267550997Y-213626314D01*
X272952478Y-216698673D02*
X267541552Y-213574673D01*
X273000191Y-216680032D02*
X267533839Y-213524032D01*
X273048770Y-216661891D02*
X267525260Y-213472891D01*
X273095617Y-216642750D02*
X267518413Y-213422750D01*
X273141598Y-216623109D02*
X267512432Y-213373109D01*
X273187578Y-216603468D02*
X267506452Y-213323468D01*
X273232693Y-216583327D02*
X267501337Y-213274327D01*
X273277808Y-216563186D02*
X267496222Y-213225186D01*
X273321190Y-216542045D02*
X267492840Y-213177045D01*
X273364573Y-216520904D02*
X271327681Y-215344904D01*
X273407090Y-216499263D02*
X271347681Y-215310263D01*
X273449606Y-216477623D02*
X271367681Y-215275622D01*
X273491257Y-216455481D02*
X271387681Y-215240982D01*
X273532042Y-216432840D02*
X271407681Y-215206341D01*
X273572826Y-216410199D02*
X271427681Y-215171699D01*
X273612745Y-216387058D02*
X271447681Y-215137058D01*
X273651797Y-216363417D02*
X271467681Y-215102417D01*
X273690850Y-216339776D02*
X271487681Y-215067776D01*
X273729903Y-216316135D02*
X271507681Y-215033135D01*
X273768089Y-216291994D02*
X271527681Y-214998494D01*
X273805411Y-216267353D02*
X271547681Y-214963853D01*
X273841864Y-216242212D02*
X271567681Y-214929212D01*
X273879185Y-216217570D02*
X271587681Y-214894570D01*
X273914773Y-216191929D02*
X271607681Y-214859929D01*
X273950362Y-216166288D02*
X271627681Y-214825288D01*
X273985950Y-216140647D02*
X271647681Y-214790647D01*
X274020672Y-216114506D02*
X271667681Y-214756006D01*
X274055395Y-216088365D02*
X271687681Y-214721365D01*
X274089251Y-216061724D02*
X271707681Y-214686724D01*
X274122242Y-216034583D02*
X271727681Y-214652083D01*
X274156098Y-216007942D02*
X271747681Y-214617442D01*
X274188222Y-215980301D02*
X271767681Y-214582801D01*
X274221213Y-215953160D02*
X271787681Y-214548160D01*
X274252471Y-215925019D02*
X271807681Y-214513519D01*
X274284595Y-215897378D02*
X271827681Y-214478878D01*
X274314988Y-215868737D02*
X271847681Y-214444237D01*
X274346246Y-215840596D02*
X271867681Y-214409596D01*
X274376638Y-215811955D02*
X271887681Y-214374955D01*
X274406165Y-215782814D02*
X271907681Y-214340314D01*
X274435691Y-215753673D02*
X271927681Y-214305673D01*
X274465217Y-215724532D02*
X271947681Y-214271032D01*
X274493878Y-215694891D02*
X271967681Y-214236391D01*
X274522538Y-215665250D02*
X271987681Y-214201750D01*
X274550332Y-215635109D02*
X272007681Y-214167109D01*
X274578126Y-215604968D02*
X272027681Y-214132468D01*
X274605920Y-215574827D02*
X272047681Y-214097827D01*
X274632849Y-215544186D02*
X272067681Y-214063186D01*
X274659777Y-215513545D02*
X272087681Y-214028545D01*
X274685839Y-215482404D02*
X272107681Y-213993904D01*
X274712401Y-215450397D02*
X272128181Y-213958397D01*
X274737597Y-215418756D02*
X272148181Y-213923756D01*
X274763660Y-215387615D02*
X272168181Y-213889115D01*
X274787990Y-215355474D02*
X272188181Y-213854474D01*
X274813186Y-215323833D02*
X272208181Y-213819833D01*
X274836650Y-215291192D02*
X272228181Y-213785192D01*
X274860980Y-215259051D02*
X272248181Y-213750551D01*
X274884444Y-215226410D02*
X272268181Y-213715910D01*
X274907908Y-215193769D02*
X272288181Y-213681269D01*
X274930506Y-215160628D02*
X272308181Y-213646628D01*
X274953104Y-215127487D02*
X272328181Y-213611987D01*
X274975702Y-215094346D02*
X272348181Y-213577346D01*
X274997435Y-215060705D02*
X267937595Y-210984705D01*
X275018301Y-215026564D02*
X267956729Y-210949564D01*
X275040033Y-214992923D02*
X267974997Y-210913923D01*
X275060899Y-214958782D02*
X267994131Y-210878782D01*
X275080899Y-214924141D02*
X268014131Y-210844141D01*
X275100899Y-214889500D02*
X268034131Y-210809500D01*
X275777213Y-210188089D02*
X275377213Y-210880910D01*
X275923623Y-210734499D02*
X275230803Y-210334499D01*
X275687514Y-212849500D02*
G75*
G02*
X267447516Y-212849500I-4119999J0D01*
G01*
X267447516Y-212849500D02*
G75*
G02*
X275687514Y-212849500I4119999J0D01*
G01*
%TO.C,C4*%
X160551548Y-84161799D02*
X161974052Y-84161799D01*
X160551548Y-86881799D02*
X161974052Y-86881799D01*
%TO.C,C12*%
X265161697Y-208321503D02*
X264450445Y-209553427D01*
X267517287Y-209681503D02*
X266806035Y-210913427D01*
%TO.C,C23*%
X238212551Y-257539607D02*
X237679551Y-256616423D01*
X238364692Y-257723123D02*
X237596692Y-256392907D01*
X238489333Y-257859007D02*
X237541333Y-256217023D01*
X238598974Y-257968911D02*
X237500974Y-256067119D01*
X238699115Y-258062360D02*
X237470115Y-255933670D01*
X238792256Y-258143685D02*
X237446256Y-255812345D01*
X238880397Y-258216350D02*
X237427397Y-255699680D01*
X238964538Y-258282086D02*
X237412538Y-255593944D01*
X238984896Y-255277349D02*
X237808896Y-253240457D01*
X239019537Y-255257349D02*
X237830537Y-253197940D01*
X239045679Y-258342627D02*
X237400679Y-255493403D01*
X239054178Y-255237349D02*
X237852177Y-253155424D01*
X239088818Y-255217349D02*
X237874319Y-253113773D01*
X239123320Y-258397105D02*
X237392320Y-255398925D01*
X239123459Y-255197349D02*
X237896960Y-253072988D01*
X239158101Y-255177349D02*
X237919601Y-253032204D01*
X239192742Y-255157349D02*
X237942742Y-252992285D01*
X239198961Y-258448119D02*
X237385961Y-255307911D01*
X239227383Y-255137349D02*
X237966383Y-252953233D01*
X239262024Y-255117349D02*
X237990024Y-252914180D01*
X239272102Y-258494803D02*
X237382102Y-255221227D01*
X239296665Y-255097349D02*
X238013665Y-252875127D01*
X239331306Y-255077349D02*
X238037806Y-252836941D01*
X239343743Y-258538889D02*
X237379743Y-255137141D01*
X239365947Y-255057349D02*
X238062447Y-252799619D01*
X239400588Y-255037349D02*
X238087588Y-252763166D01*
X239413384Y-258579511D02*
X237379384Y-255056519D01*
X239435230Y-255017349D02*
X238112230Y-252725845D01*
X239469871Y-254997349D02*
X238137871Y-252690257D01*
X239482025Y-258618400D02*
X237380025Y-254977630D01*
X239504512Y-254977349D02*
X238163512Y-252654668D01*
X239539153Y-254957349D02*
X238189153Y-252619080D01*
X239548666Y-258653826D02*
X237382666Y-254902204D01*
X239573794Y-254937349D02*
X238215294Y-252584358D01*
X239608435Y-254917349D02*
X238241435Y-252549635D01*
X239614307Y-258687520D02*
X237386307Y-254828510D01*
X239643076Y-254897349D02*
X238268076Y-252515779D01*
X239677717Y-254877349D02*
X238295217Y-252482788D01*
X239678448Y-258718615D02*
X237391448Y-254757415D01*
X239712358Y-254857349D02*
X238321858Y-252448932D01*
X239742089Y-258748845D02*
X237397089Y-254687185D01*
X239746999Y-254837349D02*
X238349499Y-252416808D01*
X239781640Y-254817349D02*
X238376640Y-252383817D01*
X239804230Y-258776476D02*
X237404230Y-254619554D01*
X239816281Y-254797349D02*
X238404781Y-252352559D01*
X239850922Y-254777349D02*
X238432422Y-252320435D01*
X239865871Y-258803241D02*
X237411871Y-254552789D01*
X239885563Y-254757349D02*
X238461063Y-252290042D01*
X239920204Y-254737349D02*
X238489204Y-252258784D01*
X239926012Y-258827409D02*
X237421012Y-254488621D01*
X239954845Y-254717349D02*
X238517845Y-252228392D01*
X239986153Y-258851576D02*
X237430153Y-254424454D01*
X239989486Y-254697349D02*
X238546986Y-252198865D01*
X240024127Y-254677349D02*
X238576127Y-252169339D01*
X240044794Y-258873145D02*
X237440794Y-254362885D01*
X240058768Y-254657349D02*
X238605268Y-252139813D01*
X240093409Y-254637349D02*
X238634909Y-252111152D01*
X240102935Y-258893848D02*
X237451935Y-254302182D01*
X240128050Y-254617349D02*
X238664550Y-252082492D01*
X240160576Y-258913686D02*
X237463576Y-254242344D01*
X240162691Y-254597349D02*
X238694691Y-252054698D01*
X240197332Y-254577349D02*
X238724832Y-252026904D01*
X240217217Y-258931791D02*
X237476217Y-254184239D01*
X240231973Y-254557349D02*
X238754973Y-251999110D01*
X240266614Y-254537349D02*
X238785614Y-251972181D01*
X240273358Y-258949030D02*
X237489358Y-254127000D01*
X240301255Y-254517349D02*
X238816255Y-251945253D01*
X240328999Y-258965403D02*
X237502999Y-254070627D01*
X240335896Y-254497349D02*
X238847396Y-251919191D01*
X240371403Y-254476849D02*
X238879403Y-251892629D01*
X240384140Y-258980910D02*
X237517140Y-254015120D01*
X240406044Y-254456849D02*
X238911044Y-251867433D01*
X240438781Y-258995551D02*
X237531781Y-253960479D01*
X240440685Y-254436849D02*
X238942185Y-251841370D01*
X240475326Y-254416849D02*
X238974326Y-251817040D01*
X240492422Y-259008460D02*
X237547422Y-253907570D01*
X240509967Y-254396849D02*
X239005967Y-251791844D01*
X240544608Y-254376849D02*
X239038608Y-251768380D01*
X240546063Y-259021369D02*
X237563063Y-253854661D01*
X240579249Y-254356849D02*
X239070749Y-251744050D01*
X240598704Y-259032546D02*
X237579704Y-253803484D01*
X240613890Y-254336849D02*
X239103390Y-251720586D01*
X240648531Y-254316849D02*
X239136031Y-251697122D01*
X240651345Y-259043723D02*
X237596345Y-253752307D01*
X240683172Y-254296849D02*
X239169172Y-251674524D01*
X240703486Y-259054033D02*
X237613486Y-253701997D01*
X240717813Y-254276849D02*
X239202313Y-251651926D01*
X240752454Y-254256849D02*
X239235454Y-251629328D01*
X240755127Y-259063478D02*
X237631127Y-253652552D01*
X240805768Y-259071191D02*
X237649768Y-253604839D01*
X240856909Y-259079770D02*
X237667909Y-253556260D01*
X240907050Y-259086617D02*
X237687050Y-253509413D01*
X240956691Y-259092598D02*
X237706691Y-253463432D01*
X241006332Y-259098578D02*
X237726332Y-253417452D01*
X241055473Y-259103693D02*
X237746473Y-253372337D01*
X241104614Y-259108808D02*
X237766614Y-253327222D01*
X241152755Y-259112190D02*
X237787755Y-253283840D01*
X241200896Y-259115573D02*
X240024896Y-257078681D01*
X241248537Y-259118090D02*
X240059537Y-257058681D01*
X241296178Y-259120606D02*
X240094178Y-257038681D01*
X241343319Y-259122257D02*
X240128819Y-257018681D01*
X241389960Y-259123042D02*
X240163460Y-256998681D01*
X241436601Y-259123826D02*
X240198101Y-256978681D01*
X241482742Y-259123745D02*
X240232742Y-256958681D01*
X241528383Y-259122797D02*
X240267383Y-256938681D01*
X241574024Y-259121850D02*
X240302024Y-256918681D01*
X241619665Y-259120903D02*
X240336665Y-256898681D01*
X241664806Y-259119089D02*
X240371306Y-256878681D01*
X241709447Y-259116410D02*
X240405947Y-256858681D01*
X241753588Y-259112864D02*
X240440588Y-256838681D01*
X241798230Y-259110186D02*
X240475230Y-256818681D01*
X241841871Y-259105773D02*
X240509871Y-256798681D01*
X241885512Y-259101362D02*
X240544512Y-256778681D01*
X241929153Y-259096950D02*
X240579153Y-256758681D01*
X241972294Y-259091672D02*
X240613794Y-256738681D01*
X242015435Y-259086395D02*
X240648435Y-256718681D01*
X242058076Y-259080251D02*
X240683076Y-256698681D01*
X242100217Y-259073242D02*
X240717717Y-256678681D01*
X242142858Y-259067098D02*
X240752359Y-256658681D01*
X242184500Y-259059222D02*
X240787000Y-256638681D01*
X242226640Y-259052213D02*
X240821640Y-256618681D01*
X242267781Y-259043471D02*
X240856281Y-256598681D01*
X242309423Y-259035595D02*
X240890922Y-256578681D01*
X242350063Y-259025988D02*
X240925563Y-256558681D01*
X242391204Y-259017246D02*
X240960204Y-256538681D01*
X242431845Y-259007638D02*
X240994845Y-256518681D01*
X242471986Y-258997165D02*
X241029486Y-256498681D01*
X242512127Y-258986691D02*
X241064127Y-256478681D01*
X242552268Y-258976217D02*
X241098768Y-256458681D01*
X242591909Y-258964878D02*
X241133409Y-256438681D01*
X242631550Y-258953538D02*
X241168050Y-256418681D01*
X242670691Y-258941332D02*
X241202691Y-256398681D01*
X242709832Y-258929126D02*
X241237332Y-256378681D01*
X242748973Y-258916920D02*
X241271973Y-256358681D01*
X242787614Y-258903849D02*
X241306614Y-256338681D01*
X242826255Y-258890777D02*
X241341255Y-256318681D01*
X242864396Y-258876839D02*
X241375896Y-256298681D01*
X242903403Y-258862401D02*
X241411403Y-256278181D01*
X242941044Y-258847597D02*
X241446044Y-256258181D01*
X242979185Y-258833660D02*
X241480685Y-256238181D01*
X243016326Y-258817990D02*
X241515326Y-256218181D01*
X243053967Y-258803186D02*
X241549967Y-256198181D01*
X243090608Y-258786650D02*
X241584608Y-256178181D01*
X243127749Y-258770980D02*
X241619249Y-256158181D01*
X243164390Y-258754444D02*
X241653890Y-256138181D01*
X243201031Y-258737908D02*
X241688531Y-256118181D01*
X243237172Y-258720506D02*
X241723172Y-256098181D01*
X243273313Y-258703104D02*
X241757813Y-256078181D01*
X243309454Y-258685702D02*
X241792454Y-256058181D01*
X243345095Y-258667435D02*
X239269095Y-251607595D01*
X243380236Y-258648301D02*
X239303236Y-251586729D01*
X243415877Y-258630033D02*
X239336877Y-251564997D01*
X243451018Y-258610899D02*
X239371018Y-251544131D01*
X243485659Y-258590899D02*
X239405659Y-251524131D01*
X243520300Y-258570899D02*
X239440300Y-251504131D01*
X246310301Y-255383925D02*
X245910301Y-254691106D01*
X246456711Y-254837515D02*
X245763890Y-255237515D01*
X245600299Y-255037515D02*
G75*
G02*
X237360301Y-255037515I-4119999J0D01*
G01*
X237360301Y-255037515D02*
G75*
G02*
X245600299Y-255037515I4119999J0D01*
G01*
%TO.C,C8*%
X105331164Y-239556697D02*
X104619912Y-238324773D01*
X107686754Y-238196697D02*
X106975502Y-236964773D01*
%TO.C,C19*%
X74990199Y-194250000D02*
X83150199Y-194250000D01*
X74990199Y-194290000D02*
X83150199Y-194290000D01*
X74990199Y-194330000D02*
X83150199Y-194330000D01*
X74991199Y-194210000D02*
X83149199Y-194210000D01*
X74993199Y-194170000D02*
X83147199Y-194170000D01*
X74994199Y-194130000D02*
X83146199Y-194130000D01*
X74996199Y-194090000D02*
X78030199Y-194090000D01*
X74999199Y-194050000D02*
X78030199Y-194050000D01*
X75002199Y-194010000D02*
X78030199Y-194010000D01*
X75005199Y-193970000D02*
X78030199Y-193970000D01*
X75009199Y-193930000D02*
X78030199Y-193930000D01*
X75013199Y-193890000D02*
X78030199Y-193890000D01*
X75018199Y-193850000D02*
X78030199Y-193850000D01*
X75022199Y-193810000D02*
X78030199Y-193810000D01*
X75028199Y-193770000D02*
X78030199Y-193770000D01*
X75033199Y-193730000D02*
X78030199Y-193730000D01*
X75040199Y-193690000D02*
X78030199Y-193690000D01*
X75046199Y-193650000D02*
X78030199Y-193650000D01*
X75053199Y-193609000D02*
X78030199Y-193609000D01*
X75060199Y-193569000D02*
X78030199Y-193569000D01*
X75068199Y-193529000D02*
X78030199Y-193529000D01*
X75076199Y-193489000D02*
X78030199Y-193489000D01*
X75085199Y-193449000D02*
X78030199Y-193449000D01*
X75094199Y-193409000D02*
X78030199Y-193409000D01*
X75103199Y-193369000D02*
X78030199Y-193369000D01*
X75113199Y-193329000D02*
X78030199Y-193329000D01*
X75123199Y-193289000D02*
X78030199Y-193289000D01*
X75134199Y-193249000D02*
X78030199Y-193249000D01*
X75145199Y-193209000D02*
X78030199Y-193209000D01*
X75156199Y-193169000D02*
X78030199Y-193169000D01*
X75168199Y-193129000D02*
X78030199Y-193129000D01*
X75181199Y-193089000D02*
X78030199Y-193089000D01*
X75193199Y-193049000D02*
X78030199Y-193049000D01*
X75207199Y-193009000D02*
X78030199Y-193009000D01*
X75220199Y-192969000D02*
X78030199Y-192969000D01*
X75235199Y-192929000D02*
X78030199Y-192929000D01*
X75249199Y-192889000D02*
X78030199Y-192889000D01*
X75265199Y-192849000D02*
X78030199Y-192849000D01*
X75280199Y-192809000D02*
X78030199Y-192809000D01*
X75296199Y-192769000D02*
X78030199Y-192769000D01*
X75313199Y-192729000D02*
X78030199Y-192729000D01*
X75330199Y-192689000D02*
X78030199Y-192689000D01*
X75348199Y-192649000D02*
X78030199Y-192649000D01*
X75366199Y-192609000D02*
X78030199Y-192609000D01*
X75384199Y-192569000D02*
X78030199Y-192569000D01*
X75404199Y-192529000D02*
X78030199Y-192529000D01*
X75423199Y-192489000D02*
X78030199Y-192489000D01*
X75443199Y-192449000D02*
X78030199Y-192449000D01*
X75464199Y-192409000D02*
X78030199Y-192409000D01*
X75486199Y-192369000D02*
X78030199Y-192369000D01*
X75508199Y-192329000D02*
X78030199Y-192329000D01*
X75530199Y-192289000D02*
X78030199Y-192289000D01*
X75553199Y-192249000D02*
X78030199Y-192249000D01*
X75577199Y-192209000D02*
X78030199Y-192209000D01*
X75601199Y-192169000D02*
X78030199Y-192169000D01*
X75626199Y-192129000D02*
X78030199Y-192129000D01*
X75652199Y-192089000D02*
X78030199Y-192089000D01*
X75678199Y-192049000D02*
X78030199Y-192049000D01*
X75705199Y-192009000D02*
X82435199Y-192009000D01*
X75732199Y-191969000D02*
X82408199Y-191969000D01*
X75761199Y-191929000D02*
X82379199Y-191929000D01*
X75790199Y-191889000D02*
X82350199Y-191889000D01*
X75820199Y-191849000D02*
X82320199Y-191849000D01*
X75850199Y-191809000D02*
X82290199Y-191809000D01*
X75881199Y-191769000D02*
X82259199Y-191769000D01*
X75914199Y-191729000D02*
X82226199Y-191729000D01*
X75946199Y-191689000D02*
X82194199Y-191689000D01*
X75980199Y-191649000D02*
X82160199Y-191649000D01*
X76015199Y-191609000D02*
X82125199Y-191609000D01*
X76051199Y-191569000D02*
X82089199Y-191569000D01*
X76087199Y-191529000D02*
X82053199Y-191529000D01*
X76125199Y-191489000D02*
X82015199Y-191489000D01*
X76163199Y-191449000D02*
X81977199Y-191449000D01*
X76203199Y-191409000D02*
X81937199Y-191409000D01*
X76244199Y-191369000D02*
X81896199Y-191369000D01*
X76286199Y-191329000D02*
X81854199Y-191329000D01*
X76329199Y-191289000D02*
X81811199Y-191289000D01*
X76355199Y-198339698D02*
X77155199Y-198339698D01*
X76373199Y-191249000D02*
X81767199Y-191249000D01*
X76419199Y-191209000D02*
X81721199Y-191209000D01*
X76466199Y-191169000D02*
X81674199Y-191169000D01*
X76514199Y-191129000D02*
X81626199Y-191129000D01*
X76565199Y-191089000D02*
X81575199Y-191089000D01*
X76616199Y-191049000D02*
X81524199Y-191049000D01*
X76670199Y-191009000D02*
X81470199Y-191009000D01*
X76725199Y-190969000D02*
X81415199Y-190969000D01*
X76755199Y-198739698D02*
X76755199Y-197939698D01*
X76783199Y-190929000D02*
X81357199Y-190929000D01*
X76842199Y-190889000D02*
X81298199Y-190889000D01*
X76904199Y-190849000D02*
X81236199Y-190849000D01*
X76968199Y-190809000D02*
X81172199Y-190809000D01*
X77036199Y-190769000D02*
X81104199Y-190769000D01*
X77106199Y-190729000D02*
X81034199Y-190729000D01*
X77180199Y-190689000D02*
X80960199Y-190689000D01*
X77257199Y-190649000D02*
X80883199Y-190649000D01*
X77339199Y-190609000D02*
X80801199Y-190609000D01*
X77425199Y-190569000D02*
X80715199Y-190569000D01*
X77518199Y-190529000D02*
X80622199Y-190529000D01*
X77617199Y-190489000D02*
X80523199Y-190489000D01*
X77724199Y-190449000D02*
X80416199Y-190449000D01*
X77841199Y-190409000D02*
X80299199Y-190409000D01*
X77972199Y-190369000D02*
X80168199Y-190369000D01*
X78122199Y-190329000D02*
X80018199Y-190329000D01*
X78302199Y-190289000D02*
X79838199Y-190289000D01*
X78537199Y-190249000D02*
X79603199Y-190249000D01*
X80110199Y-192049000D02*
X82462199Y-192049000D01*
X80110199Y-192089000D02*
X82488199Y-192089000D01*
X80110199Y-192129000D02*
X82514199Y-192129000D01*
X80110199Y-192169000D02*
X82539199Y-192169000D01*
X80110199Y-192209000D02*
X82563199Y-192209000D01*
X80110199Y-192249000D02*
X82587199Y-192249000D01*
X80110199Y-192289000D02*
X82610199Y-192289000D01*
X80110199Y-192329000D02*
X82632199Y-192329000D01*
X80110199Y-192369000D02*
X82654199Y-192369000D01*
X80110199Y-192409000D02*
X82676199Y-192409000D01*
X80110199Y-192449000D02*
X82697199Y-192449000D01*
X80110199Y-192489000D02*
X82717199Y-192489000D01*
X80110199Y-192529000D02*
X82736199Y-192529000D01*
X80110199Y-192569000D02*
X82756199Y-192569000D01*
X80110199Y-192609000D02*
X82774199Y-192609000D01*
X80110199Y-192649000D02*
X82792199Y-192649000D01*
X80110199Y-192689000D02*
X82810199Y-192689000D01*
X80110199Y-192729000D02*
X82827199Y-192729000D01*
X80110199Y-192769000D02*
X82844199Y-192769000D01*
X80110199Y-192809000D02*
X82860199Y-192809000D01*
X80110199Y-192849000D02*
X82875199Y-192849000D01*
X80110199Y-192889000D02*
X82891199Y-192889000D01*
X80110199Y-192929000D02*
X82905199Y-192929000D01*
X80110199Y-192969000D02*
X82920199Y-192969000D01*
X80110199Y-193009000D02*
X82933199Y-193009000D01*
X80110199Y-193049000D02*
X82947199Y-193049000D01*
X80110199Y-193089000D02*
X82959199Y-193089000D01*
X80110199Y-193129000D02*
X82972199Y-193129000D01*
X80110199Y-193169000D02*
X82984199Y-193169000D01*
X80110199Y-193209000D02*
X82995199Y-193209000D01*
X80110199Y-193249000D02*
X83006199Y-193249000D01*
X80110199Y-193289000D02*
X83017199Y-193289000D01*
X80110199Y-193329000D02*
X83027199Y-193329000D01*
X80110199Y-193369000D02*
X83037199Y-193369000D01*
X80110199Y-193409000D02*
X83046199Y-193409000D01*
X80110199Y-193449000D02*
X83055199Y-193449000D01*
X80110199Y-193489000D02*
X83064199Y-193489000D01*
X80110199Y-193529000D02*
X83072199Y-193529000D01*
X80110199Y-193569000D02*
X83080199Y-193569000D01*
X80110199Y-193609000D02*
X83087199Y-193609000D01*
X80110199Y-193650000D02*
X83094199Y-193650000D01*
X80110199Y-193690000D02*
X83100199Y-193690000D01*
X80110199Y-193730000D02*
X83107199Y-193730000D01*
X80110199Y-193770000D02*
X83112199Y-193770000D01*
X80110199Y-193810000D02*
X83118199Y-193810000D01*
X80110199Y-193850000D02*
X83122199Y-193850000D01*
X80110199Y-193890000D02*
X83127199Y-193890000D01*
X80110199Y-193930000D02*
X83131199Y-193930000D01*
X80110199Y-193970000D02*
X83135199Y-193970000D01*
X80110199Y-194010000D02*
X83138199Y-194010000D01*
X80110199Y-194050000D02*
X83141199Y-194050000D01*
X80110199Y-194090000D02*
X83144199Y-194090000D01*
X83190199Y-194330000D02*
G75*
G02*
X74950199Y-194330000I-4120000J0D01*
G01*
X74950199Y-194330000D02*
G75*
G02*
X83190199Y-194330000I4120000J0D01*
G01*
%TO.C,C21*%
X138649583Y-271548511D02*
X140683583Y-268025519D01*
X138649942Y-271467889D02*
X140613942Y-268066141D01*
X138650224Y-271627400D02*
X140752224Y-267986630D01*
X138652301Y-271383803D02*
X140542301Y-268110227D01*
X138652865Y-271702826D02*
X140818865Y-267951204D01*
X138656160Y-271297119D02*
X140469160Y-268156911D01*
X138656506Y-271776520D02*
X140884506Y-267917510D01*
X138661647Y-271847615D02*
X140948647Y-267886415D01*
X138662519Y-271206105D02*
X140393519Y-268207925D01*
X138667288Y-271917845D02*
X141012288Y-267856185D01*
X138670878Y-271111627D02*
X140315878Y-268262403D01*
X138674429Y-271985476D02*
X141074429Y-267828554D01*
X138682070Y-272052241D02*
X141136070Y-267801789D01*
X138682737Y-271011086D02*
X140234737Y-268322944D01*
X138691211Y-272116409D02*
X141196211Y-267777621D01*
X138697596Y-270905350D02*
X140150596Y-268388680D01*
X138700352Y-272180576D02*
X141256352Y-267753454D01*
X138710993Y-272242145D02*
X141314993Y-267731885D01*
X138716455Y-270792685D02*
X140062455Y-268461345D01*
X138722134Y-272302848D02*
X141373134Y-267711182D01*
X138733775Y-272362686D02*
X141430775Y-267691344D01*
X138740314Y-270671360D02*
X139969314Y-268542670D01*
X138746416Y-272420791D02*
X141487416Y-267673239D01*
X138759557Y-272478030D02*
X141543557Y-267656000D01*
X138771173Y-270537911D02*
X139869173Y-268636119D01*
X138773198Y-272534403D02*
X141599198Y-267639627D01*
X138787339Y-272589910D02*
X141654339Y-267624120D01*
X138801980Y-272644551D02*
X141708980Y-267609479D01*
X138811532Y-270388007D02*
X139759532Y-268746023D01*
X138817621Y-272697460D02*
X141762621Y-267596570D01*
X138833262Y-272750369D02*
X141816262Y-267583661D01*
X138849903Y-272801546D02*
X141868903Y-267572484D01*
X138866544Y-272852723D02*
X141921544Y-267561307D01*
X138866891Y-270212123D02*
X139634891Y-268881907D01*
X138883685Y-272903033D02*
X141973685Y-267550997D01*
X138901326Y-272952478D02*
X142025326Y-267541552D01*
X138919967Y-273000191D02*
X142075967Y-267533839D01*
X138938108Y-273048770D02*
X142127108Y-267525260D01*
X138949750Y-269988607D02*
X139482750Y-269065423D01*
X138957249Y-273095617D02*
X142177249Y-267518413D01*
X138976890Y-273141598D02*
X142226890Y-267512432D01*
X138996531Y-273187578D02*
X142276531Y-267506452D01*
X139016672Y-273232693D02*
X142325672Y-267501337D01*
X139036813Y-273277808D02*
X142374813Y-267496222D01*
X139057954Y-273321190D02*
X142422954Y-267492840D01*
X139079095Y-273364573D02*
X140255095Y-271327681D01*
X139100736Y-273407090D02*
X140289736Y-271347681D01*
X139122376Y-273449606D02*
X140324377Y-271367681D01*
X139144518Y-273491257D02*
X140359017Y-271387681D01*
X139167159Y-273532042D02*
X140393658Y-271407681D01*
X139189800Y-273572826D02*
X140428300Y-271427681D01*
X139212941Y-273612745D02*
X140462941Y-271447681D01*
X139236582Y-273651797D02*
X140497582Y-271467681D01*
X139260223Y-273690850D02*
X140532223Y-271487681D01*
X139283864Y-273729903D02*
X140566864Y-271507681D01*
X139308005Y-273768089D02*
X140601505Y-271527681D01*
X139332646Y-273805411D02*
X140636146Y-271547681D01*
X139357787Y-273841864D02*
X140670787Y-271567681D01*
X139382429Y-273879185D02*
X140705429Y-271587681D01*
X139408070Y-273914773D02*
X140740070Y-271607681D01*
X139433711Y-273950362D02*
X140774711Y-271627681D01*
X139459352Y-273985950D02*
X140809352Y-271647681D01*
X139485493Y-274020672D02*
X140843993Y-271667681D01*
X139511634Y-274055395D02*
X140878634Y-271687681D01*
X139538275Y-274089251D02*
X140913275Y-271707681D01*
X139565416Y-274122242D02*
X140947916Y-271727681D01*
X139592057Y-274156098D02*
X140982557Y-271747681D01*
X139619698Y-274188222D02*
X141017198Y-271767681D01*
X139646839Y-274221213D02*
X141051839Y-271787681D01*
X139674980Y-274252471D02*
X141086480Y-271807681D01*
X139702621Y-274284595D02*
X141121121Y-271827681D01*
X139731262Y-274314988D02*
X141155762Y-271847681D01*
X139759403Y-274346246D02*
X141190403Y-271867681D01*
X139788044Y-274376638D02*
X141225044Y-271887681D01*
X139817185Y-274406165D02*
X141259685Y-271907681D01*
X139846326Y-274435691D02*
X141294326Y-271927681D01*
X139875467Y-274465217D02*
X141328967Y-271947681D01*
X139905108Y-274493878D02*
X141363608Y-271967681D01*
X139934749Y-274522538D02*
X141398249Y-271987681D01*
X139964890Y-274550332D02*
X141432890Y-272007681D01*
X139995031Y-274578126D02*
X141467531Y-272027681D01*
X140025172Y-274605920D02*
X141502172Y-272047681D01*
X140055813Y-274632849D02*
X141536813Y-272067681D01*
X140086454Y-274659777D02*
X141571454Y-272087681D01*
X140117595Y-274685839D02*
X141606095Y-272107681D01*
X140149602Y-274712401D02*
X141641602Y-272128181D01*
X140181243Y-274737597D02*
X141676243Y-272148181D01*
X140212384Y-274763660D02*
X141710884Y-272168181D01*
X140244525Y-274787990D02*
X141745525Y-272188181D01*
X140276166Y-274813186D02*
X141780166Y-272208181D01*
X140308807Y-274836650D02*
X141814807Y-272228181D01*
X140340948Y-274860980D02*
X141849448Y-272248181D01*
X140373589Y-274884444D02*
X141884089Y-272268181D01*
X140406230Y-274907908D02*
X141918730Y-272288181D01*
X140439371Y-274930506D02*
X141953371Y-272308181D01*
X140472512Y-274953104D02*
X141988012Y-272328181D01*
X140505653Y-274975702D02*
X142022653Y-272348181D01*
X140539294Y-274997435D02*
X144615294Y-267937595D01*
X140573435Y-275018301D02*
X144650435Y-267956729D01*
X140607076Y-275040033D02*
X144686076Y-267974997D01*
X140641217Y-275060899D02*
X144721217Y-267994131D01*
X140675858Y-275080899D02*
X144755858Y-268014131D01*
X140710499Y-275100899D02*
X144790499Y-268034131D01*
X141295095Y-269526349D02*
X142471095Y-267489457D01*
X141329736Y-269546349D02*
X142518736Y-267486940D01*
X141364377Y-269566349D02*
X142566377Y-267484424D01*
X141399018Y-269586349D02*
X142613518Y-267482773D01*
X141433659Y-269606349D02*
X142660159Y-267481988D01*
X141468300Y-269626349D02*
X142706800Y-267481204D01*
X141502941Y-269646349D02*
X142752941Y-267481285D01*
X141537582Y-269666349D02*
X142798582Y-267482233D01*
X141572223Y-269686349D02*
X142844223Y-267483180D01*
X141606864Y-269706349D02*
X142889864Y-267484127D01*
X141641505Y-269726349D02*
X142935005Y-267485941D01*
X141676146Y-269746349D02*
X142979646Y-267488620D01*
X141710787Y-269766349D02*
X143023787Y-267492166D01*
X141745429Y-269786349D02*
X143068429Y-267494844D01*
X141780070Y-269806349D02*
X143112070Y-267499257D01*
X141814711Y-269826349D02*
X143155711Y-267503668D01*
X141849352Y-269846349D02*
X143199352Y-267508080D01*
X141883993Y-269866349D02*
X143242493Y-267513358D01*
X141918634Y-269886349D02*
X143285634Y-267518635D01*
X141953275Y-269906349D02*
X143328275Y-267524779D01*
X141987916Y-269926349D02*
X143370416Y-267531788D01*
X142022558Y-269946349D02*
X143413057Y-267537932D01*
X142057199Y-269966349D02*
X143454699Y-267545808D01*
X142091839Y-269986349D02*
X143496839Y-267552817D01*
X142126480Y-270006349D02*
X143537980Y-267561559D01*
X142161121Y-270026349D02*
X143579622Y-267569435D01*
X142195762Y-270046349D02*
X143620262Y-267579042D01*
X142230403Y-270066349D02*
X143661403Y-267587784D01*
X142265044Y-270086349D02*
X143702044Y-267597392D01*
X142299685Y-270106349D02*
X143742185Y-267607865D01*
X142334326Y-270126349D02*
X143782326Y-267618339D01*
X142368967Y-270146349D02*
X143822467Y-267628813D01*
X142403608Y-270166349D02*
X143862108Y-267640152D01*
X142438249Y-270186349D02*
X143901749Y-267651492D01*
X142472890Y-270206349D02*
X143940890Y-267663698D01*
X142507531Y-270226349D02*
X143980031Y-267675904D01*
X142542172Y-270246349D02*
X144019172Y-267688110D01*
X142576813Y-270266349D02*
X144057813Y-267701181D01*
X142611454Y-270286349D02*
X144096454Y-267714253D01*
X142646095Y-270306349D02*
X144134595Y-267728191D01*
X142681602Y-270326849D02*
X144173602Y-267742629D01*
X142716243Y-270346849D02*
X144211243Y-267757433D01*
X142750884Y-270366849D02*
X144249384Y-267771370D01*
X142785525Y-270386849D02*
X144286525Y-267787040D01*
X142820166Y-270406849D02*
X144324166Y-267801844D01*
X142854807Y-270426849D02*
X144360807Y-267818380D01*
X142889448Y-270446849D02*
X144397948Y-267834050D01*
X142924089Y-270466849D02*
X144434589Y-267850586D01*
X142958730Y-270486849D02*
X144471230Y-267867122D01*
X142993371Y-270506849D02*
X144507371Y-267884524D01*
X143028012Y-270526849D02*
X144543512Y-267901926D01*
X143062653Y-270546849D02*
X144579653Y-267919328D01*
X144865500Y-275923623D02*
X145265500Y-275230803D01*
X145411910Y-275777213D02*
X144719089Y-275377213D01*
X146870498Y-271567515D02*
G75*
G02*
X138630500Y-271567515I-4119999J0D01*
G01*
X138630500Y-271567515D02*
G75*
G02*
X146870498Y-271567515I4119999J0D01*
G01*
%TO.C,C22*%
X190248999Y-277062800D02*
X190248999Y-275996800D01*
X190288999Y-277297800D02*
X190288999Y-275761800D01*
X190328999Y-277477800D02*
X190328999Y-275581800D01*
X190368999Y-277627800D02*
X190368999Y-275431800D01*
X190408999Y-277758800D02*
X190408999Y-275300800D01*
X190448999Y-277875800D02*
X190448999Y-275183800D01*
X190488999Y-277982800D02*
X190488999Y-275076800D01*
X190528999Y-278081800D02*
X190528999Y-274977800D01*
X190568999Y-278174800D02*
X190568999Y-274884800D01*
X190608999Y-278260800D02*
X190608999Y-274798800D01*
X190648999Y-278342800D02*
X190648999Y-274716800D01*
X190688999Y-278419800D02*
X190688999Y-274639800D01*
X190728999Y-278493800D02*
X190728999Y-274565800D01*
X190768999Y-278563800D02*
X190768999Y-274495800D01*
X190808999Y-278631800D02*
X190808999Y-274427800D01*
X190848999Y-278695800D02*
X190848999Y-274363800D01*
X190888999Y-278757800D02*
X190888999Y-274301800D01*
X190928999Y-278816800D02*
X190928999Y-274242800D01*
X190968999Y-278874800D02*
X190968999Y-274184800D01*
X191008999Y-278929800D02*
X191008999Y-274129800D01*
X191048999Y-278983800D02*
X191048999Y-274075800D01*
X191088999Y-279034800D02*
X191088999Y-274024800D01*
X191128999Y-279085800D02*
X191128999Y-273973800D01*
X191168999Y-279133800D02*
X191168999Y-273925800D01*
X191208999Y-279180800D02*
X191208999Y-273878800D01*
X191248999Y-279226800D02*
X191248999Y-273832800D01*
X191288999Y-279270800D02*
X191288999Y-273788800D01*
X191328999Y-279313800D02*
X191328999Y-273745800D01*
X191368999Y-279355800D02*
X191368999Y-273703800D01*
X191408999Y-279396800D02*
X191408999Y-273662800D01*
X191448999Y-279436800D02*
X191448999Y-273622800D01*
X191488999Y-279474800D02*
X191488999Y-273584800D01*
X191528999Y-279512800D02*
X191528999Y-273546800D01*
X191568999Y-279548800D02*
X191568999Y-273510800D01*
X191608999Y-279584800D02*
X191608999Y-273474800D01*
X191648999Y-279619800D02*
X191648999Y-273439800D01*
X191688999Y-279653800D02*
X191688999Y-273405800D01*
X191728999Y-279685800D02*
X191728999Y-273373800D01*
X191768999Y-279718800D02*
X191768999Y-273340800D01*
X191808999Y-279749800D02*
X191808999Y-273309800D01*
X191848999Y-279779800D02*
X191848999Y-273279800D01*
X191888999Y-279809800D02*
X191888999Y-273249800D01*
X191928999Y-279838800D02*
X191928999Y-273220800D01*
X191968999Y-279867800D02*
X191968999Y-273191800D01*
X192008999Y-279894800D02*
X192008999Y-273164800D01*
X192048999Y-275489800D02*
X192048999Y-273137800D01*
X192048999Y-279921800D02*
X192048999Y-277569800D01*
X192088999Y-275489800D02*
X192088999Y-273111800D01*
X192088999Y-279947800D02*
X192088999Y-277569800D01*
X192128999Y-275489800D02*
X192128999Y-273085800D01*
X192128999Y-279973800D02*
X192128999Y-277569800D01*
X192168999Y-275489800D02*
X192168999Y-273060800D01*
X192168999Y-279998800D02*
X192168999Y-277569800D01*
X192208999Y-275489800D02*
X192208999Y-273036800D01*
X192208999Y-280022800D02*
X192208999Y-277569800D01*
X192248999Y-275489800D02*
X192248999Y-273012800D01*
X192248999Y-280046800D02*
X192248999Y-277569800D01*
X192288999Y-275489800D02*
X192288999Y-272989800D01*
X192288999Y-280069800D02*
X192288999Y-277569800D01*
X192328999Y-275489800D02*
X192328999Y-272967800D01*
X192328999Y-280091800D02*
X192328999Y-277569800D01*
X192368999Y-275489800D02*
X192368999Y-272945800D01*
X192368999Y-280113800D02*
X192368999Y-277569800D01*
X192408999Y-275489800D02*
X192408999Y-272923800D01*
X192408999Y-280135800D02*
X192408999Y-277569800D01*
X192448999Y-275489800D02*
X192448999Y-272902800D01*
X192448999Y-280156800D02*
X192448999Y-277569800D01*
X192488999Y-275489800D02*
X192488999Y-272882800D01*
X192488999Y-280176800D02*
X192488999Y-277569800D01*
X192528999Y-275489800D02*
X192528999Y-272863800D01*
X192528999Y-280195800D02*
X192528999Y-277569800D01*
X192568999Y-275489800D02*
X192568999Y-272843800D01*
X192568999Y-280215800D02*
X192568999Y-277569800D01*
X192608999Y-275489800D02*
X192608999Y-272825800D01*
X192608999Y-280233800D02*
X192608999Y-277569800D01*
X192648999Y-275489800D02*
X192648999Y-272807800D01*
X192648999Y-280251800D02*
X192648999Y-277569800D01*
X192688999Y-275489800D02*
X192688999Y-272789800D01*
X192688999Y-280269800D02*
X192688999Y-277569800D01*
X192728999Y-275489800D02*
X192728999Y-272772800D01*
X192728999Y-280286800D02*
X192728999Y-277569800D01*
X192768999Y-275489800D02*
X192768999Y-272755800D01*
X192768999Y-280303800D02*
X192768999Y-277569800D01*
X192808999Y-275489800D02*
X192808999Y-272739800D01*
X192808999Y-280319800D02*
X192808999Y-277569800D01*
X192848999Y-275489800D02*
X192848999Y-272724800D01*
X192848999Y-280334800D02*
X192848999Y-277569800D01*
X192888999Y-275489800D02*
X192888999Y-272708800D01*
X192888999Y-280350800D02*
X192888999Y-277569800D01*
X192928999Y-275489800D02*
X192928999Y-272694800D01*
X192928999Y-280364800D02*
X192928999Y-277569800D01*
X192968999Y-275489800D02*
X192968999Y-272679800D01*
X192968999Y-280379800D02*
X192968999Y-277569800D01*
X193008999Y-275489800D02*
X193008999Y-272666800D01*
X193008999Y-280392800D02*
X193008999Y-277569800D01*
X193048999Y-275489800D02*
X193048999Y-272652800D01*
X193048999Y-280406800D02*
X193048999Y-277569800D01*
X193088999Y-275489800D02*
X193088999Y-272640800D01*
X193088999Y-280418800D02*
X193088999Y-277569800D01*
X193128999Y-275489800D02*
X193128999Y-272627800D01*
X193128999Y-280431800D02*
X193128999Y-277569800D01*
X193168999Y-275489800D02*
X193168999Y-272615800D01*
X193168999Y-280443800D02*
X193168999Y-277569800D01*
X193208999Y-275489800D02*
X193208999Y-272604800D01*
X193208999Y-280454800D02*
X193208999Y-277569800D01*
X193248999Y-275489800D02*
X193248999Y-272593800D01*
X193248999Y-280465800D02*
X193248999Y-277569800D01*
X193288999Y-275489800D02*
X193288999Y-272582800D01*
X193288999Y-280476800D02*
X193288999Y-277569800D01*
X193328999Y-275489800D02*
X193328999Y-272572800D01*
X193328999Y-280486800D02*
X193328999Y-277569800D01*
X193368999Y-275489800D02*
X193368999Y-272562800D01*
X193368999Y-280496800D02*
X193368999Y-277569800D01*
X193408999Y-275489800D02*
X193408999Y-272553800D01*
X193408999Y-280505800D02*
X193408999Y-277569800D01*
X193448999Y-275489800D02*
X193448999Y-272544800D01*
X193448999Y-280514800D02*
X193448999Y-277569800D01*
X193488999Y-275489800D02*
X193488999Y-272535800D01*
X193488999Y-280523800D02*
X193488999Y-277569800D01*
X193528999Y-275489800D02*
X193528999Y-272527800D01*
X193528999Y-280531800D02*
X193528999Y-277569800D01*
X193568999Y-275489800D02*
X193568999Y-272519800D01*
X193568999Y-280539800D02*
X193568999Y-277569800D01*
X193608999Y-275489800D02*
X193608999Y-272512800D01*
X193608999Y-280546800D02*
X193608999Y-277569800D01*
X193649999Y-275489800D02*
X193649999Y-272505800D01*
X193649999Y-280553800D02*
X193649999Y-277569800D01*
X193689999Y-275489800D02*
X193689999Y-272499800D01*
X193689999Y-280559800D02*
X193689999Y-277569800D01*
X193729999Y-275489800D02*
X193729999Y-272492800D01*
X193729999Y-280566800D02*
X193729999Y-277569800D01*
X193769999Y-275489800D02*
X193769999Y-272487800D01*
X193769999Y-280571800D02*
X193769999Y-277569800D01*
X193809999Y-275489800D02*
X193809999Y-272481800D01*
X193809999Y-280577800D02*
X193809999Y-277569800D01*
X193849999Y-275489800D02*
X193849999Y-272477800D01*
X193849999Y-280581800D02*
X193849999Y-277569800D01*
X193889999Y-275489800D02*
X193889999Y-272472800D01*
X193889999Y-280586800D02*
X193889999Y-277569800D01*
X193929999Y-275489800D02*
X193929999Y-272468800D01*
X193929999Y-280590800D02*
X193929999Y-277569800D01*
X193969999Y-275489800D02*
X193969999Y-272464800D01*
X193969999Y-280594800D02*
X193969999Y-277569800D01*
X194009999Y-275489800D02*
X194009999Y-272461800D01*
X194009999Y-280597800D02*
X194009999Y-277569800D01*
X194049999Y-275489800D02*
X194049999Y-272458800D01*
X194049999Y-280600800D02*
X194049999Y-277569800D01*
X194089999Y-275489800D02*
X194089999Y-272455800D01*
X194089999Y-280603800D02*
X194089999Y-277569800D01*
X194129999Y-280605800D02*
X194129999Y-272453800D01*
X194169999Y-280606800D02*
X194169999Y-272452800D01*
X194209999Y-280608800D02*
X194209999Y-272450800D01*
X194249999Y-280609800D02*
X194249999Y-272449800D01*
X194289999Y-280609800D02*
X194289999Y-272449800D01*
X194329999Y-280609800D02*
X194329999Y-272449800D01*
X198339697Y-279244800D02*
X198339697Y-278444800D01*
X198739697Y-278844800D02*
X197939697Y-278844800D01*
X198449999Y-276529800D02*
G75*
G02*
X190209999Y-276529800I-4120000J0D01*
G01*
X190209999Y-276529800D02*
G75*
G02*
X198449999Y-276529800I4120000J0D01*
G01*
%TO.C,C5*%
X116043302Y-105331164D02*
X117275226Y-104619912D01*
X117403302Y-107686754D02*
X118635226Y-106975502D01*
%TO.C,C11*%
X238196697Y-247913245D02*
X236964773Y-248624497D01*
X239556697Y-250268835D02*
X238324773Y-250980087D01*
%TO.C,C1*%
X268718200Y-160551548D02*
X268718200Y-161974052D01*
X271438200Y-160551548D02*
X271438200Y-161974052D01*
%TO.C,C2*%
X247913245Y-117403302D02*
X248624497Y-118635226D01*
X250268835Y-116043302D02*
X250980087Y-117275226D01*
%TO.C,C14*%
X254256849Y-114847545D02*
X251629328Y-116364545D01*
X254276849Y-114882186D02*
X251651926Y-116397686D01*
X254296849Y-114916827D02*
X251674524Y-116430827D01*
X254316849Y-114951468D02*
X251697122Y-116463968D01*
X254336849Y-114986109D02*
X251720586Y-116496609D01*
X254356849Y-115020750D02*
X251744050Y-116529250D01*
X254376849Y-115055391D02*
X251768380Y-116561391D01*
X254396849Y-115090032D02*
X251791844Y-116594032D01*
X254416849Y-115124673D02*
X251817040Y-116625673D01*
X254436849Y-115159314D02*
X251841370Y-116657814D01*
X254456849Y-115193955D02*
X251867433Y-116688955D01*
X254476849Y-115228596D02*
X251892629Y-116720596D01*
X254497349Y-115264103D02*
X251919191Y-116752603D01*
X254517349Y-115298744D02*
X251945253Y-116783744D01*
X254537349Y-115333385D02*
X251972181Y-116814385D01*
X254557349Y-115368026D02*
X251999110Y-116845026D01*
X254577349Y-115402667D02*
X252026904Y-116875167D01*
X254597349Y-115437308D02*
X252054698Y-116905308D01*
X254617349Y-115471949D02*
X252082492Y-116935449D01*
X254637349Y-115506590D02*
X252111152Y-116965090D01*
X254657349Y-115541231D02*
X252139813Y-116994731D01*
X254677349Y-115575872D02*
X252169339Y-117023872D01*
X254697349Y-115610513D02*
X252198865Y-117053013D01*
X254717349Y-115645154D02*
X252228392Y-117082154D01*
X254737349Y-115679795D02*
X252258784Y-117110795D01*
X254757349Y-115714436D02*
X252290042Y-117138936D01*
X254777349Y-115749077D02*
X252320435Y-117167577D01*
X254797349Y-115783718D02*
X252352559Y-117195218D01*
X254817349Y-115818359D02*
X252383817Y-117223359D01*
X254837349Y-115853000D02*
X252416808Y-117250500D01*
X254837515Y-109143288D02*
X255237515Y-109836109D01*
X254857349Y-115887641D02*
X252448932Y-117278141D01*
X254877349Y-115922282D02*
X252482788Y-117304782D01*
X254897349Y-115956923D02*
X252515779Y-117331923D01*
X254917349Y-115991564D02*
X252549635Y-117358564D01*
X254937349Y-116026205D02*
X252584358Y-117384705D01*
X254957349Y-116060846D02*
X252619080Y-117410846D01*
X254977349Y-116095487D02*
X252654668Y-117436487D01*
X254997349Y-116130128D02*
X252690257Y-117462128D01*
X255017349Y-116164769D02*
X252725845Y-117487769D01*
X255037349Y-116199411D02*
X252763166Y-117512411D01*
X255057349Y-116234052D02*
X252799619Y-117537552D01*
X255077349Y-116268693D02*
X252836941Y-117562193D01*
X255097349Y-116303334D02*
X252875127Y-117586334D01*
X255117349Y-116337975D02*
X252914180Y-117609975D01*
X255137349Y-116372616D02*
X252953233Y-117633616D01*
X255157349Y-116407257D02*
X252992285Y-117657257D01*
X255177349Y-116441898D02*
X253032204Y-117680398D01*
X255197349Y-116476540D02*
X253072988Y-117703039D01*
X255217349Y-116511181D02*
X253113773Y-117725680D01*
X255237349Y-116545821D02*
X253155424Y-117747822D01*
X255257349Y-116580462D02*
X253197940Y-117769462D01*
X255277349Y-116615103D02*
X253240457Y-117791103D01*
X255383925Y-109289698D02*
X254691106Y-109689698D01*
X257539607Y-117387448D02*
X256616423Y-117920448D01*
X257723123Y-117235307D02*
X256392907Y-118003307D01*
X257859007Y-117110666D02*
X256217023Y-118058666D01*
X257968911Y-117001025D02*
X256067119Y-118099025D01*
X258062360Y-116900884D02*
X255933670Y-118129884D01*
X258143685Y-116807743D02*
X255812345Y-118153743D01*
X258216350Y-116719602D02*
X255699680Y-118172602D01*
X258282086Y-116635461D02*
X255593944Y-118187461D01*
X258342627Y-116554320D02*
X255493403Y-118199320D01*
X258397105Y-116476679D02*
X255398925Y-118207679D01*
X258448119Y-116401038D02*
X255307911Y-118214038D01*
X258494803Y-116327897D02*
X255221227Y-118217897D01*
X258538889Y-116256256D02*
X255137141Y-118220256D01*
X258570899Y-112079699D02*
X251504131Y-116159699D01*
X258579511Y-116186615D02*
X255056519Y-118220615D01*
X258590899Y-112114340D02*
X251524131Y-116194340D01*
X258610899Y-112148981D02*
X251544131Y-116228981D01*
X258618400Y-116117974D02*
X254977630Y-118219974D01*
X258630033Y-112184122D02*
X251564997Y-116263122D01*
X258648301Y-112219763D02*
X251586729Y-116296763D01*
X258653826Y-116051333D02*
X254902204Y-118217333D01*
X258667435Y-112254904D02*
X251607595Y-116330904D01*
X258685702Y-112290545D02*
X256058181Y-113807545D01*
X258687520Y-115985692D02*
X254828510Y-118213692D01*
X258703104Y-112326686D02*
X256078181Y-113842186D01*
X258718615Y-115921551D02*
X254757415Y-118208551D01*
X258720506Y-112362827D02*
X256098181Y-113876827D01*
X258737908Y-112398968D02*
X256118181Y-113911468D01*
X258748845Y-115857910D02*
X254687185Y-118202910D01*
X258754444Y-112435609D02*
X256138181Y-113946109D01*
X258770980Y-112472250D02*
X256158181Y-113980750D01*
X258776476Y-115795769D02*
X254619554Y-118195769D01*
X258786650Y-112509391D02*
X256178181Y-114015391D01*
X258803186Y-112546032D02*
X256198181Y-114050032D01*
X258803241Y-115734128D02*
X254552789Y-118188128D01*
X258817990Y-112583673D02*
X256218181Y-114084673D01*
X258827409Y-115673987D02*
X254488621Y-118178987D01*
X258833660Y-112620814D02*
X256238181Y-114119314D01*
X258847597Y-112658955D02*
X256258181Y-114153955D01*
X258851576Y-115613846D02*
X254424454Y-118169846D01*
X258862401Y-112696596D02*
X256278181Y-114188596D01*
X258873145Y-115555205D02*
X254362885Y-118159205D01*
X258876839Y-112735603D02*
X256298681Y-114224103D01*
X258890777Y-112773744D02*
X256318681Y-114258744D01*
X258893848Y-115497064D02*
X254302182Y-118148064D01*
X258903849Y-112812385D02*
X256338681Y-114293385D01*
X258913686Y-115439423D02*
X254242344Y-118136423D01*
X258916920Y-112851026D02*
X256358681Y-114328026D01*
X258929126Y-112890167D02*
X256378681Y-114362667D01*
X258931791Y-115382782D02*
X254184239Y-118123782D01*
X258941332Y-112929308D02*
X256398681Y-114397308D01*
X258949030Y-115326641D02*
X254127000Y-118110641D01*
X258953538Y-112968449D02*
X256418681Y-114431949D01*
X258964878Y-113008090D02*
X256438681Y-114466590D01*
X258965403Y-115271000D02*
X254070627Y-118097000D01*
X258976217Y-113047731D02*
X256458681Y-114501231D01*
X258980910Y-115215859D02*
X254015120Y-118082859D01*
X258986691Y-113087872D02*
X256478681Y-114535872D01*
X258995551Y-115161218D02*
X253960479Y-118068218D01*
X258997165Y-113128013D02*
X256498681Y-114570513D01*
X259007638Y-113168154D02*
X256518681Y-114605154D01*
X259008460Y-115107577D02*
X253907570Y-118052577D01*
X259017246Y-113208795D02*
X256538681Y-114639795D01*
X259021369Y-115053936D02*
X253854661Y-118036936D01*
X259025988Y-113249936D02*
X256558681Y-114674436D01*
X259032546Y-115001295D02*
X253803484Y-118020295D01*
X259035595Y-113290576D02*
X256578681Y-114709077D01*
X259043471Y-113332218D02*
X256598681Y-114743718D01*
X259043723Y-114948654D02*
X253752307Y-118003654D01*
X259052213Y-113373359D02*
X256618681Y-114778359D01*
X259054033Y-114896513D02*
X253701997Y-117986513D01*
X259059222Y-113415499D02*
X256638681Y-114812999D01*
X259063478Y-114844872D02*
X253652552Y-117968872D01*
X259067098Y-113457141D02*
X256658681Y-114847640D01*
X259071191Y-114794231D02*
X253604839Y-117950231D01*
X259073242Y-113499782D02*
X256678681Y-114882282D01*
X259079770Y-114743090D02*
X253556260Y-117932090D01*
X259080251Y-113541923D02*
X256698681Y-114916923D01*
X259086395Y-113584564D02*
X256718681Y-114951564D01*
X259086617Y-114692949D02*
X253509413Y-117912949D01*
X259091672Y-113627705D02*
X256738681Y-114986205D01*
X259092598Y-114643308D02*
X253463432Y-117893308D01*
X259096950Y-113670846D02*
X256758681Y-115020846D01*
X259098578Y-114593667D02*
X253417452Y-117873667D01*
X259101362Y-113714487D02*
X256778681Y-115055487D01*
X259103693Y-114544526D02*
X253372337Y-117853526D01*
X259105773Y-113758128D02*
X256798681Y-115090128D01*
X259108808Y-114495385D02*
X253327222Y-117833385D01*
X259110186Y-113801769D02*
X256818681Y-115124769D01*
X259112190Y-114447244D02*
X253283840Y-117812244D01*
X259112864Y-113846411D02*
X256838681Y-115159411D01*
X259115573Y-114399103D02*
X257078681Y-115575103D01*
X259116410Y-113890552D02*
X256858681Y-115194052D01*
X259118090Y-114351462D02*
X257058681Y-115540462D01*
X259119089Y-113935193D02*
X256878681Y-115228693D01*
X259120606Y-114303821D02*
X257038681Y-115505821D01*
X259120903Y-113980334D02*
X256898681Y-115263334D01*
X259121850Y-114025975D02*
X256918681Y-115297975D01*
X259122257Y-114256680D02*
X257018681Y-115471180D01*
X259122797Y-114071616D02*
X256938681Y-115332616D01*
X259123042Y-114210039D02*
X256998681Y-115436539D01*
X259123745Y-114117257D02*
X256958681Y-115367257D01*
X259123826Y-114163398D02*
X256978681Y-115401898D01*
X259157514Y-114119699D02*
G75*
G02*
X250917516Y-114119699I-4119999J0D01*
G01*
X250917516Y-114119699D02*
G75*
G02*
X259157514Y-114119699I4119999J0D01*
G01*
%TO.C,C18*%
X79676376Y-144865500D02*
X80369196Y-145265500D01*
X79822786Y-145411910D02*
X80222786Y-144719089D01*
X80499100Y-140710499D02*
X87565868Y-144790499D01*
X80519100Y-140675858D02*
X87585868Y-144755858D01*
X80539100Y-140641217D02*
X87605868Y-144721217D01*
X80559966Y-140607076D02*
X87625002Y-144686076D01*
X80581698Y-140573435D02*
X87643270Y-144650435D01*
X80602564Y-140539294D02*
X87662404Y-144615294D01*
X80624297Y-140505653D02*
X83251818Y-142022653D01*
X80646895Y-140472512D02*
X83271818Y-141988012D01*
X80669493Y-140439371D02*
X83291818Y-141953371D01*
X80692091Y-140406230D02*
X83311818Y-141918730D01*
X80715555Y-140373589D02*
X83331818Y-141884089D01*
X80739019Y-140340948D02*
X83351818Y-141849448D01*
X80763349Y-140308807D02*
X83371818Y-141814807D01*
X80786813Y-140276166D02*
X83391818Y-141780166D01*
X80812009Y-140244525D02*
X83411818Y-141745525D01*
X80836339Y-140212384D02*
X83431818Y-141710884D01*
X80862402Y-140181243D02*
X83451818Y-141676243D01*
X80887598Y-140149602D02*
X83471818Y-141641602D01*
X80914160Y-140117595D02*
X83492318Y-141606095D01*
X80940222Y-140086454D02*
X83512318Y-141571454D01*
X80967150Y-140055813D02*
X83532318Y-141536813D01*
X80994079Y-140025172D02*
X83552318Y-141502172D01*
X81021873Y-139995031D02*
X83572318Y-141467531D01*
X81049667Y-139964890D02*
X83592318Y-141432890D01*
X81077461Y-139934749D02*
X83612318Y-141398249D01*
X81106121Y-139905108D02*
X83632318Y-141363608D01*
X81134782Y-139875467D02*
X83652318Y-141328967D01*
X81164308Y-139846326D02*
X83672318Y-141294326D01*
X81193834Y-139817185D02*
X83692318Y-141259685D01*
X81223361Y-139788044D02*
X83712318Y-141225044D01*
X81253753Y-139759403D02*
X83732318Y-141190403D01*
X81285011Y-139731262D02*
X83752318Y-141155762D01*
X81315404Y-139702621D02*
X83772318Y-141121121D01*
X81347528Y-139674980D02*
X83792318Y-141086480D01*
X81378786Y-139646839D02*
X83812318Y-141051839D01*
X81411777Y-139619698D02*
X83832318Y-141017198D01*
X81443901Y-139592057D02*
X83852318Y-140982557D01*
X81477757Y-139565416D02*
X83872318Y-140947916D01*
X81510748Y-139538275D02*
X83892318Y-140913275D01*
X81544604Y-139511634D02*
X83912318Y-140878634D01*
X81579327Y-139485493D02*
X83932318Y-140843993D01*
X81614049Y-139459352D02*
X83952318Y-140809352D01*
X81649637Y-139433711D02*
X83972318Y-140774711D01*
X81685226Y-139408070D02*
X83992318Y-140740070D01*
X81720814Y-139382429D02*
X84012318Y-140705429D01*
X81758135Y-139357787D02*
X84032318Y-140670787D01*
X81794588Y-139332646D02*
X84052318Y-140636146D01*
X81831910Y-139308005D02*
X84072318Y-140601505D01*
X81870096Y-139283864D02*
X84092318Y-140566864D01*
X81909149Y-139260223D02*
X84112318Y-140532223D01*
X81948202Y-139236582D02*
X84132318Y-140497582D01*
X81987254Y-139212941D02*
X84152318Y-140462941D01*
X82027173Y-139189800D02*
X84172318Y-140428300D01*
X82067957Y-139167159D02*
X84192318Y-140393658D01*
X82108742Y-139144518D02*
X84212318Y-140359017D01*
X82150393Y-139122376D02*
X84232318Y-140324377D01*
X82192909Y-139100736D02*
X84252318Y-140289736D01*
X82235426Y-139079095D02*
X84272318Y-140255095D01*
X82278809Y-139057954D02*
X88107159Y-142422954D01*
X82322191Y-139036813D02*
X88103777Y-142374813D01*
X82367306Y-139016672D02*
X88098662Y-142325672D01*
X82412421Y-138996531D02*
X88093547Y-142276531D01*
X82458401Y-138976890D02*
X88087567Y-142226890D01*
X82504382Y-138957249D02*
X88081586Y-142177249D01*
X82551229Y-138938108D02*
X88074739Y-142127108D01*
X82599808Y-138919967D02*
X88066160Y-142075967D01*
X82647521Y-138901326D02*
X88058447Y-142025326D01*
X82696966Y-138883685D02*
X88049002Y-141973685D01*
X82747276Y-138866544D02*
X88038692Y-141921544D01*
X82798453Y-138849903D02*
X88027515Y-141868903D01*
X82849630Y-138833262D02*
X88016338Y-141816262D01*
X82902539Y-138817621D02*
X88003429Y-141762621D01*
X82955448Y-138801980D02*
X87990520Y-141708980D01*
X83010089Y-138787339D02*
X87975879Y-141654339D01*
X83065596Y-138773198D02*
X87960372Y-141599198D01*
X83121969Y-138759557D02*
X87943999Y-141543557D01*
X83179208Y-138746416D02*
X87926760Y-141487416D01*
X83237313Y-138733775D02*
X87908655Y-141430775D01*
X83297151Y-138722134D02*
X87888817Y-141373134D01*
X83357854Y-138710993D02*
X87868114Y-141314993D01*
X83419423Y-138700352D02*
X87846545Y-141256352D01*
X83483590Y-138691211D02*
X87822378Y-141196211D01*
X83547758Y-138682070D02*
X87798210Y-141136070D01*
X83614523Y-138674429D02*
X87771445Y-141074429D01*
X83682154Y-138667288D02*
X87743814Y-141012288D01*
X83752384Y-138661647D02*
X87713584Y-140948647D01*
X83823479Y-138656506D02*
X87682489Y-140884506D01*
X83897173Y-138652865D02*
X87648795Y-140818865D01*
X83972599Y-138650224D02*
X87613369Y-140752224D01*
X84051488Y-138649583D02*
X87574480Y-140683583D01*
X84132110Y-138649942D02*
X87533858Y-140613942D01*
X84216196Y-138652301D02*
X87489772Y-140542301D01*
X84302880Y-138656160D02*
X87443088Y-140469160D01*
X84393894Y-138662519D02*
X87392074Y-140393519D01*
X84488372Y-138670878D02*
X87337596Y-140315878D01*
X84588913Y-138682737D02*
X87277055Y-140234737D01*
X84694649Y-138697596D02*
X87211319Y-140150596D01*
X84807314Y-138716455D02*
X87138654Y-140062455D01*
X84928639Y-138740314D02*
X87057329Y-139969314D01*
X85053150Y-143062653D02*
X87680671Y-144579653D01*
X85062088Y-138771173D02*
X86963880Y-139869173D01*
X85073150Y-143028012D02*
X87698073Y-144543512D01*
X85093150Y-142993371D02*
X87715475Y-144507371D01*
X85113150Y-142958730D02*
X87732877Y-144471230D01*
X85133150Y-142924089D02*
X87749413Y-144434589D01*
X85153150Y-142889448D02*
X87765949Y-144397948D01*
X85173150Y-142854807D02*
X87781619Y-144360807D01*
X85193150Y-142820166D02*
X87798155Y-144324166D01*
X85211992Y-138811532D02*
X86853976Y-139759532D01*
X85213150Y-142785525D02*
X87812959Y-144286525D01*
X85233150Y-142750884D02*
X87828629Y-144249384D01*
X85253150Y-142716243D02*
X87842566Y-144211243D01*
X85273150Y-142681602D02*
X87857370Y-144173602D01*
X85293650Y-142646095D02*
X87871808Y-144134595D01*
X85313650Y-142611454D02*
X87885746Y-144096454D01*
X85333650Y-142576813D02*
X87898818Y-144057813D01*
X85353650Y-142542172D02*
X87911889Y-144019172D01*
X85373650Y-142507531D02*
X87924095Y-143980031D01*
X85387876Y-138866891D02*
X86718092Y-139634891D01*
X85393650Y-142472890D02*
X87936301Y-143940890D01*
X85413650Y-142438249D02*
X87948507Y-143901749D01*
X85433650Y-142403608D02*
X87959847Y-143862108D01*
X85453650Y-142368967D02*
X87971186Y-143822467D01*
X85473650Y-142334326D02*
X87981660Y-143782326D01*
X85493650Y-142299685D02*
X87992134Y-143742185D01*
X85513650Y-142265044D02*
X88002607Y-143702044D01*
X85533650Y-142230403D02*
X88012215Y-143661403D01*
X85553650Y-142195762D02*
X88020957Y-143620262D01*
X85573650Y-142161121D02*
X88030564Y-143579622D01*
X85593650Y-142126480D02*
X88038440Y-143537980D01*
X85611392Y-138949750D02*
X86534576Y-139482750D01*
X85613650Y-142091839D02*
X88047182Y-143496839D01*
X85633650Y-142057199D02*
X88054191Y-143454699D01*
X85653650Y-142022558D02*
X88062067Y-143413057D01*
X85673650Y-141987916D02*
X88068211Y-143370416D01*
X85693650Y-141953275D02*
X88075220Y-143328275D01*
X85713650Y-141918634D02*
X88081364Y-143285634D01*
X85733650Y-141883993D02*
X88086641Y-143242493D01*
X85753650Y-141849352D02*
X88091919Y-143199352D01*
X85773650Y-141814711D02*
X88096331Y-143155711D01*
X85793650Y-141780070D02*
X88100742Y-143112070D01*
X85813650Y-141745429D02*
X88105155Y-143068429D01*
X85833650Y-141710787D02*
X88107833Y-143023787D01*
X85853650Y-141676146D02*
X88111379Y-142979646D01*
X85873650Y-141641505D02*
X88114058Y-142935005D01*
X85893650Y-141606864D02*
X88115872Y-142889864D01*
X85913650Y-141572223D02*
X88116819Y-142844223D01*
X85933650Y-141537582D02*
X88117766Y-142798582D01*
X85953650Y-141502941D02*
X88118714Y-142752941D01*
X85973650Y-141468300D02*
X88118795Y-142706800D01*
X85993650Y-141433659D02*
X88118011Y-142660159D01*
X86013650Y-141399018D02*
X88117226Y-142613518D01*
X86033650Y-141364377D02*
X88115575Y-142566377D01*
X86053650Y-141329736D02*
X88113059Y-142518736D01*
X86073650Y-141295095D02*
X88110542Y-142471095D01*
X88152483Y-142750499D02*
G75*
G02*
X79912485Y-142750499I-4119999J0D01*
G01*
X79912485Y-142750499D02*
G75*
G02*
X88152483Y-142750499I4119999J0D01*
G01*
%TO.C,C17*%
X109143288Y-100762484D02*
X109836109Y-100362484D01*
X109289698Y-100216074D02*
X109689698Y-100908893D01*
X112079699Y-97029100D02*
X116159699Y-104095868D01*
X112114340Y-97009100D02*
X116194340Y-104075868D01*
X112148981Y-96989100D02*
X116228981Y-104055868D01*
X112184122Y-96969966D02*
X116263122Y-104035002D01*
X112219763Y-96951698D02*
X116296763Y-104013270D01*
X112254904Y-96932564D02*
X116330904Y-103992404D01*
X112290545Y-96914297D02*
X113807545Y-99541818D01*
X112326686Y-96896895D02*
X113842186Y-99521818D01*
X112362827Y-96879493D02*
X113876827Y-99501818D01*
X112398968Y-96862091D02*
X113911468Y-99481818D01*
X112435609Y-96845555D02*
X113946109Y-99461818D01*
X112472250Y-96829019D02*
X113980750Y-99441818D01*
X112509391Y-96813349D02*
X114015391Y-99421818D01*
X112546032Y-96796813D02*
X114050032Y-99401818D01*
X112583673Y-96782009D02*
X114084673Y-99381818D01*
X112620814Y-96766339D02*
X114119314Y-99361818D01*
X112658955Y-96752402D02*
X114153955Y-99341818D01*
X112696596Y-96737598D02*
X114188596Y-99321818D01*
X112735603Y-96723160D02*
X114224103Y-99301318D01*
X112773744Y-96709222D02*
X114258744Y-99281318D01*
X112812385Y-96696150D02*
X114293385Y-99261318D01*
X112851026Y-96683079D02*
X114328026Y-99241318D01*
X112890167Y-96670873D02*
X114362667Y-99221318D01*
X112929308Y-96658667D02*
X114397308Y-99201318D01*
X112968449Y-96646461D02*
X114431949Y-99181318D01*
X113008090Y-96635121D02*
X114466590Y-99161318D01*
X113047731Y-96623782D02*
X114501231Y-99141318D01*
X113087872Y-96613308D02*
X114535872Y-99121318D01*
X113128013Y-96602834D02*
X114570513Y-99101318D01*
X113168154Y-96592361D02*
X114605154Y-99081318D01*
X113208795Y-96582753D02*
X114639795Y-99061318D01*
X113249936Y-96574011D02*
X114674436Y-99041318D01*
X113290576Y-96564404D02*
X114709077Y-99021318D01*
X113332218Y-96556528D02*
X114743718Y-99001318D01*
X113373359Y-96547786D02*
X114778359Y-98981318D01*
X113415499Y-96540777D02*
X114812999Y-98961318D01*
X113457141Y-96532901D02*
X114847640Y-98941318D01*
X113499782Y-96526757D02*
X114882282Y-98921318D01*
X113541923Y-96519748D02*
X114916923Y-98901318D01*
X113584564Y-96513604D02*
X114951564Y-98881318D01*
X113627705Y-96508327D02*
X114986205Y-98861318D01*
X113670846Y-96503049D02*
X115020846Y-98841318D01*
X113714487Y-96498637D02*
X115055487Y-98821318D01*
X113758128Y-96494226D02*
X115090128Y-98801318D01*
X113801769Y-96489813D02*
X115124769Y-98781318D01*
X113846411Y-96487135D02*
X115159411Y-98761318D01*
X113890552Y-96483589D02*
X115194052Y-98741318D01*
X113935193Y-96480910D02*
X115228693Y-98721318D01*
X113980334Y-96479096D02*
X115263334Y-98701318D01*
X114025975Y-96478149D02*
X115297975Y-98681318D01*
X114071616Y-96477202D02*
X115332616Y-98661318D01*
X114117257Y-96476254D02*
X115367257Y-98641318D01*
X114163398Y-96476173D02*
X115401898Y-98621318D01*
X114210039Y-96476957D02*
X115436539Y-98601318D01*
X114256680Y-96477742D02*
X115471180Y-98581318D01*
X114303821Y-96479393D02*
X115505821Y-98561318D01*
X114351462Y-96481909D02*
X115540462Y-98541318D01*
X114399103Y-96484426D02*
X115575103Y-98521318D01*
X114447244Y-96487809D02*
X117812244Y-102316159D01*
X114495385Y-96491191D02*
X117833385Y-102272777D01*
X114544526Y-96496306D02*
X117853526Y-102227662D01*
X114593667Y-96501421D02*
X117873667Y-102182547D01*
X114643308Y-96507401D02*
X117893308Y-102136567D01*
X114692949Y-96513382D02*
X117912949Y-102090586D01*
X114743090Y-96520229D02*
X117932090Y-102043739D01*
X114794231Y-96528808D02*
X117950231Y-101995160D01*
X114844872Y-96536521D02*
X117968872Y-101947447D01*
X114847545Y-101343150D02*
X116364545Y-103970671D01*
X114882186Y-101323150D02*
X116397686Y-103948073D01*
X114896513Y-96545966D02*
X117986513Y-101898002D01*
X114916827Y-101303150D02*
X116430827Y-103925475D01*
X114948654Y-96556276D02*
X118003654Y-101847692D01*
X114951468Y-101283150D02*
X116463968Y-103902877D01*
X114986109Y-101263150D02*
X116496609Y-103879413D01*
X115001295Y-96567453D02*
X118020295Y-101796515D01*
X115020750Y-101243150D02*
X116529250Y-103855949D01*
X115053936Y-96578630D02*
X118036936Y-101745338D01*
X115055391Y-101223150D02*
X116561391Y-103831619D01*
X115090032Y-101203150D02*
X116594032Y-103808155D01*
X115107577Y-96591539D02*
X118052577Y-101692429D01*
X115124673Y-101183150D02*
X116625673Y-103782959D01*
X115159314Y-101163150D02*
X116657814Y-103758629D01*
X115161218Y-96604448D02*
X118068218Y-101639520D01*
X115193955Y-101143150D02*
X116688955Y-103732566D01*
X115215859Y-96619089D02*
X118082859Y-101584879D01*
X115228596Y-101123150D02*
X116720596Y-103707370D01*
X115264103Y-101102650D02*
X116752603Y-103680808D01*
X115271000Y-96634596D02*
X118097000Y-101529372D01*
X115298744Y-101082650D02*
X116783744Y-103654746D01*
X115326641Y-96650969D02*
X118110641Y-101472999D01*
X115333385Y-101062650D02*
X116814385Y-103627818D01*
X115368026Y-101042650D02*
X116845026Y-103600889D01*
X115382782Y-96668208D02*
X118123782Y-101415760D01*
X115402667Y-101022650D02*
X116875167Y-103573095D01*
X115437308Y-101002650D02*
X116905308Y-103545301D01*
X115439423Y-96686313D02*
X118136423Y-101357655D01*
X115471949Y-100982650D02*
X116935449Y-103517507D01*
X115497064Y-96706151D02*
X118148064Y-101297817D01*
X115506590Y-100962650D02*
X116965090Y-103488847D01*
X115541231Y-100942650D02*
X116994731Y-103460186D01*
X115555205Y-96726854D02*
X118159205Y-101237114D01*
X115575872Y-100922650D02*
X117023872Y-103430660D01*
X115610513Y-100902650D02*
X117053013Y-103401134D01*
X115613846Y-96748423D02*
X118169846Y-101175545D01*
X115645154Y-100882650D02*
X117082154Y-103371607D01*
X115673987Y-96772590D02*
X118178987Y-101111378D01*
X115679795Y-100862650D02*
X117110795Y-103341215D01*
X115714436Y-100842650D02*
X117138936Y-103309957D01*
X115734128Y-96796758D02*
X118188128Y-101047210D01*
X115749077Y-100822650D02*
X117167577Y-103279564D01*
X115783718Y-100802650D02*
X117195218Y-103247440D01*
X115795769Y-96823523D02*
X118195769Y-100980445D01*
X115818359Y-100782650D02*
X117223359Y-103216182D01*
X115853000Y-100762650D02*
X117250500Y-103183191D01*
X115857910Y-96851154D02*
X118202910Y-100912814D01*
X115887641Y-100742650D02*
X117278141Y-103151067D01*
X115921551Y-96881384D02*
X118208551Y-100842584D01*
X115922282Y-100722650D02*
X117304782Y-103117211D01*
X115956923Y-100702650D02*
X117331923Y-103084220D01*
X115985692Y-96912479D02*
X118213692Y-100771489D01*
X115991564Y-100682650D02*
X117358564Y-103050364D01*
X116026205Y-100662650D02*
X117384705Y-103015641D01*
X116051333Y-96946173D02*
X118217333Y-100697795D01*
X116060846Y-100642650D02*
X117410846Y-102980919D01*
X116095487Y-100622650D02*
X117436487Y-102945331D01*
X116117974Y-96981599D02*
X118219974Y-100622369D01*
X116130128Y-100602650D02*
X117462128Y-102909742D01*
X116164769Y-100582650D02*
X117487769Y-102874154D01*
X116186615Y-97020488D02*
X118220615Y-100543480D01*
X116199411Y-100562650D02*
X117512411Y-102836833D01*
X116234052Y-100542650D02*
X117537552Y-102800380D01*
X116256256Y-97061110D02*
X118220256Y-100462858D01*
X116268693Y-100522650D02*
X117562193Y-102763058D01*
X116303334Y-100502650D02*
X117586334Y-102724872D01*
X116327897Y-97105196D02*
X118217897Y-100378772D01*
X116337975Y-100482650D02*
X117609975Y-102685819D01*
X116372616Y-100462650D02*
X117633616Y-102646766D01*
X116401038Y-97151880D02*
X118214038Y-100292088D01*
X116407257Y-100442650D02*
X117657257Y-102607714D01*
X116441898Y-100422650D02*
X117680398Y-102567795D01*
X116476540Y-100402650D02*
X117703039Y-102527011D01*
X116476679Y-97202894D02*
X118207679Y-100201074D01*
X116511181Y-100382650D02*
X117725680Y-102486226D01*
X116545821Y-100362650D02*
X117747822Y-102444575D01*
X116554320Y-97257372D02*
X118199320Y-100106596D01*
X116580462Y-100342650D02*
X117769462Y-102402059D01*
X116615103Y-100322650D02*
X117791103Y-102359542D01*
X116635461Y-97317913D02*
X118187461Y-100006055D01*
X116719602Y-97383649D02*
X118172602Y-99900319D01*
X116807743Y-97456314D02*
X118153743Y-99787654D01*
X116900884Y-97537639D02*
X118129884Y-99666329D01*
X117001025Y-97631088D02*
X118099025Y-99532880D01*
X117110666Y-97740992D02*
X118058666Y-99382976D01*
X117235307Y-97876876D02*
X118003307Y-99207092D01*
X117387448Y-98060392D02*
X117920448Y-98983576D01*
X118239698Y-100562484D02*
G75*
G02*
X109999700Y-100562484I-4119999J0D01*
G01*
X109999700Y-100562484D02*
G75*
G02*
X118239698Y-100562484I4119999J0D01*
G01*
%TO.C,C20*%
X96476173Y-241436601D02*
X98621318Y-240198101D01*
X96476254Y-241482742D02*
X98641318Y-240232742D01*
X96476957Y-241389960D02*
X98601318Y-240163460D01*
X96477202Y-241528383D02*
X98661318Y-240267383D01*
X96477742Y-241343319D02*
X98581318Y-240128819D01*
X96478149Y-241574024D02*
X98681318Y-240302024D01*
X96479096Y-241619665D02*
X98701318Y-240336665D01*
X96479393Y-241296178D02*
X98561318Y-240094178D01*
X96480910Y-241664806D02*
X98721318Y-240371306D01*
X96481909Y-241248537D02*
X98541318Y-240059537D01*
X96483589Y-241709447D02*
X98741318Y-240405947D01*
X96484426Y-241200896D02*
X98521318Y-240024896D01*
X96487135Y-241753588D02*
X98761318Y-240440588D01*
X96487809Y-241152755D02*
X102316159Y-237787755D01*
X96489813Y-241798230D02*
X98781318Y-240475230D01*
X96491191Y-241104614D02*
X102272777Y-237766614D01*
X96494226Y-241841871D02*
X98801318Y-240509871D01*
X96496306Y-241055473D02*
X102227662Y-237746473D01*
X96498637Y-241885512D02*
X98821318Y-240544512D01*
X96501421Y-241006332D02*
X102182547Y-237726332D01*
X96503049Y-241929153D02*
X98841318Y-240579153D01*
X96507401Y-240956691D02*
X102136567Y-237706691D01*
X96508327Y-241972294D02*
X98861318Y-240613794D01*
X96513382Y-240907050D02*
X102090586Y-237687050D01*
X96513604Y-242015435D02*
X98881318Y-240648435D01*
X96519748Y-242058076D02*
X98901318Y-240683076D01*
X96520229Y-240856909D02*
X102043739Y-237667909D01*
X96526757Y-242100217D02*
X98921318Y-240717717D01*
X96528808Y-240805768D02*
X101995160Y-237649768D01*
X96532901Y-242142858D02*
X98941318Y-240752359D01*
X96536521Y-240755127D02*
X101947447Y-237631127D01*
X96540777Y-242184500D02*
X98961318Y-240787000D01*
X96545966Y-240703486D02*
X101898002Y-237613486D01*
X96547786Y-242226640D02*
X98981318Y-240821640D01*
X96556276Y-240651345D02*
X101847692Y-237596345D01*
X96556528Y-242267781D02*
X99001318Y-240856281D01*
X96564404Y-242309423D02*
X99021318Y-240890922D01*
X96567453Y-240598704D02*
X101796515Y-237579704D01*
X96574011Y-242350063D02*
X99041318Y-240925563D01*
X96578630Y-240546063D02*
X101745338Y-237563063D01*
X96582753Y-242391204D02*
X99061318Y-240960204D01*
X96591539Y-240492422D02*
X101692429Y-237547422D01*
X96592361Y-242431845D02*
X99081318Y-240994845D01*
X96602834Y-242471986D02*
X99101318Y-241029486D01*
X96604448Y-240438781D02*
X101639520Y-237531781D01*
X96613308Y-242512127D02*
X99121318Y-241064127D01*
X96619089Y-240384140D02*
X101584879Y-237517140D01*
X96623782Y-242552268D02*
X99141318Y-241098768D01*
X96634596Y-240328999D02*
X101529372Y-237502999D01*
X96635121Y-242591909D02*
X99161318Y-241133409D01*
X96646461Y-242631550D02*
X99181318Y-241168050D01*
X96650969Y-240273358D02*
X101472999Y-237489358D01*
X96658667Y-242670691D02*
X99201318Y-241202691D01*
X96668208Y-240217217D02*
X101415760Y-237476217D01*
X96670873Y-242709832D02*
X99221318Y-241237332D01*
X96683079Y-242748973D02*
X99241318Y-241271973D01*
X96686313Y-240160576D02*
X101357655Y-237463576D01*
X96696150Y-242787614D02*
X99261318Y-241306614D01*
X96706151Y-240102935D02*
X101297817Y-237451935D01*
X96709222Y-242826255D02*
X99281318Y-241341255D01*
X96723160Y-242864396D02*
X99301318Y-241375896D01*
X96726854Y-240044794D02*
X101237114Y-237440794D01*
X96737598Y-242903403D02*
X99321818Y-241411403D01*
X96748423Y-239986153D02*
X101175545Y-237430153D01*
X96752402Y-242941044D02*
X99341818Y-241446044D01*
X96766339Y-242979185D02*
X99361818Y-241480685D01*
X96772590Y-239926012D02*
X101111378Y-237421012D01*
X96782009Y-243016326D02*
X99381818Y-241515326D01*
X96796758Y-239865871D02*
X101047210Y-237411871D01*
X96796813Y-243053967D02*
X99401818Y-241549967D01*
X96813349Y-243090608D02*
X99421818Y-241584608D01*
X96823523Y-239804230D02*
X100980445Y-237404230D01*
X96829019Y-243127749D02*
X99441818Y-241619249D01*
X96845555Y-243164390D02*
X99461818Y-241653890D01*
X96851154Y-239742089D02*
X100912814Y-237397089D01*
X96862091Y-243201031D02*
X99481818Y-241688531D01*
X96879493Y-243237172D02*
X99501818Y-241723172D01*
X96881384Y-239678448D02*
X100842584Y-237391448D01*
X96896895Y-243273313D02*
X99521818Y-241757813D01*
X96912479Y-239614307D02*
X100771489Y-237386307D01*
X96914297Y-243309454D02*
X99541818Y-241792454D01*
X96932564Y-243345095D02*
X103992404Y-239269095D01*
X96946173Y-239548666D02*
X100697795Y-237382666D01*
X96951698Y-243380236D02*
X104013270Y-239303236D01*
X96969966Y-243415877D02*
X104035002Y-239336877D01*
X96981599Y-239482025D02*
X100622369Y-237380025D01*
X96989100Y-243451018D02*
X104055868Y-239371018D01*
X97009100Y-243485659D02*
X104075868Y-239405659D01*
X97020488Y-239413384D02*
X100543480Y-237379384D01*
X97029100Y-243520300D02*
X104095868Y-239440300D01*
X97061110Y-239343743D02*
X100462858Y-237379743D01*
X97105196Y-239272102D02*
X100378772Y-237382102D01*
X97151880Y-239198961D02*
X100292088Y-237385961D01*
X97202894Y-239123320D02*
X100201074Y-237392320D01*
X97257372Y-239045679D02*
X100106596Y-237400679D01*
X97317913Y-238964538D02*
X100006055Y-237412538D01*
X97383649Y-238880397D02*
X99900319Y-237427397D01*
X97456314Y-238792256D02*
X99787654Y-237446256D01*
X97537639Y-238699115D02*
X99666329Y-237470115D01*
X97631088Y-238598974D02*
X99532880Y-237500974D01*
X97740992Y-238489333D02*
X99382976Y-237541333D01*
X97876876Y-238364692D02*
X99207092Y-237596692D01*
X98060392Y-238212551D02*
X98983576Y-237679551D01*
X100216074Y-246310301D02*
X100908893Y-245910301D01*
X100322650Y-238984896D02*
X102359542Y-237808896D01*
X100342650Y-239019537D02*
X102402059Y-237830537D01*
X100362650Y-239054178D02*
X102444575Y-237852177D01*
X100382650Y-239088818D02*
X102486226Y-237874319D01*
X100402650Y-239123459D02*
X102527011Y-237896960D01*
X100422650Y-239158101D02*
X102567795Y-237919601D01*
X100442650Y-239192742D02*
X102607714Y-237942742D01*
X100462650Y-239227383D02*
X102646766Y-237966383D01*
X100482650Y-239262024D02*
X102685819Y-237990024D01*
X100502650Y-239296665D02*
X102724872Y-238013665D01*
X100522650Y-239331306D02*
X102763058Y-238037806D01*
X100542650Y-239365947D02*
X102800380Y-238062447D01*
X100562650Y-239400588D02*
X102836833Y-238087588D01*
X100582650Y-239435230D02*
X102874154Y-238112230D01*
X100602650Y-239469871D02*
X102909742Y-238137871D01*
X100622650Y-239504512D02*
X102945331Y-238163512D01*
X100642650Y-239539153D02*
X102980919Y-238189153D01*
X100662650Y-239573794D02*
X103015641Y-238215294D01*
X100682650Y-239608435D02*
X103050364Y-238241435D01*
X100702650Y-239643076D02*
X103084220Y-238268076D01*
X100722650Y-239677717D02*
X103117211Y-238295217D01*
X100742650Y-239712358D02*
X103151067Y-238321858D01*
X100762484Y-246456711D02*
X100362484Y-245763890D01*
X100762650Y-239746999D02*
X103183191Y-238349499D01*
X100782650Y-239781640D02*
X103216182Y-238376640D01*
X100802650Y-239816281D02*
X103247440Y-238404781D01*
X100822650Y-239850922D02*
X103279564Y-238432422D01*
X100842650Y-239885563D02*
X103309957Y-238461063D01*
X100862650Y-239920204D02*
X103341215Y-238489204D01*
X100882650Y-239954845D02*
X103371607Y-238517845D01*
X100902650Y-239989486D02*
X103401134Y-238546986D01*
X100922650Y-240024127D02*
X103430660Y-238576127D01*
X100942650Y-240058768D02*
X103460186Y-238605268D01*
X100962650Y-240093409D02*
X103488847Y-238634909D01*
X100982650Y-240128050D02*
X103517507Y-238664550D01*
X101002650Y-240162691D02*
X103545301Y-238694691D01*
X101022650Y-240197332D02*
X103573095Y-238724832D01*
X101042650Y-240231973D02*
X103600889Y-238754973D01*
X101062650Y-240266614D02*
X103627818Y-238785614D01*
X101082650Y-240301255D02*
X103654746Y-238816255D01*
X101102650Y-240335896D02*
X103680808Y-238847396D01*
X101123150Y-240371403D02*
X103707370Y-238879403D01*
X101143150Y-240406044D02*
X103732566Y-238911044D01*
X101163150Y-240440685D02*
X103758629Y-238942185D01*
X101183150Y-240475326D02*
X103782959Y-238974326D01*
X101203150Y-240509967D02*
X103808155Y-239005967D01*
X101223150Y-240544608D02*
X103831619Y-239038608D01*
X101243150Y-240579249D02*
X103855949Y-239070749D01*
X101263150Y-240613890D02*
X103879413Y-239103390D01*
X101283150Y-240648531D02*
X103902877Y-239136031D01*
X101303150Y-240683172D02*
X103925475Y-239169172D01*
X101323150Y-240717813D02*
X103948073Y-239202313D01*
X101343150Y-240752454D02*
X103970671Y-239235454D01*
X104682483Y-241480300D02*
G75*
G02*
X96442485Y-241480300I-4119999J0D01*
G01*
X96442485Y-241480300D02*
G75*
G02*
X104682483Y-241480300I4119999J0D01*
G01*
%TO.C,C6*%
X88082712Y-145918496D02*
X88793964Y-144686572D01*
X90438302Y-147278496D02*
X91149554Y-146046572D01*
%TO.C,C10*%
X195048452Y-268718200D02*
X193625948Y-268718200D01*
X195048452Y-271438200D02*
X193625948Y-271438200D01*
%TO.C,C9*%
X145918496Y-267517287D02*
X144686572Y-266806035D01*
X147278496Y-265161697D02*
X146046572Y-264450445D01*
%TO.C,C7*%
X84161799Y-195048452D02*
X84161799Y-193625948D01*
X86881799Y-195048452D02*
X86881799Y-193625948D01*
%TO.C,C15*%
X210188089Y-79822786D02*
X210880910Y-80222786D01*
X210734499Y-79676376D02*
X210334499Y-80369196D01*
X212537346Y-85053150D02*
X211020346Y-87680671D01*
X212571987Y-85073150D02*
X211056487Y-87698073D01*
X212606628Y-85093150D02*
X211092628Y-87715475D01*
X212641269Y-85113150D02*
X211128769Y-87732877D01*
X212675910Y-85133150D02*
X211165410Y-87749413D01*
X212710551Y-85153150D02*
X211202051Y-87765949D01*
X212745192Y-85173150D02*
X211239192Y-87781619D01*
X212779833Y-85193150D02*
X211275833Y-87798155D01*
X212814474Y-85213150D02*
X211313474Y-87812959D01*
X212849115Y-85233150D02*
X211350615Y-87828629D01*
X212883756Y-85253150D02*
X211388756Y-87842566D01*
X212918397Y-85273150D02*
X211426397Y-87857370D01*
X212953904Y-85293650D02*
X211465404Y-87871808D01*
X212988545Y-85313650D02*
X211503545Y-87885746D01*
X213023186Y-85333650D02*
X211542186Y-87898818D01*
X213057827Y-85353650D02*
X211580827Y-87911889D01*
X213092468Y-85373650D02*
X211619968Y-87924095D01*
X213127109Y-85393650D02*
X211659109Y-87936301D01*
X213161750Y-85413650D02*
X211698250Y-87948507D01*
X213196391Y-85433650D02*
X211737891Y-87959847D01*
X213231032Y-85453650D02*
X211777532Y-87971186D01*
X213265673Y-85473650D02*
X211817673Y-87981660D01*
X213300314Y-85493650D02*
X211857814Y-87992134D01*
X213334955Y-85513650D02*
X211897955Y-88002607D01*
X213369596Y-85533650D02*
X211938596Y-88012215D01*
X213404237Y-85553650D02*
X211979737Y-88020957D01*
X213438878Y-85573650D02*
X212020377Y-88030564D01*
X213473519Y-85593650D02*
X212062019Y-88038440D01*
X213508160Y-85613650D02*
X212103160Y-88047182D01*
X213542800Y-85633650D02*
X212145300Y-88054191D01*
X213577441Y-85653650D02*
X212186942Y-88062067D01*
X213612083Y-85673650D02*
X212229583Y-88068211D01*
X213646724Y-85693650D02*
X212271724Y-88075220D01*
X213681365Y-85713650D02*
X212314365Y-88081364D01*
X213716006Y-85733650D02*
X212357506Y-88086641D01*
X213750647Y-85753650D02*
X212400647Y-88091919D01*
X213785288Y-85773650D02*
X212444288Y-88096331D01*
X213819929Y-85793650D02*
X212487929Y-88100742D01*
X213854570Y-85813650D02*
X212531570Y-88105155D01*
X213889212Y-85833650D02*
X212576212Y-88107833D01*
X213923853Y-85853650D02*
X212620353Y-88111379D01*
X213958494Y-85873650D02*
X212664994Y-88114058D01*
X213993135Y-85893650D02*
X212710135Y-88115872D01*
X214027776Y-85913650D02*
X212755776Y-88116819D01*
X214062417Y-85933650D02*
X212801417Y-88117766D01*
X214097058Y-85953650D02*
X212847058Y-88118714D01*
X214131699Y-85973650D02*
X212893199Y-88118795D01*
X214166340Y-85993650D02*
X212939840Y-88118011D01*
X214200981Y-86013650D02*
X212986481Y-88117226D01*
X214235622Y-86033650D02*
X213033622Y-88115575D01*
X214270263Y-86053650D02*
X213081263Y-88113059D01*
X214304904Y-86073650D02*
X213128904Y-88110542D01*
X214889500Y-80499100D02*
X210809500Y-87565868D01*
X214924141Y-80519100D02*
X210844141Y-87585868D01*
X214958782Y-80539100D02*
X210878782Y-87605868D01*
X214992923Y-80559966D02*
X210913923Y-87625002D01*
X215026564Y-80581698D02*
X210949564Y-87643270D01*
X215060705Y-80602564D02*
X210984705Y-87662404D01*
X215094346Y-80624297D02*
X213577346Y-83251818D01*
X215127487Y-80646895D02*
X213611987Y-83271818D01*
X215160628Y-80669493D02*
X213646628Y-83291818D01*
X215193769Y-80692091D02*
X213681269Y-83311818D01*
X215226410Y-80715555D02*
X213715910Y-83331818D01*
X215259051Y-80739019D02*
X213750551Y-83351818D01*
X215291192Y-80763349D02*
X213785192Y-83371818D01*
X215323833Y-80786813D02*
X213819833Y-83391818D01*
X215355474Y-80812009D02*
X213854474Y-83411818D01*
X215387615Y-80836339D02*
X213889115Y-83431818D01*
X215418756Y-80862402D02*
X213923756Y-83451818D01*
X215450397Y-80887598D02*
X213958397Y-83471818D01*
X215482404Y-80914160D02*
X213993904Y-83492318D01*
X215513545Y-80940222D02*
X214028545Y-83512318D01*
X215544186Y-80967150D02*
X214063186Y-83532318D01*
X215574827Y-80994079D02*
X214097827Y-83552318D01*
X215604968Y-81021873D02*
X214132468Y-83572318D01*
X215635109Y-81049667D02*
X214167109Y-83592318D01*
X215665250Y-81077461D02*
X214201750Y-83612318D01*
X215694891Y-81106121D02*
X214236391Y-83632318D01*
X215724532Y-81134782D02*
X214271032Y-83652318D01*
X215753673Y-81164308D02*
X214305673Y-83672318D01*
X215782814Y-81193834D02*
X214340314Y-83692318D01*
X215811955Y-81223361D02*
X214374955Y-83712318D01*
X215840596Y-81253753D02*
X214409596Y-83732318D01*
X215868737Y-81285011D02*
X214444237Y-83752318D01*
X215897378Y-81315404D02*
X214478878Y-83772318D01*
X215925019Y-81347528D02*
X214513519Y-83792318D01*
X215953160Y-81378786D02*
X214548160Y-83812318D01*
X215980301Y-81411777D02*
X214582801Y-83832318D01*
X216007942Y-81443901D02*
X214617442Y-83852318D01*
X216034583Y-81477757D02*
X214652083Y-83872318D01*
X216061724Y-81510748D02*
X214686724Y-83892318D01*
X216088365Y-81544604D02*
X214721365Y-83912318D01*
X216114506Y-81579327D02*
X214756006Y-83932318D01*
X216140647Y-81614049D02*
X214790647Y-83952318D01*
X216166288Y-81649637D02*
X214825288Y-83972318D01*
X216191929Y-81685226D02*
X214859929Y-83992318D01*
X216217570Y-81720814D02*
X214894570Y-84012318D01*
X216242212Y-81758135D02*
X214929212Y-84032318D01*
X216267353Y-81794588D02*
X214963853Y-84052318D01*
X216291994Y-81831910D02*
X214998494Y-84072318D01*
X216316135Y-81870096D02*
X215033135Y-84092318D01*
X216339776Y-81909149D02*
X215067776Y-84112318D01*
X216363417Y-81948202D02*
X215102417Y-84132318D01*
X216387058Y-81987254D02*
X215137058Y-84152318D01*
X216410199Y-82027173D02*
X215171699Y-84172318D01*
X216432840Y-82067957D02*
X215206341Y-84192318D01*
X216455481Y-82108742D02*
X215240982Y-84212318D01*
X216477623Y-82150393D02*
X215275622Y-84232318D01*
X216499263Y-82192909D02*
X215310263Y-84252318D01*
X216520904Y-82235426D02*
X215344904Y-84272318D01*
X216542045Y-82278809D02*
X213177045Y-88107159D01*
X216563186Y-82322191D02*
X213225186Y-88103777D01*
X216583327Y-82367306D02*
X213274327Y-88098662D01*
X216603468Y-82412421D02*
X213323468Y-88093547D01*
X216623109Y-82458401D02*
X213373109Y-88087567D01*
X216642750Y-82504382D02*
X213422750Y-88081586D01*
X216650249Y-85611392D02*
X216117249Y-86534576D01*
X216661891Y-82551229D02*
X213472891Y-88074739D01*
X216680032Y-82599808D02*
X213524032Y-88066160D01*
X216698673Y-82647521D02*
X213574673Y-88058447D01*
X216716314Y-82696966D02*
X213626314Y-88049002D01*
X216733108Y-85387876D02*
X215965108Y-86718092D01*
X216733455Y-82747276D02*
X213678455Y-88038692D01*
X216750096Y-82798453D02*
X213731096Y-88027515D01*
X216766737Y-82849630D02*
X213783737Y-88016338D01*
X216782378Y-82902539D02*
X213837378Y-88003429D01*
X216788467Y-85211992D02*
X215840467Y-86853976D01*
X216798019Y-82955448D02*
X213891019Y-87990520D01*
X216812660Y-83010089D02*
X213945660Y-87975879D01*
X216826801Y-83065596D02*
X214000801Y-87960372D01*
X216828826Y-85062088D02*
X215730826Y-86963880D01*
X216840442Y-83121969D02*
X214056442Y-87943999D01*
X216853583Y-83179208D02*
X214112583Y-87926760D01*
X216859685Y-84928639D02*
X215630685Y-87057329D01*
X216866224Y-83237313D02*
X214169224Y-87908655D01*
X216877865Y-83297151D02*
X214226865Y-87888817D01*
X216883544Y-84807314D02*
X215537544Y-87138654D01*
X216889006Y-83357854D02*
X214285006Y-87868114D01*
X216899647Y-83419423D02*
X214343647Y-87846545D01*
X216902403Y-84694649D02*
X215449403Y-87211319D01*
X216908788Y-83483590D02*
X214403788Y-87822378D01*
X216917262Y-84588913D02*
X215365262Y-87277055D01*
X216917929Y-83547758D02*
X214463929Y-87798210D01*
X216925570Y-83614523D02*
X214525570Y-87771445D01*
X216929121Y-84488372D02*
X215284121Y-87337596D01*
X216932711Y-83682154D02*
X214587711Y-87743814D01*
X216937480Y-84393894D02*
X215206480Y-87392074D01*
X216938352Y-83752384D02*
X214651352Y-87713584D01*
X216943493Y-83823479D02*
X214715493Y-87682489D01*
X216943839Y-84302880D02*
X215130839Y-87443088D01*
X216947134Y-83897173D02*
X214781134Y-87648795D01*
X216947698Y-84216196D02*
X215057698Y-87489772D01*
X216949775Y-83972599D02*
X214847775Y-87613369D01*
X216950057Y-84132110D02*
X214986057Y-87533858D01*
X216950416Y-84051488D02*
X214916416Y-87574480D01*
X216969499Y-84032484D02*
G75*
G02*
X208729501Y-84032484I-4119999J0D01*
G01*
X208729501Y-84032484D02*
G75*
G02*
X216969499Y-84032484I4119999J0D01*
G01*
%TO.C,C13*%
X275489800Y-161510000D02*
X272455800Y-161510000D01*
X275489800Y-161550000D02*
X272458800Y-161550000D01*
X275489800Y-161590000D02*
X272461800Y-161590000D01*
X275489800Y-161630000D02*
X272464800Y-161630000D01*
X275489800Y-161670000D02*
X272468800Y-161670000D01*
X275489800Y-161710000D02*
X272472800Y-161710000D01*
X275489800Y-161750000D02*
X272477800Y-161750000D01*
X275489800Y-161790000D02*
X272481800Y-161790000D01*
X275489800Y-161830000D02*
X272487800Y-161830000D01*
X275489800Y-161870000D02*
X272492800Y-161870000D01*
X275489800Y-161910000D02*
X272499800Y-161910000D01*
X275489800Y-161950000D02*
X272505800Y-161950000D01*
X275489800Y-161991000D02*
X272512800Y-161991000D01*
X275489800Y-162031000D02*
X272519800Y-162031000D01*
X275489800Y-162071000D02*
X272527800Y-162071000D01*
X275489800Y-162111000D02*
X272535800Y-162111000D01*
X275489800Y-162151000D02*
X272544800Y-162151000D01*
X275489800Y-162191000D02*
X272553800Y-162191000D01*
X275489800Y-162231000D02*
X272562800Y-162231000D01*
X275489800Y-162271000D02*
X272572800Y-162271000D01*
X275489800Y-162311000D02*
X272582800Y-162311000D01*
X275489800Y-162351000D02*
X272593800Y-162351000D01*
X275489800Y-162391000D02*
X272604800Y-162391000D01*
X275489800Y-162431000D02*
X272615800Y-162431000D01*
X275489800Y-162471000D02*
X272627800Y-162471000D01*
X275489800Y-162511000D02*
X272640800Y-162511000D01*
X275489800Y-162551000D02*
X272652800Y-162551000D01*
X275489800Y-162591000D02*
X272666800Y-162591000D01*
X275489800Y-162631000D02*
X272679800Y-162631000D01*
X275489800Y-162671000D02*
X272694800Y-162671000D01*
X275489800Y-162711000D02*
X272708800Y-162711000D01*
X275489800Y-162751000D02*
X272724800Y-162751000D01*
X275489800Y-162791000D02*
X272739800Y-162791000D01*
X275489800Y-162831000D02*
X272755800Y-162831000D01*
X275489800Y-162871000D02*
X272772800Y-162871000D01*
X275489800Y-162911000D02*
X272789800Y-162911000D01*
X275489800Y-162951000D02*
X272807800Y-162951000D01*
X275489800Y-162991000D02*
X272825800Y-162991000D01*
X275489800Y-163031000D02*
X272843800Y-163031000D01*
X275489800Y-163071000D02*
X272863800Y-163071000D01*
X275489800Y-163111000D02*
X272882800Y-163111000D01*
X275489800Y-163151000D02*
X272902800Y-163151000D01*
X275489800Y-163191000D02*
X272923800Y-163191000D01*
X275489800Y-163231000D02*
X272945800Y-163231000D01*
X275489800Y-163271000D02*
X272967800Y-163271000D01*
X275489800Y-163311000D02*
X272989800Y-163311000D01*
X275489800Y-163351000D02*
X273012800Y-163351000D01*
X275489800Y-163391000D02*
X273036800Y-163391000D01*
X275489800Y-163431000D02*
X273060800Y-163431000D01*
X275489800Y-163471000D02*
X273085800Y-163471000D01*
X275489800Y-163511000D02*
X273111800Y-163511000D01*
X275489800Y-163551000D02*
X273137800Y-163551000D01*
X277062800Y-165351000D02*
X275996800Y-165351000D01*
X277297800Y-165311000D02*
X275761800Y-165311000D01*
X277477800Y-165271000D02*
X275581800Y-165271000D01*
X277627800Y-165231000D02*
X275431800Y-165231000D01*
X277758800Y-165191000D02*
X275300800Y-165191000D01*
X277875800Y-165151000D02*
X275183800Y-165151000D01*
X277982800Y-165111000D02*
X275076800Y-165111000D01*
X278081800Y-165071000D02*
X274977800Y-165071000D01*
X278174800Y-165031000D02*
X274884800Y-165031000D01*
X278260800Y-164991000D02*
X274798800Y-164991000D01*
X278342800Y-164951000D02*
X274716800Y-164951000D01*
X278419800Y-164911000D02*
X274639800Y-164911000D01*
X278493800Y-164871000D02*
X274565800Y-164871000D01*
X278563800Y-164831000D02*
X274495800Y-164831000D01*
X278631800Y-164791000D02*
X274427800Y-164791000D01*
X278695800Y-164751000D02*
X274363800Y-164751000D01*
X278757800Y-164711000D02*
X274301800Y-164711000D01*
X278816800Y-164671000D02*
X274242800Y-164671000D01*
X278844800Y-156860302D02*
X278844800Y-157660302D01*
X278874800Y-164631000D02*
X274184800Y-164631000D01*
X278929800Y-164591000D02*
X274129800Y-164591000D01*
X278983800Y-164551000D02*
X274075800Y-164551000D01*
X279034800Y-164511000D02*
X274024800Y-164511000D01*
X279085800Y-164471000D02*
X273973800Y-164471000D01*
X279133800Y-164431000D02*
X273925800Y-164431000D01*
X279180800Y-164391000D02*
X273878800Y-164391000D01*
X279226800Y-164351000D02*
X273832800Y-164351000D01*
X279244800Y-157260302D02*
X278444800Y-157260302D01*
X279270800Y-164311000D02*
X273788800Y-164311000D01*
X279313800Y-164271000D02*
X273745800Y-164271000D01*
X279355800Y-164231000D02*
X273703800Y-164231000D01*
X279396800Y-164191000D02*
X273662800Y-164191000D01*
X279436800Y-164151000D02*
X273622800Y-164151000D01*
X279474800Y-164111000D02*
X273584800Y-164111000D01*
X279512800Y-164071000D02*
X273546800Y-164071000D01*
X279548800Y-164031000D02*
X273510800Y-164031000D01*
X279584800Y-163991000D02*
X273474800Y-163991000D01*
X279619800Y-163951000D02*
X273439800Y-163951000D01*
X279653800Y-163911000D02*
X273405800Y-163911000D01*
X279685800Y-163871000D02*
X273373800Y-163871000D01*
X279718800Y-163831000D02*
X273340800Y-163831000D01*
X279749800Y-163791000D02*
X273309800Y-163791000D01*
X279779800Y-163751000D02*
X273279800Y-163751000D01*
X279809800Y-163711000D02*
X273249800Y-163711000D01*
X279838800Y-163671000D02*
X273220800Y-163671000D01*
X279867800Y-163631000D02*
X273191800Y-163631000D01*
X279894800Y-163591000D02*
X273164800Y-163591000D01*
X279921800Y-163551000D02*
X277569800Y-163551000D01*
X279947800Y-163511000D02*
X277569800Y-163511000D01*
X279973800Y-163471000D02*
X277569800Y-163471000D01*
X279998800Y-163431000D02*
X277569800Y-163431000D01*
X280022800Y-163391000D02*
X277569800Y-163391000D01*
X280046800Y-163351000D02*
X277569800Y-163351000D01*
X280069800Y-163311000D02*
X277569800Y-163311000D01*
X280091800Y-163271000D02*
X277569800Y-163271000D01*
X280113800Y-163231000D02*
X277569800Y-163231000D01*
X280135800Y-163191000D02*
X277569800Y-163191000D01*
X280156800Y-163151000D02*
X277569800Y-163151000D01*
X280176800Y-163111000D02*
X277569800Y-163111000D01*
X280195800Y-163071000D02*
X277569800Y-163071000D01*
X280215800Y-163031000D02*
X277569800Y-163031000D01*
X280233800Y-162991000D02*
X277569800Y-162991000D01*
X280251800Y-162951000D02*
X277569800Y-162951000D01*
X280269800Y-162911000D02*
X277569800Y-162911000D01*
X280286800Y-162871000D02*
X277569800Y-162871000D01*
X280303800Y-162831000D02*
X277569800Y-162831000D01*
X280319800Y-162791000D02*
X277569800Y-162791000D01*
X280334800Y-162751000D02*
X277569800Y-162751000D01*
X280350800Y-162711000D02*
X277569800Y-162711000D01*
X280364800Y-162671000D02*
X277569800Y-162671000D01*
X280379800Y-162631000D02*
X277569800Y-162631000D01*
X280392800Y-162591000D02*
X277569800Y-162591000D01*
X280406800Y-162551000D02*
X277569800Y-162551000D01*
X280418800Y-162511000D02*
X277569800Y-162511000D01*
X280431800Y-162471000D02*
X277569800Y-162471000D01*
X280443800Y-162431000D02*
X277569800Y-162431000D01*
X280454800Y-162391000D02*
X277569800Y-162391000D01*
X280465800Y-162351000D02*
X277569800Y-162351000D01*
X280476800Y-162311000D02*
X277569800Y-162311000D01*
X280486800Y-162271000D02*
X277569800Y-162271000D01*
X280496800Y-162231000D02*
X277569800Y-162231000D01*
X280505800Y-162191000D02*
X277569800Y-162191000D01*
X280514800Y-162151000D02*
X277569800Y-162151000D01*
X280523800Y-162111000D02*
X277569800Y-162111000D01*
X280531800Y-162071000D02*
X277569800Y-162071000D01*
X280539800Y-162031000D02*
X277569800Y-162031000D01*
X280546800Y-161991000D02*
X277569800Y-161991000D01*
X280553800Y-161950000D02*
X277569800Y-161950000D01*
X280559800Y-161910000D02*
X277569800Y-161910000D01*
X280566800Y-161870000D02*
X277569800Y-161870000D01*
X280571800Y-161830000D02*
X277569800Y-161830000D01*
X280577800Y-161790000D02*
X277569800Y-161790000D01*
X280581800Y-161750000D02*
X277569800Y-161750000D01*
X280586800Y-161710000D02*
X277569800Y-161710000D01*
X280590800Y-161670000D02*
X277569800Y-161670000D01*
X280594800Y-161630000D02*
X277569800Y-161630000D01*
X280597800Y-161590000D02*
X277569800Y-161590000D01*
X280600800Y-161550000D02*
X277569800Y-161550000D01*
X280603800Y-161510000D02*
X277569800Y-161510000D01*
X280605800Y-161470000D02*
X272453800Y-161470000D01*
X280606800Y-161430000D02*
X272452800Y-161430000D01*
X280608800Y-161390000D02*
X272450800Y-161390000D01*
X280609800Y-161270000D02*
X272449800Y-161270000D01*
X280609800Y-161310000D02*
X272449800Y-161310000D01*
X280609800Y-161350000D02*
X272449800Y-161350000D01*
X280649800Y-161270000D02*
G75*
G02*
X272409800Y-161270000I-4120000J0D01*
G01*
X272409800Y-161270000D02*
G75*
G02*
X280649800Y-161270000I4120000J0D01*
G01*
%TD*%
%LPC*%
D21*
%TO.C,C16*%
X160020000Y-79070199D03*
D22*
X162520000Y-79070199D03*
%TD*%
D23*
%TO.C,C3*%
X208340078Y-88878633D03*
X210894852Y-90353633D03*
%TD*%
D24*
%TO.C,H1*%
X76200000Y-76200000D03*
%TD*%
D25*
%TO.C,J4*%
X90504200Y-68506600D03*
D26*
X95000000Y-66500000D03*
D25*
X99495800Y-68506600D03*
D27*
X95000000Y-75491600D03*
D25*
X95000000Y-69497200D03*
%TD*%
D28*
%TO.C,C24*%
X272192515Y-211766968D03*
D22*
X270942515Y-213932032D03*
%TD*%
D29*
%TO.C,C4*%
X159787800Y-85521799D03*
X162737800Y-85521799D03*
%TD*%
D30*
%TO.C,C12*%
X266721366Y-208340078D03*
X265246366Y-210894852D03*
%TD*%
D31*
%TO.C,C23*%
X242562832Y-254412515D03*
D22*
X240397768Y-255662515D03*
%TD*%
D32*
%TO.C,C8*%
X106890833Y-239538122D03*
X105415833Y-236983348D03*
%TD*%
D21*
%TO.C,C19*%
X79070199Y-195580000D03*
D22*
X79070199Y-193080000D03*
%TD*%
D33*
%TO.C,C21*%
X143833031Y-272192515D03*
D22*
X141667967Y-270942515D03*
%TD*%
D21*
%TO.C,C22*%
X195579999Y-276529800D03*
D22*
X193079999Y-276529800D03*
%TD*%
D24*
%TO.C,H3*%
X279400000Y-279400000D03*
%TD*%
%TO.C,H4*%
X76200000Y-279400000D03*
%TD*%
D34*
%TO.C,C5*%
X116061877Y-106890833D03*
X118616651Y-105415833D03*
%TD*%
D35*
%TO.C,C11*%
X239538122Y-248709166D03*
X236983348Y-250184166D03*
%TD*%
D36*
%TO.C,C1*%
X270078200Y-159787800D03*
X270078200Y-162737800D03*
%TD*%
D37*
%TO.C,C2*%
X248709166Y-116061877D03*
X250184166Y-118616651D03*
%TD*%
D38*
%TO.C,C14*%
X254412515Y-113037167D03*
D22*
X255662515Y-115202231D03*
%TD*%
D24*
%TO.C,H2*%
X279400000Y-76200000D03*
%TD*%
D39*
%TO.C,C18*%
X83407484Y-143833031D03*
D22*
X84657484Y-141667967D03*
%TD*%
D40*
%TO.C,C17*%
X113037167Y-101187484D03*
D22*
X115202231Y-99937484D03*
%TD*%
D41*
%TO.C,C20*%
X101187484Y-242562832D03*
D22*
X99937484Y-240397768D03*
%TD*%
D42*
%TO.C,C6*%
X88878633Y-147259921D03*
X90353633Y-144705147D03*
%TD*%
D43*
%TO.C,C10*%
X195812200Y-270078200D03*
X192862200Y-270078200D03*
%TD*%
D44*
%TO.C,C9*%
X147259921Y-266721366D03*
X144705147Y-265246366D03*
%TD*%
D45*
%TO.C,C7*%
X85521799Y-195812200D03*
X85521799Y-192862200D03*
%TD*%
D46*
%TO.C,C15*%
X211766968Y-83407484D03*
D22*
X213932032Y-84657484D03*
%TD*%
D21*
%TO.C,C13*%
X276529800Y-160020000D03*
D22*
X276529800Y-162520000D03*
%TD*%
D21*
%TO.C,P10*%
X160019999Y-266474028D03*
D22*
X162559999Y-266474028D03*
X165099999Y-266474028D03*
X167639999Y-266474028D03*
X170179999Y-266474028D03*
X172719999Y-266474028D03*
X175259999Y-266474028D03*
X177799999Y-266474028D03*
X180339999Y-266474028D03*
X182879999Y-266474028D03*
X185419999Y-266474028D03*
X187959999Y-266474028D03*
X190499999Y-266474028D03*
X193039999Y-266474028D03*
X195579999Y-266474028D03*
%TD*%
D39*
%TO.C,P12*%
X245703961Y-237534946D03*
D22*
X246973961Y-235335241D03*
X248243961Y-233135537D03*
X249513961Y-230935832D03*
X250783961Y-228736128D03*
X252053961Y-226536423D03*
X253323961Y-224336719D03*
X254593961Y-222137014D03*
X255863961Y-219937309D03*
X257133961Y-217737605D03*
X258403961Y-215537900D03*
X259673961Y-213338196D03*
X260943961Y-211138491D03*
X262213961Y-208938787D03*
X263483961Y-206739082D03*
%TD*%
D21*
%TO.C,P7*%
X89125971Y-160020000D03*
D22*
X89125971Y-162560000D03*
X89125971Y-165100000D03*
X89125971Y-167640000D03*
X89125971Y-170180000D03*
X89125971Y-172720000D03*
X89125971Y-175260000D03*
X89125971Y-177800000D03*
X89125971Y-180340000D03*
X89125971Y-182880000D03*
X89125971Y-185420000D03*
X89125971Y-187960000D03*
X89125971Y-190500000D03*
X89125971Y-193040000D03*
X89125971Y-195580000D03*
%TD*%
D46*
%TO.C,P9*%
X118065053Y-245703961D03*
D22*
X120264758Y-246973961D03*
X122464462Y-248243961D03*
X124664167Y-249513961D03*
X126863871Y-250783961D03*
X129063576Y-252053961D03*
X131263280Y-253323961D03*
X133462985Y-254593961D03*
X135662690Y-255863961D03*
X137862394Y-257133961D03*
X140062099Y-258403961D03*
X142261803Y-259673961D03*
X144461508Y-260943961D03*
X146661212Y-262213961D03*
X148860917Y-263483961D03*
%TD*%
D40*
%TO.C,P11*%
X206739082Y-263483961D03*
D22*
X208938787Y-262213961D03*
X211138491Y-260943961D03*
X213338196Y-259673961D03*
X215537900Y-258403961D03*
X217737605Y-257133961D03*
X219937309Y-255863961D03*
X222137014Y-254593961D03*
X224336719Y-253323961D03*
X226536423Y-252053961D03*
X228736128Y-250783961D03*
X230935832Y-249513961D03*
X233135537Y-248243961D03*
X235335241Y-246973961D03*
X237534946Y-245703961D03*
%TD*%
D31*
%TO.C,P5*%
X148860917Y-92116038D03*
D22*
X146661212Y-93386038D03*
X144461508Y-94656038D03*
X142261803Y-95926038D03*
X140062099Y-97196038D03*
X137862394Y-98466038D03*
X135662690Y-99736038D03*
X133462985Y-101006038D03*
X131263280Y-102276038D03*
X129063576Y-103546038D03*
X126863871Y-104816038D03*
X124664167Y-106086038D03*
X122464462Y-107356038D03*
X120264758Y-108626038D03*
X118065053Y-109896038D03*
%TD*%
D21*
%TO.C,P4*%
X195580000Y-89125971D03*
D22*
X193040000Y-89125971D03*
X190500000Y-89125971D03*
X187960000Y-89125971D03*
X185420000Y-89125971D03*
X182880000Y-89125971D03*
X180340000Y-89125971D03*
X177800000Y-89125971D03*
X175260000Y-89125971D03*
X172720000Y-89125971D03*
X170180000Y-89125971D03*
X167640000Y-89125971D03*
X165100000Y-89125971D03*
X162560000Y-89125971D03*
X160020000Y-89125971D03*
%TD*%
D21*
%TO.C,P1*%
X266474028Y-195580000D03*
D22*
X266474028Y-193040000D03*
X266474028Y-190500000D03*
X266474028Y-187960000D03*
X266474028Y-185420000D03*
X266474028Y-182880000D03*
X266474028Y-180340000D03*
X266474028Y-177800000D03*
X266474028Y-175260000D03*
X266474028Y-172720000D03*
X266474028Y-170180000D03*
X266474028Y-167640000D03*
X266474028Y-165100000D03*
X266474028Y-162560000D03*
X266474028Y-160020000D03*
%TD*%
D28*
%TO.C,P6*%
X109896038Y-118065053D03*
D22*
X108626038Y-120264758D03*
X107356038Y-122464462D03*
X106086038Y-124664167D03*
X104816038Y-126863871D03*
X103546038Y-129063576D03*
X102276038Y-131263280D03*
X101006038Y-133462985D03*
X99736038Y-135662690D03*
X98466038Y-137862394D03*
X97196038Y-140062099D03*
X95926038Y-142261803D03*
X94656038Y-144461508D03*
X93386038Y-146661212D03*
X92116038Y-148860917D03*
%TD*%
D38*
%TO.C,P8*%
X92116038Y-206739082D03*
D22*
X93386038Y-208938787D03*
X94656038Y-211138491D03*
X95926038Y-213338196D03*
X97196038Y-215537900D03*
X98466038Y-217737605D03*
X99736038Y-219937309D03*
X101006038Y-222137014D03*
X102276038Y-224336719D03*
X103546038Y-226536423D03*
X104816038Y-228736128D03*
X106086038Y-230935832D03*
X107356038Y-233135537D03*
X108626038Y-235335241D03*
X109896038Y-237534946D03*
%TD*%
D41*
%TO.C,P2*%
X263483961Y-148860917D03*
D22*
X262213961Y-146661212D03*
X260943961Y-144461508D03*
X259673961Y-142261803D03*
X258403961Y-140062099D03*
X257133961Y-137862394D03*
X255863961Y-135662690D03*
X254593961Y-133462985D03*
X253323961Y-131263280D03*
X252053961Y-129063576D03*
X250783961Y-126863871D03*
X249513961Y-124664167D03*
X248243961Y-122464462D03*
X246973961Y-120264758D03*
X245703961Y-118065053D03*
%TD*%
D33*
%TO.C,P3*%
X237534946Y-109896038D03*
D22*
X235335241Y-108626038D03*
X233135537Y-107356038D03*
X230935832Y-106086038D03*
X228736128Y-104816038D03*
X226536423Y-103546038D03*
X224336719Y-102276038D03*
X222137014Y-101006038D03*
X219937309Y-99736038D03*
X217737605Y-98466038D03*
X215537900Y-97196038D03*
X213338196Y-95926038D03*
X211138491Y-94656038D03*
X208938787Y-93386038D03*
X206739082Y-92116038D03*
%TD*%
%LPD*%
M02*
