M48
; DRILL file {KiCad 8.0.6-8.0.6-0~ubuntu22.04.1} date 2024-12-20T11:09:38-0800
; FORMAT={-:-/ absolute / inch / decimal}
; #@! TF.CreationDate,2024-12-20T11:09:38-08:00
; #@! TF.GenerationSoftware,Kicad,Pcbnew,8.0.6-8.0.6-0~ubuntu22.04.1
; #@! TF.FileFunction,Plated,1,2,PTH
FMAT,2
INCH
; #@! TA.AperFunction,Plated,PTH,ComponentDrill
T1C0.0315
; #@! TA.AperFunction,Plated,PTH,ComponentDrill
T2C0.0400
; #@! TA.AperFunction,Plated,PTH,ComponentDrill
T3C0.0630
; #@! TA.AperFunction,Plated,PTH,ComponentDrill
T4C0.1060
; #@! TA.AperFunction,Plated,PTH,ComponentDrill
T5C0.1240
; #@! TA.AperFunction,Plated,PTH,ComponentDrill
T6C0.1772
%
G90
G05
T1
X3.113Y-7.6016
X3.113Y-7.7
X3.2838Y-5.6627
X3.333Y-5.5775
X3.9345Y-9.4645
X3.9838Y-9.5497
X4.4503Y-3.9838
X4.5355Y-3.9345
X5.5775Y-10.667
X5.6627Y-10.7162
X6.3Y-3.113
X6.3984Y-3.113
X7.6016Y-10.887
X7.7Y-10.887
X8.3373Y-3.2838
X8.4225Y-3.333
X9.4645Y-10.0655
X9.5497Y-10.0162
X10.0162Y-4.4503
X10.0655Y-4.5355
X10.667Y-8.4225
X10.7162Y-8.3373
X10.887Y-6.3
X10.887Y-6.3984
T2
X3.5089Y-6.3
X3.5089Y-6.4
X3.5089Y-6.5
X3.5089Y-6.6
X3.5089Y-6.7
X3.5089Y-6.8
X3.5089Y-6.9
X3.5089Y-7.0
X3.5089Y-7.1
X3.5089Y-7.2
X3.5089Y-7.3
X3.5089Y-7.4
X3.5089Y-7.5
X3.5089Y-7.6
X3.5089Y-7.7
X3.6266Y-5.8607
X3.6266Y-8.1393
X3.6766Y-5.7741
X3.6766Y-8.2259
X3.7266Y-5.6875
X3.7266Y-8.3125
X3.7766Y-5.6009
X3.7766Y-8.3991
X3.8266Y-5.5143
X3.8266Y-8.4857
X3.8766Y-5.4277
X3.8766Y-8.5723
X3.9266Y-5.3411
X3.9266Y-8.6589
X3.9766Y-5.2544
X3.9766Y-8.7456
X4.0266Y-5.1678
X4.0266Y-8.8322
X4.0766Y-5.0812
X4.0766Y-8.9188
X4.1266Y-4.9946
X4.1266Y-9.0054
X4.1766Y-4.908
X4.1766Y-9.092
X4.2266Y-4.8214
X4.2266Y-9.1786
X4.2766Y-4.7348
X4.2766Y-9.2652
X4.3266Y-4.6482
X4.3266Y-9.3518
X4.6482Y-4.3266
X4.6482Y-9.6734
X4.7348Y-4.2766
X4.7348Y-9.7234
X4.8214Y-4.2266
X4.8214Y-9.7734
X4.908Y-4.1766
X4.908Y-9.8234
X4.9946Y-4.1266
X4.9946Y-9.8734
X5.0812Y-4.0766
X5.0812Y-9.9234
X5.1678Y-4.0266
X5.1678Y-9.9734
X5.2544Y-3.9766
X5.2544Y-10.0234
X5.3411Y-3.9266
X5.3411Y-10.0734
X5.4277Y-3.8766
X5.4277Y-10.1234
X5.5143Y-3.8266
X5.5143Y-10.1734
X5.6009Y-3.7766
X5.6009Y-10.2234
X5.6875Y-3.7266
X5.6875Y-10.2734
X5.7741Y-3.6766
X5.7741Y-10.3234
X5.8607Y-3.6266
X5.8607Y-10.3734
X6.3Y-10.4911
X6.3Y-3.5089
X6.4Y-10.4911
X6.4Y-3.5089
X6.5Y-10.4911
X6.5Y-3.5089
X6.6Y-10.4911
X6.6Y-3.5089
X6.7Y-10.4911
X6.7Y-3.5089
X6.8Y-10.4911
X6.8Y-3.5089
X6.9Y-10.4911
X6.9Y-3.5089
X7.0Y-10.4911
X7.0Y-3.5089
X7.1Y-10.4911
X7.1Y-3.5089
X7.2Y-10.4911
X7.2Y-3.5089
X7.3Y-10.4911
X7.3Y-3.5089
X7.4Y-10.4911
X7.4Y-3.5089
X7.5Y-10.4911
X7.5Y-3.5089
X7.6Y-10.4911
X7.6Y-3.5089
X7.7Y-10.4911
X7.7Y-3.5089
X8.1393Y-3.6266
X8.1393Y-10.3734
X8.2259Y-3.6766
X8.2259Y-10.3234
X8.3125Y-3.7266
X8.3125Y-10.2734
X8.3991Y-3.7766
X8.3991Y-10.2234
X8.4857Y-3.8266
X8.4857Y-10.1734
X8.5723Y-3.8766
X8.5723Y-10.1234
X8.6589Y-3.9266
X8.6589Y-10.0734
X8.7456Y-3.9766
X8.7456Y-10.0234
X8.8322Y-4.0266
X8.8322Y-9.9734
X8.9188Y-4.0766
X8.9188Y-9.9234
X9.0054Y-4.1266
X9.0054Y-9.8734
X9.092Y-4.1766
X9.092Y-9.8234
X9.1786Y-4.2266
X9.1786Y-9.7734
X9.2652Y-4.2766
X9.2652Y-9.7234
X9.3518Y-4.3266
X9.3518Y-9.6734
X9.6734Y-4.6482
X9.6734Y-9.3518
X9.7234Y-4.7348
X9.7234Y-9.2652
X9.7734Y-4.8214
X9.7734Y-9.1786
X9.8234Y-4.908
X9.8234Y-9.092
X9.8734Y-4.9946
X9.8734Y-9.0054
X9.9234Y-5.0812
X9.9234Y-8.9188
X9.9734Y-5.1678
X9.9734Y-8.8322
X10.0234Y-5.2544
X10.0234Y-8.7456
X10.0734Y-5.3411
X10.0734Y-8.6589
X10.1234Y-5.4277
X10.1234Y-8.5723
X10.1734Y-5.5143
X10.1734Y-8.4857
X10.2234Y-5.6009
X10.2234Y-8.3991
X10.2734Y-5.6875
X10.2734Y-8.3125
X10.3234Y-5.7741
X10.3234Y-8.2259
X10.3734Y-5.8607
X10.3734Y-8.1393
X10.4911Y-6.3
X10.4911Y-6.4
X10.4911Y-6.5
X10.4911Y-6.6
X10.4911Y-6.7
X10.4911Y-6.8
X10.4911Y-6.9
X10.4911Y-7.0
X10.4911Y-7.1
X10.4911Y-7.2
X10.4911Y-7.3
X10.4911Y-7.4
X10.4911Y-7.5
X10.4911Y-7.6
X10.4911Y-7.7
T3
X3.7402Y-2.6181
T4
X3.5632Y-2.6971
X3.7402Y-2.7361
X3.9172Y-2.6971
T5
X3.7402Y-2.9721
T6
X3.0Y-3.0
X3.0Y-11.0
X11.0Y-3.0
X11.0Y-11.0
M30
