%TF.GenerationSoftware,KiCad,Pcbnew,8.0.6-8.0.6-0~ubuntu22.04.1*%
%TF.CreationDate,2024-12-20T11:09:35-08:00*%
%TF.ProjectId,arena_top_12-12,6172656e-615f-4746-9f70-5f31322d3132,rev?*%
%TF.SameCoordinates,Original*%
%TF.FileFunction,Soldermask,Top*%
%TF.FilePolarity,Negative*%
%FSLAX46Y46*%
G04 Gerber Fmt 4.6, Leading zero omitted, Abs format (unit mm)*
G04 Created by KiCad (PCBNEW 8.0.6-8.0.6-0~ubuntu22.04.1) date 2024-12-20 11:09:35*
%MOMM*%
%LPD*%
G01*
G04 APERTURE LIST*
G04 Aperture macros list*
%AMRoundRect*
0 Rectangle with rounded corners*
0 $1 Rounding radius*
0 $2 $3 $4 $5 $6 $7 $8 $9 X,Y pos of 4 corners*
0 Add a 4 corners polygon primitive as box body*
4,1,4,$2,$3,$4,$5,$6,$7,$8,$9,$2,$3,0*
0 Add four circle primitives for the rounded corners*
1,1,$1+$1,$2,$3*
1,1,$1+$1,$4,$5*
1,1,$1+$1,$6,$7*
1,1,$1+$1,$8,$9*
0 Add four rect primitives between the rounded corners*
20,1,$1+$1,$2,$3,$4,$5,0*
20,1,$1+$1,$4,$5,$6,$7,0*
20,1,$1+$1,$6,$7,$8,$9,0*
20,1,$1+$1,$8,$9,$2,$3,0*%
%AMRotRect*
0 Rectangle, with rotation*
0 The origin of the aperture is its center*
0 $1 length*
0 $2 width*
0 $3 Rotation angle, in degrees counterclockwise*
0 Add horizontal line*
21,1,$1,$2,0,0,$3*%
G04 Aperture macros list end*
%ADD10R,1.600000X1.600000*%
%ADD11C,1.600000*%
%ADD12RoundRect,0.250000X-0.831458X-0.790128X-0.268542X-1.115128X0.831458X0.790128X0.268542X1.115128X0*%
%ADD13C,9.000000*%
%ADD14C,3.556000*%
%ADD15C,1.930400*%
%ADD16C,4.064000*%
%ADD17RotRect,1.600000X1.600000X240.000000*%
%ADD18RoundRect,0.250000X-0.325000X-1.100000X0.325000X-1.100000X0.325000X1.100000X-0.325000X1.100000X0*%
%ADD19RoundRect,0.250000X-0.790128X0.831458X-1.115128X0.268542X0.790128X-0.831458X1.115128X-0.268542X0*%
%ADD20RotRect,1.600000X1.600000X210.000000*%
%ADD21RoundRect,0.250000X1.115128X0.268542X0.790128X0.831458X-1.115128X-0.268542X-0.790128X-0.831458X0*%
%ADD22RotRect,1.600000X1.600000X150.000000*%
%ADD23RoundRect,0.250000X0.268542X-1.115128X0.831458X-0.790128X-0.268542X1.115128X-0.831458X0.790128X0*%
%ADD24RoundRect,0.250000X-0.268542X1.115128X-0.831458X0.790128X0.268542X-1.115128X0.831458X-0.790128X0*%
%ADD25RoundRect,0.250000X-1.100000X0.325000X-1.100000X-0.325000X1.100000X-0.325000X1.100000X0.325000X0*%
%ADD26RoundRect,0.250000X-1.115128X-0.268542X-0.790128X-0.831458X1.115128X0.268542X0.790128X0.831458X0*%
%ADD27RotRect,1.600000X1.600000X300.000000*%
%ADD28RotRect,1.600000X1.600000X60.000000*%
%ADD29RotRect,1.600000X1.600000X30.000000*%
%ADD30RotRect,1.600000X1.600000X120.000000*%
%ADD31RoundRect,0.250000X0.790128X-0.831458X1.115128X-0.268542X-0.790128X0.831458X-1.115128X0.268542X0*%
%ADD32RoundRect,0.250000X0.325000X1.100000X-0.325000X1.100000X-0.325000X-1.100000X0.325000X-1.100000X0*%
%ADD33RoundRect,0.250000X0.831458X0.790128X0.268542X1.115128X-0.831458X-0.790128X-0.268542X-1.115128X0*%
%ADD34RoundRect,0.250000X1.100000X-0.325000X1.100000X0.325000X-1.100000X0.325000X-1.100000X-0.325000X0*%
%ADD35RotRect,1.600000X1.600000X330.000000*%
G04 APERTURE END LIST*
D10*
%TO.C,C16*%
X160020000Y-79070199D03*
D11*
X162520000Y-79070199D03*
%TD*%
D12*
%TO.C,C3*%
X208340078Y-88878633D03*
X210894852Y-90353633D03*
%TD*%
D13*
%TO.C,H1*%
X76200000Y-76200000D03*
%TD*%
D14*
%TO.C,J4*%
X90504200Y-68506600D03*
D15*
X95000000Y-66500000D03*
D14*
X99495800Y-68506600D03*
D16*
X95000000Y-75491600D03*
D14*
X95000000Y-69497200D03*
%TD*%
D17*
%TO.C,C24*%
X272192515Y-211766968D03*
D11*
X270942515Y-213932032D03*
%TD*%
D18*
%TO.C,C4*%
X159787800Y-85521799D03*
X162737800Y-85521799D03*
%TD*%
D19*
%TO.C,C12*%
X266721366Y-208340078D03*
X265246366Y-210894852D03*
%TD*%
D20*
%TO.C,C23*%
X242562832Y-254412515D03*
D11*
X240397768Y-255662515D03*
%TD*%
D21*
%TO.C,C8*%
X106890833Y-239538122D03*
X105415833Y-236983348D03*
%TD*%
D10*
%TO.C,C19*%
X79070199Y-195580000D03*
D11*
X79070199Y-193080000D03*
%TD*%
D22*
%TO.C,C21*%
X143833031Y-272192515D03*
D11*
X141667967Y-270942515D03*
%TD*%
D10*
%TO.C,C22*%
X195579999Y-276529800D03*
D11*
X193079999Y-276529800D03*
%TD*%
D13*
%TO.C,H3*%
X279400000Y-279400000D03*
%TD*%
%TO.C,H4*%
X76200000Y-279400000D03*
%TD*%
D23*
%TO.C,C5*%
X116061877Y-106890833D03*
X118616651Y-105415833D03*
%TD*%
D24*
%TO.C,C11*%
X239538122Y-248709166D03*
X236983348Y-250184166D03*
%TD*%
D25*
%TO.C,C1*%
X270078200Y-159787800D03*
X270078200Y-162737800D03*
%TD*%
D26*
%TO.C,C2*%
X248709166Y-116061877D03*
X250184166Y-118616651D03*
%TD*%
D27*
%TO.C,C14*%
X254412515Y-113037167D03*
D11*
X255662515Y-115202231D03*
%TD*%
D13*
%TO.C,H2*%
X279400000Y-76200000D03*
%TD*%
D28*
%TO.C,C18*%
X83407484Y-143833031D03*
D11*
X84657484Y-141667967D03*
%TD*%
D29*
%TO.C,C17*%
X113037167Y-101187484D03*
D11*
X115202231Y-99937484D03*
%TD*%
D30*
%TO.C,C20*%
X101187484Y-242562832D03*
D11*
X99937484Y-240397768D03*
%TD*%
D31*
%TO.C,C6*%
X88878633Y-147259921D03*
X90353633Y-144705147D03*
%TD*%
D32*
%TO.C,C10*%
X195812200Y-270078200D03*
X192862200Y-270078200D03*
%TD*%
D33*
%TO.C,C9*%
X147259921Y-266721366D03*
X144705147Y-265246366D03*
%TD*%
D34*
%TO.C,C7*%
X85521799Y-195812200D03*
X85521799Y-192862200D03*
%TD*%
D35*
%TO.C,C15*%
X211766968Y-83407484D03*
D11*
X213932032Y-84657484D03*
%TD*%
D10*
%TO.C,C13*%
X276529800Y-160020000D03*
D11*
X276529800Y-162520000D03*
%TD*%
D10*
%TO.C,P10*%
X160019999Y-266474028D03*
D11*
X162559999Y-266474028D03*
X165099999Y-266474028D03*
X167639999Y-266474028D03*
X170179999Y-266474028D03*
X172719999Y-266474028D03*
X175259999Y-266474028D03*
X177799999Y-266474028D03*
X180339999Y-266474028D03*
X182879999Y-266474028D03*
X185419999Y-266474028D03*
X187959999Y-266474028D03*
X190499999Y-266474028D03*
X193039999Y-266474028D03*
X195579999Y-266474028D03*
%TD*%
D28*
%TO.C,P12*%
X245703961Y-237534946D03*
D11*
X246973961Y-235335241D03*
X248243961Y-233135537D03*
X249513961Y-230935832D03*
X250783961Y-228736128D03*
X252053961Y-226536423D03*
X253323961Y-224336719D03*
X254593961Y-222137014D03*
X255863961Y-219937309D03*
X257133961Y-217737605D03*
X258403961Y-215537900D03*
X259673961Y-213338196D03*
X260943961Y-211138491D03*
X262213961Y-208938787D03*
X263483961Y-206739082D03*
%TD*%
D10*
%TO.C,P7*%
X89125971Y-160020000D03*
D11*
X89125971Y-162560000D03*
X89125971Y-165100000D03*
X89125971Y-167640000D03*
X89125971Y-170180000D03*
X89125971Y-172720000D03*
X89125971Y-175260000D03*
X89125971Y-177800000D03*
X89125971Y-180340000D03*
X89125971Y-182880000D03*
X89125971Y-185420000D03*
X89125971Y-187960000D03*
X89125971Y-190500000D03*
X89125971Y-193040000D03*
X89125971Y-195580000D03*
%TD*%
D35*
%TO.C,P9*%
X118065053Y-245703961D03*
D11*
X120264758Y-246973961D03*
X122464462Y-248243961D03*
X124664167Y-249513961D03*
X126863871Y-250783961D03*
X129063576Y-252053961D03*
X131263280Y-253323961D03*
X133462985Y-254593961D03*
X135662690Y-255863961D03*
X137862394Y-257133961D03*
X140062099Y-258403961D03*
X142261803Y-259673961D03*
X144461508Y-260943961D03*
X146661212Y-262213961D03*
X148860917Y-263483961D03*
%TD*%
D29*
%TO.C,P11*%
X206739082Y-263483961D03*
D11*
X208938787Y-262213961D03*
X211138491Y-260943961D03*
X213338196Y-259673961D03*
X215537900Y-258403961D03*
X217737605Y-257133961D03*
X219937309Y-255863961D03*
X222137014Y-254593961D03*
X224336719Y-253323961D03*
X226536423Y-252053961D03*
X228736128Y-250783961D03*
X230935832Y-249513961D03*
X233135537Y-248243961D03*
X235335241Y-246973961D03*
X237534946Y-245703961D03*
%TD*%
D20*
%TO.C,P5*%
X148860917Y-92116038D03*
D11*
X146661212Y-93386038D03*
X144461508Y-94656038D03*
X142261803Y-95926038D03*
X140062099Y-97196038D03*
X137862394Y-98466038D03*
X135662690Y-99736038D03*
X133462985Y-101006038D03*
X131263280Y-102276038D03*
X129063576Y-103546038D03*
X126863871Y-104816038D03*
X124664167Y-106086038D03*
X122464462Y-107356038D03*
X120264758Y-108626038D03*
X118065053Y-109896038D03*
%TD*%
D10*
%TO.C,P4*%
X195580000Y-89125971D03*
D11*
X193040000Y-89125971D03*
X190500000Y-89125971D03*
X187960000Y-89125971D03*
X185420000Y-89125971D03*
X182880000Y-89125971D03*
X180340000Y-89125971D03*
X177800000Y-89125971D03*
X175260000Y-89125971D03*
X172720000Y-89125971D03*
X170180000Y-89125971D03*
X167640000Y-89125971D03*
X165100000Y-89125971D03*
X162560000Y-89125971D03*
X160020000Y-89125971D03*
%TD*%
D10*
%TO.C,P1*%
X266474028Y-195580000D03*
D11*
X266474028Y-193040000D03*
X266474028Y-190500000D03*
X266474028Y-187960000D03*
X266474028Y-185420000D03*
X266474028Y-182880000D03*
X266474028Y-180340000D03*
X266474028Y-177800000D03*
X266474028Y-175260000D03*
X266474028Y-172720000D03*
X266474028Y-170180000D03*
X266474028Y-167640000D03*
X266474028Y-165100000D03*
X266474028Y-162560000D03*
X266474028Y-160020000D03*
%TD*%
D17*
%TO.C,P6*%
X109896038Y-118065053D03*
D11*
X108626038Y-120264758D03*
X107356038Y-122464462D03*
X106086038Y-124664167D03*
X104816038Y-126863871D03*
X103546038Y-129063576D03*
X102276038Y-131263280D03*
X101006038Y-133462985D03*
X99736038Y-135662690D03*
X98466038Y-137862394D03*
X97196038Y-140062099D03*
X95926038Y-142261803D03*
X94656038Y-144461508D03*
X93386038Y-146661212D03*
X92116038Y-148860917D03*
%TD*%
D27*
%TO.C,P8*%
X92116038Y-206739082D03*
D11*
X93386038Y-208938787D03*
X94656038Y-211138491D03*
X95926038Y-213338196D03*
X97196038Y-215537900D03*
X98466038Y-217737605D03*
X99736038Y-219937309D03*
X101006038Y-222137014D03*
X102276038Y-224336719D03*
X103546038Y-226536423D03*
X104816038Y-228736128D03*
X106086038Y-230935832D03*
X107356038Y-233135537D03*
X108626038Y-235335241D03*
X109896038Y-237534946D03*
%TD*%
D30*
%TO.C,P2*%
X263483961Y-148860917D03*
D11*
X262213961Y-146661212D03*
X260943961Y-144461508D03*
X259673961Y-142261803D03*
X258403961Y-140062099D03*
X257133961Y-137862394D03*
X255863961Y-135662690D03*
X254593961Y-133462985D03*
X253323961Y-131263280D03*
X252053961Y-129063576D03*
X250783961Y-126863871D03*
X249513961Y-124664167D03*
X248243961Y-122464462D03*
X246973961Y-120264758D03*
X245703961Y-118065053D03*
%TD*%
D22*
%TO.C,P3*%
X237534946Y-109896038D03*
D11*
X235335241Y-108626038D03*
X233135537Y-107356038D03*
X230935832Y-106086038D03*
X228736128Y-104816038D03*
X226536423Y-103546038D03*
X224336719Y-102276038D03*
X222137014Y-101006038D03*
X219937309Y-99736038D03*
X217737605Y-98466038D03*
X215537900Y-97196038D03*
X213338196Y-95926038D03*
X211138491Y-94656038D03*
X208938787Y-93386038D03*
X206739082Y-92116038D03*
%TD*%
M02*
