%TF.GenerationSoftware,KiCad,Pcbnew,8.0.6-8.0.6-0~ubuntu22.04.1*%
%TF.CreationDate,2024-12-20T11:09:35-08:00*%
%TF.ProjectId,arena_top_12-12,6172656e-615f-4746-9f70-5f31322d3132,rev?*%
%TF.SameCoordinates,Original*%
%TF.FileFunction,Legend,Bot*%
%TF.FilePolarity,Positive*%
%FSLAX46Y46*%
G04 Gerber Fmt 4.6, Leading zero omitted, Abs format (unit mm)*
G04 Created by KiCad (PCBNEW 8.0.6-8.0.6-0~ubuntu22.04.1) date 2024-12-20 11:09:35*
%MOMM*%
%LPD*%
G01*
G04 APERTURE LIST*
G04 Aperture macros list*
%AMRotRect*
0 Rectangle, with rotation*
0 The origin of the aperture is its center*
0 $1 length*
0 $2 width*
0 $3 Rotation angle, in degrees counterclockwise*
0 Add horizontal line*
21,1,$1,$2,0,0,$3*%
G04 Aperture macros list end*
%ADD10C,0.304800*%
%ADD11C,0.381000*%
%ADD12R,1.600000X1.600000*%
%ADD13C,1.600000*%
%ADD14C,9.000000*%
%ADD15C,3.556000*%
%ADD16C,1.930400*%
%ADD17C,4.064000*%
%ADD18RotRect,1.600000X1.600000X240.000000*%
%ADD19RotRect,1.600000X1.600000X210.000000*%
%ADD20RotRect,1.600000X1.600000X150.000000*%
%ADD21RotRect,1.600000X1.600000X300.000000*%
%ADD22RotRect,1.600000X1.600000X60.000000*%
%ADD23RotRect,1.600000X1.600000X30.000000*%
%ADD24RotRect,1.600000X1.600000X120.000000*%
%ADD25RotRect,1.600000X1.600000X330.000000*%
G04 APERTURE END LIST*
D10*
X199150570Y-271663209D02*
X199150570Y-270139209D01*
X199150570Y-270139209D02*
X198569999Y-270139209D01*
X198569999Y-270139209D02*
X198424856Y-270211780D01*
X198424856Y-270211780D02*
X198352285Y-270284352D01*
X198352285Y-270284352D02*
X198279713Y-270429495D01*
X198279713Y-270429495D02*
X198279713Y-270647209D01*
X198279713Y-270647209D02*
X198352285Y-270792352D01*
X198352285Y-270792352D02*
X198424856Y-270864923D01*
X198424856Y-270864923D02*
X198569999Y-270937495D01*
X198569999Y-270937495D02*
X199150570Y-270937495D01*
X196828285Y-271663209D02*
X197699142Y-271663209D01*
X197263713Y-271663209D02*
X197263713Y-270139209D01*
X197263713Y-270139209D02*
X197408856Y-270356923D01*
X197408856Y-270356923D02*
X197553999Y-270502066D01*
X197553999Y-270502066D02*
X197699142Y-270574638D01*
X195884856Y-270139209D02*
X195739713Y-270139209D01*
X195739713Y-270139209D02*
X195594570Y-270211780D01*
X195594570Y-270211780D02*
X195521999Y-270284352D01*
X195521999Y-270284352D02*
X195449427Y-270429495D01*
X195449427Y-270429495D02*
X195376856Y-270719780D01*
X195376856Y-270719780D02*
X195376856Y-271082638D01*
X195376856Y-271082638D02*
X195449427Y-271372923D01*
X195449427Y-271372923D02*
X195521999Y-271518066D01*
X195521999Y-271518066D02*
X195594570Y-271590638D01*
X195594570Y-271590638D02*
X195739713Y-271663209D01*
X195739713Y-271663209D02*
X195884856Y-271663209D01*
X195884856Y-271663209D02*
X196029999Y-271590638D01*
X196029999Y-271590638D02*
X196102570Y-271518066D01*
X196102570Y-271518066D02*
X196175141Y-271372923D01*
X196175141Y-271372923D02*
X196247713Y-271082638D01*
X196247713Y-271082638D02*
X196247713Y-270719780D01*
X196247713Y-270719780D02*
X196175141Y-270429495D01*
X196175141Y-270429495D02*
X196102570Y-270284352D01*
X196102570Y-270284352D02*
X196029999Y-270211780D01*
X196029999Y-270211780D02*
X195884856Y-270139209D01*
X269763209Y-206241467D02*
X268443386Y-205479467D01*
X268443386Y-205479467D02*
X268153101Y-205982257D01*
X268153101Y-205982257D02*
X268143378Y-206144240D01*
X268143378Y-206144240D02*
X268169941Y-206243374D01*
X268169941Y-206243374D02*
X268259353Y-206378794D01*
X268259353Y-206378794D02*
X268447899Y-206487651D01*
X268447899Y-206487651D02*
X268609882Y-206497374D01*
X268609882Y-206497374D02*
X268709016Y-206470811D01*
X268709016Y-206470811D02*
X268844436Y-206381399D01*
X268844436Y-206381399D02*
X269134722Y-205878610D01*
X268602066Y-208252625D02*
X269037495Y-207498441D01*
X268819780Y-207875533D02*
X267499958Y-207113533D01*
X267499958Y-207113533D02*
X267761075Y-207096693D01*
X267761075Y-207096693D02*
X267959344Y-207043567D01*
X267959344Y-207043567D02*
X268094764Y-206954155D01*
X267117655Y-208065987D02*
X267018521Y-208092550D01*
X267018521Y-208092550D02*
X266883100Y-208181961D01*
X266883100Y-208181961D02*
X266701672Y-208496205D01*
X266701672Y-208496205D02*
X266691949Y-208658188D01*
X266691949Y-208658188D02*
X266718512Y-208757323D01*
X266718512Y-208757323D02*
X266807924Y-208892743D01*
X266807924Y-208892743D02*
X266933621Y-208965314D01*
X266933621Y-208965314D02*
X267158453Y-209011323D01*
X267158453Y-209011323D02*
X268348066Y-208692567D01*
X268348066Y-208692567D02*
X267876352Y-209509600D01*
X85315152Y-196175143D02*
X83791152Y-196175143D01*
X83791152Y-196175143D02*
X83791152Y-196755714D01*
X83791152Y-196755714D02*
X83863723Y-196900857D01*
X83863723Y-196900857D02*
X83936295Y-196973428D01*
X83936295Y-196973428D02*
X84081438Y-197046000D01*
X84081438Y-197046000D02*
X84299152Y-197046000D01*
X84299152Y-197046000D02*
X84444295Y-196973428D01*
X84444295Y-196973428D02*
X84516866Y-196900857D01*
X84516866Y-196900857D02*
X84589438Y-196755714D01*
X84589438Y-196755714D02*
X84589438Y-196175143D01*
X83791152Y-197554000D02*
X83791152Y-198570000D01*
X83791152Y-198570000D02*
X85315152Y-197916857D01*
X148730043Y-269400352D02*
X149492043Y-268080529D01*
X149492043Y-268080529D02*
X148989254Y-267790243D01*
X148989254Y-267790243D02*
X148827271Y-267780520D01*
X148827271Y-267780520D02*
X148728136Y-267807083D01*
X148728136Y-267807083D02*
X148592716Y-267896495D01*
X148592716Y-267896495D02*
X148483859Y-268085041D01*
X148483859Y-268085041D02*
X148474136Y-268247024D01*
X148474136Y-268247024D02*
X148500699Y-268346159D01*
X148500699Y-268346159D02*
X148590111Y-268481579D01*
X148590111Y-268481579D02*
X149092901Y-268771865D01*
X147347372Y-268602066D02*
X147095977Y-268456923D01*
X147095977Y-268456923D02*
X147006565Y-268321503D01*
X147006565Y-268321503D02*
X146980003Y-268222368D01*
X146980003Y-268222368D02*
X146963162Y-267961251D01*
X146963162Y-267961251D02*
X147045456Y-267673570D01*
X147045456Y-267673570D02*
X147335742Y-267170781D01*
X147335742Y-267170781D02*
X147471162Y-267081369D01*
X147471162Y-267081369D02*
X147570297Y-267054806D01*
X147570297Y-267054806D02*
X147732280Y-267064529D01*
X147732280Y-267064529D02*
X147983675Y-267209672D01*
X147983675Y-267209672D02*
X148073086Y-267345092D01*
X148073086Y-267345092D02*
X148099649Y-267444226D01*
X148099649Y-267444226D02*
X148089927Y-267606209D01*
X148089927Y-267606209D02*
X147908498Y-267920453D01*
X147908498Y-267920453D02*
X147773078Y-268009865D01*
X147773078Y-268009865D02*
X147673943Y-268036428D01*
X147673943Y-268036428D02*
X147511960Y-268026705D01*
X147511960Y-268026705D02*
X147260565Y-267881562D01*
X147260565Y-267881562D02*
X147171154Y-267746142D01*
X147171154Y-267746142D02*
X147144591Y-267647007D01*
X147144591Y-267647007D02*
X147154314Y-267485024D01*
X243221741Y-248412637D02*
X242459741Y-247092814D01*
X242459741Y-247092814D02*
X241956952Y-247383100D01*
X241956952Y-247383100D02*
X241867540Y-247518520D01*
X241867540Y-247518520D02*
X241840977Y-247617655D01*
X241840977Y-247617655D02*
X241850700Y-247779638D01*
X241850700Y-247779638D02*
X241959557Y-247968184D01*
X241959557Y-247968184D02*
X242094977Y-248057596D01*
X242094977Y-248057596D02*
X242194112Y-248084159D01*
X242194112Y-248084159D02*
X242356095Y-248074436D01*
X242356095Y-248074436D02*
X242858884Y-247784150D01*
X241210583Y-249573780D02*
X241964767Y-249138351D01*
X241587675Y-249356066D02*
X240825675Y-248036243D01*
X240825675Y-248036243D02*
X241060230Y-248152218D01*
X241060230Y-248152218D02*
X241258499Y-248205344D01*
X241258499Y-248205344D02*
X241420482Y-248195621D01*
X239953609Y-250299495D02*
X240707793Y-249864066D01*
X240330701Y-250081780D02*
X239568701Y-248761958D01*
X239568701Y-248761958D02*
X239803255Y-248877932D01*
X239803255Y-248877932D02*
X240001524Y-248931058D01*
X240001524Y-248931058D02*
X240163507Y-248921335D01*
X115644235Y-106893344D02*
X114882235Y-105573521D01*
X114882235Y-105573521D02*
X114379445Y-105863807D01*
X114379445Y-105863807D02*
X114290034Y-105999227D01*
X114290034Y-105999227D02*
X114263471Y-106098361D01*
X114263471Y-106098361D02*
X114273193Y-106260344D01*
X114273193Y-106260344D02*
X114382050Y-106448890D01*
X114382050Y-106448890D02*
X114517471Y-106538302D01*
X114517471Y-106538302D02*
X114616605Y-106564865D01*
X114616605Y-106564865D02*
X114778588Y-106555142D01*
X114778588Y-106555142D02*
X115281378Y-106264857D01*
X112933925Y-106698378D02*
X113562412Y-106335521D01*
X113562412Y-106335521D02*
X113988118Y-106927722D01*
X113988118Y-106927722D02*
X113888984Y-106901159D01*
X113888984Y-106901159D02*
X113727000Y-106910882D01*
X113727000Y-106910882D02*
X113412757Y-107092311D01*
X113412757Y-107092311D02*
X113323345Y-107227731D01*
X113323345Y-107227731D02*
X113296782Y-107326865D01*
X113296782Y-107326865D02*
X113306505Y-107488848D01*
X113306505Y-107488848D02*
X113487934Y-107803092D01*
X113487934Y-107803092D02*
X113623354Y-107892503D01*
X113623354Y-107892503D02*
X113722488Y-107919066D01*
X113722488Y-107919066D02*
X113884471Y-107909344D01*
X113884471Y-107909344D02*
X114198715Y-107727915D01*
X114198715Y-107727915D02*
X114288126Y-107592495D01*
X114288126Y-107592495D02*
X114314689Y-107493361D01*
X159424856Y-85315152D02*
X159424856Y-83791152D01*
X159424856Y-83791152D02*
X158844285Y-83791152D01*
X158844285Y-83791152D02*
X158699142Y-83863723D01*
X158699142Y-83863723D02*
X158626571Y-83936295D01*
X158626571Y-83936295D02*
X158553999Y-84081438D01*
X158553999Y-84081438D02*
X158553999Y-84299152D01*
X158553999Y-84299152D02*
X158626571Y-84444295D01*
X158626571Y-84444295D02*
X158699142Y-84516866D01*
X158699142Y-84516866D02*
X158844285Y-84589438D01*
X158844285Y-84589438D02*
X159424856Y-84589438D01*
X157247714Y-84299152D02*
X157247714Y-85315152D01*
X157610571Y-83718581D02*
X157973428Y-84807152D01*
X157973428Y-84807152D02*
X157029999Y-84807152D01*
X271663209Y-157175143D02*
X270139209Y-157175143D01*
X270139209Y-157175143D02*
X270139209Y-157755714D01*
X270139209Y-157755714D02*
X270211780Y-157900857D01*
X270211780Y-157900857D02*
X270284352Y-157973428D01*
X270284352Y-157973428D02*
X270429495Y-158046000D01*
X270429495Y-158046000D02*
X270647209Y-158046000D01*
X270647209Y-158046000D02*
X270792352Y-157973428D01*
X270792352Y-157973428D02*
X270864923Y-157900857D01*
X270864923Y-157900857D02*
X270937495Y-157755714D01*
X270937495Y-157755714D02*
X270937495Y-157175143D01*
X271663209Y-159497428D02*
X271663209Y-158626571D01*
X271663209Y-159062000D02*
X270139209Y-159062000D01*
X270139209Y-159062000D02*
X270356923Y-158916857D01*
X270356923Y-158916857D02*
X270502066Y-158771714D01*
X270502066Y-158771714D02*
X270574638Y-158626571D01*
X88518201Y-147470916D02*
X87198378Y-146708916D01*
X87198378Y-146708916D02*
X86908092Y-147211705D01*
X86908092Y-147211705D02*
X86898369Y-147373688D01*
X86898369Y-147373688D02*
X86924932Y-147472823D01*
X86924932Y-147472823D02*
X87014344Y-147608243D01*
X87014344Y-147608243D02*
X87202890Y-147717100D01*
X87202890Y-147717100D02*
X87364873Y-147726823D01*
X87364873Y-147726823D02*
X87464008Y-147700260D01*
X87464008Y-147700260D02*
X87599428Y-147610848D01*
X87599428Y-147610848D02*
X87889714Y-147108058D01*
X86109806Y-148594377D02*
X86254949Y-148342982D01*
X86254949Y-148342982D02*
X86390369Y-148253570D01*
X86390369Y-148253570D02*
X86489504Y-148227007D01*
X86489504Y-148227007D02*
X86750621Y-148210167D01*
X86750621Y-148210167D02*
X87038302Y-148292461D01*
X87038302Y-148292461D02*
X87541091Y-148582747D01*
X87541091Y-148582747D02*
X87630503Y-148718167D01*
X87630503Y-148718167D02*
X87657066Y-148817301D01*
X87657066Y-148817301D02*
X87647343Y-148979284D01*
X87647343Y-148979284D02*
X87502201Y-149230679D01*
X87502201Y-149230679D02*
X87366780Y-149320091D01*
X87366780Y-149320091D02*
X87267646Y-149346654D01*
X87267646Y-149346654D02*
X87105663Y-149336931D01*
X87105663Y-149336931D02*
X86791419Y-149155503D01*
X86791419Y-149155503D02*
X86702008Y-149020082D01*
X86702008Y-149020082D02*
X86675445Y-148920948D01*
X86675445Y-148920948D02*
X86685167Y-148758965D01*
X86685167Y-148758965D02*
X86830310Y-148507570D01*
X86830310Y-148507570D02*
X86965730Y-148418158D01*
X86965730Y-148418158D02*
X87064865Y-148391595D01*
X87064865Y-148391595D02*
X87226848Y-148401318D01*
X106824503Y-242593254D02*
X108144326Y-241831254D01*
X108144326Y-241831254D02*
X107854040Y-241328464D01*
X107854040Y-241328464D02*
X107718620Y-241239053D01*
X107718620Y-241239053D02*
X107619486Y-241212490D01*
X107619486Y-241212490D02*
X107457503Y-241222212D01*
X107457503Y-241222212D02*
X107268957Y-241331069D01*
X107268957Y-241331069D02*
X107179545Y-241466490D01*
X107179545Y-241466490D02*
X107152982Y-241565624D01*
X107152982Y-241565624D02*
X107162705Y-241727607D01*
X107162705Y-241727607D02*
X107452990Y-242230397D01*
X106707831Y-240649456D02*
X106843251Y-240738868D01*
X106843251Y-240738868D02*
X106942385Y-240765431D01*
X106942385Y-240765431D02*
X107104368Y-240755708D01*
X107104368Y-240755708D02*
X107167217Y-240719423D01*
X107167217Y-240719423D02*
X107256629Y-240584003D01*
X107256629Y-240584003D02*
X107283192Y-240484868D01*
X107283192Y-240484868D02*
X107273469Y-240322885D01*
X107273469Y-240322885D02*
X107128326Y-240071490D01*
X107128326Y-240071490D02*
X106992906Y-239982079D01*
X106992906Y-239982079D02*
X106893771Y-239955516D01*
X106893771Y-239955516D02*
X106731788Y-239965238D01*
X106731788Y-239965238D02*
X106668940Y-240001524D01*
X106668940Y-240001524D02*
X106579528Y-240136944D01*
X106579528Y-240136944D02*
X106552965Y-240236079D01*
X106552965Y-240236079D02*
X106562688Y-240398062D01*
X106562688Y-240398062D02*
X106707831Y-240649456D01*
X106707831Y-240649456D02*
X106717553Y-240811440D01*
X106717553Y-240811440D02*
X106690990Y-240910574D01*
X106690990Y-240910574D02*
X106601579Y-241045994D01*
X106601579Y-241045994D02*
X106350184Y-241191137D01*
X106350184Y-241191137D02*
X106188201Y-241200860D01*
X106188201Y-241200860D02*
X106089066Y-241174297D01*
X106089066Y-241174297D02*
X105953646Y-241084885D01*
X105953646Y-241084885D02*
X105808503Y-240833490D01*
X105808503Y-240833490D02*
X105798781Y-240671507D01*
X105798781Y-240671507D02*
X105825344Y-240572373D01*
X105825344Y-240572373D02*
X105914755Y-240436953D01*
X105914755Y-240436953D02*
X106166150Y-240291810D01*
X106166150Y-240291810D02*
X106328133Y-240282087D01*
X106328133Y-240282087D02*
X106427268Y-240308650D01*
X106427268Y-240308650D02*
X106562688Y-240398062D01*
X248706654Y-115644235D02*
X250026477Y-114882235D01*
X250026477Y-114882235D02*
X249736191Y-114379445D01*
X249736191Y-114379445D02*
X249600771Y-114290034D01*
X249600771Y-114290034D02*
X249501637Y-114263471D01*
X249501637Y-114263471D02*
X249339654Y-114273193D01*
X249339654Y-114273193D02*
X249151108Y-114382050D01*
X249151108Y-114382050D02*
X249061696Y-114517471D01*
X249061696Y-114517471D02*
X249035133Y-114616605D01*
X249035133Y-114616605D02*
X249044856Y-114778588D01*
X249044856Y-114778588D02*
X249335141Y-115281378D01*
X249175065Y-113697832D02*
X249201628Y-113598698D01*
X249201628Y-113598698D02*
X249191906Y-113436715D01*
X249191906Y-113436715D02*
X249010477Y-113122471D01*
X249010477Y-113122471D02*
X248875057Y-113033060D01*
X248875057Y-113033060D02*
X248775922Y-113006497D01*
X248775922Y-113006497D02*
X248613939Y-113016219D01*
X248613939Y-113016219D02*
X248488242Y-113088791D01*
X248488242Y-113088791D02*
X248335982Y-113260497D01*
X248335982Y-113260497D02*
X248017226Y-114450110D01*
X248017226Y-114450110D02*
X247545511Y-113633076D01*
X208129082Y-88518201D02*
X208891082Y-87198378D01*
X208891082Y-87198378D02*
X208388293Y-86908092D01*
X208388293Y-86908092D02*
X208226310Y-86898369D01*
X208226310Y-86898369D02*
X208127175Y-86924932D01*
X208127175Y-86924932D02*
X207991755Y-87014344D01*
X207991755Y-87014344D02*
X207882898Y-87202890D01*
X207882898Y-87202890D02*
X207873175Y-87364873D01*
X207873175Y-87364873D02*
X207899738Y-87464008D01*
X207899738Y-87464008D02*
X207989150Y-87599428D01*
X207989150Y-87599428D02*
X208491940Y-87889714D01*
X207696957Y-86508949D02*
X206879924Y-86037235D01*
X206879924Y-86037235D02*
X207029579Y-86794025D01*
X207029579Y-86794025D02*
X206841033Y-86685167D01*
X206841033Y-86685167D02*
X206679050Y-86675445D01*
X206679050Y-86675445D02*
X206579916Y-86702008D01*
X206579916Y-86702008D02*
X206444495Y-86791419D01*
X206444495Y-86791419D02*
X206263067Y-87105663D01*
X206263067Y-87105663D02*
X206253344Y-87267646D01*
X206253344Y-87267646D02*
X206279907Y-87366780D01*
X206279907Y-87366780D02*
X206369319Y-87502201D01*
X206369319Y-87502201D02*
X206746411Y-87719915D01*
X206746411Y-87719915D02*
X206908394Y-87729638D01*
X206908394Y-87729638D02*
X207007529Y-87703075D01*
%TO.C,P10*%
D11*
X157549999Y-269374028D02*
X198049999Y-269374028D01*
X198049999Y-254374028D01*
X157549999Y-254374028D01*
X157549999Y-269374028D01*
X158799999Y-267974028D02*
X196799999Y-267974028D01*
X196799999Y-264974028D01*
X158799999Y-264974028D01*
X158799999Y-267974028D01*
%TO.C,P12*%
X265392999Y-206432531D02*
X246392999Y-239341497D01*
X243794923Y-237841497D01*
X262794923Y-204932531D01*
X265392999Y-206432531D01*
X267230434Y-206050000D02*
X246980435Y-241124028D01*
X233990054Y-233624029D01*
X254240053Y-198550000D01*
X267230434Y-206050000D01*
%TO.C,P7*%
X86225971Y-157550000D02*
X101225971Y-157550000D01*
X101225971Y-198050000D01*
X86225971Y-198050000D01*
X86225971Y-157550000D01*
X87625971Y-158800000D02*
X90625971Y-158800000D01*
X90625971Y-196800000D01*
X87625971Y-196800000D01*
X87625971Y-158800000D01*
%TO.C,P9*%
X157049999Y-254240053D02*
X149549999Y-267230434D01*
X114475971Y-246980435D01*
X121975970Y-233990054D01*
X157049999Y-254240053D01*
X150667468Y-262794923D02*
X149167468Y-265392999D01*
X116258502Y-246392999D01*
X117758502Y-243794923D01*
X150667468Y-262794923D01*
%TO.C,P11*%
X241124028Y-246980435D02*
X206050000Y-267230434D01*
X198550000Y-254240053D01*
X233624029Y-233990054D01*
X241124028Y-246980435D01*
X239341497Y-246392999D02*
X206432531Y-265392999D01*
X204932531Y-262794923D01*
X237841497Y-243794923D01*
X239341497Y-246392999D01*
%TO.C,P5*%
X150667468Y-92805076D02*
X117758502Y-111805076D01*
X116258502Y-109207000D01*
X149167468Y-90207000D01*
X150667468Y-92805076D01*
X157049999Y-101359946D02*
X121975970Y-121609945D01*
X114475971Y-108619564D01*
X149549999Y-88369565D01*
X157049999Y-101359946D01*
%TO.C,P4*%
X196800000Y-87625971D02*
X158800000Y-87625971D01*
X158800000Y-90625971D01*
X196800000Y-90625971D01*
X196800000Y-87625971D01*
X198050000Y-86225971D02*
X157550000Y-86225971D01*
X157550000Y-101225971D01*
X198050000Y-101225971D01*
X198050000Y-86225971D01*
%TO.C,P1*%
X267974028Y-196800000D02*
X264974028Y-196800000D01*
X264974028Y-158800000D01*
X267974028Y-158800000D01*
X267974028Y-196800000D01*
X269374028Y-198050000D02*
X254374028Y-198050000D01*
X254374028Y-157550000D01*
X269374028Y-157550000D01*
X269374028Y-198050000D01*
%TO.C,P6*%
X121609945Y-121975970D02*
X101359946Y-157049999D01*
X88369565Y-149549999D01*
X108619564Y-114475971D01*
X121609945Y-121975970D01*
X111805076Y-117758502D02*
X92805076Y-150667468D01*
X90207000Y-149167468D01*
X109207000Y-116258502D01*
X111805076Y-117758502D01*
%TO.C,P8*%
X121609945Y-233624029D02*
X108619564Y-241124028D01*
X88369565Y-206050000D01*
X101359946Y-198550000D01*
X121609945Y-233624029D01*
X111805076Y-237841497D02*
X109207000Y-239341497D01*
X90207000Y-206432531D01*
X92805076Y-204932531D01*
X111805076Y-237841497D01*
%TO.C,P2*%
X265392999Y-149167468D02*
X262794923Y-150667468D01*
X243794923Y-117758502D01*
X246392999Y-116258502D01*
X265392999Y-149167468D01*
X267230434Y-149549999D02*
X254240054Y-157049999D01*
X233990054Y-121975971D01*
X246980435Y-114475971D01*
X267230434Y-149549999D01*
%TO.C,P3*%
X239341497Y-109207000D02*
X237841497Y-111805076D01*
X204932531Y-92805076D01*
X206432531Y-90207000D01*
X239341497Y-109207000D01*
X241124028Y-108619564D02*
X233624029Y-121609945D01*
X198550000Y-101359946D01*
X206050000Y-88369565D01*
X241124028Y-108619564D01*
%TD*%
%LPC*%
D12*
%TO.C,C16*%
X160020000Y-79070199D03*
D13*
X162520000Y-79070199D03*
%TD*%
D14*
%TO.C,H1*%
X76200000Y-76200000D03*
%TD*%
D15*
%TO.C,J4*%
X90504200Y-68506600D03*
D16*
X95000000Y-66500000D03*
D15*
X99495800Y-68506600D03*
D17*
X95000000Y-75491600D03*
D15*
X95000000Y-69497200D03*
%TD*%
D18*
%TO.C,C24*%
X272192515Y-211766968D03*
D13*
X270942515Y-213932032D03*
%TD*%
D19*
%TO.C,C23*%
X242562832Y-254412515D03*
D13*
X240397768Y-255662515D03*
%TD*%
D12*
%TO.C,C19*%
X79070199Y-195580000D03*
D13*
X79070199Y-193080000D03*
%TD*%
D20*
%TO.C,C21*%
X143833031Y-272192515D03*
D13*
X141667967Y-270942515D03*
%TD*%
D12*
%TO.C,C22*%
X195579999Y-276529800D03*
D13*
X193079999Y-276529800D03*
%TD*%
D14*
%TO.C,H3*%
X279400000Y-279400000D03*
%TD*%
%TO.C,H4*%
X76200000Y-279400000D03*
%TD*%
D21*
%TO.C,C14*%
X254412515Y-113037167D03*
D13*
X255662515Y-115202231D03*
%TD*%
D14*
%TO.C,H2*%
X279400000Y-76200000D03*
%TD*%
D22*
%TO.C,C18*%
X83407484Y-143833031D03*
D13*
X84657484Y-141667967D03*
%TD*%
D23*
%TO.C,C17*%
X113037167Y-101187484D03*
D13*
X115202231Y-99937484D03*
%TD*%
D24*
%TO.C,C20*%
X101187484Y-242562832D03*
D13*
X99937484Y-240397768D03*
%TD*%
D25*
%TO.C,C15*%
X211766968Y-83407484D03*
D13*
X213932032Y-84657484D03*
%TD*%
D12*
%TO.C,C13*%
X276529800Y-160020000D03*
D13*
X276529800Y-162520000D03*
%TD*%
D12*
%TO.C,P10*%
X160019999Y-266474028D03*
D13*
X162559999Y-266474028D03*
X165099999Y-266474028D03*
X167639999Y-266474028D03*
X170179999Y-266474028D03*
X172719999Y-266474028D03*
X175259999Y-266474028D03*
X177799999Y-266474028D03*
X180339999Y-266474028D03*
X182879999Y-266474028D03*
X185419999Y-266474028D03*
X187959999Y-266474028D03*
X190499999Y-266474028D03*
X193039999Y-266474028D03*
X195579999Y-266474028D03*
%TD*%
D22*
%TO.C,P12*%
X245703961Y-237534946D03*
D13*
X246973961Y-235335241D03*
X248243961Y-233135537D03*
X249513961Y-230935832D03*
X250783961Y-228736128D03*
X252053961Y-226536423D03*
X253323961Y-224336719D03*
X254593961Y-222137014D03*
X255863961Y-219937309D03*
X257133961Y-217737605D03*
X258403961Y-215537900D03*
X259673961Y-213338196D03*
X260943961Y-211138491D03*
X262213961Y-208938787D03*
X263483961Y-206739082D03*
%TD*%
D12*
%TO.C,P7*%
X89125971Y-160020000D03*
D13*
X89125971Y-162560000D03*
X89125971Y-165100000D03*
X89125971Y-167640000D03*
X89125971Y-170180000D03*
X89125971Y-172720000D03*
X89125971Y-175260000D03*
X89125971Y-177800000D03*
X89125971Y-180340000D03*
X89125971Y-182880000D03*
X89125971Y-185420000D03*
X89125971Y-187960000D03*
X89125971Y-190500000D03*
X89125971Y-193040000D03*
X89125971Y-195580000D03*
%TD*%
D25*
%TO.C,P9*%
X118065053Y-245703961D03*
D13*
X120264758Y-246973961D03*
X122464462Y-248243961D03*
X124664167Y-249513961D03*
X126863871Y-250783961D03*
X129063576Y-252053961D03*
X131263280Y-253323961D03*
X133462985Y-254593961D03*
X135662690Y-255863961D03*
X137862394Y-257133961D03*
X140062099Y-258403961D03*
X142261803Y-259673961D03*
X144461508Y-260943961D03*
X146661212Y-262213961D03*
X148860917Y-263483961D03*
%TD*%
D23*
%TO.C,P11*%
X206739082Y-263483961D03*
D13*
X208938787Y-262213961D03*
X211138491Y-260943961D03*
X213338196Y-259673961D03*
X215537900Y-258403961D03*
X217737605Y-257133961D03*
X219937309Y-255863961D03*
X222137014Y-254593961D03*
X224336719Y-253323961D03*
X226536423Y-252053961D03*
X228736128Y-250783961D03*
X230935832Y-249513961D03*
X233135537Y-248243961D03*
X235335241Y-246973961D03*
X237534946Y-245703961D03*
%TD*%
D19*
%TO.C,P5*%
X148860917Y-92116038D03*
D13*
X146661212Y-93386038D03*
X144461508Y-94656038D03*
X142261803Y-95926038D03*
X140062099Y-97196038D03*
X137862394Y-98466038D03*
X135662690Y-99736038D03*
X133462985Y-101006038D03*
X131263280Y-102276038D03*
X129063576Y-103546038D03*
X126863871Y-104816038D03*
X124664167Y-106086038D03*
X122464462Y-107356038D03*
X120264758Y-108626038D03*
X118065053Y-109896038D03*
%TD*%
D12*
%TO.C,P4*%
X195580000Y-89125971D03*
D13*
X193040000Y-89125971D03*
X190500000Y-89125971D03*
X187960000Y-89125971D03*
X185420000Y-89125971D03*
X182880000Y-89125971D03*
X180340000Y-89125971D03*
X177800000Y-89125971D03*
X175260000Y-89125971D03*
X172720000Y-89125971D03*
X170180000Y-89125971D03*
X167640000Y-89125971D03*
X165100000Y-89125971D03*
X162560000Y-89125971D03*
X160020000Y-89125971D03*
%TD*%
D12*
%TO.C,P1*%
X266474028Y-195580000D03*
D13*
X266474028Y-193040000D03*
X266474028Y-190500000D03*
X266474028Y-187960000D03*
X266474028Y-185420000D03*
X266474028Y-182880000D03*
X266474028Y-180340000D03*
X266474028Y-177800000D03*
X266474028Y-175260000D03*
X266474028Y-172720000D03*
X266474028Y-170180000D03*
X266474028Y-167640000D03*
X266474028Y-165100000D03*
X266474028Y-162560000D03*
X266474028Y-160020000D03*
%TD*%
D18*
%TO.C,P6*%
X109896038Y-118065053D03*
D13*
X108626038Y-120264758D03*
X107356038Y-122464462D03*
X106086038Y-124664167D03*
X104816038Y-126863871D03*
X103546038Y-129063576D03*
X102276038Y-131263280D03*
X101006038Y-133462985D03*
X99736038Y-135662690D03*
X98466038Y-137862394D03*
X97196038Y-140062099D03*
X95926038Y-142261803D03*
X94656038Y-144461508D03*
X93386038Y-146661212D03*
X92116038Y-148860917D03*
%TD*%
D21*
%TO.C,P8*%
X92116038Y-206739082D03*
D13*
X93386038Y-208938787D03*
X94656038Y-211138491D03*
X95926038Y-213338196D03*
X97196038Y-215537900D03*
X98466038Y-217737605D03*
X99736038Y-219937309D03*
X101006038Y-222137014D03*
X102276038Y-224336719D03*
X103546038Y-226536423D03*
X104816038Y-228736128D03*
X106086038Y-230935832D03*
X107356038Y-233135537D03*
X108626038Y-235335241D03*
X109896038Y-237534946D03*
%TD*%
D24*
%TO.C,P2*%
X263483961Y-148860917D03*
D13*
X262213961Y-146661212D03*
X260943961Y-144461508D03*
X259673961Y-142261803D03*
X258403961Y-140062099D03*
X257133961Y-137862394D03*
X255863961Y-135662690D03*
X254593961Y-133462985D03*
X253323961Y-131263280D03*
X252053961Y-129063576D03*
X250783961Y-126863871D03*
X249513961Y-124664167D03*
X248243961Y-122464462D03*
X246973961Y-120264758D03*
X245703961Y-118065053D03*
%TD*%
D20*
%TO.C,P3*%
X237534946Y-109896038D03*
D13*
X235335241Y-108626038D03*
X233135537Y-107356038D03*
X230935832Y-106086038D03*
X228736128Y-104816038D03*
X226536423Y-103546038D03*
X224336719Y-102276038D03*
X222137014Y-101006038D03*
X219937309Y-99736038D03*
X217737605Y-98466038D03*
X215537900Y-97196038D03*
X213338196Y-95926038D03*
X211138491Y-94656038D03*
X208938787Y-93386038D03*
X206739082Y-92116038D03*
%TD*%
%LPD*%
M02*
